%FSDAX25Y25*%
%MOIN*%
%SFA1B1*%

%IPPOS*%
%ADD37R,0.041340X0.080710*%
%ADD38R,0.016140X0.069290*%
%ADD39C,0.100390*%
%ADD40C,0.043310*%
%ADD41C,0.084650*%
%ADD42C,0.064840*%
%ADD43C,0.127950*%
%ADD44C,0.167320*%
%ADD45C,0.064960*%
%LNbigstructuralpcb-1*%
%LPD*%
G36*
X0403117Y0287336D02*
X0404973Y0286773D01*
X0406683Y0285859*
X0408181Y0284629*
X0409411Y0283130*
X0410325Y0281420*
X0410888Y0279565*
X0411078Y0277635*
X0410888Y0275706*
X0410325Y0273851*
X0409411Y0272141*
X0408181Y0270642*
X0406683Y0269412*
X0404973Y0268498*
X0403117Y0267935*
X0401188Y0267745*
X0399258Y0267935*
X0397403Y0268498*
X0395693Y0269412*
X0394195Y0270642*
X0392965Y0272141*
X0392051Y0273851*
X0391488Y0275706*
X0391298Y0277635*
X0391488Y0279565*
X0392051Y0281420*
X0392965Y0283130*
X0394195Y0284629*
X0395693Y0285859*
X0397403Y0286773*
X0399258Y0287336*
X0401188Y0287526*
X0403117Y0287336*
G37*
G36*
X0236566D02*
X0238421Y0286773D01*
X0240131Y0285859*
X0241630Y0284629*
X0242860Y0283130*
X0243774Y0281420*
X0244336Y0279565*
X0244527Y0277635*
X0244336Y0275706*
X0243774Y0273851*
X0242860Y0272141*
X0241630Y0270642*
X0240131Y0269412*
X0238421Y0268498*
X0236566Y0267935*
X0234636Y0267745*
X0232707Y0267935*
X0230852Y0268498*
X0229142Y0269412*
X0227643Y0270642*
X0226413Y0272141*
X0225499Y0273851*
X0224936Y0275706*
X0224746Y0277635*
X0224936Y0279565*
X0225499Y0281420*
X0226413Y0283130*
X0227643Y0284629*
X0229142Y0285859*
X0230852Y0286773*
X0232707Y0287336*
X0234636Y0287526*
X0236566Y0287336*
G37*
G36*
X1797255Y0279203D02*
X1799695Y0278617D01*
X1802014Y0277657*
X1804154Y0276345*
X1806063Y0274715*
X1807693Y0272806*
X1809005Y0270666*
X1809965Y0268347*
X1810551Y0265907*
X1810748Y0263404*
X1810551Y0260902*
X1809965Y0258461*
X1809846Y0258173*
X1809820Y0258183*
X1809819*
X1809820*
X1809819Y0258181*
Y0258183*
Y0258181*
X1792213Y0207378*
X1792212Y0207377*
X1792213Y0207378*
Y0207377*
Y0207378*
X1792239Y0207367*
X1791398Y0205336*
X1790086Y0203196*
X1788456Y0201288*
X1786547Y0199657*
X1784407Y0198346*
X1782088Y0197386*
X1779648Y0196800*
X1777145Y0196603*
X1774643Y0196800*
X1772202Y0197386*
X1771914Y0197505*
X1769883Y0198346*
X1767743Y0199657*
X1765835Y0201288*
X1764204Y0203196*
X1762893Y0205336*
X1761933Y0207655*
X1761346Y0210096*
X1761150Y0212598*
X1761346Y0215101*
X1761933Y0217541*
X1762052Y0217829*
X1762078Y0217821*
Y0217820*
Y0217821*
X1779684Y0268625*
X1779685Y0268626*
X1779659Y0268635*
X1780500Y0270666*
X1781811Y0272806*
X1783442Y0274715*
X1785350Y0276345*
X1787490Y0277657*
X1789809Y0278617*
X1792250Y0279203*
X1794752Y0279400*
X1797255Y0279203*
G37*
G36*
X0779873Y0287336D02*
X0781729Y0286773D01*
X0783438Y0285859*
X0784937Y0284629*
X0786167Y0283130*
X0787081Y0281420*
X0787644Y0279565*
X0787834Y0277635*
X0787644Y0275706*
X0787081Y0273851*
X0786167Y0272141*
X0784937Y0270642*
X0783438Y0269412*
X0781729Y0268498*
X0779873Y0267935*
X0777944Y0267745*
X0776014Y0267935*
X0774159Y0268498*
X0772449Y0269412*
X0770950Y0270642*
X0769720Y0272141*
X0768806Y0273851*
X0768244Y0275706*
X0768053Y0277635*
X0768244Y0279565*
X0768806Y0281420*
X0769720Y0283130*
X0770950Y0284629*
X0772449Y0285859*
X0774159Y0286773*
X0776014Y0287336*
X0777944Y0287526*
X0779873Y0287336*
G37*
G36*
X0674771D02*
X0676626Y0286773D01*
X0678336Y0285859*
X0679835Y0284629*
X0681065Y0283130*
X0681979Y0281420*
X0682542Y0279565*
X0682732Y0277635*
X0682542Y0275706*
X0681979Y0273851*
X0681065Y0272141*
X0679835Y0270642*
X0678336Y0269412*
X0676626Y0268498*
X0674771Y0267935*
X0672842Y0267745*
X0670912Y0267935*
X0669057Y0268498*
X0667347Y0269412*
X0665848Y0270642*
X0664618Y0272141*
X0663704Y0273851*
X0663141Y0275706*
X0662952Y0277635*
X0663141Y0279565*
X0663704Y0281420*
X0664618Y0283130*
X0665848Y0284629*
X0667347Y0285859*
X0669057Y0286773*
X0670912Y0287336*
X0672842Y0287526*
X0674771Y0287336*
G37*
G36*
X0508219D02*
X0510075Y0286773D01*
X0511785Y0285859*
X0513283Y0284629*
X0514513Y0283130*
X0515427Y0281420*
X0515990Y0279565*
X0516180Y0277635*
X0515990Y0275706*
X0515427Y0273851*
X0514513Y0272141*
X0513283Y0270642*
X0511785Y0269412*
X0510075Y0268498*
X0508219Y0267935*
X0506290Y0267745*
X0504360Y0267935*
X0502505Y0268498*
X0500795Y0269412*
X0499297Y0270642*
X0498067Y0272141*
X0497153Y0273851*
X0496590Y0275706*
X0496400Y0277635*
X0496590Y0279565*
X0497153Y0281420*
X0498067Y0283130*
X0499297Y0284629*
X0500795Y0285859*
X0502505Y0286773*
X0504360Y0287336*
X0506290Y0287526*
X0508219Y0287336*
G37*
G36*
X1330649Y0265784D02*
X1332505Y0265221D01*
X1334215Y0264307*
X1335713Y0263077*
X1336943Y0261578*
X1337857Y0259869*
X1338420Y0258013*
X1338610Y0256084*
X1338420Y0254154*
X1337857Y0252299*
X1336943Y0250589*
X1335713Y0249090*
X1334215Y0247860*
X1332505Y0246946*
X1330649Y0246384*
X1328720Y0246194*
X1326791Y0246384*
X1324935Y0246946*
X1323225Y0247860*
X1321727Y0249090*
X1320497Y0250589*
X1319583Y0252299*
X1319020Y0254154*
X1318830Y0256084*
X1319020Y0258013*
X1319583Y0259869*
X1320497Y0261578*
X1321727Y0263077*
X1323225Y0264307*
X1324935Y0265221*
X1326791Y0265784*
X1328720Y0265974*
X1330649Y0265784*
G37*
G36*
X1210610D02*
X1212465Y0265221D01*
X1214175Y0264307*
X1215674Y0263077*
X1216904Y0261578*
X1217817Y0259869*
X1218380Y0258013*
X1218570Y0256084*
X1218380Y0254154*
X1217817Y0252299*
X1216904Y0250589*
X1215674Y0249090*
X1214175Y0247860*
X1212465Y0246946*
X1210610Y0246384*
X1208680Y0246194*
X1206751Y0246384*
X1204895Y0246946*
X1203185Y0247860*
X1201687Y0249090*
X1200457Y0250589*
X1199543Y0252299*
X1198980Y0254154*
X1198790Y0256084*
X1198980Y0258013*
X1199543Y0259869*
X1200457Y0261578*
X1201687Y0263077*
X1203185Y0264307*
X1204895Y0265221*
X1206751Y0265784*
X1208680Y0265974*
X1210610Y0265784*
G37*
G36*
X1058996D02*
X1060851Y0265221D01*
X1062561Y0264307*
X1064060Y0263077*
X1065290Y0261578*
X1066203Y0259869*
X1066766Y0258013*
X1066956Y0256084*
X1066766Y0254154*
X1066203Y0252299*
X1065290Y0250589*
X1064060Y0249090*
X1062561Y0247860*
X1060851Y0246946*
X1058996Y0246384*
X1057066Y0246194*
X1055137Y0246384*
X1053281Y0246946*
X1051572Y0247860*
X1050073Y0249090*
X1048843Y0250589*
X1047929Y0252299*
X1047366Y0254154*
X1047176Y0256084*
X1047366Y0258013*
X1047929Y0259869*
X1048843Y0261578*
X1050073Y0263077*
X1051572Y0264307*
X1053281Y0265221*
X1055137Y0265784*
X1057066Y0265974*
X1058996Y0265784*
G37*
G36*
X1753917D02*
X1755772Y0265221D01*
X1757482Y0264307*
X1758981Y0263077*
X1760211Y0261578*
X1761125Y0259869*
X1761688Y0258013*
X1761878Y0256084*
X1761688Y0254154*
X1761125Y0252299*
X1760211Y0250589*
X1758981Y0249090*
X1757482Y0247860*
X1755772Y0246946*
X1753917Y0246384*
X1751988Y0246194*
X1750058Y0246384*
X1748203Y0246946*
X1746493Y0247860*
X1744994Y0249090*
X1743764Y0250589*
X1742850Y0252299*
X1742287Y0254154*
X1742097Y0256084*
X1742287Y0258013*
X1742850Y0259869*
X1743764Y0261578*
X1744994Y0263077*
X1746493Y0264307*
X1748203Y0265221*
X1750058Y0265784*
X1751988Y0265974*
X1753917Y0265784*
G37*
G36*
X1602303D02*
X1604158Y0265221D01*
X1605868Y0264307*
X1607367Y0263077*
X1608597Y0261578*
X1609511Y0259869*
X1610074Y0258013*
X1610264Y0256084*
X1610074Y0254154*
X1609511Y0252299*
X1608597Y0250589*
X1607367Y0249090*
X1605868Y0247860*
X1604158Y0246946*
X1602303Y0246384*
X1600374Y0246194*
X1598444Y0246384*
X1596589Y0246946*
X1594879Y0247860*
X1593380Y0249090*
X1592150Y0250589*
X1591236Y0252299*
X1590674Y0254154*
X1590483Y0256084*
X1590674Y0258013*
X1591236Y0259869*
X1592150Y0261578*
X1593380Y0263077*
X1594879Y0264307*
X1596589Y0265221*
X1598444Y0265784*
X1600374Y0265974*
X1602303Y0265784*
G37*
G36*
X1482263D02*
X1484119Y0265221D01*
X1485829Y0264307*
X1487327Y0263077*
X1488557Y0261578*
X1489471Y0259869*
X1490034Y0258013*
X1490224Y0256084*
X1490034Y0254154*
X1489471Y0252299*
X1488557Y0250589*
X1487327Y0249090*
X1485829Y0247860*
X1484119Y0246946*
X1482263Y0246384*
X1480334Y0246194*
X1478404Y0246384*
X1476549Y0246946*
X1474839Y0247860*
X1473341Y0249090*
X1472110Y0250589*
X1471197Y0252299*
X1470634Y0254154*
X1470444Y0256084*
X1470634Y0258013*
X1471197Y0259869*
X1472110Y0261578*
X1473341Y0263077*
X1474839Y0264307*
X1476549Y0265221*
X1478404Y0265784*
X1480334Y0265974*
X1482263Y0265784*
G37*
G36*
X0473465Y0279006D02*
X0475876Y0278428D01*
X0478166Y0277479*
X0480279Y0276184*
X0482164Y0274574*
X0483774Y0272689*
X0485069Y0270576*
X0485900Y0268570*
X0485874Y0268561*
X0503507Y0217764*
X0503625Y0217480*
X0504203Y0215069*
X0504398Y0212598*
X0504203Y0210127*
X0503625Y0207717*
X0502676Y0205427*
X0501381Y0203313*
X0499771Y0201428*
X0497886Y0199819*
X0495773Y0198523*
X0493483Y0197575*
X0491072Y0196996*
X0488601Y0196801*
X0486130Y0196996*
X0483720Y0197575*
X0481430Y0198523*
X0479316Y0199819*
X0477431Y0201428*
X0475821Y0203313*
X0474526Y0205427*
X0473695Y0207433*
X0473721Y0207442*
X0460709Y0245011*
X0460422Y0245705*
X0459790Y0246527*
X0458968Y0247158*
X0458010Y0247555*
X0456983Y0247690*
Y0247656*
X0450495Y0247690*
X0449468Y0247555*
X0448510Y0247158*
X0447688Y0246527*
X0447056Y0245705*
X0446769Y0245011*
X0446775Y0245008*
X0433783Y0207433*
X0432952Y0205427*
X0431657Y0203313*
X0430047Y0201428*
X0428162Y0199819*
X0426048Y0198523*
X0423758Y0197575*
X0421348Y0196996*
X0418877Y0196801*
X0416406Y0196996*
X0413995Y0197575*
X0411705Y0198523*
X0409592Y0199819*
X0407707Y0201428*
X0406097Y0203313*
X0404802Y0205427*
X0403853Y0207717*
X0403275Y0210127*
X0403080Y0212598*
X0403275Y0215069*
X0403853Y0217480*
X0403971Y0217764*
X0403997Y0217755*
X0421604Y0268561*
X0421578Y0268570*
X0422409Y0270576*
X0423704Y0272689*
X0425314Y0274574*
X0427199Y0276184*
X0429312Y0277479*
X0431602Y0278428*
X0434013Y0279006*
X0436484Y0279201*
Y0279152*
X0470994Y0279201*
X0473465Y0279006*
G37*
G36*
X1761386Y0287336D02*
X1763241Y0286773D01*
X1764951Y0285859*
X1766450Y0284629*
X1767680Y0283130*
X1768594Y0281420*
X1769156Y0279565*
X1769347Y0277635*
X1769156Y0275706*
X1768594Y0273851*
X1767680Y0272141*
X1766450Y0270642*
X1764951Y0269412*
X1763241Y0268498*
X1761386Y0267935*
X1759456Y0267745*
X1757527Y0267935*
X1755672Y0268498*
X1753962Y0269412*
X1752463Y0270642*
X1751233Y0272141*
X1750319Y0273851*
X1749756Y0275706*
X1749566Y0277635*
X1749756Y0279565*
X1750319Y0281420*
X1751233Y0283130*
X1752463Y0284629*
X1753962Y0285859*
X1755672Y0286773*
X1757527Y0287336*
X1759456Y0287526*
X1761386Y0287336*
G37*
G36*
X1288426Y0279006D02*
X1290837Y0278428D01*
X1293127Y0277479*
X1295240Y0276184*
X1297125Y0274574*
X1298735Y0272689*
X1300030Y0270576*
X1300861Y0268570*
X1300835Y0268561*
X1318468Y0217764*
X1318586Y0217480*
X1319164Y0215069*
X1319359Y0212598*
X1319164Y0210127*
X1318586Y0207717*
X1317637Y0205427*
X1316342Y0203313*
X1314732Y0201428*
X1312847Y0199819*
X1310734Y0198523*
X1308444Y0197575*
X1306033Y0196996*
X1303562Y0196801*
X1301091Y0196996*
X1298681Y0197575*
X1296391Y0198523*
X1294277Y0199819*
X1292392Y0201428*
X1290782Y0203313*
X1289487Y0205427*
X1288656Y0207433*
X1288682Y0207442*
X1275670Y0245011*
X1275383Y0245705*
X1274751Y0246527*
X1273929Y0247158*
X1272971Y0247555*
X1271944Y0247690*
Y0247656*
X1265457Y0247690*
X1264429Y0247555*
X1263471Y0247158*
X1262649Y0246527*
X1262018Y0245705*
X1261730Y0245011*
X1261737Y0245008*
X1248744Y0207433*
X1247913Y0205427*
X1246618Y0203313*
X1245008Y0201428*
X1243123Y0199819*
X1241010Y0198523*
X1238719Y0197575*
X1236309Y0196996*
X1233838Y0196801*
X1231367Y0196996*
X1228956Y0197575*
X1226666Y0198523*
X1224553Y0199819*
X1222668Y0201428*
X1221058Y0203313*
X1219763Y0205427*
X1218814Y0207717*
X1218236Y0210127*
X1218041Y0212598*
X1218236Y0215069*
X1218814Y0217480*
X1218932Y0217764*
X1218958Y0217755*
X1236565Y0268561*
X1236539Y0268570*
X1237370Y0270576*
X1238665Y0272689*
X1240275Y0274574*
X1242160Y0276184*
X1244273Y0277479*
X1246563Y0278428*
X1248974Y0279006*
X1251445Y0279201*
Y0279152*
X1285955Y0279201*
X1288426Y0279006*
G37*
G36*
X1016773D02*
X1019183Y0278428D01*
X1021473Y0277479*
X1023587Y0276184*
X1025472Y0274574*
X1027081Y0272689*
X1028377Y0270576*
X1029207Y0268570*
X1029181Y0268561*
X1046814Y0217764*
X1046932Y0217480*
X1047511Y0215069*
X1047705Y0212598*
X1047511Y0210127*
X1046932Y0207717*
X1045984Y0205427*
X1044688Y0203313*
X1043079Y0201428*
X1041194Y0199819*
X1039080Y0198523*
X1036790Y0197575*
X1034380Y0196996*
X1031909Y0196801*
X1029437Y0196996*
X1027027Y0197575*
X1024737Y0198523*
X1022623Y0199819*
X1020739Y0201428*
X1019129Y0203313*
X1017834Y0205427*
X1017003Y0207433*
X1017029Y0207442*
X1004016Y0245011*
X1003729Y0245705*
X1003098Y0246527*
X1002275Y0247158*
X1001318Y0247555*
X1000290Y0247690*
Y0247656*
X0993803Y0247690*
X0992775Y0247555*
X0991817Y0247158*
X0990995Y0246527*
X0990364Y0245705*
X0990076Y0245011*
X0990083Y0245008*
X0977090Y0207433*
X0976259Y0205427*
X0974964Y0203313*
X0973354Y0201428*
X0971469Y0199819*
X0969356Y0198523*
X0967066Y0197575*
X0964655Y0196996*
X0962184Y0196801*
X0959713Y0196996*
X0957303Y0197575*
X0955013Y0198523*
X0952899Y0199819*
X0951014Y0201428*
X0949404Y0203313*
X0948109Y0205427*
X0947161Y0207717*
X0946582Y0210127*
X0946387Y0212598*
X0946582Y0215069*
X0947161Y0217480*
X0947278Y0217764*
X0947304Y0217755*
X0964911Y0268561*
X0964885Y0268570*
X0965716Y0270576*
X0967011Y0272689*
X0968621Y0274574*
X0970506Y0276184*
X0972620Y0277479*
X0974910Y0278428*
X0977320Y0279006*
X0979791Y0279201*
Y0279152*
X1014302Y0279201*
X1016773Y0279006*
G37*
G36*
X0745119D02*
X0747529Y0278428D01*
X0749820Y0277479*
X0751933Y0276184*
X0753818Y0274574*
X0755428Y0272689*
X0756723Y0270576*
X0757554Y0268570*
X0757528Y0268561*
X0775161Y0217764*
X0775278Y0217480*
X0775857Y0215069*
X0776052Y0212598*
X0775857Y0210127*
X0775278Y0207717*
X0774330Y0205427*
X0773035Y0203313*
X0771425Y0201428*
X0769540Y0199819*
X0767426Y0198523*
X0765136Y0197575*
X0762726Y0196996*
X0760255Y0196801*
X0757784Y0196996*
X0755373Y0197575*
X0753083Y0198523*
X0750970Y0199819*
X0749085Y0201428*
X0747475Y0203313*
X0746180Y0205427*
X0745349Y0207433*
X0745375Y0207442*
X0732363Y0245011*
X0732075Y0245705*
X0731444Y0246527*
X0730622Y0247158*
X0729664Y0247555*
X0728636Y0247690*
Y0247656*
X0722149Y0247690*
X0721121Y0247555*
X0720164Y0247158*
X0719341Y0246527*
X0718710Y0245705*
X0718423Y0245011*
X0718429Y0245008*
X0705436Y0207433*
X0704605Y0205427*
X0703310Y0203313*
X0701700Y0201428*
X0699816Y0199819*
X0697702Y0198523*
X0695412Y0197575*
X0693002Y0196996*
X0690530Y0196801*
X0688059Y0196996*
X0685649Y0197575*
X0683359Y0198523*
X0681245Y0199819*
X0679360Y0201428*
X0677751Y0203313*
X0676455Y0205427*
X0675507Y0207717*
X0674928Y0210127*
X0674734Y0212598*
X0674928Y0215069*
X0675507Y0217480*
X0675625Y0217764*
X0675651Y0217755*
X0693258Y0268561*
X0693232Y0268570*
X0694063Y0270576*
X0695358Y0272689*
X0696968Y0274574*
X0698852Y0276184*
X0700966Y0277479*
X0703256Y0278428*
X0705666Y0279006*
X0708138Y0279201*
Y0279152*
X0742648Y0279201*
X0745119Y0279006*
G37*
G36*
X1218079Y0287336D02*
X1219934Y0286773D01*
X1221644Y0285859*
X1223142Y0284629*
X1224372Y0283130*
X1225286Y0281420*
X1225849Y0279565*
X1226039Y0277635*
X1225849Y0275706*
X1225286Y0273851*
X1224372Y0272141*
X1223142Y0270642*
X1221644Y0269412*
X1219934Y0268498*
X1218079Y0267935*
X1216149Y0267745*
X1214220Y0267935*
X1212364Y0268498*
X1210654Y0269412*
X1209156Y0270642*
X1207926Y0272141*
X1207012Y0273851*
X1206449Y0275706*
X1206259Y0277635*
X1206449Y0279565*
X1207012Y0281420*
X1207926Y0283130*
X1209156Y0284629*
X1210654Y0285859*
X1212364Y0286773*
X1214220Y0287336*
X1216149Y0287526*
X1218079Y0287336*
G37*
G36*
X1051527D02*
X1053382Y0286773D01*
X1055092Y0285859*
X1056591Y0284629*
X1057821Y0283130*
X1058735Y0281420*
X1059297Y0279565*
X1059488Y0277635*
X1059297Y0275706*
X1058735Y0273851*
X1057821Y0272141*
X1056591Y0270642*
X1055092Y0269412*
X1053382Y0268498*
X1051527Y0267935*
X1049597Y0267745*
X1047668Y0267935*
X1045813Y0268498*
X1044103Y0269412*
X1042604Y0270642*
X1041374Y0272141*
X1040460Y0273851*
X1039897Y0275706*
X1039707Y0277635*
X1039897Y0279565*
X1040460Y0281420*
X1041374Y0283130*
X1042604Y0284629*
X1044103Y0285859*
X1045813Y0286773*
X1047668Y0287336*
X1049597Y0287526*
X1051527Y0287336*
G37*
G36*
X0946425D02*
X0948280Y0286773D01*
X0949990Y0285859*
X0951489Y0284629*
X0952719Y0283130*
X0953633Y0281420*
X0954195Y0279565*
X0954385Y0277635*
X0954195Y0275706*
X0953633Y0273851*
X0952719Y0272141*
X0951489Y0270642*
X0949990Y0269412*
X0948280Y0268498*
X0946425Y0267935*
X0944495Y0267745*
X0942566Y0267935*
X0940711Y0268498*
X0939001Y0269412*
X0937502Y0270642*
X0936272Y0272141*
X0935358Y0273851*
X0934795Y0275706*
X0934605Y0277635*
X0934795Y0279565*
X0935358Y0281420*
X0936272Y0283130*
X0937502Y0284629*
X0939001Y0285859*
X0940711Y0286773*
X0942566Y0287336*
X0944495Y0287526*
X0946425Y0287336*
G37*
G36*
X1594834D02*
X1596690Y0286773D01*
X1598399Y0285859*
X1599898Y0284629*
X1601128Y0283130*
X1602042Y0281420*
X1602605Y0279565*
X1602795Y0277635*
X1602605Y0275706*
X1602042Y0273851*
X1601128Y0272141*
X1599898Y0270642*
X1598399Y0269412*
X1596690Y0268498*
X1594834Y0267935*
X1592905Y0267745*
X1590975Y0267935*
X1589120Y0268498*
X1587410Y0269412*
X1585911Y0270642*
X1584681Y0272141*
X1583768Y0273851*
X1583205Y0275706*
X1583015Y0277635*
X1583205Y0279565*
X1583768Y0281420*
X1584681Y0283130*
X1585911Y0284629*
X1587410Y0285859*
X1589120Y0286773*
X1590975Y0287336*
X1592905Y0287526*
X1594834Y0287336*
G37*
G36*
X1489732D02*
X1491588Y0286773D01*
X1493297Y0285859*
X1494796Y0284629*
X1496026Y0283130*
X1496940Y0281420*
X1497503Y0279565*
X1497693Y0277635*
X1497503Y0275706*
X1496940Y0273851*
X1496026Y0272141*
X1494796Y0270642*
X1493297Y0269412*
X1491588Y0268498*
X1489732Y0267935*
X1487803Y0267745*
X1485873Y0267935*
X1484018Y0268498*
X1482308Y0269412*
X1480809Y0270642*
X1479579Y0272141*
X1478665Y0273851*
X1478103Y0275706*
X1477913Y0277635*
X1478103Y0279565*
X1478665Y0281420*
X1479579Y0283130*
X1480809Y0284629*
X1482308Y0285859*
X1484018Y0286773*
X1485873Y0287336*
X1487803Y0287526*
X1489732Y0287336*
G37*
G36*
X1323181D02*
X1325036Y0286773D01*
X1326746Y0285859*
X1328244Y0284629*
X1329474Y0283130*
X1330388Y0281420*
X1330951Y0279565*
X1331141Y0277635*
X1330951Y0275706*
X1330388Y0273851*
X1329474Y0272141*
X1328244Y0270642*
X1326746Y0269412*
X1325036Y0268498*
X1323181Y0267935*
X1321251Y0267745*
X1319322Y0267935*
X1317466Y0268498*
X1315756Y0269412*
X1314258Y0270642*
X1313028Y0272141*
X1312114Y0273851*
X1311551Y0275706*
X1311361Y0277635*
X1311551Y0279565*
X1312114Y0281420*
X1313028Y0283130*
X1314258Y0284629*
X1315756Y0285859*
X1317466Y0286773*
X1319322Y0287336*
X1321251Y0287526*
X1323181Y0287336*
G37*
G36*
X0938956Y0265784D02*
X0940811Y0265221D01*
X0942521Y0264307*
X0944020Y0263077*
X0945250Y0261578*
X0946164Y0259869*
X0946727Y0258013*
X0946917Y0256084*
X0946727Y0254154*
X0946164Y0252299*
X0945250Y0250589*
X0944020Y0249090*
X0942521Y0247860*
X0940811Y0246946*
X0938956Y0246384*
X0937027Y0246194*
X0935097Y0246384*
X0933242Y0246946*
X0931532Y0247860*
X0930033Y0249090*
X0928803Y0250589*
X0927889Y0252299*
X0927326Y0254154*
X0927136Y0256084*
X0927326Y0258013*
X0927889Y0259869*
X0928803Y0261578*
X0930033Y0263077*
X0931532Y0264307*
X0933242Y0265221*
X0935097Y0265784*
X0937027Y0265974*
X0938956Y0265784*
G37*
G36*
X0931487Y0244232D02*
X0933342Y0243669D01*
X0935052Y0242755*
X0936551Y0241525*
X0937781Y0240027*
X0938695Y0238317*
X0939258Y0236461*
X0939448Y0234532*
X0939258Y0232603*
X0938695Y0230747*
X0937781Y0229037*
X0936551Y0227538*
X0935052Y0226309*
X0933342Y0225395*
X0931487Y0224832*
X0929558Y0224642*
X0927628Y0224832*
X0925773Y0225395*
X0924063Y0226309*
X0922564Y0227538*
X0921334Y0229037*
X0920420Y0230747*
X0919858Y0232603*
X0919668Y0234532*
X0919858Y0236461*
X0920420Y0238317*
X0921334Y0240027*
X0922564Y0241525*
X0924063Y0242755*
X0925773Y0243669*
X0927628Y0244232*
X0929558Y0244422*
X0931487Y0244232*
G37*
G36*
X0794811D02*
X0796666Y0243669D01*
X0798376Y0242755*
X0799875Y0241525*
X0801105Y0240027*
X0802019Y0238317*
X0802582Y0236461*
X0802771Y0234532*
X0802582Y0232603*
X0802019Y0230747*
X0801105Y0229037*
X0799875Y0227538*
X0798376Y0226309*
X0796666Y0225395*
X0794811Y0224832*
X0792881Y0224642*
X0790952Y0224832*
X0789097Y0225395*
X0787387Y0226309*
X0785888Y0227538*
X0784658Y0229037*
X0783744Y0230747*
X0783181Y0232603*
X0782991Y0234532*
X0783181Y0236461*
X0783744Y0238317*
X0784658Y0240027*
X0785888Y0241525*
X0787387Y0242755*
X0789097Y0243669*
X0790952Y0244232*
X0792881Y0244422*
X0794811Y0244232*
G37*
G36*
X0659833D02*
X0661689Y0243669D01*
X0663399Y0242755*
X0664897Y0241525*
X0666127Y0240027*
X0667041Y0238317*
X0667604Y0236461*
X0667794Y0234532*
X0667604Y0232603*
X0667041Y0230747*
X0666127Y0229037*
X0664897Y0227538*
X0663399Y0226309*
X0661689Y0225395*
X0659833Y0224832*
X0657904Y0224642*
X0655974Y0224832*
X0654119Y0225395*
X0652409Y0226309*
X0650911Y0227538*
X0649681Y0229037*
X0648767Y0230747*
X0648204Y0232603*
X0648014Y0234532*
X0648204Y0236461*
X0648767Y0238317*
X0649681Y0240027*
X0650911Y0241525*
X0652409Y0242755*
X0654119Y0243669*
X0655974Y0244232*
X0657904Y0244422*
X0659833Y0244232*
G37*
G36*
X1338118D02*
X1339974Y0243669D01*
X1341683Y0242755*
X1343182Y0241525*
X1344412Y0240027*
X1345326Y0238317*
X1345889Y0236461*
X1346079Y0234532*
X1345889Y0232603*
X1345326Y0230747*
X1344412Y0229037*
X1343182Y0227538*
X1341683Y0226309*
X1339974Y0225395*
X1338118Y0224832*
X1336189Y0224642*
X1334259Y0224832*
X1332404Y0225395*
X1330694Y0226309*
X1329195Y0227538*
X1327965Y0229037*
X1327051Y0230747*
X1326489Y0232603*
X1326299Y0234532*
X1326489Y0236461*
X1327051Y0238317*
X1327965Y0240027*
X1329195Y0241525*
X1330694Y0242755*
X1332404Y0243669*
X1334259Y0244232*
X1336189Y0244422*
X1338118Y0244232*
G37*
G36*
X1203141D02*
X1204996Y0243669D01*
X1206706Y0242755*
X1208205Y0241525*
X1209435Y0240027*
X1210349Y0238317*
X1210911Y0236461*
X1211102Y0234532*
X1210911Y0232603*
X1210349Y0230747*
X1209435Y0229037*
X1208205Y0227538*
X1206706Y0226309*
X1204996Y0225395*
X1203141Y0224832*
X1201211Y0224642*
X1199282Y0224832*
X1197427Y0225395*
X1195717Y0226309*
X1194218Y0227538*
X1192988Y0229037*
X1192074Y0230747*
X1191511Y0232603*
X1191321Y0234532*
X1191511Y0236461*
X1192074Y0238317*
X1192988Y0240027*
X1194218Y0241525*
X1195717Y0242755*
X1197427Y0243669*
X1199282Y0244232*
X1201211Y0244422*
X1203141Y0244232*
G37*
G36*
X1066465D02*
X1068320Y0243669D01*
X1070030Y0242755*
X1071528Y0241525*
X1072758Y0240027*
X1073672Y0238317*
X1074235Y0236461*
X1074425Y0234532*
X1074235Y0232603*
X1073672Y0230747*
X1072758Y0229037*
X1071528Y0227538*
X1070030Y0226309*
X1068320Y0225395*
X1066465Y0224832*
X1064535Y0224642*
X1062606Y0224832*
X1060750Y0225395*
X1059040Y0226309*
X1057542Y0227538*
X1056312Y0229037*
X1055398Y0230747*
X1054835Y0232603*
X1054645Y0234532*
X1054835Y0236461*
X1055398Y0238317*
X1056312Y0240027*
X1057542Y0241525*
X1059040Y0242755*
X1060750Y0243669*
X1062606Y0244232*
X1064535Y0244422*
X1066465Y0244232*
G37*
G36*
X0201812Y0279006D02*
X0204222Y0278428D01*
X0206512Y0277479*
X0208626Y0276184*
X0210510Y0274574*
X0212120Y0272689*
X0213416Y0270576*
X0214246Y0268570*
X0214220Y0268561*
X0231853Y0217764*
X0231971Y0217480*
X0232550Y0215069*
X0232744Y0212598*
X0232550Y0210127*
X0231971Y0207717*
X0231022Y0205427*
X0229727Y0203313*
X0228117Y0201428*
X0226233Y0199819*
X0224119Y0198523*
X0221829Y0197575*
X0219419Y0196996*
X0216947Y0196801*
X0214476Y0196996*
X0212066Y0197575*
X0209776Y0198523*
X0207662Y0199819*
X0205778Y0201428*
X0204168Y0203313*
X0202872Y0205427*
X0202042Y0207433*
X0202068Y0207442*
X0184435Y0258239*
X0184317Y0258523*
X0183738Y0260933*
X0183544Y0263404*
X0183738Y0265875*
X0184317Y0268286*
X0185266Y0270576*
X0186561Y0272689*
X0188171Y0274574*
X0190055Y0276184*
X0192169Y0277479*
X0194459Y0278428*
X0196869Y0279006*
X0199340Y0279201*
X0201812Y0279006*
G37*
G36*
X0284254Y0258120D02*
X0286184Y0257534D01*
X0287368Y0256901*
X0287365Y0256896*
X0309160Y0244313*
X0309163Y0244318*
X0309757Y0244000*
X0311315Y0242721*
X0312595Y0241163*
X0313545Y0239384*
X0314130Y0237455*
X0314328Y0235448*
X0314278*
X0314328Y0204724*
X0314130Y0202718*
X0313545Y0200788*
X0312595Y0199010*
X0311315Y0197451*
X0309757Y0196172*
X0307978Y0195221*
X0306049Y0194636*
X0304042Y0194439*
Y0194488*
X0284357Y0194439*
X0282350Y0194636*
X0280421Y0195221*
X0278643Y0196172*
X0277084Y0197451*
X0275805Y0199010*
X0274854Y0200788*
X0274269Y0202718*
X0274071Y0204724*
X0274121*
X0274116Y0252560*
X0274750Y0253746*
X0276029Y0255305*
X0277588Y0256584*
X0279366Y0257534*
X0281296Y0258120*
X0282774Y0258265*
X0282775*
X0284254Y0258120*
G37*
G36*
X0523157Y0244232D02*
X0525012Y0243669D01*
X0526722Y0242755*
X0528221Y0241525*
X0529451Y0240027*
X0530365Y0238317*
X0530928Y0236461*
X0531118Y0234532*
X0530928Y0232603*
X0530365Y0230747*
X0529451Y0229037*
X0528221Y0227538*
X0526722Y0226309*
X0525012Y0225395*
X0523157Y0224832*
X0521228Y0224642*
X0519298Y0224832*
X0517443Y0225395*
X0515733Y0226309*
X0514234Y0227538*
X0513004Y0229037*
X0512090Y0230747*
X0511528Y0232603*
X0511338Y0234532*
X0511528Y0236461*
X0512090Y0238317*
X0513004Y0240027*
X0514234Y0241525*
X0515733Y0242755*
X0517443Y0243669*
X0519298Y0244232*
X0521228Y0244422*
X0523157Y0244232*
G37*
G36*
X0388180D02*
X0390035Y0243669D01*
X0391745Y0242755*
X0393244Y0241525*
X0394474Y0240027*
X0395388Y0238317*
X0395950Y0236461*
X0396141Y0234532*
X0395950Y0232603*
X0395388Y0230747*
X0394474Y0229037*
X0393244Y0227538*
X0391745Y0226309*
X0390035Y0225395*
X0388180Y0224832*
X0386250Y0224642*
X0384321Y0224832*
X0382466Y0225395*
X0380756Y0226309*
X0379257Y0227538*
X0378027Y0229037*
X0377113Y0230747*
X0376550Y0232603*
X0376360Y0234532*
X0376550Y0236461*
X0377113Y0238317*
X0378027Y0240027*
X0379257Y0241525*
X0380756Y0242755*
X0382466Y0243669*
X0384321Y0244232*
X0386250Y0244422*
X0388180Y0244232*
G37*
G36*
X0395649Y0265784D02*
X0397504Y0265221D01*
X0399214Y0264307*
X0400712Y0263077*
X0401942Y0261578*
X0402856Y0259869*
X0403419Y0258013*
X0403609Y0256084*
X0403419Y0254154*
X0402856Y0252299*
X0401942Y0250589*
X0400712Y0249090*
X0399214Y0247860*
X0397504Y0246946*
X0395649Y0246384*
X0393719Y0246194*
X0391790Y0246384*
X0389934Y0246946*
X0388225Y0247860*
X0386726Y0249090*
X0385496Y0250589*
X0384582Y0252299*
X0384019Y0254154*
X0383829Y0256084*
X0384019Y0258013*
X0384582Y0259869*
X0385496Y0261578*
X0386726Y0263077*
X0388225Y0264307*
X0389934Y0265221*
X0391790Y0265784*
X0393719Y0265974*
X0395649Y0265784*
G37*
G36*
X0244035D02*
X0245890Y0265221D01*
X0247600Y0264307*
X0249098Y0263077*
X0250328Y0261578*
X0251242Y0259869*
X0251805Y0258013*
X0251995Y0256084*
X0251805Y0254154*
X0251242Y0252299*
X0250328Y0250589*
X0249098Y0249090*
X0247600Y0247860*
X0245890Y0246946*
X0244035Y0246384*
X0242105Y0246194*
X0240176Y0246384*
X0238320Y0246946*
X0236611Y0247860*
X0235112Y0249090*
X0233882Y0250589*
X0232968Y0252299*
X0232405Y0254154*
X0232215Y0256084*
X0232405Y0258013*
X0232968Y0259869*
X0233882Y0261578*
X0235112Y0263077*
X0236611Y0264307*
X0238320Y0265221*
X0240176Y0265784*
X0242105Y0265974*
X0244035Y0265784*
G37*
G36*
X1444716Y0258071D02*
X1436885Y0244508D01*
X1421224*
X1413394Y0258071*
X1421224Y0271634*
X1436885*
X1444716Y0258071*
G37*
G36*
X0787342Y0265784D02*
X0789197Y0265221D01*
X0790907Y0264307*
X0792406Y0263077*
X0793636Y0261578*
X0794550Y0259869*
X0795113Y0258013*
X0795303Y0256084*
X0795113Y0254154*
X0794550Y0252299*
X0793636Y0250589*
X0792406Y0249090*
X0790907Y0247860*
X0789197Y0246946*
X0787342Y0246384*
X0785413Y0246194*
X0783483Y0246384*
X0781628Y0246946*
X0779918Y0247860*
X0778419Y0249090*
X0777189Y0250589*
X0776275Y0252299*
X0775712Y0254154*
X0775522Y0256084*
X0775712Y0258013*
X0776275Y0259869*
X0777189Y0261578*
X0778419Y0263077*
X0779918Y0264307*
X0781628Y0265221*
X0783483Y0265784*
X0785413Y0265974*
X0787342Y0265784*
G37*
G36*
X0667302D02*
X0669158Y0265221D01*
X0670867Y0264307*
X0672366Y0263077*
X0673596Y0261578*
X0674510Y0259869*
X0675073Y0258013*
X0675263Y0256084*
X0675073Y0254154*
X0674510Y0252299*
X0673596Y0250589*
X0672366Y0249090*
X0670867Y0247860*
X0669158Y0246946*
X0667302Y0246384*
X0665373Y0246194*
X0663443Y0246384*
X0661588Y0246946*
X0659878Y0247860*
X0658379Y0249090*
X0657150Y0250589*
X0656236Y0252299*
X0655673Y0254154*
X0655483Y0256084*
X0655673Y0258013*
X0656236Y0259869*
X0657150Y0261578*
X0658379Y0263077*
X0659878Y0264307*
X0661588Y0265221*
X0663443Y0265784*
X0665373Y0265974*
X0667302Y0265784*
G37*
G36*
X0515688D02*
X0517544Y0265221D01*
X0519253Y0264307*
X0520752Y0263077*
X0521982Y0261578*
X0522896Y0259869*
X0523459Y0258013*
X0523649Y0256084*
X0523459Y0254154*
X0522896Y0252299*
X0521982Y0250589*
X0520752Y0249090*
X0519253Y0247860*
X0517544Y0246946*
X0515688Y0246384*
X0513759Y0246194*
X0511829Y0246384*
X0509974Y0246946*
X0508264Y0247860*
X0506766Y0249090*
X0505536Y0250589*
X0504622Y0252299*
X0504059Y0254154*
X0503869Y0256084*
X0504059Y0258013*
X0504622Y0259869*
X0505536Y0261578*
X0506766Y0263077*
X0508264Y0264307*
X0509974Y0265221*
X0511829Y0265784*
X0513759Y0265974*
X0515688Y0265784*
G37*
G36*
X1746448Y0244232D02*
X1748304Y0243669D01*
X1750013Y0242755*
X1751512Y0241525*
X1752742Y0240027*
X1753656Y0238317*
X1754219Y0236461*
X1754409Y0234532*
X1754219Y0232603*
X1753656Y0230747*
X1752742Y0229037*
X1751512Y0227538*
X1750013Y0226309*
X1748304Y0225395*
X1746448Y0224832*
X1744519Y0224642*
X1742589Y0224832*
X1740734Y0225395*
X1739024Y0226309*
X1737525Y0227538*
X1736295Y0229037*
X1735381Y0230747*
X1734819Y0232603*
X1734629Y0234532*
X1734819Y0236461*
X1735381Y0238317*
X1736295Y0240027*
X1737525Y0241525*
X1739024Y0242755*
X1740734Y0243669*
X1742589Y0244232*
X1744519Y0244422*
X1746448Y0244232*
G37*
G36*
X1609772D02*
X1611627Y0243669D01*
X1613337Y0242755*
X1614836Y0241525*
X1616066Y0240027*
X1616980Y0238317*
X1617542Y0236461*
X1617733Y0234532*
X1617542Y0232603*
X1616980Y0230747*
X1616066Y0229037*
X1614836Y0227538*
X1613337Y0226309*
X1611627Y0225395*
X1609772Y0224832*
X1607842Y0224642*
X1605913Y0224832*
X1604058Y0225395*
X1602348Y0226309*
X1600849Y0227538*
X1599619Y0229037*
X1598705Y0230747*
X1598142Y0232603*
X1597952Y0234532*
X1598142Y0236461*
X1598705Y0238317*
X1599619Y0240027*
X1600849Y0241525*
X1602348Y0242755*
X1604058Y0243669*
X1605913Y0244232*
X1607842Y0244422*
X1609772Y0244232*
G37*
G36*
X1474794D02*
X1476650Y0243669D01*
X1478360Y0242755*
X1479858Y0241525*
X1481088Y0240027*
X1482002Y0238317*
X1482565Y0236461*
X1482755Y0234532*
X1482565Y0232603*
X1482002Y0230747*
X1481088Y0229037*
X1479858Y0227538*
X1478360Y0226309*
X1476650Y0225395*
X1474794Y0224832*
X1472865Y0224642*
X1470936Y0224832*
X1469080Y0225395*
X1467370Y0226309*
X1465872Y0227538*
X1464642Y0229037*
X1463728Y0230747*
X1463165Y0232603*
X1462975Y0234532*
X1463165Y0236461*
X1463728Y0238317*
X1464642Y0240027*
X1465872Y0241525*
X1467370Y0242755*
X1469080Y0243669*
X1470936Y0244232*
X1472865Y0244422*
X1474794Y0244232*
G37*
G36*
X1125424Y0258071D02*
X1117594Y0244508D01*
X1101933*
X1094102Y0258071*
X1101933Y0271634*
X1117594*
X1125424Y0258071*
G37*
G36*
X0354529Y0258120D02*
X0356458Y0257534D01*
X0358237Y0256584*
X0359795Y0255305*
X0361074Y0253746*
X0361708Y0252560*
X0361703Y0204724*
X0361753*
X0361555Y0202718*
X0360970Y0200788*
X0360019Y0199010*
X0358740Y0197451*
X0357182Y0196172*
X0355403Y0195221*
X0353474Y0194636*
X0351467Y0194439*
X0331782Y0194488*
Y0194439*
X0329775Y0194636*
X0327846Y0195221*
X0326068Y0196172*
X0324509Y0197451*
X0323230Y0199010*
X0322279Y0200788*
X0321694Y0202718*
X0321496Y0204724*
X0321546Y0235448*
X0321496*
X0321694Y0237455*
X0322279Y0239384*
X0323230Y0241163*
X0324509Y0242721*
X0326068Y0244000*
X0326661Y0244318*
X0326664Y0244313*
X0348459Y0256896*
X0348456Y0256901*
X0349641Y0257534*
X0351570Y0258120*
X0353049Y0258265*
X0353050*
X0354529Y0258120*
G37*
G36*
X0251503Y0244232D02*
X0253359Y0243669D01*
X0255069Y0242755*
X0256567Y0241525*
X0257797Y0240027*
X0258711Y0238317*
X0259274Y0236461*
X0259464Y0234532*
X0259274Y0232603*
X0258711Y0230747*
X0257797Y0229037*
X0256567Y0227538*
X0255069Y0226309*
X0253359Y0225395*
X0251503Y0224832*
X0249574Y0224642*
X0247644Y0224832*
X0245789Y0225395*
X0244079Y0226309*
X0242581Y0227538*
X0241351Y0229037*
X0240437Y0230747*
X0239874Y0232603*
X0239684Y0234532*
X0239874Y0236461*
X0240437Y0238317*
X0241351Y0240027*
X0242581Y0241525*
X0244079Y0242755*
X0245789Y0243669*
X0247644Y0244232*
X0249574Y0244422*
X0251503Y0244232*
G37*
G36*
X1560080Y0279006D02*
X1562490Y0278428D01*
X1564781Y0277479*
X1566894Y0276184*
X1568779Y0274574*
X1570389Y0272689*
X1571684Y0270576*
X1572515Y0268570*
X1572489Y0268561*
X1590096Y0217755*
X1590122Y0217764*
X1590240Y0217480*
X1590818Y0215069*
X1591013Y0212598*
X1590818Y0210127*
X1590240Y0207717*
X1589291Y0205427*
X1587996Y0203313*
X1586386Y0201428*
X1584501Y0199819*
X1582388Y0198523*
X1580097Y0197575*
X1577687Y0196996*
X1575216Y0196801*
X1572745Y0196996*
X1570334Y0197575*
X1568044Y0198523*
X1565931Y0199819*
X1564046Y0201428*
X1562436Y0203313*
X1561141Y0205427*
X1560310Y0207433*
X1547317Y0245008*
X1547324Y0245011*
X1547036Y0245705*
X1546405Y0246527*
X1545583Y0247158*
X1544625Y0247555*
X1543597Y0247690*
X1537110Y0247656*
Y0247690*
X1536082Y0247555*
X1535125Y0247158*
X1534302Y0246527*
X1533671Y0245705*
X1533384Y0245011*
X1520371Y0207442*
X1520397Y0207433*
X1519567Y0205427*
X1518271Y0203313*
X1516662Y0201428*
X1514777Y0199819*
X1512663Y0198523*
X1510373Y0197575*
X1507963Y0196996*
X1505492Y0196801*
X1503020Y0196996*
X1500610Y0197575*
X1498320Y0198523*
X1496206Y0199819*
X1494322Y0201428*
X1492712Y0203313*
X1491417Y0205427*
X1490468Y0207717*
X1489889Y0210127*
X1489695Y0212598*
X1489889Y0215069*
X1490468Y0217480*
X1490586Y0217764*
X1508219Y0268561*
X1508193Y0268570*
X1509023Y0270576*
X1510319Y0272689*
X1511929Y0274574*
X1513813Y0276184*
X1515927Y0277479*
X1518217Y0278428*
X1520627Y0279006*
X1523098Y0279201*
X1557609Y0279152*
Y0279201*
X1560080Y0279006*
G37*
G36*
X0388180Y0385404D02*
X0390035Y0384841D01*
X0391745Y0383927*
X0393244Y0382698*
X0394474Y0381199*
X0395388Y0379489*
X0395950Y0377634*
X0396141Y0375704*
X0395950Y0373775*
X0395388Y0371919*
X0394474Y0370210*
X0393244Y0368711*
X0391745Y0367481*
X0390035Y0366567*
X0388180Y0366004*
X0386250Y0365814*
X0384321Y0366004*
X0382466Y0366567*
X0380756Y0367481*
X0379257Y0368711*
X0378027Y0370210*
X0377113Y0371919*
X0376550Y0373775*
X0376360Y0375704*
X0376550Y0377634*
X0377113Y0379489*
X0378027Y0381199*
X0379257Y0382698*
X0380756Y0383927*
X0382466Y0384841*
X0384321Y0385404*
X0386250Y0385594*
X0388180Y0385404*
G37*
G36*
X1577687Y0413240D02*
X1580097Y0412661D01*
X1582388Y0411713*
X1584501Y0410418*
X1586386Y0408808*
X1587996Y0406923*
X1589291Y0404809*
X1590240Y0402519*
X1590818Y0400109*
X1591013Y0397638*
X1590818Y0395167*
X1590240Y0392756*
X1590122Y0392472*
X1572489Y0341675*
X1572515Y0341666*
X1571684Y0339660*
X1570389Y0337547*
X1568779Y0335662*
X1566894Y0334052*
X1564781Y0332757*
X1562490Y0331808*
X1560080Y0331230*
X1557609Y0331035*
X1523098Y0331084*
Y0331035*
X1520627Y0331230*
X1518217Y0331808*
X1515927Y0332757*
X1513813Y0334052*
X1511929Y0335662*
X1510319Y0337547*
X1509023Y0339660*
X1508193Y0341666*
X1508219Y0341675*
X1490612Y0392481*
X1490586Y0392472*
X1490468Y0392756*
X1489889Y0395167*
X1489695Y0397638*
X1489889Y0400109*
X1490468Y0402519*
X1491417Y0404809*
X1492712Y0406923*
X1494322Y0408808*
X1496206Y0410418*
X1498320Y0411713*
X1500610Y0412661*
X1503020Y0413240*
X1505492Y0413435*
X1507963Y0413240*
X1510373Y0412661*
X1512663Y0411713*
X1514777Y0410418*
X1516662Y0408808*
X1518271Y0406923*
X1519567Y0404809*
X1520397Y0402803*
X1533390Y0365228*
X1533384Y0365226*
X1533671Y0364531*
X1534302Y0363709*
X1535125Y0363078*
X1536082Y0362681*
X1537110Y0362546*
X1543597Y0362580*
Y0362546*
X1544625Y0362681*
X1545583Y0363078*
X1546405Y0363709*
X1547036Y0364531*
X1547324Y0365226*
X1560336Y0402794*
X1560310Y0402803*
X1561141Y0404809*
X1562436Y0406923*
X1564046Y0408808*
X1565931Y0410418*
X1568044Y0411713*
X1570334Y0412661*
X1572745Y0413240*
X1575216Y0413435*
X1577687Y0413240*
G37*
G36*
X1306033D02*
X1308444Y0412661D01*
X1310734Y0411713*
X1312847Y0410418*
X1314732Y0408808*
X1316342Y0406923*
X1317637Y0404809*
X1318586Y0402519*
X1319164Y0400109*
X1319359Y0397638*
X1319164Y0395167*
X1318586Y0392756*
X1318543Y0392654*
X1318594Y0392633*
X1318657Y0392481*
X1318630Y0392416*
X1301023Y0341610*
X1300987Y0341523*
X1300835Y0341460*
X1300785Y0341481*
X1300030Y0339660*
X1298735Y0337547*
X1297125Y0335662*
X1295240Y0334052*
X1293127Y0332757*
X1290837Y0331808*
X1288426Y0331230*
X1285955Y0331035*
X1251445Y0331084*
Y0331035*
X1248974Y0331230*
X1246563Y0331808*
X1244273Y0332757*
X1242160Y0334052*
X1240275Y0335662*
X1238665Y0337547*
X1237370Y0339660*
X1236539Y0341666*
X1236565Y0341675*
X1218958Y0392481*
X1218932Y0392472*
X1218814Y0392756*
X1218236Y0395167*
X1218041Y0397638*
X1218236Y0400109*
X1218814Y0402519*
X1219763Y0404809*
X1221058Y0406923*
X1222668Y0408808*
X1224553Y0410418*
X1226666Y0411713*
X1228956Y0412661*
X1231367Y0413240*
X1233838Y0413435*
X1236309Y0413240*
X1238719Y0412661*
X1241010Y0411713*
X1243123Y0410418*
X1245008Y0408808*
X1246618Y0406923*
X1247913Y0404809*
X1248744Y0402803*
X1261737Y0365228*
X1261730Y0365226*
X1262018Y0364531*
X1262649Y0363709*
X1263471Y0363078*
X1264429Y0362681*
X1265457Y0362546*
X1271944Y0362580*
Y0362546*
X1272971Y0362681*
X1273929Y0363078*
X1274751Y0363709*
X1275383Y0364531*
X1275670Y0365226*
X1288682Y0402794*
X1288656Y0402803*
X1289487Y0404809*
X1290782Y0406923*
X1292392Y0408808*
X1294277Y0410418*
X1296391Y0411713*
X1298681Y0412661*
X1301091Y0413240*
X1303562Y0413435*
X1306033Y0413240*
G37*
G36*
X0794811Y0385404D02*
X0796666Y0384841D01*
X0798376Y0383927*
X0799875Y0382698*
X0801105Y0381199*
X0802019Y0379489*
X0802582Y0377634*
X0802771Y0375704*
X0802582Y0373775*
X0802019Y0371919*
X0801105Y0370210*
X0799875Y0368711*
X0798376Y0367481*
X0796666Y0366567*
X0794811Y0366004*
X0792881Y0365814*
X0790952Y0366004*
X0789097Y0366567*
X0787387Y0367481*
X0785888Y0368711*
X0784658Y0370210*
X0783744Y0371919*
X0783181Y0373775*
X0782991Y0375704*
X0783181Y0377634*
X0783744Y0379489*
X0784658Y0381199*
X0785888Y0382698*
X0787387Y0383927*
X0789097Y0384841*
X0790952Y0385404*
X0792881Y0385594*
X0794811Y0385404*
G37*
G36*
X0659833D02*
X0661689Y0384841D01*
X0663399Y0383927*
X0664897Y0382698*
X0666127Y0381199*
X0667041Y0379489*
X0667604Y0377634*
X0667794Y0375704*
X0667604Y0373775*
X0667041Y0371919*
X0666127Y0370210*
X0664897Y0368711*
X0663399Y0367481*
X0661689Y0366567*
X0659833Y0366004*
X0657904Y0365814*
X0655974Y0366004*
X0654119Y0366567*
X0652409Y0367481*
X0650911Y0368711*
X0649681Y0370210*
X0648767Y0371919*
X0648204Y0373775*
X0648014Y0375704*
X0648204Y0377634*
X0648767Y0379489*
X0649681Y0381199*
X0650911Y0382698*
X0652409Y0383927*
X0654119Y0384841*
X0655974Y0385404*
X0657904Y0385594*
X0659833Y0385404*
G37*
G36*
X0523157D02*
X0525012Y0384841D01*
X0526722Y0383927*
X0528221Y0382698*
X0529451Y0381199*
X0530365Y0379489*
X0530928Y0377634*
X0531118Y0375704*
X0530928Y0373775*
X0530365Y0371919*
X0529451Y0370210*
X0528221Y0368711*
X0526722Y0367481*
X0525012Y0366567*
X0523157Y0366004*
X0521228Y0365814*
X0519298Y0366004*
X0517443Y0366567*
X0515733Y0367481*
X0514234Y0368711*
X0513004Y0370210*
X0512090Y0371919*
X0511528Y0373775*
X0511338Y0375704*
X0511528Y0377634*
X0512090Y0379489*
X0513004Y0381199*
X0514234Y0382698*
X0515733Y0383927*
X0517443Y0384841*
X0519298Y0385404*
X0521228Y0385594*
X0523157Y0385404*
G37*
G36*
X0348360Y0353168D02*
X0348359D01*
Y0353167*
X0348358*
X0348359Y0353168*
Y0353169*
X0348360Y0353168*
G37*
G36*
X0244035Y0363853D02*
X0245890Y0363290D01*
X0247600Y0362376*
X0249098Y0361146*
X0250328Y0359647*
X0251242Y0357937*
X0251805Y0356082*
X0251995Y0354152*
X0251805Y0352223*
X0251242Y0350368*
X0250328Y0348658*
X0249098Y0347159*
X0247600Y0345929*
X0245890Y0345015*
X0244035Y0344452*
X0242105Y0344262*
X0240176Y0344452*
X0238320Y0345015*
X0236611Y0345929*
X0235112Y0347159*
X0233882Y0348658*
X0232968Y0350368*
X0232405Y0352223*
X0232215Y0354152*
X0232405Y0356082*
X0232968Y0357937*
X0233882Y0359647*
X0235112Y0361146*
X0236611Y0362376*
X0238320Y0363290*
X0240176Y0363853*
X0242105Y0364042*
X0244035Y0363853*
G37*
G36*
X1753917D02*
X1755772Y0363290D01*
X1757482Y0362376*
X1758981Y0361146*
X1760211Y0359647*
X1761125Y0357937*
X1761688Y0356082*
X1761878Y0354152*
X1761688Y0352223*
X1761125Y0350368*
X1760211Y0348658*
X1758981Y0347159*
X1757482Y0345929*
X1755772Y0345015*
X1753917Y0344452*
X1751988Y0344262*
X1750058Y0344452*
X1748203Y0345015*
X1746493Y0345929*
X1744994Y0347159*
X1743764Y0348658*
X1742850Y0350368*
X1742287Y0352223*
X1742097Y0354152*
X1742287Y0356082*
X1742850Y0357937*
X1743764Y0359647*
X1744994Y0361146*
X1746493Y0362376*
X1748203Y0363290*
X1750058Y0363853*
X1751988Y0364042*
X1753917Y0363853*
G37*
G36*
X1034380Y0413240D02*
X1036790Y0412661D01*
X1039080Y0411713*
X1041194Y0410418*
X1043079Y0408808*
X1044688Y0406923*
X1045984Y0404809*
X1046932Y0402519*
X1047511Y0400109*
X1047705Y0397638*
X1047511Y0395167*
X1046932Y0392756*
X1046814Y0392472*
X1046788Y0392481*
X1029181Y0341675*
X1029207Y0341666*
X1028377Y0339660*
X1027081Y0337547*
X1025472Y0335662*
X1023587Y0334052*
X1021473Y0332757*
X1019183Y0331808*
X1016773Y0331230*
X1014302Y0331035*
Y0331084*
X0979791Y0331035*
X0977320Y0331230*
X0974910Y0331808*
X0972620Y0332757*
X0970506Y0334052*
X0968621Y0335662*
X0967011Y0337547*
X0965716Y0339660*
X0964885Y0341666*
X0964911Y0341675*
X0947278Y0392472*
X0947161Y0392756*
X0946582Y0395167*
X0946387Y0397638*
X0946582Y0400109*
X0947161Y0402519*
X0948109Y0404809*
X0949404Y0406923*
X0951014Y0408808*
X0952899Y0410418*
X0955013Y0411713*
X0957303Y0412661*
X0959713Y0413240*
X0962184Y0413435*
X0964655Y0413240*
X0967066Y0412661*
X0969356Y0411713*
X0971469Y0410418*
X0973354Y0408808*
X0974964Y0406923*
X0976259Y0404809*
X0977090Y0402803*
X0977064Y0402794*
X0990076Y0365226*
X0990364Y0364531*
X0990995Y0363709*
X0991817Y0363078*
X0992775Y0362681*
X0993803Y0362546*
Y0362580*
X1000290Y0362546*
X1001318Y0362681*
X1002275Y0363078*
X1003098Y0363709*
X1003729Y0364531*
X1004016Y0365226*
X1004010Y0365228*
X1017003Y0402803*
X1017834Y0404809*
X1019129Y0406923*
X1020739Y0408808*
X1022623Y0410418*
X1024737Y0411713*
X1027027Y0412661*
X1029437Y0413240*
X1031909Y0413435*
X1034380Y0413240*
G37*
G36*
X0762726D02*
X0765136Y0412661D01*
X0767426Y0411713*
X0769540Y0410418*
X0771425Y0408808*
X0773035Y0406923*
X0774330Y0404809*
X0775278Y0402519*
X0775857Y0400109*
X0776052Y0397638*
X0775857Y0395167*
X0775278Y0392756*
X0775161Y0392472*
X0775135Y0392481*
X0757528Y0341675*
X0757554Y0341666*
X0756723Y0339660*
X0755428Y0337547*
X0753818Y0335662*
X0751933Y0334052*
X0749820Y0332757*
X0747529Y0331808*
X0745119Y0331230*
X0742648Y0331035*
Y0331084*
X0708138Y0331035*
X0705666Y0331230*
X0703256Y0331808*
X0700966Y0332757*
X0698852Y0334052*
X0696968Y0335662*
X0695358Y0337547*
X0694063Y0339660*
X0693232Y0341666*
X0693258Y0341675*
X0675625Y0392472*
X0675507Y0392756*
X0674928Y0395167*
X0674734Y0397638*
X0674928Y0400109*
X0675507Y0402519*
X0676455Y0404809*
X0677751Y0406923*
X0679360Y0408808*
X0681245Y0410418*
X0683359Y0411713*
X0685649Y0412661*
X0688059Y0413240*
X0690530Y0413435*
X0693002Y0413240*
X0695412Y0412661*
X0697702Y0411713*
X0699816Y0410418*
X0701700Y0408808*
X0703310Y0406923*
X0704605Y0404809*
X0705436Y0402803*
X0705410Y0402794*
X0718423Y0365226*
X0718710Y0364531*
X0719341Y0363709*
X0720164Y0363078*
X0721121Y0362681*
X0722149Y0362546*
Y0362580*
X0728636Y0362546*
X0729664Y0362681*
X0730622Y0363078*
X0731444Y0363709*
X0732075Y0364531*
X0732363Y0365226*
X0732356Y0365228*
X0745349Y0402803*
X0746180Y0404809*
X0747475Y0406923*
X0749085Y0408808*
X0750970Y0410418*
X0753083Y0411713*
X0755373Y0412661*
X0757784Y0413240*
X0760255Y0413435*
X0762726Y0413240*
G37*
G36*
X0491072D02*
X0493483Y0412661D01*
X0495773Y0411713*
X0497886Y0410418*
X0499771Y0408808*
X0501381Y0406923*
X0502676Y0404809*
X0503625Y0402519*
X0504203Y0400109*
X0504398Y0397638*
X0504203Y0395167*
X0503625Y0392756*
X0503507Y0392472*
X0503481Y0392481*
X0485874Y0341675*
X0485900Y0341666*
X0485069Y0339660*
X0483774Y0337547*
X0482164Y0335662*
X0480279Y0334052*
X0478166Y0332757*
X0475876Y0331808*
X0473465Y0331230*
X0470994Y0331035*
Y0331084*
X0436484Y0331035*
X0434013Y0331230*
X0431602Y0331808*
X0429312Y0332757*
X0427199Y0334052*
X0425314Y0335662*
X0423704Y0337547*
X0422409Y0339660*
X0421578Y0341666*
X0421604Y0341675*
X0403971Y0392472*
X0403853Y0392756*
X0403275Y0395167*
X0403080Y0397638*
X0403275Y0400109*
X0403853Y0402519*
X0404802Y0404809*
X0406097Y0406923*
X0407707Y0408808*
X0409592Y0410418*
X0411705Y0411713*
X0413995Y0412661*
X0416406Y0413240*
X0418877Y0413435*
X0421348Y0413240*
X0423758Y0412661*
X0426048Y0411713*
X0428162Y0410418*
X0430047Y0408808*
X0431657Y0406923*
X0432952Y0404809*
X0433783Y0402803*
X0433757Y0402794*
X0446769Y0365226*
X0447056Y0364531*
X0447688Y0363709*
X0448510Y0363078*
X0449468Y0362681*
X0450495Y0362546*
Y0362580*
X0456983Y0362546*
X0458010Y0362681*
X0458968Y0363078*
X0459790Y0363709*
X0460422Y0364531*
X0460709Y0365226*
X0460703Y0365228*
X0473695Y0402803*
X0474526Y0404809*
X0475821Y0406923*
X0477431Y0408808*
X0479316Y0410418*
X0481430Y0411713*
X0483720Y0412661*
X0486130Y0413240*
X0488601Y0413435*
X0491072Y0413240*
G37*
G36*
X0219450Y0413437D02*
X0221890Y0412851D01*
X0224209Y0411890*
X0226349Y0410578*
X0228258Y0408948*
X0229888Y0407040*
X0231200Y0404900*
X0232160Y0402581*
X0232746Y0400140*
X0232943Y0397638*
X0232746Y0395135*
X0232160Y0392695*
X0232041Y0392407*
X0232014Y0392415*
X0214408Y0341610*
X0214372Y0341523*
X0214220Y0341460*
X0214170Y0341481*
X0213416Y0339660*
X0212120Y0337547*
X0210510Y0335662*
X0208626Y0334052*
X0206512Y0332757*
X0204222Y0331808*
X0201812Y0331230*
X0199340Y0331035*
X0196869Y0331230*
X0194459Y0331808*
X0192169Y0332757*
X0190055Y0334052*
X0188171Y0335662*
X0186561Y0337547*
X0185266Y0339660*
X0184317Y0341950*
X0183738Y0344361*
X0183544Y0346832*
X0183738Y0349303*
X0184317Y0351713*
X0184359Y0351816*
X0184309Y0351837*
X0184246Y0351989*
X0184273Y0352054*
X0201880Y0402858*
X0201879*
X0201880Y0402859*
X0201854Y0402869*
X0202695Y0404900*
X0204007Y0407040*
X0205637Y0408948*
X0207545Y0410578*
X0209686Y0411890*
X0212004Y0412851*
X0214445Y0413437*
X0216947Y0413633*
X0219450Y0413437*
G37*
G36*
X0251503Y0385404D02*
X0253359Y0384841D01*
X0255069Y0383927*
X0256567Y0382698*
X0257797Y0381199*
X0258711Y0379489*
X0259274Y0377634*
X0259464Y0375704*
X0259274Y0373775*
X0258711Y0371919*
X0257797Y0370210*
X0256567Y0368711*
X0255069Y0367481*
X0253359Y0366567*
X0251503Y0366004*
X0249574Y0365814*
X0247644Y0366004*
X0245789Y0366567*
X0244079Y0367481*
X0242581Y0368711*
X0241351Y0370210*
X0240437Y0371919*
X0239874Y0373775*
X0239684Y0375704*
X0239874Y0377634*
X0240437Y0379489*
X0241351Y0381199*
X0242581Y0382698*
X0244079Y0383927*
X0245789Y0384841*
X0247644Y0385404*
X0249574Y0385594*
X0251503Y0385404*
G37*
G36*
X1746448D02*
X1748304Y0384841D01*
X1750013Y0383927*
X1751512Y0382698*
X1752742Y0381199*
X1753656Y0379489*
X1754219Y0377634*
X1754409Y0375704*
X1754219Y0373775*
X1753656Y0371919*
X1752742Y0370210*
X1751512Y0368711*
X1750013Y0367481*
X1748304Y0366567*
X1746448Y0366004*
X1744519Y0365814*
X1742589Y0366004*
X1740734Y0366567*
X1739024Y0367481*
X1737525Y0368711*
X1736295Y0370210*
X1735381Y0371919*
X1734819Y0373775*
X1734629Y0375704*
X1734819Y0377634*
X1735381Y0379489*
X1736295Y0381199*
X1737525Y0382698*
X1739024Y0383927*
X1740734Y0384841*
X1742589Y0385404*
X1744519Y0385594*
X1746448Y0385404*
G37*
G36*
X0353474Y0415600D02*
X0355403Y0415015D01*
X0357182Y0414064*
X0358740Y0412785*
X0360019Y0411226*
X0360970Y0409448*
X0361555Y0407518*
X0361753Y0405512*
X0361703*
X0361708Y0357676*
X0361074Y0356490*
X0359795Y0354931*
X0358237Y0353652*
X0356458Y0352702*
X0354529Y0352117*
X0353050Y0351971*
X0353049*
X0351570Y0352117*
X0349641Y0352702*
X0348456Y0353335*
X0348459Y0353340*
X0326661Y0365918*
X0326068Y0366236*
X0324509Y0367515*
X0323230Y0369074*
X0322279Y0370852*
X0321694Y0372781*
X0321496Y0374788*
X0321546*
X0321496Y0405512*
X0321694Y0407518*
X0322279Y0409448*
X0323230Y0411226*
X0324509Y0412785*
X0326068Y0414064*
X0327846Y0415015*
X0329775Y0415600*
X0331782Y0415798*
Y0415748*
X0351467Y0415798*
X0353474Y0415600*
G37*
G36*
X0306049D02*
X0307978Y0415015D01*
X0309757Y0414064*
X0311315Y0412785*
X0312595Y0411226*
X0313545Y0409448*
X0314130Y0407518*
X0314328Y0405512*
X0314278Y0374788*
X0314328*
X0314130Y0372781*
X0313545Y0370852*
X0312595Y0369074*
X0311315Y0367515*
X0309757Y0366236*
X0309163Y0365918*
X0309160Y0365923*
X0287365Y0353340*
X0287366*
X0287368Y0353335*
X0286184Y0352702*
X0284254Y0352117*
X0282775Y0351971*
X0282774*
X0281296Y0352117*
X0279366Y0352702*
X0277588Y0353652*
X0276029Y0354931*
X0274750Y0356490*
X0274116Y0357676*
X0274121Y0405512*
X0274071*
X0274269Y0407518*
X0274854Y0409448*
X0275805Y0411226*
X0277084Y0412785*
X0278643Y0414064*
X0280421Y0415015*
X0282350Y0415600*
X0284357Y0415798*
X0304042Y0415748*
Y0415798*
X0306049Y0415600*
G37*
G36*
X1779648Y0413437D02*
X1782088Y0412851D01*
X1784407Y0411890*
X1786547Y0410578*
X1788456Y0408948*
X1790086Y0407040*
X1791398Y0404900*
X1792239Y0402869*
X1792213Y0402858*
Y0402859*
X1792212*
X1792213Y0402858*
X1809819Y0352055*
Y0352053*
X1809846Y0352063*
X1809965Y0351775*
X1810551Y0349334*
X1810748Y0346832*
X1810551Y0344330*
X1809965Y0341889*
X1809005Y0339570*
X1807693Y0337430*
X1806063Y0335521*
X1804154Y0333891*
X1802014Y0332580*
X1799695Y0331619*
X1797255Y0331033*
X1794752Y0330836*
X1792250Y0331033*
X1789809Y0331619*
X1787490Y0332580*
X1785350Y0333891*
X1783442Y0335521*
X1781811Y0337430*
X1780500Y0339570*
X1779659Y0341601*
X1779685Y0341610*
X1779684Y0341612*
X1762078Y0392415*
Y0392416*
X1762052Y0392407*
X1761933Y0392695*
X1761346Y0395135*
X1761150Y0397638*
X1761346Y0400140*
X1761933Y0402581*
X1762893Y0404900*
X1764204Y0407040*
X1765835Y0408948*
X1767743Y0410578*
X1769883Y0411890*
X1771914Y0412731*
X1772202Y0412851*
X1774643Y0413437*
X1777145Y0413633*
X1779648Y0413437*
G37*
G36*
X1203141Y0385404D02*
X1204996Y0384841D01*
X1206706Y0383927*
X1208205Y0382698*
X1209435Y0381199*
X1210349Y0379489*
X1210911Y0377634*
X1211102Y0375704*
X1210911Y0373775*
X1210349Y0371919*
X1209435Y0370210*
X1208205Y0368711*
X1206706Y0367481*
X1204996Y0366567*
X1203141Y0366004*
X1201211Y0365814*
X1199282Y0366004*
X1197427Y0366567*
X1195717Y0367481*
X1194218Y0368711*
X1192988Y0370210*
X1192074Y0371919*
X1191511Y0373775*
X1191321Y0375704*
X1191511Y0377634*
X1192074Y0379489*
X1192988Y0381199*
X1194218Y0382698*
X1195717Y0383927*
X1197427Y0384841*
X1199282Y0385404*
X1201211Y0385594*
X1203141Y0385404*
G37*
G36*
X1066465D02*
X1068320Y0384841D01*
X1070030Y0383927*
X1071528Y0382698*
X1072758Y0381199*
X1073672Y0379489*
X1074235Y0377634*
X1074425Y0375704*
X1074235Y0373775*
X1073672Y0371919*
X1072758Y0370210*
X1071528Y0368711*
X1070030Y0367481*
X1068320Y0366567*
X1066465Y0366004*
X1064535Y0365814*
X1062606Y0366004*
X1060750Y0366567*
X1059040Y0367481*
X1057542Y0368711*
X1056312Y0370210*
X1055398Y0371919*
X1054835Y0373775*
X1054645Y0375704*
X1054835Y0377634*
X1055398Y0379489*
X1056312Y0381199*
X1057542Y0382698*
X1059040Y0383927*
X1060750Y0384841*
X1062606Y0385404*
X1064535Y0385594*
X1066465Y0385404*
G37*
G36*
X0931487D02*
X0933342Y0384841D01*
X0935052Y0383927*
X0936551Y0382698*
X0937781Y0381199*
X0938695Y0379489*
X0939258Y0377634*
X0939448Y0375704*
X0939258Y0373775*
X0938695Y0371919*
X0937781Y0370210*
X0936551Y0368711*
X0935052Y0367481*
X0933342Y0366567*
X0931487Y0366004*
X0929558Y0365814*
X0927628Y0366004*
X0925773Y0366567*
X0924063Y0367481*
X0922564Y0368711*
X0921334Y0370210*
X0920420Y0371919*
X0919858Y0373775*
X0919668Y0375704*
X0919858Y0377634*
X0920420Y0379489*
X0921334Y0381199*
X0922564Y0382698*
X0924063Y0383927*
X0925773Y0384841*
X0927628Y0385404*
X0929558Y0385594*
X0931487Y0385404*
G37*
G36*
X1609772D02*
X1611627Y0384841D01*
X1613337Y0383927*
X1614836Y0382698*
X1616066Y0381199*
X1616980Y0379489*
X1617542Y0377634*
X1617733Y0375704*
X1617542Y0373775*
X1616980Y0371919*
X1616066Y0370210*
X1614836Y0368711*
X1613337Y0367481*
X1611627Y0366567*
X1609772Y0366004*
X1607842Y0365814*
X1605913Y0366004*
X1604058Y0366567*
X1602348Y0367481*
X1600849Y0368711*
X1599619Y0370210*
X1598705Y0371919*
X1598142Y0373775*
X1597952Y0375704*
X1598142Y0377634*
X1598705Y0379489*
X1599619Y0381199*
X1600849Y0382698*
X1602348Y0383927*
X1604058Y0384841*
X1605913Y0385404*
X1607842Y0385594*
X1609772Y0385404*
G37*
G36*
X1474794D02*
X1476650Y0384841D01*
X1478360Y0383927*
X1479858Y0382698*
X1481088Y0381199*
X1482002Y0379489*
X1482565Y0377634*
X1482755Y0375704*
X1482565Y0373775*
X1482002Y0371919*
X1481088Y0370210*
X1479858Y0368711*
X1478360Y0367481*
X1476650Y0366567*
X1474794Y0366004*
X1472865Y0365814*
X1470936Y0366004*
X1469080Y0366567*
X1467370Y0367481*
X1465872Y0368711*
X1464642Y0370210*
X1463728Y0371919*
X1463165Y0373775*
X1462975Y0375704*
X1463165Y0377634*
X1463728Y0379489*
X1464642Y0381199*
X1465872Y0382698*
X1467370Y0383927*
X1469080Y0384841*
X1470936Y0385404*
X1472865Y0385594*
X1474794Y0385404*
G37*
G36*
X1338118D02*
X1339974Y0384841D01*
X1341683Y0383927*
X1343182Y0382698*
X1344412Y0381199*
X1345326Y0379489*
X1345889Y0377634*
X1346079Y0375704*
X1345889Y0373775*
X1345326Y0371919*
X1344412Y0370210*
X1343182Y0368711*
X1341683Y0367481*
X1339974Y0366567*
X1338118Y0366004*
X1336189Y0365814*
X1334259Y0366004*
X1332404Y0366567*
X1330694Y0367481*
X1329195Y0368711*
X1327965Y0370210*
X1327051Y0371919*
X1326489Y0373775*
X1326299Y0375704*
X1326489Y0377634*
X1327051Y0379489*
X1327965Y0381199*
X1329195Y0382698*
X1330694Y0383927*
X1332404Y0384841*
X1334259Y0385404*
X1336189Y0385594*
X1338118Y0385404*
G37*
G36*
X1489732Y0342301D02*
X1491588Y0341738D01*
X1493297Y0340824*
X1494796Y0339594*
X1496026Y0338095*
X1496940Y0336385*
X1497503Y0334530*
X1497693Y0332601*
X1497503Y0330671*
X1496940Y0328816*
X1496026Y0327106*
X1494796Y0325607*
X1493297Y0324377*
X1491588Y0323463*
X1489732Y0322901*
X1487803Y0322710*
X1485873Y0322901*
X1484018Y0323463*
X1482308Y0324377*
X1480809Y0325607*
X1479579Y0327106*
X1478665Y0328816*
X1478103Y0330671*
X1477913Y0332601*
X1478103Y0334530*
X1478665Y0336385*
X1479579Y0338095*
X1480809Y0339594*
X1482308Y0340824*
X1484018Y0341738*
X1485873Y0342301*
X1487803Y0342491*
X1489732Y0342301*
G37*
G36*
X1323181D02*
X1325036Y0341738D01*
X1326746Y0340824*
X1328244Y0339594*
X1329474Y0338095*
X1330388Y0336385*
X1330951Y0334530*
X1331141Y0332601*
X1330951Y0330671*
X1330388Y0328816*
X1329474Y0327106*
X1328244Y0325607*
X1326746Y0324377*
X1325036Y0323463*
X1323181Y0322901*
X1321251Y0322710*
X1319322Y0322901*
X1317466Y0323463*
X1315756Y0324377*
X1314258Y0325607*
X1313028Y0327106*
X1312114Y0328816*
X1311551Y0330671*
X1311361Y0332601*
X1311551Y0334530*
X1312114Y0336385*
X1313028Y0338095*
X1314258Y0339594*
X1315756Y0340824*
X1317466Y0341738*
X1319322Y0342301*
X1321251Y0342491*
X1323181Y0342301*
G37*
G36*
X1218079D02*
X1219934Y0341738D01*
X1221644Y0340824*
X1223142Y0339594*
X1224372Y0338095*
X1225286Y0336385*
X1225849Y0334530*
X1226039Y0332601*
X1225849Y0330671*
X1225286Y0328816*
X1224372Y0327106*
X1223142Y0325607*
X1221644Y0324377*
X1219934Y0323463*
X1218079Y0322901*
X1216149Y0322710*
X1214220Y0322901*
X1212364Y0323463*
X1210654Y0324377*
X1209156Y0325607*
X1207926Y0327106*
X1207012Y0328816*
X1206449Y0330671*
X1206259Y0332601*
X1206449Y0334530*
X1207012Y0336385*
X1207926Y0338095*
X1209156Y0339594*
X1210654Y0340824*
X1212364Y0341738*
X1214220Y0342301*
X1216149Y0342491*
X1218079Y0342301*
G37*
G36*
X0236566D02*
X0238421Y0341738D01*
X0240131Y0340824*
X0241630Y0339594*
X0242860Y0338095*
X0243774Y0336385*
X0244336Y0334530*
X0244527Y0332601*
X0244336Y0330671*
X0243774Y0328816*
X0242860Y0327106*
X0241630Y0325607*
X0240131Y0324377*
X0238421Y0323463*
X0236566Y0322901*
X0234636Y0322710*
X0232707Y0322901*
X0230852Y0323463*
X0229142Y0324377*
X0227643Y0325607*
X0226413Y0327106*
X0225499Y0328816*
X0224936Y0330671*
X0224746Y0332601*
X0224936Y0334530*
X0225499Y0336385*
X0226413Y0338095*
X0227643Y0339594*
X0229142Y0340824*
X0230852Y0341738*
X0232707Y0342301*
X0234636Y0342491*
X0236566Y0342301*
G37*
G36*
X1761386D02*
X1763241Y0341738D01*
X1764951Y0340824*
X1766450Y0339594*
X1767680Y0338095*
X1768594Y0336385*
X1769156Y0334530*
X1769347Y0332601*
X1769156Y0330671*
X1768594Y0328816*
X1767680Y0327106*
X1766450Y0325607*
X1764951Y0324377*
X1763241Y0323463*
X1761386Y0322901*
X1759456Y0322710*
X1757527Y0322901*
X1755672Y0323463*
X1753962Y0324377*
X1752463Y0325607*
X1751233Y0327106*
X1750319Y0328816*
X1749756Y0330671*
X1749566Y0332601*
X1749756Y0334530*
X1750319Y0336385*
X1751233Y0338095*
X1752463Y0339594*
X1753962Y0340824*
X1755672Y0341738*
X1757527Y0342301*
X1759456Y0342491*
X1761386Y0342301*
G37*
G36*
X1594834D02*
X1596690Y0341738D01*
X1598399Y0340824*
X1599898Y0339594*
X1601128Y0338095*
X1602042Y0336385*
X1602605Y0334530*
X1602795Y0332601*
X1602605Y0330671*
X1602042Y0328816*
X1601128Y0327106*
X1599898Y0325607*
X1598399Y0324377*
X1596690Y0323463*
X1594834Y0322901*
X1592905Y0322710*
X1590975Y0322901*
X1589120Y0323463*
X1587410Y0324377*
X1585911Y0325607*
X1584681Y0327106*
X1583768Y0328816*
X1583205Y0330671*
X1583015Y0332601*
X1583205Y0334530*
X1583768Y0336385*
X1584681Y0338095*
X1585911Y0339594*
X1587410Y0340824*
X1589120Y0341738*
X1590975Y0342301*
X1592905Y0342491*
X1594834Y0342301*
G37*
G36*
X0674771D02*
X0676626Y0341738D01*
X0678336Y0340824*
X0679835Y0339594*
X0681065Y0338095*
X0681979Y0336385*
X0682542Y0334530*
X0682732Y0332601*
X0682542Y0330671*
X0681979Y0328816*
X0681065Y0327106*
X0679835Y0325607*
X0678336Y0324377*
X0676626Y0323463*
X0674771Y0322901*
X0672842Y0322710*
X0670912Y0322901*
X0669057Y0323463*
X0667347Y0324377*
X0665848Y0325607*
X0664618Y0327106*
X0663704Y0328816*
X0663141Y0330671*
X0662952Y0332601*
X0663141Y0334530*
X0663704Y0336385*
X0664618Y0338095*
X0665848Y0339594*
X0667347Y0340824*
X0669057Y0341738*
X0670912Y0342301*
X0672842Y0342491*
X0674771Y0342301*
G37*
G36*
X0508219D02*
X0510075Y0341738D01*
X0511785Y0340824*
X0513283Y0339594*
X0514513Y0338095*
X0515427Y0336385*
X0515990Y0334530*
X0516180Y0332601*
X0515990Y0330671*
X0515427Y0328816*
X0514513Y0327106*
X0513283Y0325607*
X0511785Y0324377*
X0510075Y0323463*
X0508219Y0322901*
X0506290Y0322710*
X0504360Y0322901*
X0502505Y0323463*
X0500795Y0324377*
X0499297Y0325607*
X0498067Y0327106*
X0497153Y0328816*
X0496590Y0330671*
X0496400Y0332601*
X0496590Y0334530*
X0497153Y0336385*
X0498067Y0338095*
X0499297Y0339594*
X0500795Y0340824*
X0502505Y0341738*
X0504360Y0342301*
X0506290Y0342491*
X0508219Y0342301*
G37*
G36*
X0403117D02*
X0404973Y0341738D01*
X0406683Y0340824*
X0408181Y0339594*
X0409411Y0338095*
X0410325Y0336385*
X0410888Y0334530*
X0411078Y0332601*
X0410888Y0330671*
X0410325Y0328816*
X0409411Y0327106*
X0408181Y0325607*
X0406683Y0324377*
X0404973Y0323463*
X0403117Y0322901*
X0401188Y0322710*
X0399258Y0322901*
X0397403Y0323463*
X0395693Y0324377*
X0394195Y0325607*
X0392965Y0327106*
X0392051Y0328816*
X0391488Y0330671*
X0391298Y0332601*
X0391488Y0334530*
X0392051Y0336385*
X0392965Y0338095*
X0394195Y0339594*
X0395693Y0340824*
X0397403Y0341738*
X0399258Y0342301*
X0401188Y0342491*
X0403117Y0342301*
G37*
G36*
X1051527D02*
X1053382Y0341738D01*
X1055092Y0340824*
X1056591Y0339594*
X1057821Y0338095*
X1058735Y0336385*
X1059297Y0334530*
X1059488Y0332601*
X1059297Y0330671*
X1058735Y0328816*
X1057821Y0327106*
X1056591Y0325607*
X1055092Y0324377*
X1053382Y0323463*
X1051527Y0322901*
X1049597Y0322710*
X1047668Y0322901*
X1045813Y0323463*
X1044103Y0324377*
X1042604Y0325607*
X1041374Y0327106*
X1040460Y0328816*
X1039897Y0330671*
X1039707Y0332601*
X1039897Y0334530*
X1040460Y0336385*
X1041374Y0338095*
X1042604Y0339594*
X1044103Y0340824*
X1045813Y0341738*
X1047668Y0342301*
X1049597Y0342491*
X1051527Y0342301*
G37*
G36*
X0946425D02*
X0948280Y0341738D01*
X0949990Y0340824*
X0951489Y0339594*
X0952719Y0338095*
X0953633Y0336385*
X0954195Y0334530*
X0954385Y0332601*
X0954195Y0330671*
X0953633Y0328816*
X0952719Y0327106*
X0951489Y0325607*
X0949990Y0324377*
X0948280Y0323463*
X0946425Y0322901*
X0944495Y0322710*
X0942566Y0322901*
X0940711Y0323463*
X0939001Y0324377*
X0937502Y0325607*
X0936272Y0327106*
X0935358Y0328816*
X0934795Y0330671*
X0934605Y0332601*
X0934795Y0334530*
X0935358Y0336385*
X0936272Y0338095*
X0937502Y0339594*
X0939001Y0340824*
X0940711Y0341738*
X0942566Y0342301*
X0944495Y0342491*
X0946425Y0342301*
G37*
G36*
X0779873D02*
X0781729Y0341738D01*
X0783438Y0340824*
X0784937Y0339594*
X0786167Y0338095*
X0787081Y0336385*
X0787644Y0334530*
X0787834Y0332601*
X0787644Y0330671*
X0787081Y0328816*
X0786167Y0327106*
X0784937Y0325607*
X0783438Y0324377*
X0781729Y0323463*
X0779873Y0322901*
X0777944Y0322710*
X0776014Y0322901*
X0774159Y0323463*
X0772449Y0324377*
X0770950Y0325607*
X0769720Y0327106*
X0768806Y0328816*
X0768244Y0330671*
X0768053Y0332601*
X0768244Y0334530*
X0768806Y0336385*
X0769720Y0338095*
X0770950Y0339594*
X0772449Y0340824*
X0774159Y0341738*
X0776014Y0342301*
X0777944Y0342491*
X0779873Y0342301*
G37*
G36*
X1210610Y0363853D02*
X1212465Y0363290D01*
X1214175Y0362376*
X1215674Y0361146*
X1216904Y0359647*
X1217817Y0357937*
X1218380Y0356082*
X1218570Y0354152*
X1218380Y0352223*
X1217817Y0350368*
X1216904Y0348658*
X1215674Y0347159*
X1214175Y0345929*
X1212465Y0345015*
X1210610Y0344452*
X1208680Y0344262*
X1206751Y0344452*
X1204895Y0345015*
X1203185Y0345929*
X1201687Y0347159*
X1200457Y0348658*
X1199543Y0350368*
X1198980Y0352223*
X1198790Y0354152*
X1198980Y0356082*
X1199543Y0357937*
X1200457Y0359647*
X1201687Y0361146*
X1203185Y0362376*
X1204895Y0363290*
X1206751Y0363853*
X1208680Y0364042*
X1210610Y0363853*
G37*
G36*
X1058996D02*
X1060851Y0363290D01*
X1062561Y0362376*
X1064060Y0361146*
X1065290Y0359647*
X1066203Y0357937*
X1066766Y0356082*
X1066956Y0354152*
X1066766Y0352223*
X1066203Y0350368*
X1065290Y0348658*
X1064060Y0347159*
X1062561Y0345929*
X1060851Y0345015*
X1058996Y0344452*
X1057066Y0344262*
X1055137Y0344452*
X1053281Y0345015*
X1051572Y0345929*
X1050073Y0347159*
X1048843Y0348658*
X1047929Y0350368*
X1047366Y0352223*
X1047176Y0354152*
X1047366Y0356082*
X1047929Y0357937*
X1048843Y0359647*
X1050073Y0361146*
X1051572Y0362376*
X1053281Y0363290*
X1055137Y0363853*
X1057066Y0364042*
X1058996Y0363853*
G37*
G36*
X0938956D02*
X0940811Y0363290D01*
X0942521Y0362376*
X0944020Y0361146*
X0945250Y0359647*
X0946164Y0357937*
X0946727Y0356082*
X0946917Y0354152*
X0946727Y0352223*
X0946164Y0350368*
X0945250Y0348658*
X0944020Y0347159*
X0942521Y0345929*
X0940811Y0345015*
X0938956Y0344452*
X0937027Y0344262*
X0935097Y0344452*
X0933242Y0345015*
X0931532Y0345929*
X0930033Y0347159*
X0928803Y0348658*
X0927889Y0350368*
X0927326Y0352223*
X0927136Y0354152*
X0927326Y0356082*
X0927889Y0357937*
X0928803Y0359647*
X0930033Y0361146*
X0931532Y0362376*
X0933242Y0363290*
X0935097Y0363853*
X0937027Y0364042*
X0938956Y0363853*
G37*
G36*
X1602303D02*
X1604158Y0363290D01*
X1605868Y0362376*
X1607367Y0361146*
X1608597Y0359647*
X1609511Y0357937*
X1610074Y0356082*
X1610264Y0354152*
X1610074Y0352223*
X1609511Y0350368*
X1608597Y0348658*
X1607367Y0347159*
X1605868Y0345929*
X1604158Y0345015*
X1602303Y0344452*
X1600374Y0344262*
X1598444Y0344452*
X1596589Y0345015*
X1594879Y0345929*
X1593380Y0347159*
X1592150Y0348658*
X1591236Y0350368*
X1590674Y0352223*
X1590483Y0354152*
X1590674Y0356082*
X1591236Y0357937*
X1592150Y0359647*
X1593380Y0361146*
X1594879Y0362376*
X1596589Y0363290*
X1598444Y0363853*
X1600374Y0364042*
X1602303Y0363853*
G37*
G36*
X1482263D02*
X1484119Y0363290D01*
X1485829Y0362376*
X1487327Y0361146*
X1488557Y0359647*
X1489471Y0357937*
X1490034Y0356082*
X1490224Y0354152*
X1490034Y0352223*
X1489471Y0350368*
X1488557Y0348658*
X1487327Y0347159*
X1485829Y0345929*
X1484119Y0345015*
X1482263Y0344452*
X1480334Y0344262*
X1478404Y0344452*
X1476549Y0345015*
X1474839Y0345929*
X1473341Y0347159*
X1472110Y0348658*
X1471197Y0350368*
X1470634Y0352223*
X1470444Y0354152*
X1470634Y0356082*
X1471197Y0357937*
X1472110Y0359647*
X1473341Y0361146*
X1474839Y0362376*
X1476549Y0363290*
X1478404Y0363853*
X1480334Y0364042*
X1482263Y0363853*
G37*
G36*
X1330649D02*
X1332505Y0363290D01*
X1334215Y0362376*
X1335713Y0361146*
X1336943Y0359647*
X1337857Y0357937*
X1338420Y0356082*
X1338610Y0354152*
X1338420Y0352223*
X1337857Y0350368*
X1336943Y0348658*
X1335713Y0347159*
X1334215Y0345929*
X1332505Y0345015*
X1330649Y0344452*
X1328720Y0344262*
X1326791Y0344452*
X1324935Y0345015*
X1323225Y0345929*
X1321727Y0347159*
X1320497Y0348658*
X1319583Y0350368*
X1319020Y0352223*
X1318830Y0354152*
X1319020Y0356082*
X1319583Y0357937*
X1320497Y0359647*
X1321727Y0361146*
X1323225Y0362376*
X1324935Y0363290*
X1326791Y0363853*
X1328720Y0364042*
X1330649Y0363853*
G37*
G36*
X1125424Y0352165D02*
X1117594Y0338602D01*
X1101933*
X1094102Y0352165*
X1101933Y0365728*
X1117594*
X1125424Y0352165*
G37*
G36*
X0395649Y0363853D02*
X0397504Y0363290D01*
X0399214Y0362376*
X0400712Y0361146*
X0401942Y0359647*
X0402856Y0357937*
X0403419Y0356082*
X0403609Y0354152*
X0403419Y0352223*
X0402856Y0350368*
X0401942Y0348658*
X0400712Y0347159*
X0399214Y0345929*
X0397504Y0345015*
X0395649Y0344452*
X0393719Y0344262*
X0391790Y0344452*
X0389934Y0345015*
X0388225Y0345929*
X0386726Y0347159*
X0385496Y0348658*
X0384582Y0350368*
X0384019Y0352223*
X0383829Y0354152*
X0384019Y0356082*
X0384582Y0357937*
X0385496Y0359647*
X0386726Y0361146*
X0388225Y0362376*
X0389934Y0363290*
X0391790Y0363853*
X0393719Y0364042*
X0395649Y0363853*
G37*
G36*
X1444716Y0352165D02*
X1436885Y0338602D01*
X1421224*
X1413394Y0352165*
X1421224Y0365728*
X1436885*
X1444716Y0352165*
G37*
G36*
X0787342Y0363853D02*
X0789197Y0363290D01*
X0790907Y0362376*
X0792406Y0361146*
X0793636Y0359647*
X0794550Y0357937*
X0795113Y0356082*
X0795303Y0354152*
X0795113Y0352223*
X0794550Y0350368*
X0793636Y0348658*
X0792406Y0347159*
X0790907Y0345929*
X0789197Y0345015*
X0787342Y0344452*
X0785413Y0344262*
X0783483Y0344452*
X0781628Y0345015*
X0779918Y0345929*
X0778419Y0347159*
X0777189Y0348658*
X0776275Y0350368*
X0775712Y0352223*
X0775522Y0354152*
X0775712Y0356082*
X0776275Y0357937*
X0777189Y0359647*
X0778419Y0361146*
X0779918Y0362376*
X0781628Y0363290*
X0783483Y0363853*
X0785413Y0364042*
X0787342Y0363853*
G37*
G36*
X0667302D02*
X0669158Y0363290D01*
X0670867Y0362376*
X0672366Y0361146*
X0673596Y0359647*
X0674510Y0357937*
X0675073Y0356082*
X0675263Y0354152*
X0675073Y0352223*
X0674510Y0350368*
X0673596Y0348658*
X0672366Y0347159*
X0670867Y0345929*
X0669158Y0345015*
X0667302Y0344452*
X0665373Y0344262*
X0663443Y0344452*
X0661588Y0345015*
X0659878Y0345929*
X0658379Y0347159*
X0657150Y0348658*
X0656236Y0350368*
X0655673Y0352223*
X0655483Y0354152*
X0655673Y0356082*
X0656236Y0357937*
X0657150Y0359647*
X0658379Y0361146*
X0659878Y0362376*
X0661588Y0363290*
X0663443Y0363853*
X0665373Y0364042*
X0667302Y0363853*
G37*
G36*
X0515688D02*
X0517544Y0363290D01*
X0519253Y0362376*
X0520752Y0361146*
X0521982Y0359647*
X0522896Y0357937*
X0523459Y0356082*
X0523649Y0354152*
X0523459Y0352223*
X0522896Y0350368*
X0521982Y0348658*
X0520752Y0347159*
X0519253Y0345929*
X0517544Y0345015*
X0515688Y0344452*
X0513759Y0344262*
X0511829Y0344452*
X0509974Y0345015*
X0508264Y0345929*
X0506766Y0347159*
X0505536Y0348658*
X0504622Y0350368*
X0504059Y0352223*
X0503869Y0354152*
X0504059Y0356082*
X0504622Y0357937*
X0505536Y0359647*
X0506766Y0361146*
X0508264Y0362376*
X0509974Y0363290*
X0511829Y0363853*
X0513759Y0364042*
X0515688Y0363853*
G37*
%LNbigstructuralpcb-2*%
%LPC*%
G36*
X1779684Y0268625D02*
Y0268624D01*
X1779685Y0268626*
X1779684Y0268625*
G37*
G36*
X0232015Y0392416D02*
X0232014Y0392415D01*
X0232015Y0392416*
G37*
%LNbigstructuralpcb-3*%
%LPD*%
G36*
X1792213Y0207378D02*
D01*
G37*
G36*
D01*
G37*
G54D37*
X0624472Y0266000D03*
X0583528D03*
G54D38*
X0617779Y0258913D03*
X0615811D03*
X0613842D03*
X0611874D03*
X0609905D03*
X0607937D03*
X0605969D03*
X0604000D03*
X0602032D03*
X0600063D03*
X0598095D03*
X0596126D03*
X0594158D03*
X0592189D03*
X0590220D03*
Y0273087D03*
X0592189D03*
X0594158D03*
X0596126D03*
X0598095D03*
X0600063D03*
X0602032D03*
X0604000D03*
X0605969D03*
X0607937D03*
X0609905D03*
X0611874D03*
X0613842D03*
X0615811D03*
X0617779D03*
G54D39*
X1726574Y0289764D03*
X0329290Y0253474D03*
X0293531Y0340551D03*
X0323425Y0333071D03*
X0195078Y0294094D03*
X0194685Y0316929D03*
G54D40*
X0621913Y0260094D03*
X0586087D03*
G54D41*
X0169071Y0316000D03*
X0152535D03*
X0136000D03*
X0169071Y0294346D03*
X0152535D03*
X0136000D03*
G54D42*
X1666000Y0301842D03*
Y0292000D03*
Y0311685D03*
Y0321528D03*
Y0331370D03*
Y0341213D03*
Y0351055D03*
G54D43*
X0294201Y0397638D03*
X0341625D03*
Y0212598D03*
X0294201D03*
X0418878D03*
X0436485Y0263404D03*
Y0346832D03*
X0418878Y0397638D03*
X0216948Y0212598D03*
X0199341Y0263404D03*
Y0346832D03*
X0216948Y0397638D03*
X0690531Y0212598D03*
X0708138Y0263404D03*
Y0346832D03*
X0690531Y0397638D03*
X0488602Y0212598D03*
X0470995Y0263404D03*
Y0346832D03*
X0488602Y0397638D03*
X0962185Y0212598D03*
X0979792Y0263404D03*
Y0346832D03*
X0962185Y0397638D03*
X0760255Y0212598D03*
X0742649Y0263404D03*
Y0346832D03*
X0760255Y0397638D03*
X1233838Y0212598D03*
X1251445Y0263404D03*
Y0346832D03*
X1233838Y0397638D03*
X1031909Y0212598D03*
X1014302Y0263404D03*
Y0346832D03*
X1031909Y0397638D03*
X1505492Y0212598D03*
X1523099Y0263404D03*
Y0346832D03*
X1505492Y0397638D03*
X1303563Y0212598D03*
X1285956Y0263404D03*
Y0346832D03*
X1303563Y0397638D03*
X1777145Y0212598D03*
X1794752Y0263404D03*
Y0346832D03*
X1777145Y0397638D03*
X1575216Y0212598D03*
X1557609Y0263404D03*
Y0346832D03*
X1575216Y0397638D03*
X0115111Y0340551D03*
X0160386Y0344488D03*
Y0265748D03*
X0115111Y0269685D03*
G54D44*
X0589567Y0305118D03*
X0861220D03*
G54D45*
X0847441Y0298819D03*
X0907677Y0293307D03*
M02*