%FSDAX25Y25*%
%MOIN*%
%SFA1B1*%

%IPPOS*%
%ADD39C,0.100390*%
%ADD40C,0.043310*%
%ADD41C,0.084650*%
%ADD42C,0.064840*%
%ADD43C,0.127950*%
%ADD44C,0.167320*%
%ADD45C,0.064960*%
%ADD46R,0.033470X0.064960*%
%ADD47R,0.059060X0.068900*%
%LNbigstructuralpcb-1*%
%LPD*%
G54D39*
X1726574Y0289764D03*
X0329290Y0253474D03*
X0293531Y0340551D03*
X0323425Y0333071D03*
X0195078Y0294094D03*
X0194685Y0316929D03*
G54D40*
X0621913Y0260094D03*
X0586087D03*
G54D41*
X0169071Y0316000D03*
X0152535D03*
X0136000D03*
X0169071Y0294346D03*
X0152535D03*
X0136000D03*
G54D42*
X1666000Y0301842D03*
Y0292000D03*
Y0311685D03*
Y0321528D03*
Y0331370D03*
Y0341213D03*
Y0351055D03*
G54D43*
X0294201Y0397638D03*
X0341625D03*
Y0212598D03*
X0294201D03*
X0418878D03*
X0436485Y0263404D03*
Y0346832D03*
X0418878Y0397638D03*
X0216948Y0212598D03*
X0199341Y0263404D03*
Y0346832D03*
X0216948Y0397638D03*
X0690531Y0212598D03*
X0708138Y0263404D03*
Y0346832D03*
X0690531Y0397638D03*
X0488602Y0212598D03*
X0470995Y0263404D03*
Y0346832D03*
X0488602Y0397638D03*
X0962185Y0212598D03*
X0979792Y0263404D03*
Y0346832D03*
X0962185Y0397638D03*
X0760255Y0212598D03*
X0742649Y0263404D03*
Y0346832D03*
X0760255Y0397638D03*
X1233838Y0212598D03*
X1251445Y0263404D03*
Y0346832D03*
X1233838Y0397638D03*
X1031909Y0212598D03*
X1014302Y0263404D03*
Y0346832D03*
X1031909Y0397638D03*
X1505492Y0212598D03*
X1523099Y0263404D03*
Y0346832D03*
X1505492Y0397638D03*
X1303563Y0212598D03*
X1285956Y0263404D03*
Y0346832D03*
X1303563Y0397638D03*
X1777145Y0212598D03*
X1794752Y0263404D03*
Y0346832D03*
X1777145Y0397638D03*
X1575216Y0212598D03*
X1557609Y0263404D03*
Y0346832D03*
X1575216Y0397638D03*
X0115111Y0340551D03*
X0160386Y0344488D03*
Y0265748D03*
X0115111Y0269685D03*
G54D44*
X0589567Y0305118D03*
X0861220D03*
G54D45*
X0847441Y0298819D03*
X0907677Y0293307D03*
G54D46*
X0370000Y0267740D03*
X0366260Y0260260D03*
X0373740D03*
X1654000Y0265740D03*
X1650260Y0258260D03*
X1657740D03*
X1396000Y0267740D03*
X1392260Y0260260D03*
X1399740D03*
X0863740Y0258260D03*
X0856260D03*
X0860000Y0265740D03*
X0559740Y0260260D03*
X0552260D03*
X0556000Y0267740D03*
X1155740Y0258260D03*
X1148260D03*
X1152000Y0265740D03*
G54D47*
X0350177Y0267118D03*
X0357067D03*
X0574956Y0269118D03*
X0568067D03*
X1170956Y0273118D03*
X1164067D03*
X1638956Y0257118D03*
X1632067D03*
X0878956Y0273118D03*
X0872067D03*
X1380956D03*
X1374067D03*
M02*