%FSDAX25Y25*%
%MOIN*%
%SFA1B1*%

%IPPOS*%
%ADD9500C,0.011810*%
%ADD9501C,0.015750*%
%ADD9502C,0.023620*%
%ADD9503C,0.027560*%
%ADD9504C,0.035000*%
%ADD9505C,0.055120*%
%ADD9506C,0.078740*%
%ADD9507C,0.118110*%
%ADD9508C,0.125980*%
%LNbigstructuralpcb-1*%
%LPD*%
G54D9500*
X0636221Y0267323D03*
G54D9501*
X1722835Y0251969D03*
X1724803Y0257480D03*
X1720472Y0259055D03*
X1722835Y0262992D03*
X1716929Y0265354D03*
X1715354Y0261024D03*
X1711024Y0262992D03*
X1706693Y0264961D03*
X1705118Y0260630D03*
X1709055Y0257480D03*
X1713386Y0255906D03*
X1711024Y0251969D03*
X1716929Y0249606D03*
X1718504Y0253937D03*
X1712992Y0268504D03*
X1708661Y0270079D03*
X1711024Y0274016D03*
X1705118Y0276378D03*
X1703543Y0272047D03*
X1701575Y0266929D03*
X1697244Y0268504D03*
X1699213Y0262992D03*
X1094488Y0303937D03*
X1090158Y0305512D03*
X1092520Y0309449D03*
X1086614Y0311811D03*
X1085039Y0307480D03*
X1080709Y0309449D03*
X1076378Y0311024D03*
X1074409Y0305906D03*
X1072835Y0301575D03*
X1070472Y0297638D03*
X1074803Y0296063D03*
X1080709Y0298425D03*
X1083071Y0302362D03*
X1078740Y0303937D03*
X1066929D03*
X1065354Y0299606D03*
X1061024Y0301575D03*
X1056693Y0303150D03*
X1059055Y0307087D03*
X1060630Y0311417D03*
X1064961Y0309449D03*
D03*
X1069291Y0307874D03*
X1053150Y0309449D03*
D03*
X1051575Y0305118D03*
X1049606Y0300000D03*
X1054724Y0298031D03*
X1059055Y0296063D03*
X1086614D03*
X1088189Y0300394D03*
X1092520Y0298425D03*
X0607874Y0266929D03*
X0601875Y0266639D03*
X0592520Y0266929D03*
X0595866Y0251575D03*
X0600787Y0250197D03*
X0606102Y0249016D03*
X0612008Y0249606D03*
X0620276Y0246654D03*
X0372835Y0331890D03*
X0368898Y0334252D03*
X0367323Y0329921D03*
X0361811Y0331890D03*
X0357480Y0333465D03*
X0359449Y0337795D03*
X0363779Y0336221D03*
X0365748Y0341339D03*
X0367323Y0345669D03*
X0372835Y0343701D03*
X0370866Y0339370D03*
X0375197Y0337795D03*
X0361811Y0343701D03*
X0356299Y0345669D03*
X0351969Y0347244D03*
X0350000Y0342126D03*
X0348425Y0337795D03*
X0352362Y0335433D03*
X0353937Y0339764D03*
X0342913D03*
X0338583Y0341339D03*
X0340551Y0345669D03*
X0344882Y0344094D03*
X0333465Y0343307D03*
X0335039Y0347638D03*
X0336614Y0336221D03*
X0335039Y0331890D03*
X0340551Y0333858D03*
X0346063Y0331890D03*
X0350394Y0330315D03*
X0331496Y0338189D03*
X1055512Y0313386D03*
X1071260Y0312992D03*
X1081693Y0368110D03*
X1173425Y0344488D03*
G54D9502*
X0586087Y0260094D03*
X0621913D03*
G54D9503*
X1133267Y0310236D03*
X1077756Y0266535D03*
X0891141Y0275197D03*
X0907677Y0293307D03*
X0899606Y0302362D03*
X0847441Y0298819D03*
X0828149Y0290158D03*
X0803551Y0280260D03*
X0623228Y0278346D03*
X0611024Y0282874D03*
X0604134Y0281299D03*
X0585827Y0278740D03*
X0559842Y0287992D03*
X0574645Y0310275D03*
X0526378Y0277264D03*
X0616535Y0266142D03*
X0275886Y0277854D03*
X0794881Y0326772D03*
X1066535Y0324213D03*
G54D9504*
X1666000Y0292000D03*
Y0301842D03*
Y0311685D03*
Y0321528D03*
Y0331370D03*
Y0341213D03*
Y0351055D03*
G54D9505*
X0169071Y0294346D03*
X0152535D03*
X0136000D03*
Y0316000D03*
X0152535D03*
X0169071D03*
G54D9506*
X1726574Y0289764D03*
X0329290Y0253474D03*
X0195078Y0294094D03*
X0194685Y0316929D03*
X0293531Y0340551D03*
X0323425Y0333071D03*
G54D9507*
X1777145Y0212598D03*
X1794752Y0263404D03*
X1575216Y0212598D03*
X1557609Y0263404D03*
X1523099D03*
X1505492Y0212598D03*
X1303563D03*
X1285956Y0263404D03*
X1251445D03*
X1233838Y0212598D03*
X1031909D03*
X1014302Y0263404D03*
X0979792D03*
X0962185Y0212598D03*
X0861220Y0305118D03*
X0742649Y0263404D03*
X0708138D03*
X0690531Y0212598D03*
X0760255D03*
X0589567Y0305118D03*
X0470995Y0263404D03*
X0488602Y0212598D03*
X0418878D03*
X0436485Y0263404D03*
X0341625Y0212598D03*
X0294201D03*
X0216948D03*
X0199341Y0263404D03*
X0160386Y0265748D03*
X0115111Y0269685D03*
Y0340551D03*
X0160386Y0344488D03*
X0199341Y0346832D03*
X0216948Y0397638D03*
X0294201D03*
X0341625D03*
X0418878D03*
X0436485Y0346832D03*
X0470995D03*
X0488602Y0397638D03*
X0690531D03*
X0708138Y0346832D03*
X0742649D03*
X0760255Y0397638D03*
X0962185D03*
X0979792Y0346832D03*
X1014302D03*
X1031909Y0397638D03*
X1233838D03*
X1251445Y0346832D03*
X1285956D03*
X1303563Y0397638D03*
X1505492D03*
X1523099Y0346832D03*
X1557609D03*
X1575216Y0397638D03*
X1777145D03*
X1794752Y0346832D03*
G54D9508*
X1429134Y0258268D03*
X1109842Y0258071D03*
Y0352165D03*
X1429134Y0352362D03*
M02*