%FSAX24Y24*%
%MOIN*%
G70*
G01*
G75*
G04 Layer_Physical_Order=1*
G04 Layer_Color=255*
%ADD10C,0.0150*%
%ADD11R,0.1535X0.1102*%
%ADD12R,0.0709X0.2087*%
%ADD13R,0.1772X0.0709*%
%ADD14R,0.1969X0.1969*%
%ADD15R,0.0709X0.2126*%
%ADD16R,0.0532X0.0807*%
%ADD17O,0.0768X0.0236*%
%ADD18R,0.0433X0.0236*%
%ADD19O,0.0118X0.0650*%
%ADD20O,0.0807X0.0157*%
%ADD21R,0.0492X0.0709*%
%ADD22R,0.0669X0.0433*%
%ADD23R,0.0472X0.0433*%
%ADD24R,0.0610X0.1161*%
%ADD25R,0.0394X0.0433*%
%ADD26R,0.0433X0.0394*%
%ADD27R,0.0394X0.0315*%
%ADD28R,0.0315X0.0394*%
%ADD29R,0.1575X0.0787*%
%ADD30R,0.3307X0.4154*%
%ADD31R,0.0787X0.1575*%
%ADD32R,0.4154X0.3307*%
%ADD33R,0.1732X0.1575*%
%ADD34C,0.0080*%
%ADD35C,0.0200*%
%ADD36C,0.0110*%
%ADD37C,0.0300*%
%ADD38C,0.0100*%
%ADD39C,0.0550*%
%ADD40R,0.0591X0.0591*%
%ADD41C,0.0591*%
%ADD42C,0.0670*%
%ADD43C,0.1500*%
%ADD44C,0.1800*%
%ADD45C,0.0240*%
%ADD46C,0.0320*%
%ADD47C,0.0315*%
G36*
X045899Y026748D02*
X045900Y026746D01*
Y022220D01*
X045280Y021600D01*
X044817D01*
Y021631D01*
X044183D01*
Y021600D01*
X042088D01*
Y023327D01*
X042378D01*
Y025142D01*
X041350D01*
Y023327D01*
X041640D01*
Y021600D01*
X037467D01*
X036986Y022081D01*
Y023327D01*
X037276D01*
Y025142D01*
X036248D01*
Y024984D01*
X036202Y024965D01*
X035374Y025793D01*
Y026750D01*
X045888D01*
X045899Y026748D01*
D02*
G37*
G36*
X054403Y019837D02*
X054450Y019828D01*
X057609D01*
Y017149D01*
X042876D01*
X042050Y017700D01*
Y019200D01*
X043024Y019850D01*
X054384D01*
X054403Y019837D01*
D02*
G37*
G36*
X040800Y019200D02*
Y017700D01*
X040249Y017149D01*
X029349D01*
Y019800D01*
X040200D01*
X040800Y019200D01*
D02*
G37*
G36*
X060750Y025400D02*
Y023450D01*
X060050Y022750D01*
Y022549D01*
X057808D01*
X057732Y022534D01*
X057667Y022491D01*
X057624Y022426D01*
X057609Y022350D01*
Y021829D01*
X056044D01*
X055968Y021813D01*
X055904Y021770D01*
X055860Y021706D01*
X055845Y021630D01*
Y021059D01*
X055860Y020983D01*
X055904Y020918D01*
X055968Y020875D01*
X056044Y020860D01*
X057609D01*
Y019950D01*
X054450D01*
X054350Y020050D01*
X049561D01*
Y020618D01*
X048927D01*
Y020480D01*
X048681D01*
Y020618D01*
X048047D01*
Y020050D01*
X047719D01*
X047650Y020119D01*
Y020933D01*
X047667D01*
Y021567D01*
X047650D01*
Y025550D01*
X047976Y025876D01*
X051844D01*
Y025142D01*
X051554D01*
Y023327D01*
X052582D01*
Y025142D01*
X052292D01*
Y025876D01*
X056946D01*
Y025142D01*
X056656D01*
Y023327D01*
X057684D01*
Y025142D01*
X057394D01*
Y025876D01*
X060274D01*
X060750Y025400D01*
D02*
G37*
G36*
X053450Y041250D02*
X055700Y039000D01*
X060314D01*
Y038734D01*
X060147D01*
Y037786D01*
X060879D01*
Y038734D01*
X060712D01*
Y039000D01*
X061170D01*
Y037543D01*
X060982Y037354D01*
X060676D01*
Y037447D01*
X059891D01*
Y037786D01*
X060033D01*
Y038734D01*
X059301D01*
Y037786D01*
X059442D01*
Y037447D01*
X059333D01*
Y036813D01*
X060676D01*
Y036906D01*
X061075D01*
X061160Y036923D01*
X061233Y036971D01*
X061553Y037291D01*
X061602Y037364D01*
X061614Y037428D01*
X061664Y037423D01*
Y026800D01*
X046011D01*
X045987Y026837D01*
X045947Y026863D01*
X045900Y026872D01*
X035374D01*
Y029900D01*
X035357Y029986D01*
X035309Y030059D01*
X033759Y031609D01*
X033686Y031657D01*
X033600Y031674D01*
X031593D01*
X031274Y031993D01*
Y034650D01*
X031257Y034736D01*
X031251Y034745D01*
X031245Y036701D01*
X031280Y036737D01*
X033100D01*
X033162Y036749D01*
X033215Y036785D01*
X033281Y036850D01*
X036300D01*
X040800Y041350D01*
Y044850D01*
X053450D01*
Y041250D01*
D02*
G37*
G36*
X030826Y034274D02*
Y031900D01*
X030843Y031814D01*
X030891Y031741D01*
X031341Y031291D01*
X031414Y031243D01*
X031500Y031226D01*
X033507D01*
X034700Y030033D01*
X034700Y027546D01*
X034654Y027527D01*
X034115Y028065D01*
X034062Y028101D01*
X034000Y028113D01*
X026818D01*
X026515Y028415D01*
X026462Y028451D01*
X026400Y028463D01*
X025300D01*
X025238Y028451D01*
X025185Y028415D01*
X024832Y028063D01*
X021604D01*
X021600Y028067D01*
Y031050D01*
X025050Y034500D01*
X030600D01*
X030826Y034274D01*
D02*
G37*
G36*
X026318Y027175D02*
X026371Y027139D01*
X026434Y027127D01*
X033632D01*
X034027Y026732D01*
Y020587D01*
X033733D01*
Y019922D01*
X029349D01*
Y020445D01*
X030930D01*
X031006Y020460D01*
X031070Y020503D01*
X031113Y020568D01*
X031128Y020644D01*
Y021167D01*
X031113Y021243D01*
X031070Y021308D01*
X031037Y021341D01*
X030973Y021384D01*
X030897Y021399D01*
X029357D01*
Y022500D01*
X029342Y022576D01*
X029298Y022641D01*
X029234Y022684D01*
X029158Y022699D01*
X022651D01*
X021600Y023750D01*
Y027137D01*
X025176D01*
X025239Y027149D01*
X025292Y027185D01*
X025297Y027190D01*
X025341Y027167D01*
X025341Y027165D01*
X025357Y027046D01*
X025403Y026936D01*
X025475Y026840D01*
X025571Y026768D01*
X025681Y026722D01*
X025800Y026706D01*
X025919Y026722D01*
X026029Y026768D01*
X026125Y026840D01*
X026197Y026936D01*
X026243Y027046D01*
X026259Y027165D01*
X026259Y027167D01*
X026303Y027190D01*
X026318Y027175D01*
D02*
G37*
D10*
X025082Y041900D02*
G03*
X025009Y041870I000000J-000102D01*
G01*
X025082Y041900D02*
G03*
X025009Y041870I000000J-000102D01*
G01*
X025082Y041900D02*
G03*
X025009Y041870I000000J-000102D01*
G01*
X045150Y020750D02*
X045447Y020453D01*
X027329Y041321D02*
X027650D01*
X027050Y042250D02*
Y042901D01*
X028352Y040963D02*
Y041730D01*
X028372Y041185D02*
X029129D01*
X028358Y041435D02*
X029129D01*
X028352Y041730D02*
X028557Y041935D01*
X028397Y041685D02*
X029129D01*
X027115Y040935D02*
X029129D01*
X028557Y041935D02*
X029129D01*
X034050Y041650D02*
X035574D01*
X037190Y042290D02*
X037190Y042290D01*
Y041790D02*
Y042290D01*
Y041790D02*
X037244Y041736D01*
X035451Y044850D02*
X035530Y044771D01*
X033850Y044850D02*
X035451D01*
X054532Y043550D02*
Y044376D01*
X046524Y021250D02*
X047390D01*
X046072Y020409D02*
X046803D01*
X055201Y043550D02*
X055562D01*
X024340Y037500D02*
X025700D01*
X024340D02*
Y037970D01*
X037190Y043290D02*
X039144D01*
X029129Y039185D02*
X030015D01*
X036944Y044042D02*
X037190Y043796D01*
X036244Y044010D02*
X036912D01*
X037190Y043290D02*
Y043796D01*
X032050Y041050D02*
Y041250D01*
Y040850D02*
Y041050D01*
X031650Y041820D02*
X032015Y042185D01*
X031650Y040600D02*
Y041820D01*
Y040600D02*
X032065Y040185D01*
X032811D01*
X032050Y040850D02*
X032215Y040685D01*
X032050Y041250D02*
X032235Y041435D01*
X032811D01*
X036244Y043290D02*
Y043970D01*
Y043270D02*
Y043290D01*
Y042550D02*
Y043230D01*
Y042530D02*
Y042550D01*
X037190Y042790D02*
Y043290D01*
X036674Y040241D02*
X036954D01*
X037244Y040530D01*
Y041736D01*
X036005Y040904D02*
X036011Y040910D01*
X036674D01*
X028720Y036870D02*
Y037690D01*
X035574Y043290D02*
Y044010D01*
Y042550D02*
Y043290D01*
Y042530D02*
Y042550D01*
X035374Y042530D02*
X035574D01*
X036244Y041750D02*
Y042530D01*
Y041700D02*
Y041750D01*
Y041700D02*
X036674Y041270D01*
Y040910D02*
Y041270D01*
X035094Y042250D02*
X035374Y042530D01*
X033450Y042700D02*
X033780Y043030D01*
X033216Y042185D02*
X033450Y042419D01*
X032811Y042185D02*
X033216D01*
X034893Y042250D02*
X035094D01*
X033450Y042419D02*
Y042700D01*
X032015Y042185D02*
X032811D01*
X032065Y038935D02*
X032811D01*
X034803Y044019D02*
Y044100D01*
X034469Y043685D02*
X034803Y044019D01*
X032811Y043685D02*
X034469D01*
X033740Y043935D02*
Y044740D01*
X033850Y044850D01*
X033550D02*
X033850D01*
X033040Y045360D02*
X033550Y044850D01*
X048364Y020281D02*
X049244D01*
X030950Y045620D02*
X031302Y045268D01*
X029727Y043201D02*
X030125Y043600D01*
X033969Y043935D02*
X034134Y044100D01*
X032811Y043935D02*
X033969D01*
X034109Y040935D02*
X034399Y041225D01*
X032811Y040935D02*
X034104D01*
X029129Y038685D02*
X029965D01*
X030420Y038230D01*
X029655Y038435D02*
X029930Y038160D01*
X029129Y038435D02*
X029655D01*
X029113Y038919D02*
X029129Y038935D01*
X028708Y038919D02*
X029113D01*
X028511Y038261D02*
Y038722D01*
Y038261D02*
X028720Y038052D01*
X028511Y038722D02*
X028708Y038919D01*
X028720Y037690D02*
Y038052D01*
X028090Y038740D02*
X028535Y039185D01*
X029129D01*
X030125Y043600D02*
Y044125D01*
X029146Y043201D02*
X029727D01*
X029129Y043185D02*
X029146Y043201D01*
X027920Y046050D02*
X028320Y045650D01*
X027600Y046050D02*
X027920D01*
X028100Y044650D02*
X028400Y044350D01*
Y043850D02*
Y044350D01*
Y043850D02*
X028565Y043685D01*
X029129D01*
Y044185D02*
Y044750D01*
X027450Y042200D02*
Y043600D01*
X027273Y043777D02*
X027450Y043600D01*
X027030Y043777D02*
X027273D01*
X025750Y040201D02*
Y040980D01*
X026418Y039919D02*
X029113D01*
X026510Y039685D02*
X029129D01*
X026205Y039380D02*
X026510Y039685D01*
X026205Y038605D02*
Y039380D01*
X026164Y039665D02*
X026418Y039919D01*
X026964Y040435D02*
X029129D01*
X025750Y041649D02*
X026964Y040435D01*
X027040Y040685D02*
X029129D01*
X025760Y040334D02*
X025909Y040185D01*
X029129D01*
X027050Y041600D02*
X027329Y041321D01*
X027450Y042200D02*
X027650Y042000D01*
X025760Y039665D02*
X026164D01*
X025950Y038350D02*
X026205Y038605D01*
X028385Y042185D02*
X029129D01*
X028200Y042000D02*
X028385Y042185D01*
X027650Y042000D02*
X028200D01*
X026750Y044008D02*
X027030Y043728D01*
X026750Y044008D02*
Y044614D01*
X025750Y041649D02*
X025750D01*
X026950Y045650D02*
X027100Y045500D01*
X027550D01*
X025760Y039019D02*
Y039665D01*
X025750Y042964D02*
Y043610D01*
X027990Y042710D02*
X028265Y042435D01*
X027990Y042710D02*
Y042980D01*
X028265Y042435D02*
X029050D01*
X025009Y039910D02*
X025254Y039665D01*
X025760D01*
X025009Y040890D02*
X025099Y040980D01*
X025750D01*
Y041870D02*
Y042295D01*
Y041649D02*
Y041870D01*
X025009Y042850D02*
X025124Y042964D01*
X025750D01*
Y040344D02*
Y040980D01*
X022650Y045200D02*
X023350D01*
X023449Y045299D01*
Y045594D01*
X025750Y040980D02*
X025789Y041019D01*
X025009Y043850D02*
X025439Y044279D01*
X025750D01*
X025009Y041870D02*
X025750D01*
X025700Y037500D02*
X026435Y038235D01*
Y039285D01*
X026585Y039435D01*
X029129D01*
X055632Y044750D02*
X056054D01*
X055562Y044680D02*
X055632Y044750D01*
X055562Y043550D02*
X055903D01*
X055562D02*
Y044050D01*
Y044680D01*
X055109Y045124D02*
Y046100D01*
X026450Y037200D02*
X027125Y037875D01*
X045150Y020750D02*
Y021700D01*
X033780Y043030D02*
X034224D01*
X034893D02*
Y043549D01*
X032811Y041935D02*
X033510D01*
X033825Y042250D01*
X034224D01*
X032811Y041185D02*
X033585D01*
X034050Y041650D01*
X032811Y041685D02*
X033685D01*
X033880Y041880D01*
X034724D01*
X034893Y042049D01*
Y042250D01*
X032811Y039685D02*
X033615D01*
X034149Y039151D01*
X034394D01*
X032811Y040185D02*
X033485D01*
X033861Y040561D01*
X034394D01*
X032215Y040685D02*
X032811D01*
X032265Y040435D02*
X032811D01*
X032215Y040485D02*
X032265Y040435D01*
X032215Y040485D02*
Y040685D01*
X037594Y041150D02*
X038734Y042290D01*
X039198D01*
X055809Y041570D02*
Y042140D01*
Y041570D02*
X055829Y041550D01*
X054282Y041580D02*
Y042140D01*
X031575Y044185D02*
X032811D01*
X029129Y042935D02*
X029835D01*
X029129Y043435D02*
X029635D01*
X029850Y043650D01*
Y043900D01*
X037190Y041790D02*
X037641D01*
X038450Y042599D01*
X038840Y041790D02*
X039198D01*
X054532Y044376D02*
X055109D01*
X054532D02*
Y044855D01*
X053542Y045845D02*
X054532Y044855D01*
X039734Y041790D02*
X039950Y042006D01*
X039198Y041790D02*
X039734D01*
X036396Y039293D02*
X036487D01*
X037594Y040400D01*
Y041150D01*
X036294Y038650D02*
X037894Y040250D01*
Y040844D01*
X038840Y041790D01*
X039950Y042006D02*
Y045450D01*
X031302Y044458D02*
X031575Y044185D01*
X031302Y044458D02*
Y045268D01*
X039950Y045450D02*
X040345Y045845D01*
X053542D01*
X029835Y042935D02*
X030430Y043530D01*
X027050Y041600D02*
Y042250D01*
X026450Y041600D02*
X027115Y040935D01*
X025750Y044279D02*
X025971D01*
X026450Y043800D01*
X026220Y041505D02*
X027040Y040685D01*
X025750Y042964D02*
X026220Y042494D01*
Y041505D02*
Y042494D01*
X026450Y041600D02*
Y043800D01*
X026800Y042250D02*
X027050D01*
X028090Y038020D02*
Y038740D01*
X026750Y038000D02*
Y038400D01*
X026890Y038540D01*
Y038740D01*
X027870Y037800D02*
X028090Y038020D01*
X030450Y046000D02*
X030550Y046100D01*
X030450Y044675D02*
Y046000D01*
X030660Y038990D02*
X031549Y038101D01*
Y037201D02*
Y038101D01*
Y037201D02*
X031650Y037100D01*
X032838D01*
X032839Y037101D01*
X032951D01*
X033150Y037300D01*
Y038435D01*
X032811D02*
X033150D01*
X029389Y037690D02*
X030400D01*
X030420Y037410D02*
Y038230D01*
X031921Y037610D02*
Y038079D01*
X030890Y039110D02*
X031921Y038079D01*
X030890Y041740D02*
X031835Y042685D01*
X032811D01*
X030890Y039110D02*
Y041740D01*
X031165Y039685D02*
X032811D01*
X060513Y038260D02*
Y039123D01*
X060187Y039450D02*
X060513Y039123D01*
X029520Y045280D02*
Y045650D01*
X030430Y043530D02*
Y044370D01*
X029520Y045280D02*
X030430Y044370D01*
X030660Y038990D02*
Y044465D01*
X030450Y044675D02*
X030660Y044465D01*
D11*
X051090Y019302D02*
D03*
Y022098D02*
D03*
D12*
X031355Y020900D02*
D03*
D13*
X030115Y020211D02*
D03*
Y021588D02*
D03*
X056843Y022063D02*
D03*
Y020646D02*
D03*
D14*
X030213Y018577D02*
D03*
X056745Y018618D02*
D03*
D15*
X055603Y021354D02*
D03*
D16*
X025750Y045650D02*
D03*
X026950D02*
D03*
X028320D02*
D03*
X029520D02*
D03*
X026890Y038740D02*
D03*
X028090D02*
D03*
X033040Y045360D02*
D03*
X031840D02*
D03*
D17*
X039198Y041790D02*
D03*
Y042290D02*
D03*
Y042790D02*
D03*
Y043290D02*
D03*
X037190Y041790D02*
D03*
Y042290D02*
D03*
Y042790D02*
D03*
Y043290D02*
D03*
D18*
X055109Y044376D02*
D03*
Y044750D02*
D03*
Y045124D02*
D03*
X056054D02*
D03*
Y044750D02*
D03*
Y044376D02*
D03*
D19*
X035917Y040907D02*
D03*
X035721D02*
D03*
X035524D02*
D03*
X035327D02*
D03*
X035130D02*
D03*
X035917Y039293D02*
D03*
X035721D02*
D03*
X035524D02*
D03*
X035327D02*
D03*
X035130D02*
D03*
D20*
X032811Y038435D02*
D03*
Y038685D02*
D03*
Y038935D02*
D03*
Y039185D02*
D03*
Y039435D02*
D03*
Y039685D02*
D03*
Y039935D02*
D03*
Y040185D02*
D03*
Y040435D02*
D03*
Y040685D02*
D03*
Y040935D02*
D03*
Y041185D02*
D03*
Y041435D02*
D03*
Y041685D02*
D03*
Y041935D02*
D03*
Y042185D02*
D03*
Y042435D02*
D03*
Y042685D02*
D03*
Y042935D02*
D03*
Y043185D02*
D03*
Y043435D02*
D03*
Y043685D02*
D03*
Y043935D02*
D03*
Y044185D02*
D03*
X029129Y038435D02*
D03*
Y038685D02*
D03*
Y038935D02*
D03*
Y039185D02*
D03*
Y039435D02*
D03*
Y039685D02*
D03*
Y039935D02*
D03*
Y040185D02*
D03*
Y040435D02*
D03*
Y040685D02*
D03*
Y040935D02*
D03*
Y041185D02*
D03*
Y041435D02*
D03*
Y041685D02*
D03*
Y041935D02*
D03*
Y042185D02*
D03*
Y042435D02*
D03*
Y042685D02*
D03*
Y042935D02*
D03*
Y043185D02*
D03*
Y043435D02*
D03*
Y043685D02*
D03*
Y043935D02*
D03*
Y044185D02*
D03*
D21*
X059667Y038260D02*
D03*
X060513D02*
D03*
D22*
X052980Y019640D02*
D03*
Y020703D02*
D03*
X053810Y019640D02*
D03*
Y020703D02*
D03*
D23*
X027030Y042901D02*
D03*
Y043728D02*
D03*
X035530Y045598D02*
D03*
Y044771D02*
D03*
D24*
X024611Y045650D02*
D03*
X023449D02*
D03*
D25*
X056572Y042140D02*
D03*
Y042809D02*
D03*
X055045D02*
D03*
Y042140D02*
D03*
X055809Y042809D02*
D03*
Y042140D02*
D03*
X054282D02*
D03*
Y042809D02*
D03*
X033850Y044850D02*
D03*
Y045519D02*
D03*
X034394Y040561D02*
D03*
Y041230D02*
D03*
X030950Y045620D02*
D03*
Y044951D02*
D03*
X027990Y043649D02*
D03*
Y042980D02*
D03*
X027650Y041331D02*
D03*
Y042000D02*
D03*
X025760Y039019D02*
D03*
Y038350D02*
D03*
Y040334D02*
D03*
Y039665D02*
D03*
X025750Y041649D02*
D03*
Y040980D02*
D03*
Y042964D02*
D03*
Y042295D02*
D03*
Y044279D02*
D03*
Y043610D02*
D03*
X034394Y039151D02*
D03*
Y039820D02*
D03*
X049244Y020950D02*
D03*
Y020281D02*
D03*
X048364D02*
D03*
Y019612D02*
D03*
X036674Y040241D02*
D03*
Y040910D02*
D03*
X034050Y019581D02*
D03*
Y020250D02*
D03*
X020460Y036429D02*
D03*
Y035760D02*
D03*
X043560Y021120D02*
D03*
Y021789D02*
D03*
X042780D02*
D03*
Y021120D02*
D03*
D26*
X056572Y043550D02*
D03*
X055903D02*
D03*
X055201D02*
D03*
X054532D02*
D03*
X027201Y037800D02*
D03*
X027870D02*
D03*
X034134Y044100D02*
D03*
X034803D02*
D03*
X036244Y041750D02*
D03*
X035574D02*
D03*
X031089Y037410D02*
D03*
X030420D02*
D03*
X028720Y036870D02*
D03*
X029389D02*
D03*
X034893Y042250D02*
D03*
X034224D02*
D03*
X035574Y043290D02*
D03*
X036244D02*
D03*
X024340Y043850D02*
D03*
X025009D02*
D03*
Y042850D02*
D03*
X024340D02*
D03*
Y041870D02*
D03*
X025009D02*
D03*
Y040890D02*
D03*
X024340D02*
D03*
Y039910D02*
D03*
X025009D02*
D03*
Y038930D02*
D03*
X024340D02*
D03*
X035574Y042550D02*
D03*
X036244D02*
D03*
X025009Y037970D02*
D03*
X024340D02*
D03*
X029389Y037690D02*
D03*
X028720D02*
D03*
X034224Y043030D02*
D03*
X034893D02*
D03*
X031921Y037610D02*
D03*
X032590D02*
D03*
X034664Y038340D02*
D03*
X035334D02*
D03*
X025009Y037010D02*
D03*
X024340D02*
D03*
X035574Y044010D02*
D03*
X036244D02*
D03*
X060339Y037130D02*
D03*
X059670D02*
D03*
X046072Y020409D02*
D03*
X045403D02*
D03*
X047472D02*
D03*
X046803D02*
D03*
X047209Y022929D02*
D03*
X047878D02*
D03*
X047879Y022059D02*
D03*
X047210D02*
D03*
D27*
X044500Y020267D02*
D03*
Y020700D02*
D03*
Y021786D02*
D03*
Y021353D02*
D03*
D28*
X046091Y021250D02*
D03*
X046524D02*
D03*
X047823D02*
D03*
X047390D02*
D03*
D29*
X028735Y033040D02*
D03*
X028735Y035040D02*
D03*
D30*
X033065Y034040D02*
D03*
D31*
X046966Y024235D02*
D03*
X048966Y024235D02*
D03*
X038762D02*
D03*
X036762Y024235D02*
D03*
X052068D02*
D03*
X054068Y024235D02*
D03*
X043864D02*
D03*
X041864Y024235D02*
D03*
X057170D02*
D03*
X059170Y024235D02*
D03*
D32*
X047966Y028565D02*
D03*
X037762D02*
D03*
X053068D02*
D03*
X042864D02*
D03*
X058170D02*
D03*
D33*
X039924Y018430D02*
D03*
X042916D02*
D03*
D34*
X041710D02*
X042522D01*
X041500Y018640D02*
X041710Y018430D01*
X041500Y018640D02*
Y020226D01*
X041166Y020560D02*
X041500Y020226D01*
X036276Y020560D02*
X041166D01*
X034700Y022136D02*
X036276Y020560D01*
X034700Y022136D02*
Y027015D01*
X033955Y027760D02*
X034700Y027015D01*
X026666Y027760D02*
X033955D01*
X026276Y028150D02*
X026666Y027760D01*
X025350Y028150D02*
X026276D01*
X024960Y027760D02*
X025350Y028150D01*
X021466Y027760D02*
X024960D01*
X020810Y028416D02*
X021466Y027760D01*
X020810Y028416D02*
Y034184D01*
X022816Y036190D01*
X029990D01*
X031089Y037289D01*
Y037410D01*
X021276Y027460D02*
X025110D01*
X020450Y028286D02*
X021276Y027460D01*
X025110D02*
X025500Y027850D01*
X025009Y036659D02*
Y037010D01*
X024900Y036550D02*
X025009Y036659D01*
X022700Y036550D02*
X024900D01*
X020450Y034300D02*
X022700Y036550D01*
X020450Y028286D02*
Y034300D01*
X040738Y018850D02*
X040990D01*
X041150Y019010D01*
Y020090D01*
X041040Y020200D02*
X041150Y020090D01*
X036134Y020200D02*
X041040D01*
X034350Y021984D02*
X036134Y020200D01*
X034350Y021984D02*
Y026865D01*
X033765Y027450D02*
X034350Y026865D01*
X028774Y027450D02*
X033765D01*
X026500D02*
X028774D01*
X026100Y027850D02*
X026500Y027450D01*
X025500Y027850D02*
X026100D01*
X040318Y018430D02*
X041130D01*
X041340Y018640D01*
Y020160D01*
X041100Y020400D02*
X041340Y020160D01*
X036210Y020400D02*
X041100D01*
X034540Y022070D02*
X036210Y020400D01*
X034540Y022070D02*
Y026949D01*
X033889Y027600D02*
X034540Y026949D01*
X026600Y027600D02*
X033889D01*
X026210Y027990D02*
X026600Y027600D01*
X025416Y027990D02*
X026210D01*
X025026Y027600D02*
X025416Y027990D01*
X021400Y027600D02*
X025026D01*
X020650Y028350D02*
X021400Y027600D01*
X020650Y028350D02*
Y034250D01*
X022750Y036350D01*
X029250D01*
X029389Y036489D01*
Y036870D01*
X041850Y018850D02*
X042102D01*
X041690Y019010D02*
X041850Y018850D01*
X041690Y019010D02*
Y020260D01*
X041250Y020700D02*
X041690Y020260D01*
X036350Y020700D02*
X041250D01*
X034850Y022200D02*
X036350Y020700D01*
X034850Y022200D02*
Y027100D01*
X034000Y027950D02*
X034850Y027100D01*
X026750Y027950D02*
X034000D01*
X026400Y028300D02*
X026750Y027950D01*
X025300Y028300D02*
X026400D01*
X024900Y027900D02*
X025300Y028300D01*
X021536Y027900D02*
X024900D01*
X021000Y028436D02*
X021536Y027900D01*
X021000Y028436D02*
Y034150D01*
X022900Y036050D01*
X030300D01*
X031150Y036900D01*
X033100D01*
X033950Y037750D01*
X036250D01*
X040145Y041645D01*
Y045369D01*
X040426Y045650D01*
X053112D01*
X054162Y044600D01*
X034050Y020250D02*
X034190Y020390D01*
Y026799D01*
X033699Y027290D02*
X034190Y026799D01*
X026434Y027290D02*
X033699D01*
X026054Y027670D02*
X026434Y027290D01*
X025546Y027670D02*
X026054D01*
X025176Y027300D02*
X025546Y027670D01*
X021070Y027300D02*
X025176D01*
X021050Y027320D02*
X021070Y027300D01*
D35*
X020230Y034391D02*
X020460Y034621D01*
X020230Y027220D02*
Y034391D01*
X020460Y034621D02*
Y035760D01*
X020800Y026650D02*
X022000D01*
X020230Y027220D02*
X020800Y026650D01*
X035451Y045519D02*
X035530Y045598D01*
X036190D01*
X054321Y042809D02*
X054532Y043020D01*
X054321Y042809D02*
X055045D01*
X054532Y043020D02*
Y043550D01*
X043560Y020540D02*
Y021120D01*
X042780D02*
X043560D01*
X047209Y022929D02*
Y023279D01*
X036615Y024235D02*
X036762D01*
X035150Y025700D02*
X036615Y024235D01*
X035150Y025700D02*
Y029900D01*
X033600Y031450D02*
X035150Y029900D01*
X031500Y031450D02*
X033600D01*
X031050Y031900D02*
X031500Y031450D01*
X031050Y031900D02*
Y034650D01*
X030660Y035040D02*
X031050Y034650D01*
X028735Y035040D02*
X030660D01*
X047000Y023488D02*
X047209Y023279D01*
X046966Y024235D02*
X047000Y024201D01*
X047225Y022059D02*
Y022929D01*
X046091Y021250D02*
Y021641D01*
X046509Y022059D01*
X047210D01*
X044500Y020700D02*
Y021353D01*
X024340Y037010D02*
Y037970D01*
X023000Y037944D02*
X024314D01*
X027990Y043649D02*
Y044150D01*
X025009Y038350D02*
X025950D01*
X023000Y043850D02*
X024340D01*
X025009Y038350D02*
Y038930D01*
X057880Y042150D02*
X057970D01*
X023007Y040890D02*
X024340D01*
X023003Y039910D02*
X024340D01*
X023000Y038929D02*
X024339D01*
X025009Y037970D02*
Y038350D01*
X023000Y041881D02*
X024328D01*
X023016Y042850D02*
X024340D01*
X021050Y037019D02*
Y042350D01*
X022550Y043850D01*
X023000D01*
X056054Y044376D02*
X056572Y043858D01*
Y043550D02*
Y043858D01*
Y042809D02*
Y043550D01*
X055892Y042809D02*
X056572D01*
Y042150D02*
X057970D01*
X047600Y026100D02*
X052068D01*
X046966Y025466D02*
X047600Y026100D01*
X046966Y024235D02*
Y025466D01*
X052068Y024235D02*
Y026100D01*
X057170D01*
Y024235D02*
Y026100D01*
X033850Y045519D02*
X035451D01*
X060250Y025400D02*
X060550D01*
X061100Y025950D01*
X057170Y026100D02*
X060600D01*
X060800Y026300D01*
X036762Y024235D02*
Y024300D01*
X041864Y021120D02*
Y024235D01*
X041994Y021120D02*
X042780D01*
X043560Y020540D02*
X043833Y020267D01*
X044500D01*
X036762Y021988D02*
Y024235D01*
Y021988D02*
X037630Y021120D01*
X041994D01*
X054962Y041750D02*
Y042140D01*
Y041750D02*
X055546Y041166D01*
X057970D01*
Y040181D02*
X058582D01*
X058850Y040450D01*
Y044450D01*
X057200Y046100D02*
X058850Y044450D01*
X047450Y046100D02*
X057200D01*
X030550D02*
X047450D01*
X020460Y036429D02*
X021050Y037019D01*
X059667Y037133D02*
Y038260D01*
X061225Y045088D02*
X061395Y044919D01*
Y037450D02*
Y044919D01*
X061075Y037130D02*
X061395Y037450D01*
X060339Y037130D02*
X061075D01*
X030950Y044330D02*
X031020Y044260D01*
X030950Y044330D02*
Y044951D01*
D36*
X035327Y040283D02*
Y040400D01*
Y039742D02*
Y040283D01*
Y039293D02*
Y039742D01*
X035524Y040420D02*
X035544Y040400D01*
X035754D01*
X035327D02*
X035544D01*
X035524Y040420D02*
Y040907D01*
X034454Y038340D02*
X034664D01*
X033359Y039435D02*
X034454Y038340D01*
X032811Y039435D02*
X033359D01*
X032811Y038685D02*
X033315D01*
X035917Y039293D02*
X036387D01*
X035327Y038340D02*
Y039293D01*
X036433Y040000D02*
X036674Y040241D01*
X035744Y040000D02*
X036433D01*
X035524Y039780D02*
X035744Y040000D01*
X035524Y039293D02*
Y039780D01*
X036002Y040904D02*
X036005D01*
X035915D02*
X035917D01*
Y040907D02*
X036002D01*
X035327Y040400D02*
Y040907D01*
X035754Y040400D02*
X035915Y040561D01*
Y040904D01*
X035130Y040461D02*
Y040907D01*
X034604Y039935D02*
X035130Y040461D01*
X032811Y039935D02*
X034604D01*
X034664Y038340D02*
X035130Y038806D01*
Y039293D01*
Y040907D02*
X035133Y040910D01*
X031840Y044568D02*
Y045360D01*
X035130Y040646D02*
Y040907D01*
X036244Y038600D02*
X036294Y038650D01*
X035721Y038858D02*
Y039293D01*
Y038858D02*
X035879Y038700D01*
X033315Y038685D02*
X034050Y037950D01*
X036044D02*
X036244Y038150D01*
X034050Y037950D02*
X036044D01*
X035334Y038340D02*
X035934D01*
X036244Y038150D02*
Y038550D01*
X036094Y038700D02*
X036244Y038550D01*
X035879Y038700D02*
X036094D01*
D37*
X025190Y045650D02*
X025750D01*
X024611D02*
X025190D01*
D38*
X059850Y044500D02*
X061300Y045950D01*
D39*
X057970Y041166D02*
D03*
Y040181D02*
D03*
Y042150D02*
D03*
Y043134D02*
D03*
Y044119D02*
D03*
X023000Y037944D02*
D03*
Y038929D02*
D03*
Y039913D02*
D03*
Y040897D02*
D03*
Y041881D02*
D03*
Y043850D02*
D03*
Y042866D02*
D03*
D40*
X026220Y036990D02*
D03*
D41*
X027220D02*
D03*
D42*
X025800Y027165D02*
D03*
D43*
X027800Y025350D02*
D03*
Y028980D02*
D03*
D44*
X023800Y025350D02*
D03*
Y028980D02*
D03*
D45*
X021040Y027300D02*
D03*
X036190Y045598D02*
D03*
X054282Y041580D02*
D03*
X056382Y044048D02*
D03*
X030015Y039185D02*
D03*
X036944Y044042D02*
D03*
X037190Y043796D02*
D03*
X032050Y041050D02*
D03*
X032015Y042185D02*
D03*
X037244Y040530D02*
D03*
X032065Y038935D02*
D03*
X031840Y044568D02*
D03*
X029930Y038160D02*
D03*
X027600Y046050D02*
D03*
X028100Y044650D02*
D03*
X027550Y045500D02*
D03*
X029129Y044750D02*
D03*
X026750Y044614D02*
D03*
Y038000D02*
D03*
X025190Y045650D02*
D03*
X022650Y045200D02*
D03*
X055562Y044050D02*
D03*
X061100Y025950D02*
D03*
X060800Y026300D02*
D03*
X043560Y020540D02*
D03*
X043833Y020267D02*
D03*
X034893Y043549D02*
D03*
X038450Y042599D02*
D03*
X055829Y041550D02*
D03*
X054162Y044600D02*
D03*
X035850Y038340D02*
D03*
X038044Y041600D02*
D03*
X029850Y043900D02*
D03*
X030150Y044150D02*
D03*
X026800Y042250D02*
D03*
X061300Y045950D02*
D03*
X059850Y044500D02*
D03*
X031165Y039685D02*
D03*
X032100D02*
D03*
X061222Y045085D02*
D03*
X060187Y039450D02*
D03*
D46*
X034440Y019180D02*
D03*
X052950Y019090D02*
D03*
X049950Y019300D02*
D03*
X057668Y022885D02*
D03*
X056768D02*
D03*
X054366Y021235D02*
D03*
X053466D02*
D03*
X054366Y021985D02*
D03*
X053466D02*
D03*
X052566Y021235D02*
D03*
Y021985D02*
D03*
Y022885D02*
D03*
X051666D02*
D03*
X049866Y021985D02*
D03*
X048966D02*
D03*
X058720Y022885D02*
D03*
X059620D02*
D03*
X059170D02*
D03*
X060070Y023335D02*
D03*
Y024235D02*
D03*
Y023785D02*
D03*
Y024685D02*
D03*
Y025135D02*
D03*
Y025585D02*
D03*
X059620D02*
D03*
X059170D02*
D03*
X058720D02*
D03*
X058270D02*
D03*
Y024685D02*
D03*
Y023785D02*
D03*
Y025135D02*
D03*
Y024235D02*
D03*
Y023335D02*
D03*
Y022885D02*
D03*
X053168D02*
D03*
Y023335D02*
D03*
Y024235D02*
D03*
Y025135D02*
D03*
Y023785D02*
D03*
Y024685D02*
D03*
Y025585D02*
D03*
X053618D02*
D03*
X054068D02*
D03*
X054518D02*
D03*
X054968D02*
D03*
Y025135D02*
D03*
Y024685D02*
D03*
Y023785D02*
D03*
Y024235D02*
D03*
Y023335D02*
D03*
Y022885D02*
D03*
X054068D02*
D03*
X054518D02*
D03*
X053618D02*
D03*
X055868D02*
D03*
Y023785D02*
D03*
Y024685D02*
D03*
Y025585D02*
D03*
X050766D02*
D03*
Y024685D02*
D03*
Y023785D02*
D03*
Y022885D02*
D03*
X048516D02*
D03*
X049416D02*
D03*
X048966D02*
D03*
X049866D02*
D03*
Y023335D02*
D03*
Y024235D02*
D03*
Y023785D02*
D03*
Y024685D02*
D03*
Y025135D02*
D03*
Y025585D02*
D03*
X049416D02*
D03*
X048966D02*
D03*
X048516D02*
D03*
X048066D02*
D03*
Y024685D02*
D03*
Y023785D02*
D03*
Y025135D02*
D03*
Y024235D02*
D03*
X045664Y022885D02*
D03*
Y023785D02*
D03*
Y024685D02*
D03*
Y025585D02*
D03*
X042964Y022435D02*
D03*
X043864D02*
D03*
X044764D02*
D03*
X043864Y026485D02*
D03*
X044764D02*
D03*
X041164D02*
D03*
X042064D02*
D03*
X042964D02*
D03*
X041164Y025585D02*
D03*
X042064D02*
D03*
X042964Y024235D02*
D03*
Y023335D02*
D03*
Y025135D02*
D03*
Y023785D02*
D03*
Y024685D02*
D03*
Y025585D02*
D03*
X043414D02*
D03*
X043864D02*
D03*
X044314D02*
D03*
X044764D02*
D03*
Y025135D02*
D03*
Y024685D02*
D03*
Y023785D02*
D03*
Y024235D02*
D03*
Y023335D02*
D03*
Y022885D02*
D03*
X043864D02*
D03*
X044314D02*
D03*
X042964D02*
D03*
X043414D02*
D03*
X037412D02*
D03*
X037862Y021985D02*
D03*
X038762D02*
D03*
X039662D02*
D03*
X040562D02*
D03*
Y022885D02*
D03*
Y023785D02*
D03*
Y024685D02*
D03*
Y025585D02*
D03*
Y026485D02*
D03*
X039662D02*
D03*
X038762D02*
D03*
X036962D02*
D03*
Y025585D02*
D03*
X037862Y026485D02*
D03*
X038312Y022885D02*
D03*
X037862D02*
D03*
X039212D02*
D03*
X038762D02*
D03*
X039662D02*
D03*
Y023335D02*
D03*
Y024235D02*
D03*
Y023785D02*
D03*
Y024685D02*
D03*
Y025135D02*
D03*
Y025585D02*
D03*
X039212D02*
D03*
X038762D02*
D03*
X038312D02*
D03*
X037862D02*
D03*
Y024685D02*
D03*
Y023785D02*
D03*
Y025135D02*
D03*
Y023335D02*
D03*
Y024235D02*
D03*
X031870Y020150D02*
D03*
Y021000D02*
D03*
X030170Y021850D02*
D03*
X031020D02*
D03*
X031870D02*
D03*
Y022700D02*
D03*
X031020D02*
D03*
X030170D02*
D03*
X031870Y023550D02*
D03*
X031020D02*
D03*
Y024400D02*
D03*
X029320Y022950D02*
D03*
X028470D02*
D03*
X027620D02*
D03*
X023370D02*
D03*
X025070D02*
D03*
X024220D02*
D03*
X026770D02*
D03*
X025920D02*
D03*
Y026100D02*
D03*
X029320D02*
D03*
X022050Y025730D02*
D03*
Y024880D02*
D03*
X023800Y024180D02*
D03*
X023215Y024337D02*
D03*
X022787Y024765D02*
D03*
X022630Y025350D02*
D03*
X022787Y025935D02*
D03*
X024813D02*
D03*
X024970Y025350D02*
D03*
X024813Y024765D02*
D03*
X024385Y024337D02*
D03*
X027800Y024330D02*
D03*
X027290Y024467D02*
D03*
X026917Y024840D02*
D03*
X026780Y025350D02*
D03*
X026917Y025860D02*
D03*
X028683D02*
D03*
X028820Y025350D02*
D03*
X028683Y024840D02*
D03*
X028310Y024467D02*
D03*
X025920Y025250D02*
D03*
Y024400D02*
D03*
X026770D02*
D03*
X025070D02*
D03*
X025920Y023550D02*
D03*
X026770D02*
D03*
X024220D02*
D03*
X025070D02*
D03*
X023370D02*
D03*
X022520D02*
D03*
Y024400D02*
D03*
X022050Y024030D02*
D03*
X027620Y023550D02*
D03*
X028470D02*
D03*
X029320D02*
D03*
Y024400D02*
D03*
Y025250D02*
D03*
X028670Y024200D02*
D03*
X025270Y025050D02*
D03*
X026570D02*
D03*
X030170Y025980D02*
D03*
Y025250D02*
D03*
Y024400D02*
D03*
Y023550D02*
D03*
X035212Y031548D02*
D03*
Y032398D02*
D03*
Y033248D02*
D03*
Y034098D02*
D03*
Y034948D02*
D03*
Y035798D02*
D03*
X053918Y040048D02*
D03*
X037762Y037498D02*
D03*
X040314Y040048D02*
D03*
X047116Y044298D02*
D03*
X047966D02*
D03*
X052218D02*
D03*
X053068D02*
D03*
X048816D02*
D03*
X042014D02*
D03*
X042864D02*
D03*
X043714D02*
D03*
X044564D02*
D03*
X049666D02*
D03*
X050516D02*
D03*
X045414D02*
D03*
X041164D02*
D03*
X046266D02*
D03*
X051368D02*
D03*
X047116Y043448D02*
D03*
X047966D02*
D03*
X052218D02*
D03*
X053068D02*
D03*
X048816D02*
D03*
X042014D02*
D03*
X042864D02*
D03*
X043714D02*
D03*
X044564D02*
D03*
X049666D02*
D03*
X050516D02*
D03*
X045414D02*
D03*
X041164D02*
D03*
X046266D02*
D03*
X051368D02*
D03*
X047116Y042598D02*
D03*
X047966D02*
D03*
X052218D02*
D03*
X053068D02*
D03*
X048816D02*
D03*
X042014D02*
D03*
X042864D02*
D03*
X043714D02*
D03*
X044564D02*
D03*
X049666D02*
D03*
X050516D02*
D03*
X045414D02*
D03*
X041164D02*
D03*
X046266D02*
D03*
X051368D02*
D03*
X047116Y041748D02*
D03*
X047966D02*
D03*
X052218D02*
D03*
X053068D02*
D03*
X048816D02*
D03*
X042014D02*
D03*
X042864D02*
D03*
X043714D02*
D03*
X044564D02*
D03*
X049666D02*
D03*
X050516D02*
D03*
X045414D02*
D03*
X041164D02*
D03*
X046266D02*
D03*
X051368D02*
D03*
X047116Y040898D02*
D03*
X047966D02*
D03*
X052218D02*
D03*
X053068D02*
D03*
X048816D02*
D03*
X042014D02*
D03*
X042864D02*
D03*
X043714D02*
D03*
X044564D02*
D03*
X049666D02*
D03*
X050516D02*
D03*
X045414D02*
D03*
X041164D02*
D03*
X046266D02*
D03*
X051368D02*
D03*
X047116Y040048D02*
D03*
X047966D02*
D03*
X052218D02*
D03*
X053068D02*
D03*
X048816D02*
D03*
X042014D02*
D03*
X042864D02*
D03*
X043714D02*
D03*
X044564D02*
D03*
X049666D02*
D03*
X050516D02*
D03*
X045414D02*
D03*
X041164D02*
D03*
X046266D02*
D03*
X051368D02*
D03*
X034348Y034890D02*
D03*
Y034040D02*
D03*
Y033190D02*
D03*
X033498D02*
D03*
Y034040D02*
D03*
Y034890D02*
D03*
X032648Y033190D02*
D03*
Y034040D02*
D03*
Y034890D02*
D03*
Y032340D02*
D03*
X033498D02*
D03*
X034348D02*
D03*
X032648Y035740D02*
D03*
X033498D02*
D03*
X034348D02*
D03*
X031798D02*
D03*
Y032340D02*
D03*
Y034890D02*
D03*
Y034040D02*
D03*
Y033190D02*
D03*
X051368Y039198D02*
D03*
X046266D02*
D03*
X041164D02*
D03*
X045414D02*
D03*
X050516D02*
D03*
X054768D02*
D03*
X049666D02*
D03*
X044564D02*
D03*
X040312D02*
D03*
X039462D02*
D03*
X043714D02*
D03*
X042864D02*
D03*
X042014D02*
D03*
X048816D02*
D03*
X053918D02*
D03*
X053068D02*
D03*
X052218D02*
D03*
X047966D02*
D03*
X047116D02*
D03*
X056470Y038348D02*
D03*
X051368D02*
D03*
X046266D02*
D03*
X041164D02*
D03*
X045414D02*
D03*
X050516D02*
D03*
X055618D02*
D03*
X054768D02*
D03*
X049666D02*
D03*
X044564D02*
D03*
X040312D02*
D03*
X039462D02*
D03*
X038612D02*
D03*
X043714D02*
D03*
X042864D02*
D03*
X042014D02*
D03*
X048816D02*
D03*
X053918D02*
D03*
X053068D02*
D03*
X052218D02*
D03*
X059020D02*
D03*
X058170D02*
D03*
X057320D02*
D03*
X047966D02*
D03*
X047116D02*
D03*
X056470Y037498D02*
D03*
X051368D02*
D03*
X046266D02*
D03*
X041164D02*
D03*
X045414D02*
D03*
X050516D02*
D03*
X055618D02*
D03*
X054768D02*
D03*
X049666D02*
D03*
X044564D02*
D03*
X040312D02*
D03*
X039462D02*
D03*
X038612D02*
D03*
X043714D02*
D03*
X042864D02*
D03*
X042014D02*
D03*
X048816D02*
D03*
X053918D02*
D03*
X053068D02*
D03*
X052218D02*
D03*
X059020D02*
D03*
X058170D02*
D03*
X057320D02*
D03*
X047966D02*
D03*
X047116D02*
D03*
Y036648D02*
D03*
X047966D02*
D03*
X057320D02*
D03*
X058170D02*
D03*
X059020D02*
D03*
X052218D02*
D03*
X053068D02*
D03*
X053918D02*
D03*
X048816D02*
D03*
X042014D02*
D03*
X042864D02*
D03*
X043714D02*
D03*
X036912D02*
D03*
X037762D02*
D03*
X038612D02*
D03*
X039462D02*
D03*
X040312D02*
D03*
X044564D02*
D03*
X049666D02*
D03*
X054768D02*
D03*
X055618D02*
D03*
X059870D02*
D03*
X050516D02*
D03*
X045414D02*
D03*
X041164D02*
D03*
X046266D02*
D03*
X051368D02*
D03*
X056470D02*
D03*
X047116Y035798D02*
D03*
X047966D02*
D03*
X057320D02*
D03*
X058170D02*
D03*
X059020D02*
D03*
X052218D02*
D03*
X053068D02*
D03*
X053918D02*
D03*
X048816D02*
D03*
X042014D02*
D03*
X042864D02*
D03*
X043714D02*
D03*
X036912D02*
D03*
X037762D02*
D03*
X038612D02*
D03*
X039462D02*
D03*
X040312D02*
D03*
X044564D02*
D03*
X049666D02*
D03*
X054768D02*
D03*
X055618D02*
D03*
X059870D02*
D03*
X050516D02*
D03*
X045414D02*
D03*
X036062D02*
D03*
X041164D02*
D03*
X046266D02*
D03*
X051368D02*
D03*
X056470D02*
D03*
X047116Y034948D02*
D03*
X047966D02*
D03*
X057320D02*
D03*
X058170D02*
D03*
X059020D02*
D03*
X052218D02*
D03*
X053068D02*
D03*
X053918D02*
D03*
X048816D02*
D03*
X042014D02*
D03*
X042864D02*
D03*
X043714D02*
D03*
X036912D02*
D03*
X037762D02*
D03*
X038612D02*
D03*
X039462D02*
D03*
X040312D02*
D03*
X044564D02*
D03*
X049666D02*
D03*
X054768D02*
D03*
X055618D02*
D03*
X059870D02*
D03*
X050516D02*
D03*
X045414D02*
D03*
X036062D02*
D03*
X041164D02*
D03*
X046266D02*
D03*
X051368D02*
D03*
X056470D02*
D03*
X047116Y034098D02*
D03*
X047966D02*
D03*
X057320D02*
D03*
X058170D02*
D03*
X059020D02*
D03*
X052218D02*
D03*
X053068D02*
D03*
X053918D02*
D03*
X048816D02*
D03*
X042014D02*
D03*
X042864D02*
D03*
X043714D02*
D03*
X036912D02*
D03*
X037762D02*
D03*
X038612D02*
D03*
X039462D02*
D03*
X040312D02*
D03*
X044564D02*
D03*
X049666D02*
D03*
X054768D02*
D03*
X055618D02*
D03*
X059870D02*
D03*
X050516D02*
D03*
X045414D02*
D03*
X036062D02*
D03*
X041164D02*
D03*
X046266D02*
D03*
X051368D02*
D03*
X056470D02*
D03*
X047116Y033248D02*
D03*
X047966D02*
D03*
X057320D02*
D03*
X058170D02*
D03*
X059020D02*
D03*
X052218D02*
D03*
X053068D02*
D03*
X053918D02*
D03*
X048816D02*
D03*
X042014D02*
D03*
X042864D02*
D03*
X043714D02*
D03*
X036912D02*
D03*
X037762D02*
D03*
X038612D02*
D03*
X039462D02*
D03*
X040312D02*
D03*
X044564D02*
D03*
X049666D02*
D03*
X054768D02*
D03*
X055618D02*
D03*
X059870D02*
D03*
X050516D02*
D03*
X045414D02*
D03*
X036062D02*
D03*
X041164D02*
D03*
X046266D02*
D03*
X051368D02*
D03*
X056470D02*
D03*
X047116Y032398D02*
D03*
X047966D02*
D03*
X057320D02*
D03*
X058170D02*
D03*
X059020D02*
D03*
X052218D02*
D03*
X053068D02*
D03*
X053918D02*
D03*
X048816D02*
D03*
X042014D02*
D03*
X042864D02*
D03*
X043714D02*
D03*
X036912D02*
D03*
X037762D02*
D03*
X038612D02*
D03*
X039462D02*
D03*
X040312D02*
D03*
X044564D02*
D03*
X049666D02*
D03*
X054768D02*
D03*
X055618D02*
D03*
X059870D02*
D03*
X050516D02*
D03*
X045414D02*
D03*
X036062D02*
D03*
X041164D02*
D03*
X046266D02*
D03*
X051368D02*
D03*
X056470D02*
D03*
X047116Y031548D02*
D03*
X047966D02*
D03*
X057320D02*
D03*
X058170D02*
D03*
X059020D02*
D03*
X052218D02*
D03*
X053068D02*
D03*
X053918D02*
D03*
X048816D02*
D03*
X042014D02*
D03*
X042864D02*
D03*
X043714D02*
D03*
X036912D02*
D03*
X037762D02*
D03*
X038612D02*
D03*
X039462D02*
D03*
X040312D02*
D03*
X044564D02*
D03*
X049666D02*
D03*
X054768D02*
D03*
X055618D02*
D03*
X059870D02*
D03*
X050516D02*
D03*
X045414D02*
D03*
X036062D02*
D03*
X041164D02*
D03*
X046266D02*
D03*
X051368D02*
D03*
X056470D02*
D03*
X047116Y030698D02*
D03*
X047966D02*
D03*
X057320D02*
D03*
X058170D02*
D03*
X059020D02*
D03*
X052218D02*
D03*
X053068D02*
D03*
X053918D02*
D03*
X048816D02*
D03*
X042014D02*
D03*
X042864D02*
D03*
X043714D02*
D03*
X036912D02*
D03*
X037762D02*
D03*
X038612D02*
D03*
X039462D02*
D03*
X040312D02*
D03*
X044564D02*
D03*
X049666D02*
D03*
X054768D02*
D03*
X055618D02*
D03*
X059870D02*
D03*
X050516D02*
D03*
X045414D02*
D03*
X036062D02*
D03*
X041164D02*
D03*
X046266D02*
D03*
X051368D02*
D03*
X056470D02*
D03*
X047116Y027298D02*
D03*
X059020D02*
D03*
X058170D02*
D03*
X057320D02*
D03*
X053918D02*
D03*
X053068D02*
D03*
X052218D02*
D03*
X048816D02*
D03*
X047966D02*
D03*
X043714D02*
D03*
X042864D02*
D03*
X042014D02*
D03*
X038612D02*
D03*
X037762D02*
D03*
X036912D02*
D03*
X039462D02*
D03*
X040312D02*
D03*
X044564D02*
D03*
X049666D02*
D03*
X054768D02*
D03*
X055618D02*
D03*
X059870D02*
D03*
X050516D02*
D03*
X045414D02*
D03*
X036062D02*
D03*
X041164D02*
D03*
X046266D02*
D03*
X051368D02*
D03*
X056470D02*
D03*
Y029848D02*
D03*
Y028998D02*
D03*
Y028148D02*
D03*
X051368Y029848D02*
D03*
Y028998D02*
D03*
Y028148D02*
D03*
X046266Y029848D02*
D03*
Y028998D02*
D03*
Y028148D02*
D03*
X041164Y029848D02*
D03*
Y028998D02*
D03*
Y028148D02*
D03*
X036062Y029848D02*
D03*
Y028998D02*
D03*
Y028148D02*
D03*
X045414Y029848D02*
D03*
Y028998D02*
D03*
Y028148D02*
D03*
X050516Y029848D02*
D03*
Y028998D02*
D03*
Y028148D02*
D03*
X059870Y029848D02*
D03*
Y028998D02*
D03*
Y028148D02*
D03*
X055618Y029848D02*
D03*
Y028998D02*
D03*
Y028148D02*
D03*
X054768Y029848D02*
D03*
Y028998D02*
D03*
Y028148D02*
D03*
X049666Y029848D02*
D03*
Y028998D02*
D03*
Y028148D02*
D03*
X044564Y029848D02*
D03*
Y028998D02*
D03*
Y028148D02*
D03*
X040312Y029848D02*
D03*
Y028998D02*
D03*
Y028148D02*
D03*
X039462Y029848D02*
D03*
Y028998D02*
D03*
Y028148D02*
D03*
X024000Y033052D02*
D03*
X025700D02*
D03*
X024850D02*
D03*
X026550D02*
D03*
X025300Y033902D02*
D03*
X026150D02*
D03*
X023600Y032102D02*
D03*
X025300D02*
D03*
X024450D02*
D03*
X026150D02*
D03*
X025920Y031430D02*
D03*
X026770D02*
D03*
X024220D02*
D03*
X025070D02*
D03*
X023370D02*
D03*
X022520D02*
D03*
X027620D02*
D03*
X028470D02*
D03*
X029320D02*
D03*
X030170D02*
D03*
X034420Y029930D02*
D03*
Y029080D02*
D03*
Y028230D02*
D03*
X033570Y030780D02*
D03*
Y029930D02*
D03*
Y029080D02*
D03*
Y028500D02*
D03*
X032720Y030780D02*
D03*
Y029930D02*
D03*
Y029080D02*
D03*
Y028500D02*
D03*
X031870Y030780D02*
D03*
Y029930D02*
D03*
Y029080D02*
D03*
Y028500D02*
D03*
X031020Y030780D02*
D03*
Y029930D02*
D03*
Y029080D02*
D03*
Y028500D02*
D03*
X030170Y030780D02*
D03*
Y029930D02*
D03*
Y029080D02*
D03*
Y028500D02*
D03*
X026570Y029280D02*
D03*
X025270D02*
D03*
X028670Y030130D02*
D03*
X029320Y028500D02*
D03*
Y029080D02*
D03*
Y029930D02*
D03*
Y030780D02*
D03*
X028470D02*
D03*
X027620D02*
D03*
X022050Y030300D02*
D03*
X022520Y029930D02*
D03*
Y030780D02*
D03*
X023370D02*
D03*
X025070D02*
D03*
X024220D02*
D03*
X026770D02*
D03*
X025920D02*
D03*
X025070Y029930D02*
D03*
X026770D02*
D03*
X025920D02*
D03*
Y029080D02*
D03*
X028310Y029863D02*
D03*
X028683Y029490D02*
D03*
X028820Y028980D02*
D03*
X028683Y028470D02*
D03*
X026917D02*
D03*
X026780Y028980D02*
D03*
X026917Y029490D02*
D03*
X027290Y029863D02*
D03*
X024385Y029993D02*
D03*
X024813Y029565D02*
D03*
X024970Y028980D02*
D03*
X024813Y028395D02*
D03*
X022787D02*
D03*
X022630Y028980D02*
D03*
X022787Y029565D02*
D03*
X023215Y029993D02*
D03*
X023800Y030150D02*
D03*
X027990Y044150D02*
D03*
X031700Y019290D02*
D03*
X032550D02*
D03*
X033400D02*
D03*
X035100D02*
D03*
X035950D02*
D03*
X036800D02*
D03*
X037650D02*
D03*
X038500D02*
D03*
X039350D02*
D03*
X040200D02*
D03*
X042750D02*
D03*
X043600D02*
D03*
X044450D02*
D03*
X045300D02*
D03*
X046150D02*
D03*
X047000D02*
D03*
X047850D02*
D03*
X048900D02*
D03*
X052100D02*
D03*
X053800Y019090D02*
D03*
X054650Y019290D02*
D03*
X055500D02*
D03*
Y018440D02*
D03*
X054650D02*
D03*
X053800D02*
D03*
X052950D02*
D03*
X052100D02*
D03*
X051250D02*
D03*
X050400D02*
D03*
X049550D02*
D03*
X048700D02*
D03*
X047850D02*
D03*
X047000D02*
D03*
X046150D02*
D03*
X045300D02*
D03*
X044450D02*
D03*
X043600D02*
D03*
X042750D02*
D03*
X040200D02*
D03*
X039350D02*
D03*
X038500D02*
D03*
X037650D02*
D03*
X036800D02*
D03*
X035950D02*
D03*
X035100D02*
D03*
X034250D02*
D03*
X033400D02*
D03*
X032550D02*
D03*
X031700D02*
D03*
X055500Y017590D02*
D03*
X054650D02*
D03*
X053800D02*
D03*
X052950D02*
D03*
X052100D02*
D03*
X051250D02*
D03*
X050400D02*
D03*
X049550D02*
D03*
X048700D02*
D03*
X047850D02*
D03*
X047000D02*
D03*
X046150D02*
D03*
X045300D02*
D03*
X044450D02*
D03*
X043600D02*
D03*
X042750D02*
D03*
X040200D02*
D03*
X039350D02*
D03*
X038500D02*
D03*
X037650D02*
D03*
X036800D02*
D03*
X035950D02*
D03*
X035100D02*
D03*
X034250D02*
D03*
X033400D02*
D03*
X032550D02*
D03*
X031700D02*
D03*
X027800Y030000D02*
D03*
X022050Y029450D02*
D03*
Y028600D02*
D03*
X036912Y028148D02*
D03*
X037762D02*
D03*
X038612D02*
D03*
X036912Y028998D02*
D03*
X037762D02*
D03*
X038612D02*
D03*
Y029848D02*
D03*
X037762D02*
D03*
X036912D02*
D03*
X042014Y028148D02*
D03*
X042864D02*
D03*
X043714D02*
D03*
X042014Y028998D02*
D03*
X042864D02*
D03*
X043714D02*
D03*
Y029848D02*
D03*
X042864D02*
D03*
X042014D02*
D03*
X047966Y028148D02*
D03*
X048816D02*
D03*
X047966Y028998D02*
D03*
X048816D02*
D03*
Y029848D02*
D03*
X052218Y028148D02*
D03*
X053068D02*
D03*
X053918D02*
D03*
X052218Y028998D02*
D03*
X053068D02*
D03*
X053918D02*
D03*
Y029848D02*
D03*
X053068D02*
D03*
X052218D02*
D03*
X057320Y028148D02*
D03*
X058170D02*
D03*
X059020D02*
D03*
X057320Y028998D02*
D03*
X058170D02*
D03*
X059020D02*
D03*
Y029848D02*
D03*
X058170D02*
D03*
X057320D02*
D03*
X047966D02*
D03*
X047116D02*
D03*
Y028998D02*
D03*
Y028148D02*
D03*
X027000Y033902D02*
D03*
Y032102D02*
D03*
X029550D02*
D03*
X028700D02*
D03*
X027400Y033052D02*
D03*
X027850Y032102D02*
D03*
Y033902D02*
D03*
X028700D02*
D03*
X029550D02*
D03*
X030069Y033028D02*
D03*
X030400Y033902D02*
D03*
Y032102D02*
D03*
X031020Y044260D02*
D03*
D47*
X031394Y021175D02*
D03*
Y020644D02*
D03*
Y020329D02*
D03*
Y021490D02*
D03*
X031079D02*
D03*
Y020329D02*
D03*
X029819Y021490D02*
D03*
X030449D02*
D03*
X029819Y020329D02*
D03*
X030449D02*
D03*
X029937Y017927D02*
D03*
X030567D02*
D03*
X029937Y018557D02*
D03*
X030567D02*
D03*
X030882D02*
D03*
X029622Y018242D02*
D03*
X030252Y018557D02*
D03*
X030567Y018242D02*
D03*
X029937D02*
D03*
X030882Y019187D02*
D03*
X029622D02*
D03*
X030252D02*
D03*
X030567D02*
D03*
X029937D02*
D03*
Y018872D02*
D03*
X030567D02*
D03*
X029622Y017927D02*
D03*
X030252D02*
D03*
X029622Y018557D02*
D03*
X030252Y018242D02*
D03*
Y018872D02*
D03*
X029622D02*
D03*
X030882Y017927D02*
D03*
Y018242D02*
D03*
Y018872D02*
D03*
X029504Y020329D02*
D03*
X030134D02*
D03*
X030764D02*
D03*
X031237Y020909D02*
D03*
X030764Y021490D02*
D03*
X030134D02*
D03*
X029504D02*
D03*
X057454Y020764D02*
D03*
Y021925D02*
D03*
X056824D02*
D03*
X056194D02*
D03*
X055721Y021344D02*
D03*
X056194Y020764D02*
D03*
X056824D02*
D03*
X056076Y018913D02*
D03*
Y018283D02*
D03*
Y017968D02*
D03*
X057335Y018913D02*
D03*
X056706D02*
D03*
Y018283D02*
D03*
X057335Y018598D02*
D03*
X056706Y017968D02*
D03*
X057335D02*
D03*
X056391Y018913D02*
D03*
X057020D02*
D03*
Y019228D02*
D03*
X056391D02*
D03*
X056706D02*
D03*
X057335D02*
D03*
X056076D02*
D03*
X057020Y018283D02*
D03*
X056391D02*
D03*
X056706Y018598D02*
D03*
X057335Y018283D02*
D03*
X056076Y018598D02*
D03*
X056391D02*
D03*
X057020D02*
D03*
X056391Y017968D02*
D03*
X057020D02*
D03*
X056509Y020764D02*
D03*
X057139D02*
D03*
X056509Y021925D02*
D03*
X057139D02*
D03*
X055879Y020764D02*
D03*
Y021925D02*
D03*
X055564D02*
D03*
Y020764D02*
D03*
Y021079D02*
D03*
Y021610D02*
D03*
M02*
