M48
;Layer_Color=9474304
;FILE_FORMAT=2:4
INCH
;TYPE=PLATED
T1F00S00C0.0120
T2F00S00C0.0150
T3F00S00C0.0157
T4F00S00C0.0350
T5F00S00C0.0354
T6F00S00C0.0670
T7F00S00C0.1040
;TYPE=NON_PLATED
T8F00S00C0.0670
%
T01
X061100Y025950
X060800Y026300
X043560Y020540
X043833Y020267
X021040Y027300
X026750Y038000
X029930Y038160
X030015Y039185
X031165Y039685
X030150Y044150
X029850Y043900
X029129Y044750
X028100Y044650
X026750Y044614
X027550Y045500
X027600Y046050
X025190Y045650
X022650Y045200
X026800Y042250
X032015Y042185
X032050Y041050
X032100Y039685
X032065Y038935
X035850Y038340
X037244Y040530
X038044Y041600
X038450Y042599
X037190Y043796
X036944Y044042
X036190Y045598
X034893Y043549
X031840Y044568
X054162Y044600
X055562Y044050
X056382Y044048
X055829Y041550
X054282Y041580
X060187Y039450
X059850Y044500
X061222Y045085
X061300Y045950
T02
X047000Y017590
Y018440
Y019290
X047850
Y018440
X048700
X049550
X050400
X051250
X052100
Y019290
X052950Y019090
Y018440
X053800
Y019090
X054650Y019290
X055500
Y018440
X054650
Y017590
X055500
X053800
X052950
X052100
X051250
X050400
X049550
X048700
X047850
X048900Y019290
X049950Y019300
X049866Y021985
X048966
Y022885
X048516
X049416
X049866
Y023335
Y023785
Y024235
Y024685
Y025135
Y025585
X049416
X048966
X048516
X048066
Y025135
Y024685
Y024235
Y023785
X050766Y023785
Y024685
Y025585
X050516Y027298
X049666
X048816
X047966
X047116
Y028148
X047966
X048816
X049666
X050516
Y028998
Y029848
Y030698
X049666
X048816
X047966
X047116
Y029848
X047966
Y028998
X048816
X049666
Y029848
X048816
X047116Y028998
X051368
Y029848
Y030698
X052218
X053068
X053918
X054768
X055618
Y029848
Y028998
Y028148
Y027298
X054768
X053918
X053068
X052218
X051368
Y028148
X052218
X053068
X053918
X054768
Y028998
Y029848
X053918
Y028998
X053068
X052218
Y029848
X053068
X056470
Y030698
X057320
X058170
X059020
X059870
Y029848
Y028998
Y028148
Y027298
X059020
X058170
X057320
X056470
Y028148
Y028998
X057320
Y028148
X058170
X059020
Y028998
X058170
Y029848
X059020
X057320
X058270Y025585
X058720
X059170
X059620
X060070
Y025135
Y024685
Y024235
Y023785
Y023335
X059620Y022885
X059170
X058720
X058270Y022885
Y023335
Y023785
Y024235
Y024685
Y025135
X057668Y022885
X056768
X055868
X054968
Y023335
Y023785
Y024235
Y024685
Y025135
Y025585
X054518
X054068
X053618
X053168
Y025135
Y024685
Y024235
Y023785
Y023335
Y022885
X053618Y022885
X054068
X054518
X054366Y021985
Y021235
X053466
Y021985
X052566
Y021235
Y022885
X051666
X050766
X055868Y023785
Y024685
Y025585
X045664
Y024685
Y023785
Y022885
X044764
Y023335
Y023785
Y024235
Y024685
Y025135
Y025585
X044314
X043864
X043414
X042964
Y025135
Y024685
Y024235
Y023785
Y023335
Y022885
X043414
X043864
X044314
X043864Y022435
X042964
X044764
X044450Y019290
X043600
X042750
Y018440
X043600
X044450
X045300
Y019290
X046150
Y018440
Y017590
X045300
X044450
X043600
X042750
X040200
Y018440
Y019290
X039350
X038500
X037650
X036800
X035950
X035100
X034440Y019180
X034250Y018440
X035100
X035950
X036800
X037650
X038500
X039350
Y017590
X038500
X037650
X036800
X035950
X035100
X034250
X033400
Y018440
Y019290
X032550
X031700
Y018440
X032550
Y017590
X031700
X031870Y020150
Y021000
Y021850
Y022700
Y023550
Y028500
Y029080
X032720
Y028500
X033570
Y029080
X034420
Y029930
X033570
Y030780
X032720
Y029930
X031870
Y030780
X036062Y030698
X036912
X037762
X038612
X039462
X040312
Y029848
Y028998
Y028148
Y027298
X039462
X038612
X037762
X036912
X036062
Y028148
Y028998
Y029848
X036912
Y028998
Y028148
X037762
X038612
X039462
Y028998
Y029848
X038612
Y028998
X037762
Y029848
X041164
Y030698
X042014
X042864
X043714
X044564
X045414
Y029848
Y028998
Y028148
Y027298
X044564
X043714
X042864
X042014
X041164
X041164Y026485
X040562Y026485
Y025585
X041164
X042064
Y026485
X042964
X043864
X044764
X044564Y028148
Y028998
Y029848
X043714
Y028998
Y028148
X042864
X042014
X041164
Y028998
X042014
X042864
Y029848
X042014
X046266
Y030698
Y028998
Y028148
Y027298
X039662Y026485
X038762
X037862
X036962
Y025585
X037862
X038312
X038762
X039212
X039662
Y025135
Y024685
Y024235
Y023785
Y023335
Y022885
X039212
X038762
X038312
X037862
X037412
X037862Y023335
Y023785
Y024235
Y024685
Y025135
Y021985
X038762
X039662
X040562
Y022885
Y023785
Y024685
X034420Y028230
X031020Y028500
Y029080
Y029930
Y030780
X030170
Y029930
Y029080
Y028500
X029320
Y029080
X028820Y028980
X028683Y029490
X028670Y030130
X028310Y029863
X027800Y030000
X027290Y029863
X026770Y029930
X026917Y029490
X026570Y029280
X026780Y028980
X026917Y028470
X025920Y029080
X025270Y029280
X024970Y028980
X024813Y029565
X025070Y029930
X024385Y029993
X023800Y030150
X023215Y029993
X022520Y029930
X022787Y029565
X022630Y028980
X022787Y028395
X022050Y028600
Y029450
Y030300
X022520Y030780
X023370
X024220
X025070
X025920
X026770
X027620
X028470
X029320
Y029930
X028683Y028470
Y025860
X028820Y025350
X029320Y025250
Y026100
X030170Y025980
Y025250
Y024400
X031020
Y023550
Y022700
Y021850
X030170
Y022700
Y023550
X029320
Y022950
X028470
Y023550
X027620
Y022950
X026770
Y023550
Y024400
X027290Y024467
X027800Y024330
X028310Y024467
X028670Y024200
X028683Y024840
X029320Y024400
X026917Y024840
X026570Y025050
X026780Y025350
X026917Y025860
X025920Y026100
Y025250
Y024400
X025070
X024813Y024765
X024970Y025350
X025270Y025050
X024813Y025935
X022787
X022630Y025350
X022787Y024765
X022520Y024400
X023215Y024337
X023800Y024180
X024385Y024337
X024220Y023550
Y022950
X023370
Y023550
X022520
X022050Y024030
Y024880
Y025730
X025070Y023550
Y022950
X025920
Y023550
X024813Y028395
X025920Y029930
Y031430
X026770
X027620
X028470
X029320
X030170
X030400Y032102
X029550
X028700
X027850
X027000
X026150
X025300
X024450
X023600
X023370Y031430
X024220
X025070
X024850Y033052
X024000
X025700
X026550
X027400
X027000Y033902
X026150
X025300
X027850
X028700
X029550
X030400
X030069Y033028
X022520Y031430
X027990Y044150
X031020Y044260
X031798Y035740
X032648
Y034890
X033498
X034348
Y034040
Y033190
X033498
Y034040
X032648
Y033190
Y032340
X033498
X034348
X035212Y032398
Y031548
X036062
Y032398
Y033248
X035212
Y034098
Y034948
Y035798
X036062
X036912
Y036648
X037762
Y037498
X038612
Y038348
X039462
Y039198
X040312
Y038348
Y037498
X039462
Y036648
X038612
Y035798
X037762
Y034948
X036912
X036062
Y034098
X036912
X037762
X038612
Y034948
X039462
Y035798
X040312
Y036648
X041164
Y037498
Y038348
Y039198
Y040048
X040314
X041164Y040898
Y041748
Y042598
Y043448
Y044298
X042014
X042864
X043714
X044564
X045414
Y043448
X044564
X043714
X042864
X042014
Y042598
X042864
X043714
X044564
X045414
Y041748
X044564
X043714
X042864
X042014
Y040898
X042864
X043714
X044564
X045414
Y040048
X044564
X043714
X042864
X042014
Y039198
X042864
X043714
X044564
X045414
Y038348
X044564
X043714
X042864
X042014
Y037498
X042864
X043714
X044564
X045414
Y036648
X044564
X043714
X042864
X042014
Y035798
X042864
X043714
X044564
X045414
Y034948
X044564
X043714
X042864
X042014
X041164
Y035798
Y034098
X042014
X042864
X043714
X044564
X045414
Y033248
X044564
X043714
X042864
X042014
X041164
Y032398
X042014
X042864
X043714
X044564
X045414
Y031548
X044564
X043714
X042864
X042014
X041164
X040312
Y032398
Y033248
Y034098
Y034948
X039462Y034098
Y033248
X038612
X037762
X036912
Y032398
X037762
X038612
X039462
Y031548
X038612
X037762
X036912
X031798Y032340
Y033190
Y034040
Y034890
X033498Y035740
X034348
X046266Y035798
Y036648
Y037498
Y038348
Y039198
Y040048
Y040898
Y041748
Y042598
Y043448
Y044298
Y034948
Y034098
Y033248
Y032398
Y031548
X047116
Y032398
Y033248
Y034098
Y034948
Y035798
Y036648
Y037498
Y038348
Y039198
Y040048
Y040898
Y041748
Y042598
Y043448
Y044298
X047966
X048816
X049666
X050516
Y043448
X049666
X048816
X047966
Y042598
X048816
X049666
X050516
Y041748
X049666
X048816
X047966
Y040898
X048816
X049666
X050516
Y040048
X049666
X048816
X047966
Y039198
X048816
X049666
X050516
Y038348
X049666
X048816
X047966
Y037498
X048816
X049666
X050516
Y036648
X049666
X048816
X047966
Y035798
X048816
X049666
X050516
Y034948
X049666
X048816
X047966
Y034098
X048816
X049666
X050516
Y033248
X049666
X048816
X047966
Y032398
X048816
X049666
X050516
Y031548
X049666
X048816
X047966
X051368
Y032398
Y033248
Y034098
Y034948
Y035798
Y036648
Y037498
Y038348
Y039198
Y040048
Y040898
Y041748
Y042598
Y043448
Y044298
X052218
X053068
Y043448
X052218
Y042598
X053068
Y041748
X052218
Y040898
X053068
Y040048
X053918
Y039198
X054768
Y038348
X055618
Y037498
X054768
X053918
Y038348
X053068
Y039198
X052218
Y040048
Y038348
Y037498
X053068
Y036648
X052218
Y035798
X053068
X053918
Y036648
X054768
X055618
Y035798
X054768
Y034948
X053918
X053068
X052218
Y034098
X053068
X053918
X054768
X055618
Y034948
X056470
Y035798
Y036648
Y037498
Y038348
X057320
X058170
X059020
Y037498
X058170
X057320
Y036648
X058170
X059020
X059870
Y035798
X059020
X058170
X057320
Y034948
X058170
X059020
X059870
Y034098
X059020
X058170
X057320
X056470
Y033248
X057320
X058170
X059020
X059870
Y032398
X059020
X058170
X057320
X056470
Y031548
X057320
X058170
X059020
X059870
X055618
Y032398
Y033248
X054768
X053918
X053068
X052218
Y032398
X053068
X053918
X054768
Y031548
X053918
X053068
X052218
T03
X056076Y017968
Y018283
X056391
X056706
Y017968
X056391
X057020
X057335
Y018283
X057020
Y018598
X057335
Y018913
X057020
X056706
X056391
Y018598
X056706
Y019228
X056391
X056076
Y018913
Y018598
X057020Y019228
X057335
X057454Y020764
X057139
X056824
X056509
X056194
X055879
X055564
Y021079
X055721Y021344
X055564Y021610
Y021925
X055879
X056194
X056509
X056824
X057139
X057454
X031394Y021490
Y021175
Y020644
Y020329
X031079
X030764
X030449
X030134
X029819
X029504
Y021490
X029819
X030134
X030449
X030764
X031079
X031237Y020909
X030882Y019187
X030567
X030252
X029937
X029622
Y018872
X029937
Y018557
X029622
Y018242
X029937
Y017927
X029622
X030252
X030567
Y018242
X030252
Y018557
X030567
Y018872
X030252
X030882
Y018557
Y018242
Y017927
T04
X023000Y037944
Y038929
Y039913
Y040897
Y041881
Y042866
Y043850
X057970Y044119
Y043134
Y042150
Y041166
Y040181
T05
X026220Y036990
X027220
T06
X027800Y025350
Y028980
T07
X023800Y025350
Y028980
T08
X025800Y027165
M30
