%FSAX24Y24*%
%MOIN*%
G70*
G01*
G75*
G04 Layer_Color=8388736*
%ADD10C,0.0150*%
%ADD11R,0.1535X0.1102*%
%ADD12R,0.0709X0.2087*%
%ADD13R,0.1772X0.0709*%
%ADD14R,0.1969X0.1969*%
%ADD15R,0.0709X0.2126*%
%ADD16R,0.0532X0.0807*%
%ADD17O,0.0768X0.0236*%
%ADD18R,0.0433X0.0236*%
%ADD19O,0.0118X0.0650*%
%ADD20O,0.0807X0.0157*%
%ADD21R,0.0492X0.0709*%
%ADD22R,0.0669X0.0433*%
%ADD23R,0.0472X0.0433*%
%ADD24R,0.0610X0.1161*%
%ADD25R,0.0394X0.0433*%
%ADD26R,0.0433X0.0394*%
%ADD27R,0.0394X0.0315*%
%ADD28R,0.0315X0.0394*%
%ADD29R,0.1575X0.0787*%
%ADD30R,0.3307X0.4154*%
%ADD31R,0.0787X0.1575*%
%ADD32R,0.4154X0.3307*%
%ADD33R,0.1732X0.1575*%
%ADD34C,0.0080*%
%ADD35C,0.0200*%
%ADD36C,0.0110*%
%ADD37C,0.0300*%
%ADD38C,0.0100*%
%ADD39C,0.0550*%
%ADD40R,0.0591X0.0591*%
%ADD41C,0.0591*%
%ADD42C,0.0670*%
%ADD43C,0.1500*%
%ADD44C,0.1800*%
%ADD45C,0.0240*%
%ADD46C,0.0320*%
%ADD47C,0.0315*%
%ADD48C,0.0098*%
%ADD49C,0.0236*%
%ADD50C,0.0039*%
%ADD51C,0.0079*%
%ADD52R,0.0039X0.0039*%
%ADD53R,0.0118X0.0039*%
%ADD54R,0.0079X0.0157*%
%ADD55R,0.0236X0.0039*%
%ADD56R,0.0315X0.0039*%
%ADD57R,0.1615X0.1182*%
%ADD58R,0.0612X0.0887*%
%ADD59O,0.0848X0.0316*%
%ADD60R,0.0513X0.0316*%
%ADD61O,0.0198X0.0730*%
%ADD62O,0.0887X0.0237*%
%ADD63R,0.0572X0.0789*%
%ADD64R,0.0749X0.0513*%
%ADD65R,0.0552X0.0513*%
%ADD66R,0.0690X0.1241*%
%ADD67R,0.0474X0.0513*%
%ADD68R,0.0513X0.0474*%
%ADD69R,0.0474X0.0395*%
%ADD70R,0.0395X0.0474*%
%ADD71R,0.1655X0.0867*%
%ADD72R,0.3387X0.4234*%
%ADD73R,0.0867X0.1655*%
%ADD74R,0.4234X0.3387*%
%ADD75R,0.1812X0.1655*%
%ADD76C,0.0630*%
%ADD77R,0.0671X0.0671*%
%ADD78C,0.0671*%
%ADD79C,0.1580*%
%ADD80C,0.1880*%
D12*
X031355Y020900D02*
D03*
D13*
X030115Y020211D02*
D03*
Y021588D02*
D03*
X056843Y022063D02*
D03*
Y020646D02*
D03*
D14*
X030213Y018577D02*
D03*
X056745Y018618D02*
D03*
D15*
X055603Y021354D02*
D03*
D42*
X025800Y027165D02*
D03*
D57*
X051090Y019302D02*
D03*
Y022098D02*
D03*
D58*
X025750Y045650D02*
D03*
X026950D02*
D03*
X028320D02*
D03*
X029520D02*
D03*
X026890Y038740D02*
D03*
X028090D02*
D03*
X033040Y045360D02*
D03*
X031840D02*
D03*
D59*
X039198Y041790D02*
D03*
Y042290D02*
D03*
Y042790D02*
D03*
Y043290D02*
D03*
X037190Y041790D02*
D03*
Y042290D02*
D03*
Y042790D02*
D03*
Y043290D02*
D03*
D60*
X055109Y044376D02*
D03*
Y044750D02*
D03*
Y045124D02*
D03*
X056054D02*
D03*
Y044750D02*
D03*
Y044376D02*
D03*
D61*
X035917Y040907D02*
D03*
X035721D02*
D03*
X035524D02*
D03*
X035327D02*
D03*
X035130D02*
D03*
X035917Y039293D02*
D03*
X035721D02*
D03*
X035524D02*
D03*
X035327D02*
D03*
X035130D02*
D03*
D62*
X032811Y038435D02*
D03*
Y038685D02*
D03*
Y038935D02*
D03*
Y039185D02*
D03*
Y039435D02*
D03*
Y039685D02*
D03*
Y039935D02*
D03*
Y040185D02*
D03*
Y040435D02*
D03*
Y040685D02*
D03*
Y040935D02*
D03*
Y041185D02*
D03*
Y041435D02*
D03*
Y041685D02*
D03*
Y041935D02*
D03*
Y042185D02*
D03*
Y042435D02*
D03*
Y042685D02*
D03*
Y042935D02*
D03*
Y043185D02*
D03*
Y043435D02*
D03*
Y043685D02*
D03*
Y043935D02*
D03*
Y044185D02*
D03*
X029129Y038435D02*
D03*
Y038685D02*
D03*
Y038935D02*
D03*
Y039185D02*
D03*
Y039435D02*
D03*
Y039685D02*
D03*
Y039935D02*
D03*
Y040185D02*
D03*
Y040435D02*
D03*
Y040685D02*
D03*
Y040935D02*
D03*
Y041185D02*
D03*
Y041435D02*
D03*
Y041685D02*
D03*
Y041935D02*
D03*
Y042185D02*
D03*
Y042435D02*
D03*
Y042685D02*
D03*
Y042935D02*
D03*
Y043185D02*
D03*
Y043435D02*
D03*
Y043685D02*
D03*
Y043935D02*
D03*
Y044185D02*
D03*
D63*
X059667Y038260D02*
D03*
X060513D02*
D03*
D64*
X052980Y019640D02*
D03*
Y020703D02*
D03*
X053810Y019640D02*
D03*
Y020703D02*
D03*
D65*
X027030Y042901D02*
D03*
Y043728D02*
D03*
X035530Y045598D02*
D03*
Y044771D02*
D03*
D66*
X024611Y045650D02*
D03*
X023449D02*
D03*
D67*
X056572Y042140D02*
D03*
Y042809D02*
D03*
X055045D02*
D03*
Y042140D02*
D03*
X055809Y042809D02*
D03*
Y042140D02*
D03*
X054282D02*
D03*
Y042809D02*
D03*
X033850Y044850D02*
D03*
Y045519D02*
D03*
X034394Y040561D02*
D03*
Y041230D02*
D03*
X030950Y045620D02*
D03*
Y044951D02*
D03*
X027990Y043649D02*
D03*
Y042980D02*
D03*
X027650Y041331D02*
D03*
Y042000D02*
D03*
X025760Y039019D02*
D03*
Y038350D02*
D03*
Y040334D02*
D03*
Y039665D02*
D03*
X025750Y041649D02*
D03*
Y040980D02*
D03*
Y042964D02*
D03*
Y042295D02*
D03*
Y044279D02*
D03*
Y043610D02*
D03*
X034394Y039151D02*
D03*
Y039820D02*
D03*
X049244Y020950D02*
D03*
Y020281D02*
D03*
X048364D02*
D03*
Y019612D02*
D03*
X036674Y040241D02*
D03*
Y040910D02*
D03*
X034050Y019581D02*
D03*
Y020250D02*
D03*
X020460Y036429D02*
D03*
Y035760D02*
D03*
X043560Y021120D02*
D03*
Y021789D02*
D03*
X042780D02*
D03*
Y021120D02*
D03*
D68*
X056572Y043550D02*
D03*
X055903D02*
D03*
X055201D02*
D03*
X054532D02*
D03*
X027201Y037800D02*
D03*
X027870D02*
D03*
X034134Y044100D02*
D03*
X034803D02*
D03*
X036244Y041750D02*
D03*
X035574D02*
D03*
X031089Y037410D02*
D03*
X030420D02*
D03*
X028720Y036870D02*
D03*
X029389D02*
D03*
X034893Y042250D02*
D03*
X034224D02*
D03*
X035574Y043290D02*
D03*
X036244D02*
D03*
X024340Y043850D02*
D03*
X025009D02*
D03*
Y042850D02*
D03*
X024340D02*
D03*
Y041870D02*
D03*
X025009D02*
D03*
Y040890D02*
D03*
X024340D02*
D03*
Y039910D02*
D03*
X025009D02*
D03*
Y038930D02*
D03*
X024340D02*
D03*
X035574Y042550D02*
D03*
X036244D02*
D03*
X025009Y037970D02*
D03*
X024340D02*
D03*
X029389Y037690D02*
D03*
X028720D02*
D03*
X034224Y043030D02*
D03*
X034893D02*
D03*
X031921Y037610D02*
D03*
X032590D02*
D03*
X034664Y038340D02*
D03*
X035334D02*
D03*
X025009Y037010D02*
D03*
X024340D02*
D03*
X035574Y044010D02*
D03*
X036244D02*
D03*
X060339Y037130D02*
D03*
X059670D02*
D03*
X046072Y020409D02*
D03*
X045403D02*
D03*
X047472D02*
D03*
X046803D02*
D03*
X047209Y022929D02*
D03*
X047878D02*
D03*
X047879Y022059D02*
D03*
X047210D02*
D03*
D69*
X044500Y020267D02*
D03*
Y020700D02*
D03*
Y021786D02*
D03*
Y021353D02*
D03*
D70*
X046091Y021250D02*
D03*
X046524D02*
D03*
X047823D02*
D03*
X047390D02*
D03*
D71*
X028735Y033040D02*
D03*
X028735Y035040D02*
D03*
D72*
X033065Y034040D02*
D03*
D73*
X046966Y024235D02*
D03*
X048966Y024235D02*
D03*
X038762D02*
D03*
X036762Y024235D02*
D03*
X052068D02*
D03*
X054068Y024235D02*
D03*
X043864D02*
D03*
X041864Y024235D02*
D03*
X057170D02*
D03*
X059170Y024235D02*
D03*
D74*
X047966Y028565D02*
D03*
X037762D02*
D03*
X053068D02*
D03*
X042864D02*
D03*
X058170D02*
D03*
D75*
X039924Y018430D02*
D03*
X042916D02*
D03*
D76*
X057970Y041166D02*
D03*
Y040181D02*
D03*
Y042150D02*
D03*
Y043134D02*
D03*
Y044119D02*
D03*
X023000Y037944D02*
D03*
Y038929D02*
D03*
Y039913D02*
D03*
Y040897D02*
D03*
Y041881D02*
D03*
Y043850D02*
D03*
Y042866D02*
D03*
D77*
X026220Y036990D02*
D03*
D78*
X027220D02*
D03*
D79*
X027800Y025350D02*
D03*
Y028980D02*
D03*
D80*
X023800Y025350D02*
D03*
Y028980D02*
D03*
M02*
