%FSDAX25Y25*%
%MOIN*%
%SFA1B1*%

%IPPOS*%
%AMD91*
1,1,0.071181,0.000000,0.000000*
1,0,0.051181,0.000000,0.000000*
4,0,4,0.021600,0.028600,-0.028600,-0.021600,-0.021600,-0.028600,0.028600,0.021600,0.021600,0.028600,0.0*
4,0,4,-0.021600,0.028600,0.028600,-0.021600,0.021600,-0.028600,-0.028600,0.021600,-0.021600,0.028600,0.0*
%
%AMD101*
1,1,0.055433,0.000000,0.000000*
1,0,0.035433,0.000000,0.000000*
4,0,4,0.016100,0.023100,-0.023100,-0.016000,-0.016100,-0.023100,0.023100,0.016000,0.016100,0.023100,0.0*
4,0,4,-0.016000,0.023100,0.023100,-0.016100,0.016000,-0.023100,-0.023100,0.016100,-0.016000,0.023100,0.0*
%
%AMD103*
1,1,0.051181,0.000000,0.000000*
1,0,0.035441,0.000000,0.000000*
4,0,4,0.014600,0.021500,-0.021500,-0.014600,-0.014600,-0.021500,0.021500,0.014600,0.014600,0.021500,0.0*
4,0,4,-0.014600,0.021500,0.021500,-0.014600,0.014600,-0.021500,-0.021500,0.014600,-0.014600,0.021500,0.0*
%
%ADD63C,0.007870*%
%ADD80C,0.055120*%
%ADD89C,0.040000*%
%ADD90C,0.051180*%
G04~CAMADD=91~12~0.0~0.0~0.0~0.0~0.0~0.0~0~711.8~511.8~0.0~45.0~4~100.0~0.0~0.0~0.0~0~0.0~0.0~0.0~0.0~711.8~711.8*
%ADD91D91*%
%ADD92C,0.086690*%
%ADD93C,0.123690*%
%ADD94C,0.084650*%
%ADD95C,0.047240*%
%ADD97C,0.137800*%
%ADD98C,0.062990*%
%ADD99C,0.043310*%
G04~CAMADD=101~12~0.0~0.0~0.0~0.0~0.0~0.0~0~554.3~354.3~0.0~45.0~4~100.0~0.0~0.0~0.0~0~0.0~0.0~0.0~0.0~554.3~554.3*
%ADD101D101*%
%ADD102C,0.035430*%
G04~CAMADD=103~12~0.0~0.0~0.0~0.0~0.0~0.0~0~511.8~354.4~0.0~45.0~4~98.4~0.0~0.0~0.0~0~0.0~0.0~0.0~0.0~511.8~511.8*
%ADD103D103*%
%ADD106C,0.032680*%
%LNbms-1*%
%LPD*%
G54D63*
X0614949Y0168894D02*
X0641327Y0142516D01*
X0614949Y0168894D02*
Y0178342D01*
X0658256Y0139760D02*
X0660224Y0137791D01*
Y0118500D02*
Y0137791D01*
X0614949Y0178342D02*
Y0183067D01*
Y0178342D02*
X0616524Y0176768D01*
X0618098*
X0652744Y0142122*
X0653532*
X0655894Y0139760*
X0659831*
X0660618Y0140547*
X0662980D02*
X0665736Y0143303D01*
X0660618Y0140547D02*
X0662980D01*
X0659437Y0141728D02*
X0660618Y0140547D01*
X0659437Y0141728D02*
Y0145272D01*
X0643689Y0161020D02*
X0659437Y0145272D01*
X0640146Y0161020D02*
X0643689D01*
X0620067Y0181098D02*
X0640146Y0161020D01*
X0616917Y0181098D02*
X0620067D01*
X0614949Y0183067D02*
X0616917Y0181098D01*
X0614949Y0183067D02*
Y0187004D01*
X0672035Y0143303D02*
X0672823Y0144090D01*
X0665736Y0143303D02*
X0672035D01*
X0642114Y0166925D02*
X0665736Y0143303D01*
X0639752Y0166925D02*
X0642114D01*
X0621248Y0185429D02*
X0639752Y0166925D01*
X0616524Y0185429D02*
X0621248D01*
X0614949Y0187004D02*
X0616524Y0185429D01*
X0614949Y0187004D02*
Y0191728D01*
X0616917Y0196059D02*
X0619673D01*
X0614949Y0194090D02*
X0616917Y0196059D01*
X0614949Y0191728D02*
Y0194090D01*
Y0191728D02*
X0616524Y0190154D01*
X0617705*
X0620461*
X0640933Y0169681*
X0653532*
X0657075Y0166138*
Y0159839D02*
Y0166138D01*
Y0159839D02*
X0672823Y0144090D01*
X0678728*
X0371642Y0256295D02*
Y0272043D01*
Y0256295D02*
X0397626Y0230311D01*
X0420067*
X0447232Y0203146*
X0462587*
X0481878Y0230311D02*
X0508256Y0203933D01*
X0455500Y0230311D02*
X0481878D01*
X0449201Y0236610D02*
X0455500Y0230311D01*
X0449201Y0236610D02*
Y0250390D01*
X0442114Y0257476D02*
X0449201Y0250390D01*
X0442114Y0257476D02*
Y0295665D01*
X0499594Y0254720D02*
X0539358Y0214957D01*
X0450776Y0118500D02*
Y0191728D01*
X0462193Y0203146*
X0485028*
X0490146Y0198028*
X0496445*
X0502350Y0203933*
X0527941*
X0538965Y0214957*
X0579516*
X0585028Y0220468*
Y0225193*
X0555500Y0254720D02*
X0585028Y0225193D01*
X0551957Y0254720D02*
X0555500D01*
X0532665Y0273618D02*
X0535815Y0276768D01*
X0503925Y0273618D02*
X0532665D01*
X0499201Y0268894D02*
X0503925Y0273618D01*
X0499201Y0253146D02*
Y0268894D01*
X0490146Y0244091D02*
X0499201Y0253146D01*
X0485815Y0244091D02*
X0490146D01*
X0476366Y0253539D02*
X0485815Y0244091D01*
X0476366Y0253539D02*
Y0265744D01*
Y0295272D01*
X0704319Y0118894D02*
X0704713D01*
X0661406Y0161807D02*
X0704319Y0118894D01*
X0661406Y0161807D02*
Y0168106D01*
X0656681Y0172831D02*
X0661406Y0168106D01*
X0641720Y0172831D02*
X0656681D01*
X0619673Y0194878D02*
X0641720Y0172831D01*
X0619673Y0194878D02*
Y0217319D01*
X0588177Y0248815D02*
X0619673Y0217319D01*
X0588177Y0248815D02*
Y0261413D01*
X0575185Y0274406D02*
X0588177Y0261413D01*
X0546051Y0274406D02*
X0575185D01*
X0544476Y0272831D02*
X0546051Y0274406D01*
X0544476Y0264957D02*
Y0272831D01*
Y0264957D02*
X0551957Y0257476D01*
Y0244878D02*
Y0257476D01*
X0549988Y0242909D02*
X0551957Y0244878D01*
X0543689Y0242909D02*
X0549988D01*
X0540933Y0245665D02*
X0543689Y0242909D01*
X0540933Y0245665D02*
Y0257476D01*
X0535815Y0262595D02*
X0540933Y0257476D01*
X0535815Y0262595D02*
Y0277161D01*
X0540539Y0281886*
X0577941*
X0595657Y0264169*
Y0251177D02*
Y0264169D01*
Y0251177D02*
X0627941Y0218894D01*
Y0198028D02*
Y0218894D01*
Y0198028D02*
X0644083Y0181886D01*
X0659437*
X0670067Y0171256*
Y0168106D02*
Y0171256D01*
Y0168106D02*
X0690933Y0147240D01*
X0709437Y0128736*
X0774791*
X0833453Y0118894D02*
X0869673Y0155114D01*
Y0171256*
X0868886Y0172043D02*
X0869673Y0171256D01*
X0862193Y0172043D02*
X0868886D01*
X0861405Y0171256D02*
X0862193Y0172043D01*
X0861405Y0159051D02*
Y0171256D01*
X0831091Y0128736D02*
X0861405Y0159051D01*
X0774791Y0128736D02*
X0831091D01*
X0772429Y0131098D02*
X0774791Y0128736D01*
X0772429Y0131098D02*
Y0142122D01*
X0758256Y0156295D02*
X0772429Y0142122D01*
X0696051Y0156295D02*
X0758256D01*
X0654713Y0197634D02*
X0696051Y0156295D01*
X0644870Y0197634D02*
X0654713D01*
X0638177Y0204327D02*
X0644870Y0197634D01*
X0638177Y0204327D02*
Y0232673D01*
X0676760Y0278343D02*
X0694083Y0295665D01*
X0676760Y0260626D02*
Y0278343D01*
X0650776Y0234642D02*
X0676760Y0260626D01*
X0640146Y0234642D02*
X0650776D01*
X0638177Y0232673D02*
X0640146Y0234642D01*
X0638177Y0232673D02*
D01*
G54D80*
X0645295Y0227083D03*
Y0217083D03*
Y0207083D03*
X0750402Y0259051D03*
X0740402D03*
X0730402D03*
G54D89*
X0331878Y0295665D02*
X0333192Y0295517D01*
X0334440Y0295080*
X0335560Y0294377*
X0336495Y0293442*
X0337199Y0292322*
X0337635Y0291074*
X0337783Y0289760*
Y0277949D02*
Y0289760D01*
Y0277949D02*
X0337931Y0276635D01*
X0338368Y0275387*
X0339072Y0274267*
X0340007Y0273332*
X0341127Y0272628*
X0342375Y0272191*
X0343689Y0272043*
X0371248*
X0372562Y0272191*
X0373810Y0272628*
X0374930Y0273332*
X0375865Y0274267*
X0376569Y0275387*
X0377006Y0276635*
X0377153Y0277949*
Y0289760*
X0377302Y0291074*
X0377738Y0292322*
X0378442Y0293442*
X0379377Y0294377*
X0380497Y0295080*
X0381745Y0295517*
X0383059Y0295665*
X0603532*
X0604846Y0295517*
X0606094Y0295080*
X0607213Y0294377*
X0608149Y0293442*
X0608852Y0292322*
X0609289Y0291074*
X0609437Y0289760*
Y0277949D02*
Y0289760D01*
Y0277949D02*
X0609585Y0276635D01*
X0610022Y0275387*
X0610725Y0274267*
X0611660Y0273332*
X0612780Y0272628*
X0614028Y0272191*
X0615343Y0272043*
X0642902*
X0644216Y0272191*
X0645464Y0272628*
X0646584Y0273332*
X0647519Y0274267*
X0648222Y0275387*
X0648659Y0276635*
X0648807Y0277949*
Y0289760*
X0648955Y0291074*
X0649392Y0292322*
X0650096Y0293442*
X0651031Y0294377*
X0652150Y0295080*
X0653399Y0295517*
X0654713Y0295665*
X0875185*
X0876499Y0295517*
X0877747Y0295080*
X0878867Y0294377*
X0879802Y0293442*
X0880506Y0292322*
X0880943Y0291074*
X0881091Y0289760*
Y0124406D02*
Y0289760D01*
X0880943Y0123091D02*
X0881091Y0124406D01*
X0880506Y0121843D02*
X0880943Y0123091D01*
X0879802Y0120723D02*
X0880506Y0121843D01*
X0878867Y0119788D02*
X0879802Y0120723D01*
X0877747Y0119085D02*
X0878867Y0119788D01*
X0876499Y0118648D02*
X0877747Y0119085D01*
X0875185Y0118500D02*
X0876499Y0118648D01*
X0654713Y0118500D02*
X0875185D01*
X0653399Y0118648D02*
X0654713Y0118500D01*
X0652150Y0119085D02*
X0653399Y0118648D01*
X0651031Y0119788D02*
X0652150Y0119085D01*
X0650096Y0120723D02*
X0651031Y0119788D01*
X0649392Y0121843D02*
X0650096Y0120723D01*
X0648955Y0123091D02*
X0649392Y0121843D01*
X0648807Y0124406D02*
X0648955Y0123091D01*
X0648807Y0124406D02*
Y0136216D01*
X0648659Y0137531D02*
X0648807Y0136216D01*
X0648222Y0138779D02*
X0648659Y0137531D01*
X0647519Y0139899D02*
X0648222Y0138779D01*
X0646584Y0140834D02*
X0647519Y0139899D01*
X0645464Y0141537D02*
X0646584Y0140834D01*
X0644216Y0141974D02*
X0645464Y0141537D01*
X0642902Y0142122D02*
X0644216Y0141974D01*
X0615343Y0142122D02*
X0642902D01*
X0614028Y0141974D02*
X0615343Y0142122D01*
X0612780Y0141537D02*
X0614028Y0141974D01*
X0611660Y0140834D02*
X0612780Y0141537D01*
X0610725Y0139899D02*
X0611660Y0140834D01*
X0610022Y0138779D02*
X0610725Y0139899D01*
X0609585Y0137531D02*
X0610022Y0138779D01*
X0609437Y0136216D02*
X0609585Y0137531D01*
X0609437Y0124406D02*
Y0136216D01*
X0609289Y0123091D02*
X0609437Y0124406D01*
X0608852Y0121843D02*
X0609289Y0123091D01*
X0608149Y0120723D02*
X0608852Y0121843D01*
X0607213Y0119788D02*
X0608149Y0120723D01*
X0606094Y0119085D02*
X0607213Y0119788D01*
X0604846Y0118648D02*
X0606094Y0119085D01*
X0603532Y0118500D02*
X0604846Y0118648D01*
X0383059Y0118500D02*
X0603532D01*
X0381745Y0118648D02*
X0383059Y0118500D01*
X0380497Y0119085D02*
X0381745Y0118648D01*
X0379377Y0119788D02*
X0380497Y0119085D01*
X0378442Y0120723D02*
X0379377Y0119788D01*
X0377738Y0121843D02*
X0378442Y0120723D01*
X0377302Y0123091D02*
X0377738Y0121843D01*
X0377153Y0124406D02*
X0377302Y0123091D01*
X0377153Y0124406D02*
Y0136216D01*
X0377006Y0137531D02*
X0377153Y0136216D01*
X0376569Y0138779D02*
X0377006Y0137531D01*
X0375865Y0139899D02*
X0376569Y0138779D01*
X0374930Y0140834D02*
X0375865Y0139899D01*
X0373810Y0141537D02*
X0374930Y0140834D01*
X0372562Y0141974D02*
X0373810Y0141537D01*
X0371248Y0142122D02*
X0372562Y0141974D01*
X0343689Y0142122D02*
X0371248D01*
X0342375Y0141974D02*
X0343689Y0142122D01*
X0341127Y0141537D02*
X0342375Y0141974D01*
X0340007Y0140834D02*
X0341127Y0141537D01*
X0339072Y0139899D02*
X0340007Y0140834D01*
X0338368Y0138779D02*
X0339072Y0139899D01*
X0337931Y0137531D02*
X0338368Y0138779D01*
X0337783Y0136216D02*
X0337931Y0137531D01*
X0337783Y0124406D02*
Y0136216D01*
X0337635Y0123091D02*
X0337783Y0124406D01*
X0337199Y0121843D02*
X0337635Y0123091D01*
X0336495Y0120723D02*
X0337199Y0121843D01*
X0335560Y0119788D02*
X0336495Y0120723D01*
X0334440Y0119085D02*
X0335560Y0119788D01*
X0333192Y0118648D02*
X0334440Y0119085D01*
X0331878Y0118500D02*
X0333192Y0118648D01*
X0286602Y0118500D02*
X0331878D01*
X0285288Y0118648D02*
X0286602Y0118500D01*
X0284040Y0119085D02*
X0285288Y0118648D01*
X0282920Y0119788D02*
X0284040Y0119085D01*
X0281985Y0120723D02*
X0282920Y0119788D01*
X0281282Y0121843D02*
X0281985Y0120723D01*
X0280845Y0123091D02*
X0281282Y0121843D01*
X0280697Y0124406D02*
X0280845Y0123091D01*
X0280697Y0124406D02*
Y0151965D01*
X0280549Y0153279D02*
X0280697Y0151965D01*
X0280112Y0154527D02*
X0280549Y0153279D01*
X0279408Y0155647D02*
X0280112Y0154527D01*
X0278473Y0156582D02*
X0279408Y0155647D01*
X0277354Y0157285D02*
X0278473Y0156582D01*
X0276105Y0157722D02*
X0277354Y0157285D01*
X0274791Y0157870D02*
X0276105Y0157722D01*
X0168492Y0157870D02*
X0274791D01*
X0167178Y0157722D02*
X0168492Y0157870D01*
X0165930Y0157285D02*
X0167178Y0157722D01*
X0164810Y0156582D02*
X0165930Y0157285D01*
X0163875Y0155647D02*
X0164810Y0156582D01*
X0163171Y0154527D02*
X0163875Y0155647D01*
X0162735Y0153279D02*
X0163171Y0154527D01*
X0162587Y0151965D02*
X0162735Y0153279D01*
X0162587Y0124406D02*
Y0151965D01*
X0162438Y0123091D02*
X0162587Y0124406D01*
X0162002Y0121843D02*
X0162438Y0123091D01*
X0161298Y0120723D02*
X0162002Y0121843D01*
X0160363Y0119788D02*
X0161298Y0120723D01*
X0159243Y0119085D02*
X0160363Y0119788D01*
X0157995Y0118648D02*
X0159243Y0119085D01*
X0156681Y0118500D02*
X0157995Y0118648D01*
X0111406Y0118500D02*
X0156681D01*
X0110091Y0118648D02*
X0111406Y0118500D01*
X0108843Y0119085D02*
X0110091Y0118648D01*
X0107723Y0119788D02*
X0108843Y0119085D01*
X0106788Y0120723D02*
X0107723Y0119788D01*
X0106085Y0121843D02*
X0106788Y0120723D01*
X0105648Y0123091D02*
X0106085Y0121843D01*
X0105500Y0124406D02*
X0105648Y0123091D01*
X0105500Y0124406D02*
Y0289760D01*
X0105648Y0291074*
X0106085Y0292322*
X0106788Y0293442*
X0107723Y0294377*
X0108843Y0295080*
X0110091Y0295517*
X0111406Y0295665*
X0156681*
X0157995Y0295517*
X0159243Y0295080*
X0160363Y0294377*
X0161298Y0293442*
X0162002Y0292322*
X0162438Y0291074*
X0162587Y0289760*
Y0262201D02*
Y0289760D01*
Y0262201D02*
X0162735Y0260887D01*
X0163171Y0259639*
X0163875Y0258519*
X0164810Y0257584*
X0165930Y0256880*
X0167178Y0256443*
X0168492Y0256295*
X0274791*
X0276105Y0256443*
X0277354Y0256880*
X0278473Y0257584*
X0279408Y0258519*
X0280112Y0259639*
X0280549Y0260887*
X0280697Y0262201*
Y0289760*
X0280845Y0291074*
X0281282Y0292322*
X0281985Y0293442*
X0282920Y0294377*
X0284040Y0295080*
X0285288Y0295517*
X0286602Y0295665*
X0331878*
G54D90*
X0817429Y0266630D03*
X0822429D03*
X0782764Y0147339D03*
X0787764D03*
G54D91*
X0827429Y0266630D03*
X0777764Y0147339D03*
G54D92*
X0136721Y0200744D03*
X0156720Y0182594D03*
Y0218894D03*
G54D93*
X0116720Y0182594D03*
Y0218894D03*
G54D94*
X0870677Y0248319D03*
Y0186114D03*
G54D95*
X0840362Y0244776D03*
Y0236902D03*
Y0229028D03*
Y0221153D03*
Y0213280D03*
Y0205405D03*
Y0197531D03*
Y0189657D03*
X0832488Y0244776D03*
Y0236902D03*
Y0229028D03*
Y0221153D03*
Y0213280D03*
Y0205405D03*
Y0197531D03*
Y0189657D03*
X0201661Y0189760D03*
X0209535D03*
X0217409D03*
X0225284D03*
G54D97*
X0764949Y0207083D03*
X0493295D03*
X0148807Y0138185D03*
X0294476Y0138685D03*
X0148807Y0275980D03*
X0294476D03*
G54D98*
X0195756Y0181492D03*
X0231189D03*
G54D99*
X0489815Y0162059D03*
X0525642D03*
G54D101*
X0798413Y0169287D03*
X0726911Y0192686D03*
X0803138Y0232279D03*
X0692114Y0284248D03*
X0719642Y0186936D03*
X0714161Y0182673D03*
X0717311Y0163382D03*
X0671248Y0187004D03*
X0665342Y0191728D03*
X0653925Y0232673D03*
X0688965Y0250783D03*
X0721248Y0255508D03*
X0732665Y0216531D03*
X0772035Y0155902D03*
X0803925Y0248520D03*
X0838126Y0278342D03*
X0869672Y0273972D03*
X0796839Y0179130D03*
X0793295Y0173618D03*
X0787390Y0176374D03*
X0805500Y0166925D03*
X0822429Y0209445D03*
X0641327Y0222437D03*
X0673216Y0251965D03*
X0767705Y0262988D03*
X0777153Y0132280D03*
G54D102*
X0798413Y0161807D03*
X0491327Y0145665D03*
X0492114Y0140941D03*
X0416524Y0220862D03*
X0435421Y0189760D03*
X0645657Y0266531D03*
X0635421Y0267713D03*
X0642901Y0155705D03*
X0704713Y0273618D03*
X0496642Y0168303D03*
X0541720Y0154327D03*
X0577270Y0187102D03*
X0574398Y0192516D03*
X0582272Y0187791D03*
X0588571Y0191728D03*
X0563374Y0187004D03*
X0547232Y0179917D03*
X0546051Y0188972D03*
X0570461Y0185036D03*
X0539752Y0188972D03*
X0733059Y0198028D03*
X0753531Y0205508D03*
X0788965Y0156295D03*
X0787783Y0135429D03*
X0786996Y0140547D03*
X0787390Y0130705D03*
X0790933Y0132280D03*
X0784240D03*
X0432500Y0250390D03*
Y0254327D03*
Y0258264D03*
X0784070Y0285114D03*
X0770067Y0283461D03*
X0746839Y0283067D03*
X0719279Y0284248D03*
X0685421Y0210232D03*
X0711799Y0205508D03*
X0729910Y0210232D03*
X0689752Y0192516D03*
X0696445Y0207870D03*
X0781484Y0212595D03*
X0782807Y0203287D03*
X0744870Y0142122D03*
X0743295Y0146551D03*
X0707075Y0146059D03*
X0675973Y0127161D03*
X0697376Y0225980D03*
X0750382Y0241728D03*
Y0247240D03*
X0744476Y0236216D03*
Y0230311D03*
X0750776D03*
X0750382Y0236216D03*
X0744082Y0247634D03*
Y0242122D03*
X0722035Y0192909D03*
X0725185Y0165350D03*
X0707665Y0164366D03*
X0618098Y0251571D03*
X0618248Y0260083D03*
X0614949Y0199209D03*
X0561406Y0170468D03*
X0566524Y0172437D03*
X0614949Y0194878D03*
X0604713Y0203933D03*
X0601563Y0207476D03*
X0585028Y0135035D03*
X0574004Y0163776D03*
X0570461Y0170862D03*
X0573610Y0182280D03*
X0568886Y0179917D03*
X0566524Y0165350D03*
X0563374Y0159839D03*
X0553138Y0165744D03*
X0539358Y0143697D03*
X0474004Y0168894D03*
X0477941Y0164563D03*
X0213374Y0234248D03*
X0199201D03*
X0252744Y0249602D03*
X0516524Y0167319D03*
X0403630Y0192173D03*
X0613374Y0247094D03*
X0587390Y0146059D03*
X0591720Y0145665D03*
X0582665Y0146846D03*
X0604319Y0142909D03*
X0605795Y0147634D03*
X0599988Y0145665D03*
X0599201Y0150390D03*
X0609437Y0242122D03*
X0547232Y0271650D03*
X0546839Y0265744D03*
X0490539Y0272437D03*
X0489752Y0266138D03*
X0433453Y0272043D03*
X0433059Y0266531D03*
X0418886Y0188579D03*
X0426760Y0191378D03*
X0601957Y0250390D03*
Y0255508D03*
X0600382Y0261413D03*
X0521295Y0133583D03*
X0521811Y0140098D03*
X0422429Y0221256D03*
X0409295Y0221083D03*
X0351295Y0228776D03*
X0744752Y0159689D03*
Y0165189D03*
X0744252Y0170689D03*
Y0177189D03*
X0744752Y0182689D03*
X0254795Y0192083D03*
X0252795Y0208583D03*
X0318213Y0163378D03*
X0300795Y0162583D03*
X0256795Y0219583D03*
X0492114Y0133461D03*
X0497626D03*
X0401169Y0132280D03*
X0398807Y0127949D03*
X0404713Y0207476D03*
X0534480Y0135583D03*
X0535815Y0139366D03*
X0468886Y0133461D03*
X0464555Y0135823D03*
X0458256Y0158658D03*
X0443295Y0138185D03*
X0462193Y0141728D03*
X0458650Y0138185D03*
X0446445Y0138083D03*
X0511665Y0167319D03*
X0512980Y0153933D03*
X0492705Y0155311D03*
X0653532Y0163776D03*
X0672035Y0168500D03*
X0656681Y0159051D03*
X0691484Y0223618D03*
X0698413Y0231098D03*
X0671248Y0209445D03*
X0670460Y0213776D03*
X0692189Y0166138D03*
X0695657Y0143303D03*
X0679122Y0263382D03*
X0681878Y0257870D03*
X0656681Y0263776D03*
X0651563Y0265350D03*
X0662587Y0260626D03*
X0711799Y0179130D03*
X0733453Y0173224D03*
X0686996Y0171650D03*
X0655894Y0220468D03*
X0675579Y0240941D03*
X0714161Y0239760D03*
X0743295Y0225980D03*
X0775154Y0182673D03*
X0775973Y0242909D03*
X0781484Y0259051D03*
X0803925Y0255016D03*
X0869672Y0281453D03*
X0720461Y0146453D03*
X0724004D03*
X0668886Y0247240D03*
X0681501Y0159051D03*
X0793295Y0151965D03*
X0793689Y0157083D03*
X0792902Y0162201D03*
X0874398Y0152358D03*
X0654319Y0199602D03*
X0736602Y0289760D03*
X0739752D03*
X0771641Y0273618D03*
X0485421Y0140547D03*
X0483059Y0145272D03*
X0784634Y0207870D03*
X0822823Y0243303D03*
X0265736Y0169681D03*
X0344083Y0173618D03*
X0394083Y0225587D03*
X0291295Y0166083D03*
X0777153Y0190154D03*
X0642902Y0186807D03*
X0366130Y0203539D03*
G54D103*
X0546051Y0258264D03*
X0544870Y0247240D03*
X0865500Y0168500D03*
Y0162595D03*
X0865343Y0157476D03*
X0546051Y0252752D03*
X0674004Y0285823D03*
X0677153Y0289760D03*
X0682665Y0290154D03*
X0766524Y0131098D03*
X0768098Y0133461D03*
X0764961D03*
X0488965Y0252752D03*
X0487783Y0246846D03*
X0488965Y0258658D03*
X0473610Y0220075D03*
X0396295Y0262500D03*
X0566295D03*
X0570689Y0264189D03*
X0561085Y0264372D03*
X0514689Y0264189D03*
X0509795Y0262500D03*
X0504835Y0264622D03*
X0457689Y0264189D03*
X0453295Y0262500D03*
X0448295Y0264083D03*
X0401189Y0264189D03*
X0391335Y0264622D03*
X0573295Y0222083D03*
X0568295D03*
X0579000D03*
X0460795Y0168378D03*
Y0173083D03*
Y0178583D03*
X0523295Y0210583D03*
Y0216083D03*
X0481484Y0220075D03*
X0465795Y0220083D03*
X0523295Y0221583D03*
X0478728Y0133854D03*
X0474791Y0134248D03*
G54D106*
X0595295Y0171083D03*
X0509295Y0141083D03*
M02*