%FSDAX25Y25*%
%MOIN*%
%SFA1B1*%

%IPPOS*%
%AMD136*
4,1,4,0.003500,0.045200,-0.045200,-0.003500,-0.003500,-0.045200,0.045200,0.003500,0.003500,0.045200,0.0*
%
%AMD188*
4,1,4,0.000000,-0.034800,0.034800,0.000000,0.000000,0.034800,-0.034800,0.000000,0.000000,-0.034800,0.0*
%
%ADD73C,0.067000*%
%ADD125R,0.049210X0.049210*%
G04~CAMADD=136~9~0.0~0.0~689.0~590.6~0.0~0.0~0~0.0~0.0~0.0~0.0~0~0.0~0.0~0.0~0.0~0~0.0~0.0~0.0~45.0~904.0~903.0*
%ADD136D136*%
%ADD141R,0.033470X0.064960*%
%ADD142R,0.064960X0.033470*%
%ADD147R,0.049210X0.049210*%
%ADD168R,0.047640X0.065350*%
%ADD169O,0.047640X0.065350*%
%ADD170C,0.159840*%
%ADD171C,0.189840*%
%ADD172C,0.108270*%
%ADD173C,0.059060*%
%ADD174C,0.147640*%
%ADD175C,0.127950*%
%ADD176C,0.064960*%
%ADD177C,0.049210*%
%ADD178C,0.043310*%
%ADD179C,0.068900*%
%ADD180R,0.068900X0.068900*%
%ADD181R,0.068900X0.068900*%
%ADD182R,0.033470X0.068900*%
%ADD183R,0.068900X0.033470*%
%ADD184R,0.041340X0.080710*%
%ADD185R,0.016140X0.069290*%
%ADD186R,0.061020X0.029530*%
%ADD187R,0.029530X0.061020*%
G04~CAMADD=188~10~0.0~492.1~0.0~0.0~0.0~0.0~0~0.0~0.0~0.0~0.0~0~0.0~0.0~0.0~0.0~0~0.0~0.0~0.0~225.0~492.1~0.0*
%ADD188D188*%
%ADD189O,0.076770X0.023620*%
%LNbms-1*%
%LPD*%
G54D73*
X0136721Y0200744D03*
G54D125*
X0756102Y0154689D03*
X0762402D03*
X0756102Y0162689D03*
X0762402D03*
X0756102Y0178689D03*
X0762402D03*
X0756102Y0170689D03*
X0762402D03*
X0755894Y0185429D03*
X0762193D03*
X0305063Y0166878D03*
X0311362D03*
X0331362D03*
X0325063D03*
X0335445Y0179173D03*
X0329146D03*
X0277646Y0197583D03*
X0283945D03*
Y0173583D03*
X0277646D03*
X0201661Y0189760D03*
G54D136*
X0560625Y0139425D03*
X0555754Y0144297D03*
X0567697Y0146496D03*
X0562825Y0151368D03*
G54D141*
X0318295Y0170646D03*
X0322035Y0178520D03*
X0314555D03*
G54D142*
X0262858Y0191583D03*
X0270732Y0187843D03*
Y0195323D03*
G54D147*
X0637295Y0249933D03*
Y0256232D03*
X0312213Y0185728D03*
Y0192027D03*
X0336213D03*
Y0185728D03*
X0258795Y0204732D03*
Y0198433D03*
Y0178433D03*
Y0184732D03*
X0271091Y0174350D03*
Y0180650D03*
X0357295Y0232925D03*
Y0226626D03*
X0365295D03*
Y0232925D03*
X0372823Y0213776D03*
Y0207476D03*
G54D168*
X0827429Y0266630D03*
X0777764Y0147339D03*
G54D169*
X0817429Y0266630D03*
X0822429D03*
X0782764Y0147339D03*
X0787764D03*
G54D170*
X0156720Y0182594D03*
Y0218894D03*
G54D171*
X0116720Y0182594D03*
Y0218894D03*
G54D172*
X0870677Y0248319D03*
Y0186114D03*
G54D173*
X0840362Y0244776D03*
Y0236902D03*
Y0229028D03*
Y0221153D03*
Y0213280D03*
Y0205405D03*
Y0197531D03*
Y0189657D03*
X0832488Y0244776D03*
Y0236902D03*
Y0229028D03*
Y0221153D03*
Y0213280D03*
Y0205405D03*
Y0197531D03*
Y0189657D03*
G54D174*
X0764949Y0207083D03*
X0493295D03*
G54D175*
X0148807Y0138185D03*
X0294476Y0138685D03*
X0148807Y0275980D03*
X0294476D03*
G54D176*
X0195756Y0181492D03*
X0231189D03*
G54D177*
X0209535Y0189760D03*
X0217409D03*
X0225284D03*
G54D178*
X0489815Y0162059D03*
X0525642D03*
G54D179*
X0645295Y0227083D03*
Y0217083D03*
X0750402Y0259051D03*
X0740402D03*
G54D180*
X0645295Y0207083D03*
G54D181*
X0730402Y0259051D03*
G54D182*
X0304213Y0189799D03*
Y0179957D03*
X0351213Y0219992D03*
Y0210150D03*
G54D183*
X0281716Y0205583D03*
X0271874D03*
G54D184*
X0487059Y0167965D03*
X0528398D03*
G54D185*
X0493949Y0160878D03*
X0495917D03*
X0497886D03*
X0499854D03*
X0501823D03*
X0503791D03*
X0505760D03*
X0507728D03*
X0509697D03*
X0511665D03*
X0513634D03*
X0515602D03*
X0517571D03*
X0519539D03*
X0521508D03*
Y0175051D03*
X0519539D03*
X0517571D03*
X0515602D03*
X0513634D03*
X0511665D03*
X0509697D03*
X0507728D03*
X0505760D03*
X0503791D03*
X0501823D03*
X0499854D03*
X0497886D03*
X0495917D03*
X0493949D03*
G54D186*
X0327642Y0191732D03*
Y0186614D03*
X0320949Y0189173D03*
G54D187*
X0283650Y0182153D03*
X0278532D03*
X0281091Y0188847D03*
X0358654Y0216417D03*
X0363772D03*
X0361213Y0209724D03*
G54D188*
X0555230Y0132304D03*
X0550776Y0127849D03*
X0549573Y0137961D03*
X0545119Y0133506D03*
G54D189*
X0760421Y0287102D03*
Y0284543D03*
Y0281984D03*
Y0279425D03*
Y0276866D03*
Y0274307D03*
Y0271748D03*
X0737980Y0287102D03*
Y0284543D03*
Y0281984D03*
Y0279425D03*
Y0276866D03*
Y0274307D03*
Y0271748D03*
X0815720Y0207177D03*
Y0204618D03*
Y0202059D03*
Y0199500D03*
Y0196941D03*
Y0194382D03*
Y0191823D03*
X0793280Y0207177D03*
Y0204618D03*
Y0202059D03*
Y0199500D03*
Y0196941D03*
Y0194382D03*
Y0191823D03*
Y0217984D03*
Y0220543D03*
Y0223102D03*
Y0225661D03*
Y0228221D03*
Y0230780D03*
Y0233339D03*
Y0235898D03*
Y0238457D03*
Y0241016D03*
X0815720Y0217984D03*
Y0220543D03*
Y0223102D03*
Y0225661D03*
Y0228221D03*
Y0230780D03*
Y0233339D03*
Y0235898D03*
Y0238457D03*
Y0241016D03*
X0736110Y0146551D03*
Y0143992D03*
Y0141433D03*
Y0138874D03*
Y0136315D03*
Y0133756D03*
Y0131197D03*
X0713669Y0146551D03*
Y0143992D03*
Y0141433D03*
Y0138874D03*
Y0136315D03*
Y0133756D03*
Y0131197D03*
M02*