%FSDAX24Y24*%
%MOIN*%
%SFA1B1*%

%IPPOS*%
%ADD66R,0.049200X0.049200*%
%ADD79C,0.065000*%
%ADD80C,0.049200*%
%ADD81R,0.068900X0.068900*%
%ADD82C,0.068900*%
%ADD83R,0.068900X0.068900*%
%ADD84C,0.246100*%
%LNmsb-1*%
%LPD*%
G54D66*
X033307Y012343D03*
X037776D03*
G54D79*
X033898Y011516D03*
X030354D03*
X038366D03*
X034823D03*
G54D80*
X032520Y012343D03*
X031732D03*
X030945D03*
X036988D03*
X036201D03*
X035413D03*
G54D81*
X025148Y025236D03*
X041191Y015482D03*
G54D82*
X026148Y025236D03*
X027148D03*
X036476Y021443D03*
X029191Y014482D03*
Y015482D03*
X030191Y014482D03*
Y015482D03*
X031191Y014482D03*
Y015482D03*
X032191Y014482D03*
Y015482D03*
X033191Y014482D03*
Y015482D03*
X034191Y014482D03*
Y015482D03*
X035191Y014482D03*
Y015482D03*
X036191Y014482D03*
Y015482D03*
X037191Y014482D03*
Y015482D03*
X038191Y014482D03*
Y015482D03*
X039191Y014482D03*
Y015482D03*
X040191Y014482D03*
Y015482D03*
X041191Y014482D03*
G54D83*
X036476Y020443D03*
G54D84*
X021614Y024449D03*
X036575D03*
Y018543D03*
X021614Y012638D03*
M02*