%FSDAX24Y24*%
%MOIN*%
%SFA1B1*%

%IPPOS*%
%ADD18R,0.039400X0.039400*%
%ADD30C,0.009800*%
%ADD34C,0.055100*%
%ADD35C,0.039400*%
%ADD36R,0.059100X0.059100*%
%ADD37C,0.059100*%
%ADD38R,0.059100X0.059100*%
%ADD39C,0.236200*%
%ADD40C,0.023600*%
%ADD51C,0.078700*%
%ADD52C,0.011800*%
%LNmsb-1*%
%LPD*%
G54D18*
X033307Y012343D03*
X037776D03*
G54D30*
X033564Y022575D02*
X037083D01*
X033519Y022530D02*
X033564Y022575D01*
X033297Y022530D02*
X033519D01*
X033071Y022756D02*
X033297Y022530D01*
X028356Y023037D02*
X028374Y023020D01*
X028565Y023246D02*
X028583Y023228D01*
X022126Y015984D02*
Y019134D01*
X024685Y021693*
Y022126*
X029409Y019606D02*
X030118Y020315D01*
X029409Y017835D02*
Y019606D01*
X030472Y020281D02*
Y021929D01*
X030669Y019969D02*
X034394Y016244D01*
X030276Y018032D02*
X031029D01*
X031191Y014482D02*
Y014675D01*
X029931Y019739D02*
X030472Y020281D01*
X029931Y019695D02*
Y019739D01*
X029685Y019449D02*
X029931Y019695D01*
X031191Y015482D02*
Y016053D01*
Y016614*
X029685Y018120D02*
X031191Y016614D01*
X029685Y018120D02*
Y019449D01*
X029409Y017835D02*
X030197Y017047D01*
Y015488D02*
Y017047D01*
X030191Y015482D02*
X030197Y015488D01*
X030713Y014961D02*
X031191Y014482D01*
X029961Y014961D02*
X030713D01*
X029685Y015236D02*
X029961Y014961D01*
X029685Y015236D02*
Y016968D01*
X029421Y017232D02*
X029685Y016968D01*
X029421Y017232D02*
Y017295D01*
X029213Y016417D02*
Y017087D01*
X028543Y015748D02*
X029213Y016417D01*
X028543Y015197D02*
Y015748D01*
Y015197D02*
X028780Y014961D01*
X029567*
X030045Y014482D02*
X030191D01*
X029567Y014961D02*
X030045Y014482D01*
X031029Y018032D02*
X031693Y017367D01*
Y015157D02*
X031890Y014961D01*
X032669D02*
X033191Y015482D01*
X031693Y015157D02*
Y017367D01*
X031890Y014961D02*
X032669D01*
X030157Y019646D02*
X032520Y017283D01*
X032191Y015482D02*
X032520Y015811D01*
Y017283*
X030366Y019854D02*
X034191Y016030D01*
X034394Y016244D02*
X034429D01*
X033396Y021254D02*
X033413Y021272D01*
X033396Y020969D02*
Y021254D01*
Y020969D02*
X034803Y019562D01*
Y018346D02*
Y019562D01*
X033622Y021063D02*
X035098Y019587D01*
X033187Y021463D02*
X033204Y021481D01*
X033187Y020868D02*
Y021463D01*
Y020868D02*
X034508Y019547D01*
Y018346D02*
Y019547D01*
X035098Y018091D02*
Y019587D01*
X034921Y017953D02*
X034961D01*
X035098Y018091*
X025787Y018031D02*
Y018189D01*
Y020276*
X027887Y022376D02*
X028050D01*
X025787Y020276D02*
X027887Y022376D01*
X024843Y018071D02*
Y020733D01*
X024921Y017756D02*
X025157Y017992D01*
Y020668*
X027355Y023246D02*
X028565D01*
X024843Y020733D02*
X027355Y023246D01*
X025157Y020668D02*
X027526Y023037D01*
X038819Y017480D02*
Y021378D01*
X037323Y022874D02*
X038819Y021378D01*
X033701Y022874D02*
X037323D01*
X033701D02*
D01*
X033543D02*
X033701D01*
X033425Y022756D02*
X033543Y022874D01*
X028148Y022828D02*
X028165Y022811D01*
X027828Y022828D02*
X028148D01*
X025472Y017927D02*
Y020472D01*
X024829Y017283D02*
X025472Y017927D01*
X023646Y017283D02*
X024829D01*
X027526Y023037D02*
X027626D01*
X028356*
X023740Y017756D02*
X024921D01*
X023489Y017441D02*
X023646Y017283D01*
X023268Y017662D02*
X023489Y017441D01*
X025787Y020787D02*
X027828Y022828D01*
X025472Y020472D02*
X025787Y020787D01*
X023268Y017662D02*
Y018346D01*
X032923Y023100D02*
X037451D01*
X039173Y021378*
Y016929D02*
Y021378D01*
X034191Y016030D02*
X034443D01*
X034685Y015000D02*
Y015787D01*
Y015000D02*
X035191Y014494D01*
Y014482D02*
Y014494D01*
X034443Y016030D02*
X034685Y015787D01*
X038191Y014482D02*
Y014526D01*
X031024Y020032D02*
X034563Y016493D01*
X036693Y014980D02*
X037191Y014482D01*
X031378Y020079D02*
X031395D01*
X034634Y016839*
X034394Y016244D02*
X035134D01*
X035709Y015669*
Y014965D02*
Y015669D01*
Y014965D02*
X036191Y014482D01*
X036693Y014980D02*
Y015748D01*
X036457Y015984D02*
X036693Y015748D01*
X035823Y015984D02*
X036457D01*
X034563Y016493D02*
X035315D01*
X035823Y015984*
X037677Y014996D02*
X038191Y014482D01*
X037677Y014996D02*
Y015748D01*
X037205Y016220D02*
X037677Y015748D01*
X035945Y016220D02*
X037205D01*
X034634Y016839D02*
X035236D01*
X035326*
X035945Y016220*
X039173Y016929D02*
X040079Y016024D01*
X040472*
X040669Y015827*
Y014173D02*
Y015827D01*
X040276Y013780D02*
X040669Y014173D01*
X039685Y014213D02*
Y014724D01*
X039191Y015218D02*
X039685Y014724D01*
X039191Y015218D02*
Y015482D01*
X040118Y013780D02*
X040276D01*
X039685Y014213D02*
X040118Y013780D01*
X032283Y020025D02*
Y020039D01*
Y020025D02*
X034835Y017473D01*
X035401*
X037835Y016457D02*
X038937D01*
X039685Y015709*
Y015197D02*
Y015709D01*
Y015197D02*
X040191Y014691D01*
Y014482D02*
Y014691D01*
X031828Y020063D02*
Y020096D01*
Y020063D02*
X034745Y017146D01*
X035354*
X036044Y016457*
X037402*
X037677Y016181*
X038425*
X038701Y015906*
Y015157D02*
Y015906D01*
Y015157D02*
X039191Y014667D01*
Y014482D02*
Y014667D01*
X037922Y018001D02*
Y020857D01*
X036811Y021969D02*
X037922Y020857D01*
X033661Y021969D02*
X036811D01*
X036890Y022244D02*
X038228Y020906D01*
X033617Y022244D02*
X036890D01*
X033550Y022177D02*
X033617Y022244D01*
X033453Y022177D02*
X033550D01*
X037042Y017057D02*
X037097D01*
Y017176*
X037922Y018001*
X038228Y017874D02*
Y020906D01*
X037480Y017165D02*
X037520D01*
X038228Y017874*
X035401Y017473D02*
X036102Y016772D01*
X037520*
X037835Y016457*
X037874Y017047D02*
X038465Y017638D01*
Y021193*
X037083Y022575D02*
X038465Y021193D01*
X038071Y016732D02*
X038819Y017480D01*
X038071Y016693D02*
Y016732D01*
G54D34*
X033898Y011516D03*
X030354D03*
X038366D03*
X034823D03*
G54D35*
X032520Y012343D03*
X031732D03*
X030945D03*
X036988D03*
X036201D03*
X035413D03*
G54D36*
X025148Y025236D03*
X041191Y015482D03*
G54D37*
X026148Y025236D03*
X027148D03*
X036476Y021443D03*
X029191Y014482D03*
Y015482D03*
X030191Y014482D03*
Y015482D03*
X031191Y014482D03*
Y015482D03*
X032191Y014482D03*
Y015482D03*
X033191Y014482D03*
Y015482D03*
X034191Y014482D03*
Y015482D03*
X035191Y014482D03*
Y015482D03*
X036191Y014482D03*
Y015482D03*
X037191Y014482D03*
Y015482D03*
X038191Y014482D03*
Y015482D03*
X039191Y014482D03*
Y015482D03*
X040191Y014482D03*
Y015482D03*
X041191Y014482D03*
G54D38*
X036476Y020443D03*
G54D39*
X021614Y024449D03*
X036575D03*
Y018543D03*
X021614Y012638D03*
G54D40*
X021142Y013465D03*
X020787Y013110D03*
X020669Y012638D03*
X020787Y012165D03*
X021142Y011811D03*
X021614Y011693D03*
X022087Y011811D03*
X022441Y012165D03*
X022559Y012638D03*
X022441Y013110D03*
X022087Y013465D03*
X021614Y013583D03*
X036102Y019370D03*
X035748Y019016D03*
X035630Y018543D03*
X035748Y018071D03*
X036102Y017717D03*
X036575Y017598D03*
X037047Y017717D03*
X037402Y018071D03*
X037520Y018543D03*
X037402Y019016D03*
X037047Y019370D03*
X036575Y019488D03*
X036102Y025276D03*
X035748Y024921D03*
X035630Y024449D03*
X035748Y023976D03*
X036102Y023622D03*
X036575Y023504D03*
X037047Y023622D03*
X037402Y023976D03*
X037520Y024449D03*
X037402Y024921D03*
X037047Y025276D03*
X036575Y025394D03*
X021142Y025276D03*
X020787Y024921D03*
X020669Y024449D03*
X020787Y023976D03*
X021142Y023622D03*
X021614Y023504D03*
X022087Y023622D03*
X022441Y023976D03*
X022559Y024449D03*
X022441Y024921D03*
X022087Y025276D03*
X021614Y025394D03*
X033425Y022756D03*
X041117Y023061D03*
X040517D03*
X038898Y023071D03*
X039449D03*
X042520Y023031D03*
X042008D03*
Y016850D03*
X041339Y025354D03*
X026378Y013228D03*
X028228Y013583D03*
X021614Y016102D03*
X022874Y019528D03*
X028583Y023228D03*
X028374Y023020D03*
X025787Y018031D03*
X028165Y022811D03*
X022126Y015984D03*
X024685Y022126D03*
X023780Y021732D03*
X024094Y022087D03*
X026654Y019331D03*
X030118Y021575D03*
X027559Y021535D03*
X027008Y021063D03*
X029921Y019311D03*
X032923Y023100D03*
X033071Y022756D03*
X031142Y017598D03*
X029421Y017295D03*
X030118Y020315D03*
X030472Y021929D03*
X030157Y019646D03*
X030276Y018032D03*
X030366Y019854D03*
X030669Y019969D03*
X031024Y020032D03*
X031378Y020079D03*
X031828Y020096D03*
X032283Y020039D03*
X032087Y017362D03*
X033453Y022177D03*
X035787Y021378D03*
X031496Y023071D03*
Y024695D03*
X042559Y019449D03*
X042362Y019252D03*
X042638Y019173D03*
X040551Y016614D03*
X041339D03*
X029213Y017087D03*
X033661Y021969D03*
X033622Y021063D03*
X033413Y021272D03*
X033204Y021481D03*
X034803Y018346D03*
X034508D03*
X034921Y017953D03*
X032598Y021614D03*
X028050Y022376D03*
X024843Y018071D03*
X023740Y017756D03*
X023268Y018346D03*
X027323Y015197D03*
X037042Y017057D03*
X037480Y017165D03*
X037795Y016968D03*
X038071Y016693D03*
X024488Y012524D03*
X025197Y015079D03*
G54D51*
X036988Y012343D02*
Y013130D01*
X032520Y012343D02*
Y012835D01*
X032835Y013150*
X038268*
X038937Y012480*
X041614*
X042835Y013701*
Y018976*
X042559Y019252D02*
X042835Y018976D01*
G54D52*
X041339Y016614D02*
Y018071D01*
X039961Y023976D02*
X041339Y025354D01*
X039961Y019449D02*
X041339Y018071D01*
X039961Y019449D02*
Y023976D01*
M02*