%FSDAX24Y24*%
%MOIN*%
%SFA1B1*%

%IPPOS*%
%ADD33C,0.007900*%
%ADD52C,0.011800*%
%ADD57C,0.010000*%
%LNmsb-1*%
%LPD*%
G36*
X031869Y009928D02*
X032054D01*
Y009821*
X031555*
Y009928*
X031741*
Y010453*
X031869*
Y009928*
G37*
G36*
X030695Y010463D02*
X030720Y010459D01*
X030742Y010454*
X030761Y010448*
X030768Y010445*
X030775Y010442*
X030781Y010439*
X030786Y010436*
X030790Y010434*
X030792Y010433*
X030793Y010432*
X030794*
X030812Y010418*
X030825Y010404*
X030838Y010388*
X030846Y010375*
X030853Y010362*
X030858Y010352*
X030860Y010348*
X030861Y010345*
X030862Y010344*
Y010343*
X030866Y010326*
X030870Y010307*
X030872Y010287*
X030874Y010266*
X030875Y010249*
X030876Y010241*
Y010235*
Y010230*
Y010226*
Y010223*
Y010222*
Y009821*
X030748*
Y010231*
Y010244*
X030747Y010257*
X030746Y010268*
X030745Y010279*
X030744Y010288*
X030742Y010296*
X030741Y010304*
X030740Y010310*
X030736Y010320*
X030733Y010327*
X030731Y010331*
X030730Y010332*
X030722Y010339*
X030714Y010345*
X030704Y010350*
X030693Y010353*
X030685Y010355*
X030677Y010356*
X030670*
X030656Y010354*
X030643Y010350*
X030633Y010345*
X030624Y010338*
X030618Y010333*
X030613Y010327*
X030610Y010323*
X030609Y010322*
X030604Y010312*
X030601Y010301*
X030598Y010288*
X030596Y010275*
X030594Y010263*
Y010254*
Y010250*
Y010247*
Y010246*
Y010245*
X030472Y010259*
X030473Y010277*
X030474Y010294*
X030477Y010311*
X030480Y010326*
X030484Y010339*
X030488Y010352*
X030493Y010363*
X030497Y010374*
X030502Y010383*
X030507Y010390*
X030511Y010397*
X030515Y010403*
X030518Y010407*
X030520Y010410*
X030521Y010411*
X030522Y010412*
X030532Y010421*
X030544Y010430*
X030555Y010436*
X030567Y010442*
X030591Y010452*
X030614Y010458*
X030624Y010459*
X030635Y010461*
X030643Y010462*
X030651Y010463*
X030658Y010464*
X030667*
X030695Y010463*
G37*
G36*
X032756Y010214D02*
X032869D01*
X032883Y010213*
X032895*
X032908*
X032918Y010212*
X032928Y010211*
X032936Y010210*
X032944*
X032951Y010209*
X032957Y010208*
X032961Y010207*
X032965*
X032968Y010206*
X032970*
X032983Y010202*
X032995Y010198*
X033006Y010193*
X033016Y010188*
X033024Y010184*
X033031Y010180*
X033035Y010177*
X033036Y010176*
X033048Y010166*
X033058Y010157*
X033068Y010146*
X033076Y010136*
X033082Y010127*
X033086Y010120*
X033089Y010115*
X033090Y010114*
X033097Y010098*
X033103Y010082*
X033107Y010065*
X033108Y010050*
X033110Y010037*
X033111Y010026*
Y010022*
Y010019*
Y010017*
Y010016*
X033109Y009990*
X033106Y009966*
X033100Y009944*
X033093Y009926*
X033085Y009913*
X033083Y009907*
X033080Y009902*
X033078Y009898*
X033076Y009895*
X033074Y009894*
Y009893*
X033059Y009877*
X033044Y009864*
X033030Y009852*
X033015Y009844*
X033003Y009838*
X032992Y009834*
X032988Y009833*
X032986Y009832*
X032984Y009831*
X032976Y009829*
X032967Y009828*
X032957Y009826*
X032945Y009825*
X032920Y009823*
X032894Y009822*
X032882*
X032870Y009821*
X032628*
Y010453*
X032756*
Y010214*
G37*
G36*
X027478Y024369D02*
X027497Y024368D01*
X027533Y024362*
X027566Y024354*
X027581Y024349*
X027596Y024344*
X027609Y024339*
X027620Y024334*
X027631Y024330*
X027640Y024326*
X027647Y024323*
X027651Y024320*
X027655Y024318*
X027656*
X027689Y024297*
X027718Y024273*
X027742Y024249*
X027763Y024226*
X027779Y024205*
X027786Y024196*
X027792Y024188*
X027795Y024182*
X027799Y024178*
X027800Y024174*
X027801Y024173*
X027810Y024156*
X027819Y024137*
X027831Y024101*
X027840Y024069*
X027846Y024038*
X027848Y024024*
X027851Y024013*
X027852Y024001*
Y023992*
X027853Y023985*
Y023979*
Y023976*
Y023975*
X027852Y023955*
X027851Y023937*
X027845Y023901*
X027837Y023867*
X027832Y023852*
X027827Y023839*
X027822Y023825*
X027817Y023813*
X027813Y023803*
X027809Y023795*
X027806Y023788*
X027804Y023783*
X027801Y023780*
Y023779*
X027780Y023745*
X027756Y023716*
X027732Y023691*
X027709Y023670*
X027688Y023654*
X027679Y023647*
X027671Y023641*
X027665Y023638*
X027661Y023634*
X027657Y023632*
X027656*
X027639Y023623*
X027620Y023615*
X027586Y023601*
X027552Y023592*
X027522Y023586*
X027508Y023584*
X027496Y023581*
X027485Y023580*
X027476*
X027469Y023579*
X027439*
X027421Y023581*
X027384Y023587*
X027350Y023596*
X027335Y023601*
X027320Y023606*
X027308Y023611*
X027296Y023616*
X027286Y023621*
X027277Y023625*
X027270Y023629*
X027265Y023631*
X027262Y023632*
X027260Y023633*
X027227Y023655*
X027198Y023678*
X027173Y023702*
X027152Y023727*
X027136Y023747*
X027130Y023757*
X027124Y023765*
X027121Y023771*
X027117Y023775*
X027115Y023779*
Y023780*
X027106Y023797*
X027098Y023814*
X027085Y023850*
X027076Y023882*
X027070Y023912*
X027068Y023925*
X027066Y023938*
X027064Y023948*
Y023957*
X027063Y023964*
Y023970*
Y023973*
Y023975*
Y023994*
X027066Y024013*
X027071Y024048*
X027079Y024082*
X027084Y024097*
X027089Y024111*
X027094Y024124*
X027099Y024136*
X027104Y024145*
X027107Y024154*
X027111Y024161*
X027113Y024166*
X027114Y024169*
X027115Y024171*
X027136Y024204*
X027159Y024233*
X027183Y024258*
X027206Y024279*
X027228Y024295*
X027237Y024302*
X027244Y024308*
X027251Y024311*
X027256Y024315*
X027259Y024316*
X027260Y024317*
X027278Y024326*
X027296Y024334*
X027331Y024348*
X027364Y024357*
X027395Y024363*
X027408Y024365*
X027421Y024368*
X027432Y024369*
X027441*
X027448Y024370*
X027459*
X027478Y024369*
G37*
G36*
X033531Y009821D02*
X033397D01*
X033152Y010453*
X033286*
X033338Y010310*
X033593*
X033647Y010453*
X033785*
X033531Y009821*
G37*
G36*
X031268Y010463D02*
X031294Y010460D01*
X031317Y010458*
X031337Y010453*
X031346Y010451*
X031354Y010449*
X031359Y010447*
X031365Y010446*
X031369Y010444*
X031372Y010443*
X031374Y010442*
X031375*
X031395Y010433*
X031411Y010421*
X031427Y010410*
X031438Y010398*
X031448Y010388*
X031455Y010380*
X031459Y010374*
X031460Y010373*
Y010372*
X031471Y010354*
X031479Y010336*
X031483Y010318*
X031487Y010303*
X031489Y010289*
X031491Y010279*
Y010275*
Y010272*
Y010270*
Y010269*
X031490Y010248*
X031487Y010229*
X031482Y010212*
X031479Y010197*
X031474Y010186*
X031469Y010176*
X031466Y010171*
X031465Y010169*
X031455Y010155*
X031444Y010141*
X031432Y010131*
X031421Y010121*
X031411Y010114*
X031404Y010109*
X031398Y010106*
X031397Y010105*
X031396*
X031387Y010100*
X031378Y010096*
X031356Y010088*
X031333Y010081*
X031310Y010073*
X031290Y010068*
X031282Y010065*
X031274Y010064*
X031267Y010062*
X031262Y010061*
X031260Y010060*
X031259*
X031242Y010056*
X031227Y010051*
X031213Y010047*
X031202Y010043*
X031190Y010040*
X031182Y010037*
X031173Y010034*
X031166Y010030*
X031160Y010027*
X031155Y010025*
X031147Y010021*
X031143Y010018*
X031142Y010017*
X031136Y010011*
X031132Y010005*
X031129Y009998*
X031126Y009992*
X031125Y009987*
X031124Y009983*
Y009980*
Y009979*
X031125Y009970*
X031127Y009963*
X031130Y009956*
X031134Y009950*
X031137Y009945*
X031140Y009942*
X031142Y009941*
X031143Y009940*
X031156Y009932*
X031170Y009926*
X031185Y009922*
X031198Y009919*
X031210Y009917*
X031221*
X031230*
X031249*
X031265Y009920*
X031279Y009923*
X031290Y009927*
X031299Y009932*
X031305Y009935*
X031309Y009938*
Y009939*
X031319Y009947*
X031327Y009958*
X031333Y009969*
X031337Y009981*
X031341Y009991*
X031343Y010000*
X031345Y010006*
Y010007*
Y010008*
X031473Y010003*
X031472Y009988*
X031469Y009972*
X031465Y009958*
X031461Y009944*
X031451Y009921*
X031446Y009911*
X031440Y009901*
X031434Y009892*
X031429Y009885*
X031424Y009878*
X031419Y009873*
X031415Y009869*
X031412Y009867*
X031410Y009865*
X031409Y009864*
X031398Y009854*
X031384Y009846*
X031371Y009839*
X031357Y009833*
X031327Y009823*
X031298Y009818*
X031284Y009816*
X031272Y009814*
X031260Y009813*
X031250Y009812*
X031242Y009811*
X031231*
X031205Y009812*
X031181Y009815*
X031160Y009818*
X031141Y009821*
X031127Y009826*
X031121Y009828*
X031116Y009829*
X031112Y009831*
X031109Y009832*
X031108Y009833*
X031107*
X031088Y009842*
X031073Y009852*
X031060Y009863*
X031049Y009873*
X031040Y009883*
X031034Y009891*
X031030Y009895*
X031029Y009896*
Y009897*
X031020Y009914*
X031013Y009929*
X031009Y009944*
X031006Y009958*
X031004Y009970*
X031002Y009979*
Y009983*
Y009986*
Y009987*
Y009988*
X031003Y010001*
X031005Y010015*
X031008Y010027*
X031011Y010039*
X031020Y010061*
X031031Y010079*
X031037Y010087*
X031041Y010094*
X031046Y010100*
X031051Y010105*
X031054Y010109*
X031057Y010112*
X031059Y010114*
X031060*
X031068Y010121*
X031078Y010128*
X031099Y010140*
X031123Y010151*
X031147Y010160*
X031168Y010167*
X031178Y010170*
X031186Y010172*
X031193Y010174*
X031198Y010176*
X031202Y010177*
X031203*
X031217Y010181*
X031230Y010184*
X031241Y010187*
X031252Y010189*
X031261Y010192*
X031269Y010194*
X031277Y010196*
X031283Y010198*
X031292Y010201*
X031299Y010203*
X031303Y010205*
X031304*
X031315Y010210*
X031325Y010214*
X031333Y010218*
X031339Y010223*
X031344Y010227*
X031347Y010230*
X031349Y010232*
X031350Y010233*
X031355Y010238*
X031358Y010245*
X031361Y010257*
X031362Y010262*
X031363Y010266*
Y010269*
Y010270*
X031362Y010283*
X031358Y010294*
X031354Y010305*
X031348Y010313*
X031341Y010321*
X031336Y010326*
X031333Y010330*
X031332Y010331*
X031319Y010339*
X031305Y010346*
X031289Y010350*
X031274Y010354*
X031260Y010356*
X031250Y010357*
X031239*
X031218Y010356*
X031200Y010352*
X031185Y010347*
X031171Y010342*
X031161Y010336*
X031153Y010333*
X031148Y010329*
X031146Y010328*
X031135Y010315*
X031125Y010301*
X031117Y010286*
X031112Y010271*
X031107Y010257*
X031104Y010246*
X031103Y010241*
Y010238*
X031102Y010237*
Y010236*
X030978Y010248*
X030981Y010267*
X030985Y010286*
X030989Y010303*
X030994Y010318*
X031001Y010333*
X031007Y010346*
X031013Y010358*
X031020Y010369*
X031027Y010378*
X031033Y010386*
X031038Y010393*
X031043Y010399*
X031048Y010404*
X031051Y010407*
X031053Y010409*
X031054Y010410*
X031066Y010419*
X031081Y010428*
X031095Y010434*
X031110Y010441*
X031125Y010446*
X031140Y010451*
X031170Y010458*
X031185Y010459*
X031197Y010461*
X031209Y010462*
X031218Y010463*
X031227Y010464*
X031238*
X031268Y010463*
G37*
G36*
X035164D02*
X035189Y010459D01*
X035211Y010454*
X035229Y010448*
X035237Y010445*
X035244Y010442*
X035249Y010439*
X035254Y010436*
X035258Y010434*
X035261Y010433*
X035262Y010432*
X035263*
X035280Y010418*
X035294Y010404*
X035306Y010388*
X035315Y010375*
X035322Y010362*
X035326Y010352*
X035328Y010348*
X035329Y010345*
X035330Y010344*
Y010343*
X035335Y010326*
X035339Y010307*
X035341Y010287*
X035343Y010266*
X035344Y010249*
X035345Y010241*
Y010235*
Y010230*
Y010226*
Y010223*
Y010222*
Y009821*
X035217*
Y010231*
Y010244*
X035216Y010257*
X035215Y010268*
X035214Y010279*
X035213Y010288*
X035211Y010296*
X035209Y010304*
X035208Y010310*
X035204Y010320*
X035201Y010327*
X035199Y010331*
X035198Y010332*
X035191Y010339*
X035182Y010345*
X035173Y010350*
X035162Y010353*
X035153Y010355*
X035146Y010356*
X035139*
X035124Y010354*
X035112Y010350*
X035101Y010345*
X035093Y010338*
X035086Y010333*
X035081Y010327*
X035078Y010323*
X035077Y010322*
X035073Y010312*
X035070Y010301*
X035067Y010288*
X035065Y010275*
X035063Y010263*
Y010254*
X035062Y010250*
Y010247*
Y010246*
Y010245*
X034941Y010259*
X034942Y010277*
X034943Y010294*
X034946Y010311*
X034949Y010326*
X034952Y010339*
X034956Y010352*
X034961Y010363*
X034966Y010374*
X034971Y010383*
X034976Y010390*
X034979Y010397*
X034983Y010403*
X034986Y010407*
X034989Y010410*
X034990Y010411*
X034991Y010412*
X035001Y010421*
X035012Y010430*
X035024Y010436*
X035035Y010442*
X035059Y010452*
X035082Y010458*
X035093Y010459*
X035103Y010461*
X035112Y010462*
X035120Y010463*
X035126Y010464*
X035135*
X035164Y010463*
G37*
G36*
X035737D02*
X035763Y010460D01*
X035786Y010458*
X035806Y010453*
X035814Y010451*
X035822Y010449*
X035828Y010447*
X035834Y010446*
X035838Y010444*
X035840Y010443*
X035842Y010442*
X035843*
X035864Y010433*
X035880Y010421*
X035895Y010410*
X035907Y010398*
X035916Y010388*
X035923Y010380*
X035928Y010374*
X035929Y010373*
Y010372*
X035939Y010354*
X035947Y010336*
X035952Y010318*
X035956Y010303*
X035958Y010289*
X035960Y010279*
Y010275*
Y010272*
Y010270*
Y010269*
X035959Y010248*
X035956Y010229*
X035951Y010212*
X035947Y010197*
X035942Y010186*
X035938Y010176*
X035935Y010171*
X035934Y010169*
X035923Y010155*
X035913Y010141*
X035901Y010131*
X035889Y010121*
X035880Y010114*
X035872Y010109*
X035866Y010106*
X035865Y010105*
X035864*
X035856Y010100*
X035846Y010096*
X035824Y010088*
X035802Y010081*
X035779Y010073*
X035759Y010068*
X035750Y010065*
X035742Y010064*
X035736Y010062*
X035731Y010061*
X035728Y010060*
X035727*
X035711Y010056*
X035695Y010051*
X035682Y010047*
X035670Y010043*
X035659Y010040*
X035650Y010037*
X035642Y010034*
X035635Y010030*
X035628Y010027*
X035623Y010025*
X035616Y010021*
X035612Y010018*
X035611Y010017*
X035605Y010011*
X035600Y010005*
X035597Y009998*
X035594Y009992*
X035593Y009987*
Y009983*
Y009980*
Y009979*
Y009970*
X035595Y009963*
X035598Y009956*
X035602Y009950*
X035606Y009945*
X035609Y009942*
X035611Y009941*
X035612Y009940*
X035624Y009932*
X035639Y009926*
X035653Y009922*
X035666Y009919*
X035679Y009917*
X035690*
X035698*
X035717*
X035734Y009920*
X035747Y009923*
X035759Y009927*
X035767Y009932*
X035773Y009935*
X035777Y009938*
X035778Y009939*
X035788Y009947*
X035795Y009958*
X035801Y009969*
X035806Y009981*
X035810Y009991*
X035812Y010000*
X035814Y010006*
Y010007*
Y010008*
X035941Y010003*
X035940Y009988*
X035938Y009972*
X035934Y009958*
X035930Y009944*
X035919Y009921*
X035914Y009911*
X035909Y009901*
X035903Y009892*
X035897Y009885*
X035892Y009878*
X035888Y009873*
X035884Y009869*
X035881Y009867*
X035879Y009865*
X035878Y009864*
X035866Y009854*
X035853Y009846*
X035839Y009839*
X035825Y009833*
X035795Y009823*
X035766Y009818*
X035753Y009816*
X035740Y009814*
X035729Y009813*
X035718Y009812*
X035711Y009811*
X035699*
X035673Y009812*
X035649Y009815*
X035628Y009818*
X035610Y009821*
X035595Y009826*
X035590Y009828*
X035585Y009829*
X035581Y009831*
X035577Y009832*
X035576Y009833*
X035575*
X035557Y009842*
X035542Y009852*
X035528Y009863*
X035518Y009873*
X035509Y009883*
X035502Y009891*
X035498Y009895*
X035497Y009896*
Y009897*
X035489Y009914*
X035482Y009929*
X035477Y009944*
X035474Y009958*
X035472Y009970*
X035470Y009979*
Y009983*
Y009986*
Y009987*
Y009988*
X035471Y010001*
X035473Y010015*
X035476Y010027*
X035479Y010039*
X035489Y010061*
X035499Y010079*
X035505Y010087*
X035510Y010094*
X035515Y010100*
X035519Y010105*
X035522Y010109*
X035525Y010112*
X035527Y010114*
X035528*
X035537Y010121*
X035546Y010128*
X035568Y010140*
X035592Y010151*
X035616Y010160*
X035637Y010167*
X035646Y010170*
X035655Y010172*
X035662Y010174*
X035666Y010176*
X035670Y010177*
X035671*
X035686Y010181*
X035698Y010184*
X035710Y010187*
X035720Y010189*
X035730Y010192*
X035738Y010194*
X035745Y010196*
X035751Y010198*
X035761Y010201*
X035767Y010203*
X035771Y010205*
X035772*
X035784Y010210*
X035793Y010214*
X035801Y010218*
X035808Y010223*
X035813Y010227*
X035815Y010230*
X035817Y010232*
X035818Y010233*
X035823Y010238*
X035826Y010245*
X035830Y010257*
X035831Y010262*
X035832Y010266*
Y010269*
Y010270*
X035831Y010283*
X035827Y010294*
X035822Y010305*
X035816Y010313*
X035810Y010321*
X035805Y010326*
X035801Y010330*
X035800Y010331*
X035788Y010339*
X035773Y010346*
X035758Y010350*
X035742Y010354*
X035729Y010356*
X035718Y010357*
X035708*
X035687Y010356*
X035668Y010352*
X035653Y010347*
X035640Y010342*
X035629Y010336*
X035621Y010333*
X035617Y010329*
X035615Y010328*
X035603Y010315*
X035593Y010301*
X035586Y010286*
X035580Y010271*
X035575Y010257*
X035572Y010246*
X035571Y010241*
Y010238*
X035570Y010237*
Y010236*
X035446Y010248*
X035449Y010267*
X035453Y010286*
X035458Y010303*
X035463Y010318*
X035470Y010333*
X035475Y010346*
X035482Y010358*
X035489Y010369*
X035495Y010378*
X035501Y010386*
X035507Y010393*
X035512Y010399*
X035517Y010404*
X035519Y010407*
X035521Y010409*
X035522Y010410*
X035535Y010419*
X035549Y010428*
X035564Y010434*
X035578Y010441*
X035593Y010446*
X035609Y010451*
X035639Y010458*
X035653Y010459*
X035666Y010461*
X035677Y010462*
X035687Y010463*
X035695Y010464*
X035707*
X035737Y010463*
G37*
G36*
X036337Y009928D02*
X036523D01*
Y009821*
X036024*
Y009928*
X036209*
Y010453*
X036337*
Y009928*
G37*
G36*
X038000Y009821D02*
X037865D01*
X037620Y010453*
X037755*
X037807Y010310*
X038061*
X038115Y010453*
X038254*
X038000Y009821*
G37*
G36*
X037224Y010214D02*
X037338D01*
X037351Y010213*
X037364*
X037376*
X037387Y010212*
X037396Y010211*
X037405Y010210*
X037413*
X037419Y010209*
X037425Y010208*
X037430Y010207*
X037434*
X037437Y010206*
X037439*
X037451Y010202*
X037464Y010198*
X037474Y010193*
X037485Y010188*
X037492Y010184*
X037499Y010180*
X037504Y010177*
X037505Y010176*
X037516Y010166*
X037527Y010157*
X037537Y010146*
X037544Y010136*
X037550Y010127*
X037555Y010120*
X037558Y010115*
X037559Y010114*
X037565Y010098*
X037571Y010082*
X037575Y010065*
X037577Y010050*
X037579Y010037*
X037580Y010026*
Y010022*
Y010019*
Y010017*
Y010016*
X037578Y009990*
X037574Y009966*
X037568Y009944*
X037562Y009926*
X037554Y009913*
X037551Y009907*
X037548Y009902*
X037546Y009898*
X037544Y009895*
X037542Y009894*
Y009893*
X037528Y009877*
X037513Y009864*
X037498Y009852*
X037484Y009844*
X037471Y009838*
X037461Y009834*
X037457Y009833*
X037455Y009832*
X037453Y009831*
X037452*
X037444Y009829*
X037436Y009828*
X037425Y009826*
X037414Y009825*
X037389Y009823*
X037363Y009822*
X037350*
X037339Y009821*
X037096*
Y010453*
X037224*
Y010214*
G37*
G36*
X026576Y011760D02*
X025064D01*
Y016108*
X026576*
Y011760*
G37*
%LNmsb-2*%
%LPC*%
G36*
X025740Y014584D02*
X025724D01*
Y014583*
X025719*
Y014581*
X025717*
Y014579*
X025713*
Y014577*
X025711*
Y014574*
X025710*
Y014572*
X025708*
Y014568*
X025706*
Y014561*
X025704*
Y014556*
X025706*
Y014549*
X025708*
Y014545*
X025710*
Y014543*
X025711*
Y014540*
X025715*
Y014538*
X025717*
Y014536*
X025720*
Y014535*
X025724*
Y014533*
X025740*
Y014535*
X025744*
Y014536*
X025747*
Y014538*
X025749*
Y014540*
X025751*
Y014542*
X025752*
Y014543*
X025754*
Y014547*
X025756*
Y014551*
X025758*
Y014567*
X025756*
Y014572*
X025754*
Y014574*
X025752*
Y014575*
X025751*
Y014577*
X025749*
Y014579*
X025747*
Y014581*
X025744*
Y014583*
X025740*
Y014584*
G37*
G36*
X038020Y010203D02*
X037846D01*
X037932Y009968*
X038020Y010203*
G37*
G36*
X025567Y014600D02*
X025553D01*
Y014599*
X025544*
Y014597*
X025541*
Y014595*
X025537*
Y014593*
X025534*
Y014591*
X025532*
Y014590*
X025528*
Y014588*
X025526*
Y014586*
X025525*
Y014584*
X025523*
Y014583*
X025521*
Y014579*
X025519*
Y014577*
X025517*
Y014574*
X025516*
Y014570*
X025514*
Y014567*
X025512*
Y014559*
X025510*
Y014538*
X025512*
Y014533*
X025514*
Y014527*
X025516*
Y014524*
X025517*
Y014522*
X025519*
Y014519*
X025521*
Y014517*
X025523*
Y014515*
X025525*
Y014513*
X025526*
Y014511*
X025528*
Y014510*
X025530*
Y014508*
X025534*
Y014506*
X025535*
Y014504*
X025539*
Y014503*
X025542*
Y014501*
X025550*
Y014499*
X025571*
Y014501*
X025576*
Y014503*
X025582*
Y014504*
X025585*
Y014506*
X025587*
Y014508*
X025590*
Y014510*
X025592*
Y014511*
X025594*
Y014513*
X025596*
Y014515*
X025598*
Y014517*
X025599*
Y014520*
X025601*
Y014522*
X025603*
Y014526*
X025605*
Y014529*
X025606*
Y014533*
X025608*
Y014542*
X025610*
Y014558*
X025608*
Y014565*
X025606*
Y014570*
X025605*
Y014574*
X025603*
Y014577*
X025601*
Y014579*
X025599*
Y014581*
X025598*
Y014584*
X025596*
Y014586*
X025594*
Y014588*
X025590*
Y014590*
X025589*
Y014591*
X025587*
Y014593*
X025583*
Y014595*
X025580*
Y014597*
X025574*
Y014599*
X025567*
Y014600*
G37*
G36*
X025792Y014547D02*
X025777D01*
Y014545*
X025774*
Y014543*
X025772*
Y014542*
X025770*
Y014540*
X025768*
Y014538*
X025767*
Y014535*
X025765*
Y014529*
X025763*
Y014526*
X025765*
Y014519*
X025767*
Y014515*
X025768*
Y014513*
X025770*
Y014511*
X025772*
Y014510*
X025774*
Y014508*
X025777*
Y014506*
X025792*
Y014508*
X025795*
Y014510*
X025799*
Y014511*
X025800*
Y014515*
X025802*
Y014517*
X025804*
Y014522*
X025806*
Y014531*
X025804*
Y014536*
X025802*
Y014540*
X025800*
Y014542*
X025799*
Y014543*
X025795*
Y014545*
X025792*
Y014547*
G37*
G36*
X025676Y014652D02*
X025663D01*
Y014650*
X025656*
Y014648*
X025653*
Y014647*
X025649*
Y014645*
X025647*
Y014643*
X025646*
Y014641*
X025644*
Y014640*
X025642*
Y014638*
X025640*
Y014636*
X025639*
Y014632*
X025637*
Y014629*
X025635*
Y014625*
X025633*
Y014616*
X025631*
Y014609*
X025633*
Y014600*
X025635*
Y014595*
X025637*
Y014591*
X025639*
Y014590*
X025640*
Y014588*
X025642*
Y014584*
X025644*
Y014583*
X025647*
Y014581*
X025649*
Y014579*
X025651*
Y014577*
X025656*
Y014575*
X025660*
Y014574*
X025679*
Y014575*
X025685*
Y014577*
X025688*
Y014579*
X025690*
Y014581*
X025694*
Y014583*
X025695*
Y014584*
X025697*
Y014586*
X025699*
Y014588*
X025701*
Y014591*
X025703*
Y014595*
X025704*
Y014599*
X025706*
Y014606*
X025708*
Y014620*
X025706*
Y014627*
X025704*
Y014631*
X025703*
Y014634*
X025701*
Y014636*
X025699*
Y014638*
X025697*
Y014641*
X025694*
Y014643*
X025692*
Y014645*
X025690*
Y014647*
X025687*
Y014648*
X025683*
Y014650*
X025676*
Y014652*
G37*
G36*
X025808Y016015D02*
X025156D01*
Y011854*
X025847*
Y011858*
X025849*
Y011861*
X025850*
Y011865*
X025852*
Y011869*
X025854*
Y011872*
X025856*
Y011876*
X025857*
Y011879*
X025859*
Y011883*
X025861*
Y011886*
X025863*
Y011890*
X025865*
Y011894*
X025866*
Y011897*
X025868*
Y011901*
X025870*
Y011904*
X025872*
Y011908*
X025873*
Y011910*
X025875*
Y011913*
X025877*
Y011917*
X025879*
Y011920*
X025881*
Y011924*
X025882*
Y011927*
X025884*
Y011929*
X025886*
Y011933*
X025888*
Y011936*
X025889*
Y011940*
X025891*
Y011942*
X025893*
Y011945*
X025895*
Y011949*
X025897*
Y011952*
X025898*
Y011956*
X025900*
Y011958*
X025902*
Y011961*
X025904*
Y011965*
X025905*
Y011968*
X025907*
Y011972*
X025909*
Y011975*
X025911*
Y011977*
X025913*
Y011981*
X025914*
Y011984*
X025916*
Y011988*
X025918*
Y011991*
X025920*
Y011995*
X025921*
Y011998*
X025923*
Y012002*
X025925*
Y012006*
X025927*
Y012009*
X025929*
Y012013*
X025930*
Y012016*
X025932*
Y012022*
X025934*
Y012025*
X025936*
Y012029*
X025938*
Y012034*
X025939*
Y012038*
X025941*
Y012043*
X025943*
Y012047*
X025945*
Y012052*
X025946*
Y012057*
X025948*
Y012064*
X025950*
Y012070*
X025952*
Y012079*
X025954*
Y012087*
X025955*
Y012105*
X025957*
Y012120*
X025955*
Y012137*
X025954*
Y012146*
X025952*
Y012155*
X025957*
Y012157*
X025962*
Y012159*
X025968*
Y012160*
X025973*
Y012162*
X025978*
Y012164*
X025984*
Y012166*
X025989*
Y012168*
X025994*
Y012169*
X026000*
Y012171*
X026005*
Y012173*
X026010*
Y012175*
X026016*
Y012176*
X026021*
Y012178*
X026026*
Y012180*
X026032*
Y012182*
X026037*
Y012184*
X026043*
Y012185*
X026046*
Y012187*
X026051*
Y012189*
X026057*
Y012191*
X026062*
Y012192*
X026067*
Y012194*
X026073*
Y012196*
X026078*
Y012198*
X026083*
Y012200*
X026089*
Y012201*
X026094*
Y012203*
X026099*
Y012205*
X026105*
Y012207*
X026110*
Y012208*
X026115*
Y012210*
X026121*
Y012212*
X026126*
Y012214*
X026131*
Y012216*
X026137*
Y012217*
X026140*
Y012219*
X026146*
Y012221*
X026151*
Y012223*
X026156*
Y012225*
X026162*
Y012226*
X026167*
Y012228*
X026172*
Y012230*
X026178*
Y012232*
X026183*
Y012233*
X026188*
Y012235*
X026194*
Y012237*
X026199*
Y012239*
X026204*
Y012241*
X026210*
Y012242*
X026215*
Y012244*
X026220*
Y012246*
X026226*
Y012248*
X026231*
Y012249*
X026235*
Y012251*
X026240*
Y012253*
X026245*
Y012255*
X026251*
Y012257*
X026256*
Y012258*
X026261*
Y012260*
X026267*
Y012262*
X026272*
Y012264*
X026277*
Y012265*
X026283*
Y012267*
X026288*
Y012269*
X026293*
Y012271*
X026297*
Y012273*
X026302*
Y012274*
X026308*
Y012276*
X026313*
Y012278*
X026318*
Y012280*
X026324*
Y012281*
X026329*
Y012283*
X026334*
Y012285*
X026338*
Y012287*
X026343*
Y012289*
X026349*
Y012290*
X026354*
Y012292*
X026356*
Y012294*
X026358*
Y012296*
X026359*
Y012297*
X026361*
Y012299*
X026363*
Y012301*
X026365*
Y012305*
X026366*
Y012306*
X026368*
Y012310*
X026370*
Y012315*
X026372*
Y012321*
X026374*
Y012335*
X026375*
Y012386*
X026377*
Y012500*
X026375*
Y012523*
X026374*
Y012532*
X026372*
Y012540*
X026370*
Y012545*
X026368*
Y012548*
X026366*
Y012554*
X026365*
Y012557*
X026363*
Y012559*
X026361*
Y012563*
X026359*
Y012564*
X026358*
Y012566*
X026356*
Y012568*
X026352*
Y012570*
X026349*
Y012572*
X026343*
Y012573*
X026338*
Y012575*
X026333*
Y012577*
X026327*
Y012579*
X026322*
Y012580*
X026318*
Y012582*
X026313*
Y012584*
X026308*
Y012586*
X026302*
Y012588*
X026297*
Y012589*
X026292*
Y012591*
X026286*
Y012593*
X026281*
Y012595*
X026276*
Y012596*
X026270*
Y012598*
X026265*
Y012600*
X026260*
Y012602*
X026254*
Y012604*
X026251*
Y012605*
X026245*
Y012607*
X026240*
Y012609*
X026235*
Y012611*
X026229*
Y012612*
X026224*
Y012614*
X026219*
Y012616*
X026213*
Y012618*
X026208*
Y012620*
X026203*
Y012621*
X026197*
Y012623*
X026192*
Y012625*
X026187*
Y012627*
X026181*
Y012629*
X026176*
Y012630*
X026171*
Y012632*
X026165*
Y012634*
X026162*
Y012636*
X026156*
Y012637*
X026151*
Y012639*
X026146*
Y012641*
X026140*
Y012643*
X026135*
Y012645*
X026130*
Y012646*
X026124*
Y012648*
X026119*
Y012650*
X026114*
Y012652*
X026108*
Y012653*
X026103*
Y012655*
X026098*
Y012657*
X026092*
Y012659*
X026087*
Y012661*
X026082*
Y012662*
X026076*
Y012664*
X026071*
Y012666*
X026066*
Y012668*
X026060*
Y012669*
X026055*
Y012671*
X026050*
Y012673*
X026044*
Y012675*
X026041*
Y012677*
X026035*
Y012678*
X026030*
Y012680*
X026025*
Y012682*
X026019*
Y012684*
X026014*
Y012685*
X026009*
Y012687*
X026003*
Y012689*
X025998*
Y012691*
X025993*
Y012693*
X025987*
Y012694*
X025982*
Y012696*
X025977*
Y012698*
X025971*
Y012700*
X025966*
Y012701*
X025961*
Y012703*
X025955*
Y012705*
X025950*
Y012707*
X025945*
Y012709*
X025939*
Y012710*
X025934*
Y012712*
X025929*
Y012714*
X025923*
Y012716*
X025920*
Y012717*
X025914*
Y012719*
X025909*
Y012721*
X025904*
Y012723*
X025898*
Y012725*
X025893*
Y012726*
X025888*
Y012728*
X025882*
Y012730*
X025877*
Y012732*
X025872*
Y012734*
X025866*
Y012735*
X025861*
Y012737*
X025859*
Y012741*
X025861*
Y012744*
X025863*
Y012748*
X025865*
Y012751*
X025866*
Y012753*
X025868*
Y012757*
X025870*
Y012760*
X025872*
Y012764*
X025873*
Y012767*
X025875*
Y012771*
X025877*
Y012774*
X025879*
Y012776*
X025881*
Y012780*
X025882*
Y012783*
X025884*
Y012787*
X025886*
Y012790*
X025888*
Y012792*
X025889*
Y012796*
X025891*
Y012799*
X025893*
Y012803*
X025895*
Y012806*
X025897*
Y012808*
X025898*
Y012812*
X025900*
Y012815*
X025902*
Y012819*
X025904*
Y012822*
X025905*
Y012824*
X025907*
Y012828*
X025909*
Y012831*
X025911*
Y012835*
X025913*
Y012839*
X025914*
Y012842*
X025916*
Y012846*
X025918*
Y012849*
X025920*
Y012851*
X025921*
Y012855*
X025923*
Y012858*
X025925*
Y012862*
X025927*
Y012867*
X025929*
Y012871*
X025930*
Y012874*
X025932*
Y012878*
X025934*
Y012881*
X025936*
Y012887*
X025938*
Y012890*
X025939*
Y012894*
X025941*
Y012899*
X025943*
Y012904*
X025945*
Y012910*
X025946*
Y012915*
X025948*
Y012920*
X025950*
Y012927*
X025952*
Y012935*
X025954*
Y012945*
X025955*
Y012963*
X025957*
Y012976*
X025955*
Y012993*
X025954*
Y013004*
X025952*
Y013011*
X025950*
Y013018*
X025948*
Y013024*
X025946*
Y013029*
X025945*
Y013034*
X025943*
Y013040*
X025941*
Y013043*
X025939*
Y013049*
X025938*
Y013052*
X025936*
Y013057*
X025934*
Y013061*
X025932*
Y013065*
X025930*
Y013068*
X026030*
Y013070*
X026048*
Y013072*
X026062*
Y013073*
X026073*
Y013075*
X026083*
Y013077*
X026092*
Y013079*
X026099*
Y013081*
X026108*
Y013082*
X026114*
Y013084*
X026121*
Y013086*
X026128*
Y013088*
X026133*
Y013089*
X026139*
Y013091*
X026144*
Y013093*
X026149*
Y013095*
X026155*
Y013097*
X026158*
Y013098*
X026164*
Y013100*
X026167*
Y013102*
X026172*
Y013104*
X026176*
Y013105*
X026180*
Y013107*
X026183*
Y013109*
X026187*
Y013111*
X026190*
Y013113*
X026194*
Y013114*
X026197*
Y013116*
X026201*
Y013118*
X026204*
Y013120*
X026208*
Y013121*
X026212*
Y013123*
X026213*
Y013125*
X026217*
Y013127*
X026219*
Y013129*
X026222*
Y013130*
X026226*
Y013132*
X026228*
Y013134*
X026231*
Y013136*
X026233*
Y013137*
X026235*
Y013139*
X026238*
Y013141*
X026240*
Y013143*
X026244*
Y013145*
X026245*
Y013146*
X026247*
Y013148*
X026251*
Y013150*
X026253*
Y013152*
X026254*
Y013154*
X026256*
Y013155*
X026258*
Y013157*
X026261*
Y013159*
X026263*
Y013161*
X026265*
Y013162*
X026267*
Y013164*
X026269*
Y013166*
X026270*
Y013168*
X026272*
Y013170*
X026274*
Y013171*
X026276*
Y013173*
X026277*
Y013175*
X026279*
Y013177*
X026281*
Y013178*
X026283*
Y013180*
X026285*
Y013182*
X026286*
Y013184*
X026288*
Y013186*
X026290*
Y013187*
X026292*
Y013189*
X026293*
Y013191*
X026295*
Y013194*
X026297*
Y013196*
X026299*
Y013198*
X026301*
Y013200*
X026302*
Y013202*
X026304*
Y013205*
X026306*
Y013207*
X026308*
Y013209*
X026309*
Y013212*
X026311*
Y013214*
X026313*
Y013216*
X026315*
Y013219*
X026317*
Y013221*
X026318*
Y013225*
X026320*
Y013226*
X026322*
Y013230*
X026324*
Y013232*
X026325*
Y013235*
X026327*
Y013239*
X026329*
Y013241*
X026331*
Y013244*
X026333*
Y013248*
X026334*
Y013250*
X026336*
Y013253*
X026338*
Y013257*
X026340*
Y013260*
X026341*
Y013264*
X026343*
Y013267*
X026345*
Y013271*
X026347*
Y013275*
X026349*
Y013278*
X026350*
Y013283*
X026352*
Y013287*
X026354*
Y013291*
X026356*
Y013296*
X026358*
Y013301*
X026359*
Y013305*
X026361*
Y013310*
X026363*
Y013315*
X026365*
Y013321*
X026366*
Y013326*
X026368*
Y013331*
X026370*
Y013337*
X026372*
Y013344*
X026374*
Y013351*
X026375*
Y013356*
X026377*
Y013365*
X026379*
Y013372*
X026381*
Y013381*
X026382*
Y013392*
X026384*
Y013404*
X026386*
Y013419*
X026388*
Y013438*
X026390*
Y013477*
X026391*
Y013556*
X026390*
Y013574*
X026388*
Y013588*
X026386*
Y013600*
X026384*
Y013613*
X026382*
Y013622*
X026381*
Y013630*
X026379*
Y013639*
X026377*
Y013648*
X026375*
Y013655*
X026374*
Y013663*
X026372*
Y013668*
X026370*
Y013675*
X026368*
Y013680*
X026366*
Y013686*
X026365*
Y013691*
X026363*
Y013696*
X026361*
Y013702*
X026359*
Y013707*
X026358*
Y013711*
X026356*
Y013716*
X026354*
Y013719*
X026352*
Y013723*
X026350*
Y013728*
X026349*
Y013732*
X026347*
Y013735*
X026345*
Y013739*
X026343*
Y013743*
X026341*
Y013746*
X026340*
Y013750*
X026338*
Y013753*
X026336*
Y013755*
X026334*
Y013759*
X026333*
Y013762*
X026331*
Y013764*
X026329*
Y013767*
X026327*
Y013771*
X026325*
Y013773*
X026324*
Y013776*
X026322*
Y013778*
X026320*
Y013782*
X026318*
Y013784*
X026317*
Y013785*
X026315*
Y013789*
X026313*
Y013791*
X026311*
Y013792*
X026309*
Y013796*
X026308*
Y013798*
X026306*
Y013800*
X026304*
Y013801*
X026302*
Y013805*
X026301*
Y013807*
X026299*
Y013808*
X026297*
Y013810*
X026295*
Y013812*
X026293*
Y013814*
X026292*
Y013816*
X026290*
Y013817*
X026288*
Y013819*
X026286*
Y013821*
X026285*
Y013823*
X026283*
Y013824*
X026281*
Y013826*
X026279*
Y013828*
X026277*
Y013830*
X026276*
Y013832*
X026274*
Y013833*
X026272*
Y013835*
X026270*
Y013837*
X026269*
Y013839*
X026267*
Y013840*
X026265*
Y013842*
X026261*
Y013844*
X026260*
Y013846*
X026258*
Y013848*
X026256*
Y013849*
X026253*
Y013851*
X026251*
Y013853*
X026249*
Y013855*
X026245*
Y013856*
X026244*
Y013858*
X026242*
Y013860*
X026238*
Y013862*
X026236*
Y013864*
X026233*
Y013865*
X026231*
Y013867*
X026228*
Y013869*
X026226*
Y013871*
X026222*
Y013872*
X026219*
Y013874*
X026217*
Y013876*
X026213*
Y013878*
X026210*
Y013880*
X026206*
Y013881*
X026203*
Y013883*
X026199*
Y013885*
X026196*
Y013887*
X026192*
Y013889*
X026188*
Y013890*
X026185*
Y013892*
X026181*
Y013894*
X026176*
Y013896*
X026172*
Y013897*
X026167*
Y013899*
X026162*
Y013901*
X026158*
Y013903*
X026153*
Y013905*
X026148*
Y013906*
X026142*
Y013908*
X026135*
Y013910*
X026130*
Y013912*
X026123*
Y013913*
X026115*
Y013915*
X026108*
Y013917*
X026099*
Y013919*
X026091*
Y013921*
X026082*
Y013922*
X026071*
Y013924*
X026044*
Y013926*
X025930*
Y013922*
X025932*
Y013917*
X025934*
Y013913*
X025936*
Y013910*
X025938*
Y013905*
X025939*
Y013901*
X025941*
Y013896*
X025943*
Y013890*
X025945*
Y013881*
X025946*
Y013872*
X025948*
Y013862*
X025950*
Y013848*
X025952*
Y013791*
X025950*
Y013782*
X025948*
Y013775*
X025946*
Y013769*
X025945*
Y013764*
X025943*
Y013759*
X025941*
Y013753*
X025939*
Y013748*
X025938*
Y013744*
X025936*
Y013739*
X025934*
Y013735*
X025932*
Y013732*
X025930*
Y013728*
X025929*
Y013723*
X025927*
Y013719*
X025925*
Y013716*
X025923*
Y013712*
X026025*
Y013711*
X026034*
Y013709*
X026041*
Y013707*
X026048*
Y013705*
X026055*
Y013703*
X026062*
Y013702*
X026069*
Y013700*
X026075*
Y013698*
X026080*
Y013696*
X026085*
Y013695*
X026091*
Y013693*
X026094*
Y013691*
X026099*
Y013689*
X026103*
Y013687*
X026107*
Y013686*
X026110*
Y013684*
X026114*
Y013682*
X026117*
Y013680*
X026119*
Y013679*
X026123*
Y013677*
X026126*
Y013675*
X026128*
Y013673*
X026131*
Y013671*
X026133*
Y013670*
X026135*
Y013668*
X026139*
Y013666*
X026140*
Y013664*
X026142*
Y013663*
X026144*
Y013661*
X026146*
Y013659*
X026149*
Y013657*
X026151*
Y013655*
X026153*
Y013654*
X026155*
Y013652*
X026156*
Y013650*
X026158*
Y013648*
X026160*
Y013646*
X026162*
Y013645*
X026164*
Y013643*
X026165*
Y013641*
X026167*
Y013639*
X026169*
Y013638*
X026171*
Y013636*
X026172*
Y013632*
X026174*
Y013630*
X026176*
Y013629*
X026178*
Y013627*
X026180*
Y013623*
X026181*
Y013620*
X026183*
Y013618*
X026185*
Y013614*
X026187*
Y013611*
X026188*
Y013607*
X026190*
Y013604*
X026192*
Y013600*
X026194*
Y013597*
X026196*
Y013593*
X026197*
Y013588*
X026199*
Y013584*
X026201*
Y013579*
X026203*
Y013575*
X026204*
Y013570*
X026206*
Y013563*
X026208*
Y013556*
X026210*
Y013547*
X026212*
Y013534*
X026213*
Y013451*
X026212*
Y013442*
X026210*
Y013433*
X026208*
Y013428*
X026206*
Y013420*
X026204*
Y013415*
X026203*
Y013410*
X026201*
Y013404*
X026199*
Y013401*
X026197*
Y013397*
X026196*
Y013392*
X026194*
Y013388*
X026192*
Y013385*
X026190*
Y013381*
X026188*
Y013378*
X026187*
Y013376*
X026185*
Y013372*
X026183*
Y013371*
X026181*
Y013367*
X026180*
Y013365*
X026178*
Y013362*
X026176*
Y013360*
X026174*
Y013356*
X026172*
Y013355*
X026171*
Y013353*
X026169*
Y013351*
X026167*
Y013349*
X026165*
Y013347*
X026164*
Y013346*
X026162*
Y013344*
X026160*
Y013342*
X026158*
Y013340*
X026156*
Y013339*
X026155*
Y013337*
X026153*
Y013335*
X026151*
Y013333*
X026149*
Y013331*
X026148*
Y013330*
X026146*
Y013328*
X026142*
Y013326*
X026140*
Y013324*
X026139*
Y013323*
X026135*
Y013321*
X026133*
Y013319*
X026130*
Y013317*
X026128*
Y013315*
X026124*
Y013314*
X026121*
Y013312*
X026117*
Y013310*
X026115*
Y013308*
X026112*
Y013307*
X026108*
Y013305*
X026105*
Y013303*
X026099*
Y013301*
X026096*
Y013299*
X026092*
Y013298*
X026087*
Y013296*
X026082*
Y013294*
X026076*
Y013292*
X026071*
Y013291*
X026066*
Y013289*
X026060*
Y013287*
X026053*
Y013285*
X026046*
Y013283*
X026032*
Y013282*
X025957*
Y013280*
X025825*
Y013276*
X025827*
Y013271*
X025829*
Y013266*
X025831*
Y013260*
X025833*
Y013257*
X025834*
Y013251*
X025836*
Y013248*
X025838*
Y013244*
X025840*
Y013239*
X025841*
Y013235*
X025843*
Y013232*
X025845*
Y013228*
X025847*
Y013223*
X025849*
Y013219*
X025850*
Y013216*
X025852*
Y013212*
X025854*
Y013209*
X025856*
Y013205*
X025857*
Y013202*
X025859*
Y013198*
X025861*
Y013194*
X025863*
Y013191*
X025865*
Y013187*
X025866*
Y013184*
X025868*
Y013182*
X025870*
Y013178*
X025872*
Y013175*
X025873*
Y013171*
X025875*
Y013168*
X025877*
Y013164*
X025879*
Y013162*
X025881*
Y013159*
X025882*
Y013155*
X025884*
Y013152*
X025886*
Y013148*
X025888*
Y013146*
X025889*
Y013143*
X025891*
Y013139*
X025893*
Y013136*
X025895*
Y013132*
X025897*
Y013130*
X025898*
Y013127*
X025900*
Y013123*
X025902*
Y013120*
X025904*
Y013116*
X025905*
Y013113*
X025907*
Y013111*
X025909*
Y013107*
X025911*
Y013104*
X025913*
Y013100*
X025914*
Y013097*
X025916*
Y013093*
X025918*
Y013089*
X025920*
Y013086*
X025921*
Y013082*
X025923*
Y013079*
X025925*
Y013075*
X025927*
Y013072*
X025929*
Y013068*
X025907*
Y013066*
X025340*
Y013068*
X025338*
Y013070*
X025336*
Y013072*
X025334*
Y013073*
X025332*
Y013075*
X025331*
Y013077*
X025329*
Y013079*
X025327*
Y013082*
X025325*
Y013086*
X025324*
Y013091*
X025322*
Y013097*
X025320*
Y013105*
X025318*
Y013118*
X025316*
Y013137*
X025315*
Y013212*
X025316*
Y013228*
X025318*
Y013241*
X025320*
Y013248*
X025322*
Y013255*
X025324*
Y013260*
X025325*
Y013264*
X025327*
Y013267*
X025329*
Y013269*
X025331*
Y013271*
X025332*
Y013273*
X025334*
Y013275*
X025336*
Y013276*
X025338*
Y013278*
X025656*
Y013280*
X025824*
Y013285*
X025822*
Y013292*
X025820*
Y013298*
X025818*
Y013305*
X025816*
Y013310*
X025815*
Y013317*
X025813*
Y013326*
X025811*
Y013335*
X025809*
Y013346*
X025808*
Y013358*
X025806*
Y013378*
X025804*
Y013417*
X025806*
Y013438*
X025808*
Y013451*
X025809*
Y013461*
X025811*
Y013470*
X025813*
Y013477*
X025815*
Y013485*
X025816*
Y013492*
X025818*
Y013497*
X025820*
Y013504*
X025822*
Y013509*
X025824*
Y013515*
X025825*
Y013520*
X025827*
Y013525*
X025829*
Y013529*
X025831*
Y013534*
X025833*
Y013538*
X025834*
Y013543*
X025836*
Y013547*
X025838*
Y013552*
X025840*
Y013556*
X025841*
Y013559*
X025843*
Y013565*
X025845*
Y013568*
X025847*
Y013572*
X025849*
Y013575*
X025850*
Y013579*
X025852*
Y013582*
X025854*
Y013586*
X025856*
Y013590*
X025857*
Y013593*
X025859*
Y013597*
X025861*
Y013600*
X025863*
Y013604*
X025865*
Y013607*
X025866*
Y013611*
X025868*
Y013614*
X025870*
Y013618*
X025872*
Y013620*
X025873*
Y013623*
X025875*
Y013627*
X025877*
Y013630*
X025879*
Y013634*
X025881*
Y013638*
X025882*
Y013639*
X025884*
Y013643*
X025886*
Y013646*
X025888*
Y013650*
X025889*
Y013654*
X025891*
Y013655*
X025893*
Y013659*
X025895*
Y013663*
X025897*
Y013666*
X025898*
Y013670*
X025900*
Y013671*
X025902*
Y013675*
X025904*
Y013679*
X025905*
Y013682*
X025907*
Y013686*
X025909*
Y013689*
X025911*
Y013691*
X025913*
Y013695*
X025914*
Y013698*
X025916*
Y013702*
X025918*
Y013705*
X025920*
Y013709*
X025921*
Y013712*
X025644*
Y013714*
X025386*
Y013716*
X025338*
Y013718*
X025334*
Y013719*
X025332*
Y013721*
X025331*
Y013723*
X025329*
Y013725*
X025327*
Y013728*
X025325*
Y013732*
X025324*
Y013737*
X025322*
Y013744*
X025320*
Y013753*
X025318*
Y013766*
X025316*
Y013785*
X025315*
Y013862*
X025316*
Y013878*
X025318*
Y013889*
X025320*
Y013896*
X025322*
Y013903*
X025324*
Y013908*
X025325*
Y013912*
X025327*
Y013915*
X025329*
Y013919*
X025331*
Y013921*
X025332*
Y013922*
X025334*
Y013924*
X025338*
Y013926*
X025340*
Y013928*
X025845*
Y013926*
X025929*
Y013929*
X025927*
Y013933*
X025925*
Y013937*
X025923*
Y013940*
X025921*
Y013944*
X025920*
Y013947*
X025918*
Y013951*
X025916*
Y013954*
X025914*
Y013958*
X025913*
Y013960*
X025911*
Y013963*
X025909*
Y013967*
X025907*
Y013970*
X025905*
Y013974*
X025904*
Y013978*
X025902*
Y013979*
X025900*
Y013983*
X025898*
Y013986*
X025897*
Y013990*
X025895*
Y013994*
X025893*
Y013995*
X025891*
Y013999*
X025889*
Y014002*
X025888*
Y014006*
X025886*
Y014010*
X025884*
Y014011*
X025882*
Y014015*
X025881*
Y014018*
X025879*
Y014022*
X025877*
Y014026*
X025875*
Y014027*
X025873*
Y014031*
X025872*
Y014034*
X025870*
Y014038*
X025868*
Y014042*
X025866*
Y014045*
X025865*
Y014049*
X025863*
Y014052*
X025861*
Y014056*
X025859*
Y014059*
X025857*
Y014063*
X025856*
Y014066*
X025854*
Y014070*
X025852*
Y014074*
X025850*
Y014077*
X025849*
Y014081*
X025847*
Y014084*
X025845*
Y014088*
X025843*
Y014091*
X025841*
Y014097*
X025840*
Y014100*
X025838*
Y014104*
X025836*
Y014109*
X025834*
Y014113*
X025833*
Y014118*
X025831*
Y014122*
X025829*
Y014127*
X025827*
Y014132*
X025825*
Y014138*
X025824*
Y014143*
X025822*
Y014148*
X025820*
Y014154*
X025818*
Y014161*
X025816*
Y014168*
X025815*
Y014175*
X025813*
Y014182*
X025811*
Y014191*
X025809*
Y014202*
X025808*
Y014214*
X025806*
Y014236*
X025804*
Y014244*
X025809*
Y014243*
X025815*
Y014241*
X025818*
Y014239*
X025824*
Y014237*
X025829*
Y014236*
X025834*
Y014234*
X025840*
Y014232*
X025845*
Y014230*
X025850*
Y014228*
X025856*
Y014227*
X025859*
Y014225*
X025865*
Y014223*
X025870*
Y014221*
X025875*
Y014220*
X025881*
Y014218*
X025886*
Y014216*
X025891*
Y014214*
X025897*
Y014212*
X025900*
Y014211*
X025905*
Y014209*
X025911*
Y014207*
X025916*
Y014205*
X025921*
Y014204*
X025927*
Y014202*
X025932*
Y014200*
X025938*
Y014198*
X025941*
Y014196*
X025946*
Y014195*
X025952*
Y014193*
X025957*
Y014191*
X025962*
Y014189*
X025968*
Y014188*
X025973*
Y014186*
X025977*
Y014184*
X025982*
Y014182*
X025987*
Y014180*
X025993*
Y014179*
X025998*
Y014177*
X026003*
Y014175*
X026009*
Y014173*
X026014*
Y014171*
X026018*
Y014170*
X026023*
Y014168*
X026028*
Y014166*
X026034*
Y014164*
X026039*
Y014163*
X026044*
Y014161*
X026050*
Y014159*
X026055*
Y014157*
X026059*
Y014155*
X026064*
Y014154*
X026069*
Y014152*
X026075*
Y014150*
X026080*
Y014148*
X026085*
Y014147*
X026091*
Y014145*
X026094*
Y014143*
X026099*
Y014141*
X026105*
Y014139*
X026110*
Y014138*
X026115*
Y014136*
X026121*
Y014134*
X026126*
Y014132*
X026131*
Y014131*
X026135*
Y014129*
X026140*
Y014127*
X026146*
Y014125*
X026151*
Y014123*
X026156*
Y014122*
X026162*
Y014120*
X026167*
Y014118*
X026172*
Y014116*
X026178*
Y014115*
X026181*
Y014113*
X026187*
Y014111*
X026192*
Y014109*
X026197*
Y014107*
X026203*
Y014106*
X026208*
Y014104*
X026213*
Y014102*
X026219*
Y014100*
X026222*
Y014099*
X026228*
Y014097*
X026233*
Y014095*
X026238*
Y014093*
X026244*
Y014091*
X026249*
Y014090*
X026254*
Y014088*
X026260*
Y014086*
X026265*
Y014084*
X026270*
Y014082*
X026274*
Y014081*
X026279*
Y014079*
X026285*
Y014077*
X026290*
Y014075*
X026295*
Y014074*
X026301*
Y014072*
X026306*
Y014070*
X026311*
Y014068*
X026317*
Y014066*
X026325*
Y014065*
X026334*
Y014063*
X026358*
Y014065*
X026361*
Y014066*
X026363*
Y014068*
X026365*
Y014070*
X026366*
Y014072*
X026368*
Y014075*
X026370*
Y014079*
X026372*
Y014084*
X026374*
Y014095*
X026375*
Y014122*
X026377*
Y014230*
X026375*
Y014246*
X026374*
Y014257*
X026372*
Y014264*
X026370*
Y014269*
X026368*
Y014273*
X026366*
Y014276*
X026365*
Y014278*
X026363*
Y014280*
X026361*
Y014282*
X026359*
Y014284*
X026356*
Y014285*
X026350*
Y014287*
X026345*
Y014289*
X026340*
Y014291*
X026336*
Y014293*
X026331*
Y014294*
X026325*
Y014296*
X026320*
Y014298*
X026315*
Y014300*
X026309*
Y014301*
X026304*
Y014303*
X026299*
Y014305*
X026293*
Y014307*
X026288*
Y014309*
X026283*
Y014310*
X026277*
Y014312*
X026272*
Y014314*
X026267*
Y014316*
X026261*
Y014317*
X026256*
Y014319*
X026249*
Y014321*
X026244*
Y014323*
X026238*
Y014325*
X026233*
Y014326*
X026228*
Y014328*
X026222*
Y014330*
X026217*
Y014332*
X026212*
Y014333*
X026206*
Y014335*
X026201*
Y014337*
X026196*
Y014339*
X026190*
Y014341*
X026185*
Y014342*
X026180*
Y014344*
X026174*
Y014346*
X026167*
Y014348*
X026162*
Y014349*
X026156*
Y014351*
X026151*
Y014353*
X026146*
Y014355*
X026140*
Y014357*
X026135*
Y014358*
X026131*
Y014757*
X026133*
Y014759*
X026139*
Y014761*
X026144*
Y014762*
X026151*
Y014764*
X026156*
Y014766*
X026162*
Y014768*
X026167*
Y014769*
X026172*
Y014771*
X026178*
Y014773*
X026183*
Y014775*
X026188*
Y014777*
X026194*
Y014778*
X026199*
Y014780*
X026204*
Y014782*
X026212*
Y014784*
X026217*
Y014785*
X026222*
Y014787*
X026228*
Y014789*
X026233*
Y014791*
X026238*
Y014793*
X026244*
Y014794*
X026249*
Y014796*
X026254*
Y014798*
X026260*
Y014800*
X026265*
Y014801*
X026272*
Y014803*
X026277*
Y014805*
X026283*
Y014807*
X026288*
Y014809*
X026293*
Y014810*
X026299*
Y014812*
X026304*
Y014814*
X026309*
Y014816*
X026315*
Y014818*
X026320*
Y014819*
X026324*
Y014821*
X026329*
Y014823*
X026334*
Y014825*
X026340*
Y014826*
X026343*
Y014828*
X026347*
Y014830*
X026350*
Y014832*
X026354*
Y014834*
X026358*
Y014835*
X026359*
Y014837*
X026363*
Y014839*
X026365*
Y014841*
X026366*
Y014844*
X026368*
Y014848*
X026370*
Y014853*
X026372*
Y014858*
X026374*
Y014869*
X026375*
Y014901*
X026377*
Y014988*
X026375*
Y015004*
X026374*
Y015011*
X026372*
Y015017*
X026370*
Y015020*
X026368*
Y015024*
X026366*
Y015026*
X026365*
Y015028*
X026363*
Y015029*
X026361*
Y015031*
X026358*
Y015033*
X026349*
Y015035*
X026343*
Y015033*
X026329*
Y015031*
X026322*
Y015029*
X026315*
Y015028*
X026308*
Y015026*
X026302*
Y015024*
X026297*
Y015022*
X026292*
Y015020*
X026286*
Y015019*
X026281*
Y015017*
X026276*
Y015015*
X026270*
Y015013*
X026265*
Y015011*
X026260*
Y015010*
X026254*
Y015008*
X026249*
Y015006*
X026244*
Y015004*
X026240*
Y015003*
X026235*
Y015001*
X026229*
Y014999*
X026224*
Y014997*
X026219*
Y014995*
X026213*
Y014994*
X026208*
Y014992*
X026203*
Y014990*
X026199*
Y014988*
X026194*
Y014987*
X026188*
Y014985*
X026183*
Y014983*
X026178*
Y014981*
X026172*
Y014979*
X026167*
Y014978*
X026162*
Y014976*
X026156*
Y014974*
X026153*
Y014972*
X026148*
Y014971*
X026142*
Y014969*
X026137*
Y014967*
X026131*
Y014965*
X026126*
Y014963*
X026121*
Y014962*
X026117*
Y014960*
X026112*
Y014958*
X026107*
Y014956*
X026101*
Y014955*
X026096*
Y014953*
X026091*
Y014951*
X026085*
Y014949*
X026080*
Y014947*
X026076*
Y014946*
X026071*
Y014944*
X026066*
Y014942*
X026060*
Y014940*
X026055*
Y014939*
X026050*
Y014937*
X026044*
Y014935*
X026041*
Y014933*
X026035*
Y014931*
X026030*
Y014930*
X026025*
Y014928*
X026019*
Y014926*
X026014*
Y014924*
X026009*
Y014923*
X026003*
Y014921*
X026000*
Y014919*
X025994*
Y014917*
X025989*
Y014915*
X025984*
Y014914*
X025978*
Y014912*
X025973*
Y014910*
X025968*
Y014908*
X025964*
Y014906*
X025959*
Y014905*
X025954*
Y014903*
X025948*
Y014901*
X025943*
Y014899*
X025938*
Y014898*
X025932*
Y014896*
X025929*
Y014894*
X025923*
Y014892*
X025918*
Y014890*
X025913*
Y014889*
X025907*
Y014887*
X025902*
Y014885*
X025897*
Y014883*
X025893*
Y014882*
X025888*
Y014880*
X025882*
Y014878*
X025879*
Y014874*
X025881*
Y014873*
X025882*
Y014869*
X025884*
Y014866*
X025886*
Y014862*
X025888*
Y014858*
X025889*
Y014857*
X025891*
Y014853*
X025893*
Y014850*
X025895*
Y014846*
X025897*
Y014842*
X025898*
Y014841*
X025900*
Y014837*
X025902*
Y014834*
X025904*
Y014830*
X025905*
Y014826*
X025907*
Y014825*
X025909*
Y014821*
X025911*
Y014818*
X025913*
Y014814*
X025914*
Y014810*
X025916*
Y014807*
X025918*
Y014803*
X025920*
Y014800*
X025921*
Y014796*
X025923*
Y014793*
X025925*
Y014789*
X025927*
Y014785*
X025929*
Y014782*
X025930*
Y014778*
X025932*
Y014775*
X025934*
Y014769*
X025936*
Y014766*
X025938*
Y014762*
X025939*
Y014757*
X025941*
Y014752*
X025943*
Y014746*
X025945*
Y014741*
X025946*
Y014734*
X025948*
Y014727*
X025950*
Y014716*
X025952*
Y014696*
X025954*
Y014666*
X025952*
Y014648*
X025950*
Y014638*
X025948*
Y014629*
X025946*
Y014622*
X025945*
Y014618*
X025943*
Y014613*
X025941*
Y014608*
X025939*
Y014604*
X025938*
Y014599*
X025936*
Y014595*
X025934*
Y014591*
X025932*
Y014588*
X025930*
Y014584*
X025929*
Y014579*
X025927*
Y014575*
X025925*
Y014572*
X025923*
Y014568*
X025921*
Y014565*
X025920*
Y014561*
X025918*
Y014558*
X025916*
Y014556*
X025914*
Y014552*
X025913*
Y014549*
X025911*
Y014545*
X025909*
Y014542*
X025907*
Y014538*
X025905*
Y014535*
X025904*
Y014533*
X025902*
Y014529*
X025900*
Y014526*
X025898*
Y014522*
X025897*
Y014519*
X025895*
Y014517*
X025893*
Y014513*
X025891*
Y014510*
X025889*
Y014506*
X025888*
Y014503*
X025886*
Y014501*
X025884*
Y014497*
X025882*
Y014494*
X025881*
Y014490*
X025879*
Y014486*
X025877*
Y014485*
X025875*
Y014481*
X025873*
Y014478*
X025872*
Y014474*
X025870*
Y014470*
X025868*
Y014467*
X025866*
Y014463*
X025865*
Y014462*
X025863*
Y014458*
X025861*
Y014454*
X025859*
Y014451*
X025857*
Y014447*
X025856*
Y014444*
X025854*
Y014440*
X025852*
Y014437*
X025850*
Y014433*
X025849*
Y014430*
X025847*
Y014426*
X025845*
Y014422*
X025843*
Y014419*
X025841*
Y014415*
X025840*
Y014410*
X025838*
Y014406*
X025836*
Y014403*
X025834*
Y014399*
X025833*
Y014396*
X025831*
Y014390*
X025829*
Y014387*
X025827*
Y014381*
X025825*
Y014376*
X025824*
Y014371*
X025822*
Y014367*
X025820*
Y014360*
X025818*
Y014355*
X025816*
Y014349*
X025815*
Y014342*
X025813*
Y014335*
X025811*
Y014326*
X025809*
Y014319*
X025808*
Y014309*
X025806*
Y014296*
X025804*
Y014282*
X025802*
Y014259*
X025800*
Y014246*
X025799*
Y014248*
X025793*
Y014250*
X025788*
Y014252*
X025783*
Y014253*
X025779*
Y014255*
X025774*
Y014257*
X025768*
Y014259*
X025763*
Y014260*
X025758*
Y014262*
X025752*
Y014264*
X025747*
Y014266*
X025744*
Y014268*
X025738*
Y014269*
X025733*
Y014271*
X025728*
Y014273*
X025722*
Y014275*
X025717*
Y014276*
X025711*
Y014278*
X025708*
Y014280*
X025703*
Y014282*
X025697*
Y014284*
X025692*
Y014285*
X025687*
Y014287*
X025681*
Y014289*
X025676*
Y014291*
X025672*
Y014293*
X025667*
Y014294*
X025662*
Y014296*
X025656*
Y014298*
X025651*
Y014300*
X025646*
Y014301*
X025640*
Y014303*
X025637*
Y014305*
X025631*
Y014307*
X025626*
Y014309*
X025621*
Y014310*
X025615*
Y014312*
X025610*
Y014314*
X025605*
Y014316*
X025601*
Y014317*
X025596*
Y014319*
X025590*
Y014321*
X025585*
Y014323*
X025580*
Y014325*
X025574*
Y014326*
X025569*
Y014328*
X025566*
Y014330*
X025560*
Y014332*
X025555*
Y014333*
X025550*
Y014335*
X025544*
Y014337*
X025539*
Y014339*
X025534*
Y014341*
X025530*
Y014342*
X025525*
Y014344*
X025519*
Y014346*
X025514*
Y014348*
X025509*
Y014349*
X025503*
Y014351*
X025498*
Y014353*
X025494*
Y014355*
X025489*
Y014357*
X025484*
Y014358*
X025478*
Y014360*
X025473*
Y014362*
X025468*
Y014364*
X025462*
Y014365*
X025459*
Y014367*
X025453*
Y014369*
X025448*
Y014371*
X025443*
Y014373*
X025437*
Y014374*
X025432*
Y014376*
X025429*
Y014378*
X025423*
Y014380*
X025418*
Y014381*
X025412*
Y014383*
X025407*
Y014385*
X025402*
Y014387*
X025398*
Y014389*
X025393*
Y014390*
X025388*
Y014392*
X025382*
Y014394*
X025377*
Y014396*
X025373*
Y014397*
X025368*
Y014399*
X025363*
Y014401*
X025357*
Y014403*
X025352*
Y014405*
X025348*
Y014406*
X025343*
Y014408*
X025340*
Y014410*
X025338*
Y014412*
X025334*
Y014414*
X025332*
Y014415*
X025331*
Y014417*
X025329*
Y014421*
X025327*
Y014422*
X025325*
Y014426*
X025324*
Y014431*
X025322*
Y014437*
X025320*
Y014446*
X025318*
Y014458*
X025316*
Y014478*
X025315*
Y014609*
X025316*
Y014645*
X025318*
Y014657*
X025320*
Y014663*
X025322*
Y014668*
X025324*
Y014672*
X025325*
Y014673*
X025327*
Y014677*
X025329*
Y014679*
X025331*
Y014680*
X025332*
Y014682*
X025334*
Y014684*
X025336*
Y014686*
X025340*
Y014688*
X025343*
Y014689*
X025347*
Y014691*
X025352*
Y014693*
X025357*
Y014695*
X025363*
Y014696*
X025368*
Y014698*
X025372*
Y014700*
X025377*
Y014702*
X025382*
Y014704*
X025388*
Y014705*
X025393*
Y014707*
X025396*
Y014709*
X025402*
Y014711*
X025407*
Y014713*
X025412*
Y014714*
X025418*
Y014716*
X025421*
Y014718*
X025427*
Y014720*
X025432*
Y014721*
X025437*
Y014723*
X025443*
Y014725*
X025448*
Y014727*
X025452*
Y014729*
X025457*
Y014730*
X025462*
Y014732*
X025468*
Y014734*
X025473*
Y014736*
X025478*
Y014737*
X025482*
Y014739*
X025487*
Y014741*
X025493*
Y014743*
X025498*
Y014745*
X025503*
Y014746*
X025509*
Y014748*
X025512*
Y014750*
X025517*
Y014752*
X025523*
Y014753*
X025528*
Y014755*
X025534*
Y014757*
X025539*
Y014759*
X025542*
Y014761*
X025548*
Y014762*
X025553*
Y014764*
X025558*
Y014766*
X025564*
Y014768*
X025569*
Y014769*
X025573*
Y014771*
X025578*
Y014773*
X025583*
Y014775*
X025589*
Y014777*
X025594*
Y014778*
X025599*
Y014780*
X025603*
Y014782*
X025608*
Y014784*
X025614*
Y014785*
X025619*
Y014787*
X025624*
Y014789*
X025630*
Y014791*
X025633*
Y014793*
X025639*
Y014794*
X025644*
Y014796*
X025649*
Y014798*
X025655*
Y014800*
X025660*
Y014801*
X025665*
Y014803*
X025669*
Y014805*
X025674*
Y014807*
X025679*
Y014809*
X025685*
Y014810*
X025690*
Y014812*
X025695*
Y014814*
X025699*
Y014816*
X025704*
Y014818*
X025710*
Y014819*
X025715*
Y014821*
X025720*
Y014823*
X025726*
Y014825*
X025731*
Y014826*
X025735*
Y014828*
X025740*
Y014830*
X025745*
Y014832*
X025751*
Y014834*
X025756*
Y014835*
X025761*
Y014837*
X025765*
Y014839*
X025770*
Y014841*
X025776*
Y014842*
X025781*
Y014844*
X025786*
Y014846*
X025792*
Y014848*
X025797*
Y014850*
X025800*
Y014851*
X025806*
Y014853*
X025811*
Y014855*
X025816*
Y014857*
X025822*
Y014858*
X025827*
Y014860*
X025831*
Y014862*
X025836*
Y014864*
X025841*
Y014866*
X025847*
Y014867*
X025852*
Y014869*
X025857*
Y014871*
X025863*
Y014873*
X025866*
Y014874*
X025872*
Y014876*
X025877*
Y014882*
X025875*
Y014885*
X025873*
Y014889*
X025872*
Y014892*
X025870*
Y014894*
X025868*
Y014898*
X025866*
Y014901*
X025865*
Y014905*
X025863*
Y014908*
X025861*
Y014912*
X025859*
Y014915*
X025857*
Y014919*
X025856*
Y014923*
X025854*
Y014926*
X025852*
Y014930*
X025850*
Y014933*
X025849*
Y014937*
X025847*
Y014940*
X025845*
Y014946*
X025843*
Y014949*
X025841*
Y014953*
X025840*
Y014956*
X025838*
Y014962*
X025836*
Y014965*
X025834*
Y014971*
X025833*
Y014974*
X025831*
Y014979*
X025829*
Y014985*
X025827*
Y014988*
X025825*
Y014994*
X025824*
Y014999*
X025822*
Y015004*
X025820*
Y015011*
X025818*
Y015017*
X025816*
Y015024*
X025815*
Y015031*
X025813*
Y015040*
X025811*
Y015049*
X025809*
Y015060*
X025808*
Y015072*
X025806*
Y015092*
X025804*
Y015131*
X025806*
Y015150*
X025808*
Y015165*
X025809*
Y015173*
X025811*
Y015182*
X025813*
Y015191*
X025815*
Y015198*
X025816*
Y015205*
X025818*
Y015211*
X025820*
Y015218*
X025822*
Y015223*
X025824*
Y015229*
X025825*
Y015234*
X025827*
Y015238*
X025829*
Y015243*
X025831*
Y015248*
X025833*
Y015252*
X025834*
Y015257*
X025836*
Y015261*
X025838*
Y015266*
X025840*
Y015270*
X025841*
Y015273*
X025843*
Y015277*
X025845*
Y015282*
X025847*
Y015286*
X025849*
Y015289*
X025850*
Y015293*
X025852*
Y015296*
X025854*
Y015300*
X025856*
Y015303*
X025857*
Y015307*
X025859*
Y015310*
X025861*
Y015314*
X025863*
Y015318*
X025865*
Y015321*
X025866*
Y015325*
X025868*
Y015328*
X025870*
Y015330*
X025872*
Y015334*
X025873*
Y015337*
X025875*
Y015341*
X025877*
Y015344*
X025879*
Y015348*
X025881*
Y015350*
X025882*
Y015353*
X025884*
Y015357*
X025886*
Y015360*
X025888*
Y015364*
X025889*
Y015366*
X025891*
Y015369*
X025893*
Y015373*
X025895*
Y015376*
X025897*
Y015380*
X025898*
Y015382*
X025900*
Y015385*
X025902*
Y015389*
X025904*
Y015392*
X025905*
Y015396*
X025907*
Y015399*
X025909*
Y015401*
X025911*
Y015405*
X025913*
Y015408*
X025914*
Y015412*
X025916*
Y015415*
X025918*
Y015419*
X025920*
Y015423*
X025921*
Y015426*
X025923*
Y015430*
X025925*
Y015433*
X025927*
Y015437*
X025929*
Y015440*
X025930*
Y015444*
X025932*
Y015448*
X025934*
Y015453*
X025936*
Y015456*
X025938*
Y015460*
X025939*
Y015465*
X025941*
Y015469*
X025943*
Y015474*
X025945*
Y015480*
X025946*
Y015485*
X025948*
Y015490*
X025950*
Y015497*
X025952*
Y015504*
X025954*
Y015515*
X025955*
Y015533*
X025957*
Y015545*
X025955*
Y015565*
X025954*
Y015574*
X025952*
Y015581*
X025950*
Y015588*
X025948*
Y015595*
X025946*
Y015601*
X025945*
Y015604*
X025943*
Y015609*
X025941*
Y015615*
X025939*
Y015618*
X025938*
Y015624*
X025936*
Y015627*
X025934*
Y015631*
X025932*
Y015634*
X025930*
Y015640*
X025929*
Y015643*
X025927*
Y015647*
X025925*
Y015650*
X025923*
Y015654*
X025921*
Y015658*
X025920*
Y015661*
X025918*
Y015665*
X025916*
Y015666*
X025914*
Y015670*
X025925*
Y015668*
X025934*
Y015666*
X025946*
Y015665*
X025957*
Y015663*
X025968*
Y015661*
X025978*
Y015659*
X025986*
Y015658*
X025994*
Y015656*
X026002*
Y015654*
X026007*
Y015652*
X026014*
Y015650*
X026019*
Y015649*
X026026*
Y015647*
X026030*
Y015645*
X026035*
Y015643*
X026041*
Y015641*
X026046*
Y015640*
X026050*
Y015638*
X026055*
Y015636*
X026059*
Y015634*
X026062*
Y015633*
X026066*
Y015631*
X026071*
Y015629*
X026075*
Y015627*
X026078*
Y015625*
X026080*
Y015624*
X026083*
Y015622*
X026087*
Y015620*
X026091*
Y015618*
X026094*
Y015617*
X026096*
Y015615*
X026099*
Y015613*
X026101*
Y015611*
X026105*
Y015609*
X026107*
Y015608*
X026110*
Y015606*
X026112*
Y015604*
X026115*
Y015602*
X026117*
Y015601*
X026119*
Y015599*
X026121*
Y015597*
X026124*
Y015595*
X026126*
Y015593*
X026128*
Y015592*
X026130*
Y015590*
X026131*
Y015588*
X026133*
Y015586*
X026135*
Y015585*
X026139*
Y015583*
X026140*
Y015581*
X026142*
Y015577*
X026144*
Y015576*
X026146*
Y015574*
X026148*
Y015572*
X026149*
Y015570*
X026151*
Y015569*
X026153*
Y015567*
X026155*
Y015565*
X026156*
Y015561*
X026158*
Y015560*
X026160*
Y015558*
X026162*
Y015554*
X026164*
Y015553*
X026165*
Y015551*
X026167*
Y015547*
X026169*
Y015545*
X026171*
Y015542*
X026172*
Y015538*
X026174*
Y015537*
X026176*
Y015533*
X026178*
Y015529*
X026180*
Y015526*
X026181*
Y015522*
X026183*
Y015519*
X026185*
Y015515*
X026187*
Y015510*
X026188*
Y015506*
X026190*
Y015501*
X026192*
Y015496*
X026194*
Y015490*
X026196*
Y015485*
X026197*
Y015480*
X026199*
Y015472*
X026201*
Y015464*
X026203*
Y015453*
X026204*
Y015440*
X026206*
Y015423*
X026208*
Y015376*
X026206*
Y015353*
X026204*
Y015339*
X026203*
Y015330*
X026201*
Y015321*
X026199*
Y015314*
X026197*
Y015307*
X026196*
Y015302*
X026194*
Y015296*
X026192*
Y015291*
X026190*
Y015286*
X026188*
Y015280*
X026187*
Y015277*
X026185*
Y015271*
X026183*
Y015268*
X026181*
Y015262*
X026180*
Y015259*
X026178*
Y015255*
X026176*
Y015250*
X026174*
Y015246*
X026172*
Y015243*
X026171*
Y015239*
X026169*
Y015236*
X026167*
Y015232*
X026165*
Y015229*
X026164*
Y015227*
X026162*
Y015223*
X026160*
Y015220*
X026158*
Y015216*
X026156*
Y015213*
X026155*
Y015211*
X026153*
Y015207*
X026151*
Y015204*
X026149*
Y015202*
X026148*
Y015198*
X026146*
Y015195*
X026144*
Y015193*
X026142*
Y015189*
X026140*
Y015186*
X026139*
Y015184*
X026137*
Y015181*
X026135*
Y015179*
X026133*
Y015175*
X026131*
Y015172*
X026130*
Y015168*
X026128*
Y015165*
X026126*
Y015161*
X026124*
Y015157*
X026123*
Y015143*
X026124*
Y015140*
X026126*
Y015138*
X026128*
Y015136*
X026130*
Y015134*
X026131*
Y015133*
X026135*
Y015131*
X026140*
Y015129*
X026148*
Y015127*
X026160*
Y015125*
X026183*
Y015124*
X026244*
Y015125*
X026260*
Y015127*
X026269*
Y015129*
X026276*
Y015131*
X026281*
Y015133*
X026286*
Y015134*
X026290*
Y015136*
X026292*
Y015138*
X026295*
Y015140*
X026297*
Y015141*
X026299*
Y015143*
X026301*
Y015145*
X026302*
Y015147*
X026304*
Y015149*
X026306*
Y015150*
X026308*
Y015152*
X026309*
Y015154*
X026311*
Y015156*
X026313*
Y015157*
X026315*
Y015161*
X026317*
Y015163*
X026318*
Y015166*
X026320*
Y015168*
X026322*
Y015172*
X026324*
Y015173*
X026325*
Y015177*
X026327*
Y015179*
X026329*
Y015182*
X026331*
Y015186*
X026333*
Y015189*
X026334*
Y015191*
X026336*
Y015195*
X026338*
Y015198*
X026340*
Y015202*
X026341*
Y015207*
X026343*
Y015211*
X026345*
Y015214*
X026347*
Y015218*
X026349*
Y015223*
X026350*
Y015227*
X026352*
Y015232*
X026354*
Y015236*
X026356*
Y015241*
X026358*
Y015246*
X026359*
Y015252*
X026361*
Y015257*
X026363*
Y015262*
X026365*
Y015268*
X026366*
Y015275*
X026368*
Y015280*
X026370*
Y015287*
X026372*
Y015294*
X026374*
Y015302*
X026375*
Y015309*
X026377*
Y015318*
X026379*
Y015326*
X026381*
Y015335*
X026382*
Y015348*
X026384*
Y015359*
X026386*
Y015375*
X026388*
Y015403*
X026390*
Y015474*
X026388*
Y015496*
X026386*
Y015510*
X026384*
Y015522*
X026382*
Y015533*
X026381*
Y015544*
X026379*
Y015553*
X026377*
Y015561*
X026375*
Y015569*
X026374*
Y015576*
X026372*
Y015583*
X026370*
Y015590*
X026368*
Y015595*
X026366*
Y015601*
X026365*
Y015608*
X026363*
Y015613*
X026361*
Y015617*
X026359*
Y015622*
X026358*
Y015627*
X026356*
Y015633*
X026354*
Y015636*
X026352*
Y015640*
X026350*
Y015645*
X026349*
Y015649*
X026347*
Y015652*
X026345*
Y015656*
X026343*
Y015661*
X026341*
Y015665*
X026340*
Y015668*
X026338*
Y015672*
X026336*
Y015674*
X026334*
Y015677*
X026333*
Y015681*
X026331*
Y015684*
X026329*
Y015688*
X026327*
Y015690*
X026325*
Y015693*
X026324*
Y015697*
X026322*
Y015698*
X026320*
Y015702*
X026318*
Y015704*
X026317*
Y015707*
X026315*
Y015711*
X026313*
Y015713*
X026311*
Y015714*
X026309*
Y015718*
X026308*
Y015720*
X026306*
Y015723*
X026304*
Y015725*
X026302*
Y015727*
X026301*
Y015730*
X026299*
Y015732*
X026297*
Y015734*
X026295*
Y015736*
X026293*
Y015739*
X026292*
Y015741*
X026290*
Y015743*
X026288*
Y015745*
X026286*
Y015747*
X026285*
Y015748*
X026283*
Y015752*
X026281*
Y015754*
X026279*
Y015755*
X026277*
Y015757*
X026276*
Y015759*
X026274*
Y015761*
X026272*
Y015763*
X026270*
Y015764*
X026269*
Y015766*
X026267*
Y015768*
X026265*
Y015770*
X026263*
Y015771*
X026261*
Y015773*
X026260*
Y015775*
X026258*
Y015777*
X026256*
Y015779*
X026254*
Y015780*
X026253*
Y015782*
X026249*
Y015784*
X026247*
Y015786*
X026245*
Y015787*
X026244*
Y015789*
X026242*
Y015791*
X026238*
Y015793*
X026236*
Y015795*
X026235*
Y015796*
X026233*
Y015798*
X026229*
Y015800*
X026228*
Y015802*
X026226*
Y015803*
X026222*
Y015805*
X026220*
Y015807*
X026219*
Y015809*
X026215*
Y015811*
X026213*
Y015812*
X026210*
Y015814*
X026208*
Y015816*
X026204*
Y015818*
X026203*
Y015819*
X026199*
Y015821*
X026197*
Y015823*
X026194*
Y015825*
X026190*
Y015827*
X026188*
Y015828*
X026185*
Y015830*
X026181*
Y015832*
X026178*
Y015834*
X026176*
Y015835*
X026172*
Y015837*
X026169*
Y015839*
X026165*
Y015841*
X026162*
Y015843*
X026158*
Y015844*
X026155*
Y015846*
X026151*
Y015848*
X026148*
Y015850*
X026142*
Y015852*
X026139*
Y015853*
X026135*
Y015855*
X026131*
Y015857*
X026126*
Y015859*
X026123*
Y015860*
X026117*
Y015862*
X026112*
Y015864*
X026108*
Y015866*
X026103*
Y015868*
X026098*
Y015869*
X026092*
Y015871*
X026087*
Y015873*
X026082*
Y015875*
X026075*
Y015876*
X026069*
Y015878*
X026062*
Y015880*
X026055*
Y015882*
X026048*
Y015884*
X026041*
Y015885*
X026034*
Y015887*
X026025*
Y015889*
X026016*
Y015891*
X026005*
Y015892*
X025994*
Y015894*
X025984*
Y015896*
X025970*
Y015898*
X025954*
Y015900*
X025936*
Y015901*
X025907*
Y015903*
X025815*
Y015901*
X025811*
Y015905*
X025809*
Y015916*
X025808*
Y015928*
X025806*
Y015949*
X025804*
Y015987*
X025806*
Y016008*
X025808*
Y016015*
G37*
G36*
X037312Y010108D02*
X037224D01*
Y009928*
X037319*
X037328Y009929*
X037344Y009930*
X037357*
X037366Y009931*
X037371Y009932*
X037375Y009933*
X037376*
X037388Y009936*
X037397Y009940*
X037407Y009944*
X037414Y009949*
X037420Y009954*
X037424Y009958*
X037427Y009961*
X037428Y009962*
X037435Y009970*
X037440Y009980*
X037443Y009990*
X037445Y009998*
X037447Y010006*
X037448Y010013*
Y010016*
Y010018*
X037447Y010028*
X037446Y010038*
X037443Y010046*
X037441Y010053*
X037439Y010059*
X037436Y010064*
X037435Y010066*
X037434Y010067*
X037428Y010075*
X037421Y010081*
X037415Y010087*
X037408Y010090*
X037402Y010094*
X037397Y010096*
X037394Y010097*
X037393Y010098*
X037389Y010100*
X037382Y010101*
X037367Y010104*
X037351Y010106*
X037334Y010107*
X037318*
X037312Y010108*
G37*
G36*
X025816Y014611D02*
X025808D01*
Y014609*
X025802*
Y014608*
X025800*
Y014606*
X025799*
Y014604*
X025797*
Y014602*
X025795*
Y014600*
X025793*
Y014595*
X025792*
Y014583*
X025793*
Y014579*
X025795*
Y014575*
X025797*
Y014574*
X025799*
Y014572*
X025802*
Y014570*
X025806*
Y014568*
X025818*
Y014570*
X025822*
Y014572*
X025825*
Y014574*
X025827*
Y014577*
X025829*
Y014579*
X025831*
Y014584*
X025833*
Y014595*
X025831*
Y014599*
X025829*
Y014602*
X025827*
Y014604*
X025825*
Y014606*
X025824*
Y014608*
X025822*
Y014609*
X025816*
Y014611*
G37*
G36*
X033551Y010203D02*
X033378D01*
X033463Y009968*
X033551Y010203*
G37*
G36*
X027467Y024292D02*
X027459D01*
X027428Y024289*
X027399Y024285*
X027372Y024278*
X027348Y024270*
X027338Y024266*
X027328Y024263*
X027319Y024259*
X027312Y024256*
X027308Y024252*
X027303Y024251*
X027301Y024249*
X027300*
X027273Y024232*
X027249Y024212*
X027229Y024193*
X027213Y024174*
X027201Y024157*
X027190Y024144*
X027188Y024138*
X027186Y024135*
X027183Y024133*
Y024131*
X027169Y024103*
X027159Y024075*
X027152Y024048*
X027146Y024025*
X027144Y024005*
X027143Y023995*
Y023988*
X027142Y023983*
Y023978*
Y023976*
Y023975*
X027144Y023945*
X027149Y023916*
X027154Y023889*
X027162Y023866*
X027171Y023847*
X027174Y023839*
X027176Y023832*
X027180Y023826*
X027181Y023822*
X027183Y023820*
Y023819*
X027199Y023792*
X027219Y023769*
X027237Y023749*
X027257Y023732*
X027273Y023719*
X027287Y023709*
X027293Y023706*
X027296Y023704*
X027299Y023701*
X027300*
X027328Y023686*
X027356Y023676*
X027384Y023668*
X027408Y023663*
X027418Y023661*
X027429Y023660*
X027437Y023659*
X027445*
X027451Y023658*
X027459*
X027489Y023660*
X027518Y023664*
X027545Y023671*
X027568Y023678*
X027579Y023683*
X027588Y023686*
X027596Y023690*
X027604Y023693*
X027609Y023697*
X027613Y023698*
X027616Y023700*
X027617*
X027643Y023717*
X027666Y023736*
X027686Y023756*
X027703Y023774*
X027716Y023791*
X027725Y023805*
X027729Y023811*
X027731Y023814*
X027733Y023817*
Y023818*
X027747Y023845*
X027757Y023874*
X027764Y023901*
X027769Y023924*
X027772Y023945*
X027774Y023954*
Y023961*
X027775Y023967*
Y023971*
Y023973*
Y023975*
X027772Y024006*
X027768Y024035*
X027762Y024061*
X027754Y024085*
X027750Y024096*
X027746Y024105*
X027742Y024113*
X027740Y024121*
X027737Y024126*
X027735Y024130*
X027733Y024133*
Y024134*
X027716Y024160*
X027697Y024183*
X027678Y024203*
X027659Y024220*
X027642Y024233*
X027629Y024242*
X027624Y024246*
X027620Y024248*
X027618Y024250*
X027617*
X027588Y024264*
X027560Y024274*
X027534Y024281*
X027510Y024286*
X027489Y024289*
X027480Y024291*
X027473*
X027467Y024292*
G37*
G36*
X032843Y010108D02*
X032756D01*
Y009928*
X032851*
X032860Y009929*
X032876Y009930*
X032888*
X032897Y009931*
X032903Y009932*
X032907Y009933*
X032908*
X032919Y009936*
X032929Y009940*
X032938Y009944*
X032945Y009949*
X032952Y009954*
X032956Y009958*
X032959Y009961*
X032960Y009962*
X032966Y009970*
X032971Y009980*
X032975Y009990*
X032977Y009998*
X032979Y010006*
X032980Y010013*
Y010016*
Y010018*
X032979Y010028*
X032978Y010038*
X032975Y010046*
X032973Y010053*
X032970Y010059*
X032967Y010064*
X032966Y010066*
X032965Y010067*
X032960Y010075*
X032953Y010081*
X032946Y010087*
X032939Y010090*
X032934Y010094*
X032929Y010096*
X032926Y010097*
X032925Y010098*
X032920Y010100*
X032913Y010101*
X032899Y010104*
X032883Y010106*
X032865Y010107*
X032850*
X032843Y010108*
G37*
G36*
X025662Y014551D02*
X025651D01*
Y014549*
X025644*
Y014547*
X025640*
Y014545*
X025639*
Y014543*
X025635*
Y014542*
X025633*
Y014538*
X025631*
Y014536*
X025630*
Y014535*
X025628*
Y014531*
X025626*
Y014526*
X025624*
Y014508*
X025626*
Y014503*
X025628*
Y014499*
X025630*
Y014495*
X025631*
Y014494*
X025633*
Y014492*
X025635*
Y014490*
X025637*
Y014488*
X025640*
Y014486*
X025644*
Y014485*
X025647*
Y014483*
X025665*
Y014485*
X025669*
Y014486*
X025672*
Y014488*
X025676*
Y014490*
X025678*
Y014492*
X025679*
Y014494*
X025681*
Y014497*
X025683*
Y014499*
X025685*
Y014503*
X025687*
Y014510*
X025688*
Y014524*
X025687*
Y014529*
X025685*
Y014533*
X025683*
Y014536*
X025681*
Y014538*
X025679*
Y014540*
X025678*
Y014542*
X025676*
Y014543*
X025674*
Y014545*
X025671*
Y014547*
X025667*
Y014549*
X025662*
Y014551*
G37*
G36*
X025736Y014497D02*
X025719D01*
Y014495*
X025715*
Y014494*
X025711*
Y014492*
X025710*
Y014490*
X025708*
Y014488*
X025706*
Y014485*
X025704*
Y014483*
X025703*
Y014474*
X025701*
Y014470*
X025703*
Y014463*
X025704*
Y014460*
X025706*
Y014458*
X025708*
Y014456*
X025710*
Y014454*
X025711*
Y014453*
X025713*
Y014451*
X025717*
Y014449*
X025724*
Y014447*
X025731*
Y014449*
X025738*
Y014451*
X025742*
Y014453*
X025744*
Y014454*
X025745*
Y014456*
X025747*
Y014458*
X025749*
Y014462*
X025751*
Y014465*
X025752*
Y014481*
X025751*
Y014485*
X025749*
Y014488*
X025747*
Y014490*
X025745*
Y014492*
X025744*
Y014494*
X025740*
Y014495*
X025736*
Y014497*
G37*
%LNmsb-3*%
%LPD*%
G36*
X027482Y024167D02*
X027499Y024166D01*
X027531Y024159*
X027558Y024151*
X027571Y024145*
X027581Y024141*
X027590Y024135*
X027599Y024130*
X027606Y024126*
X027612Y024121*
X027617Y024118*
X027620Y024115*
X027621Y024114*
X027622Y024113*
X027633Y024103*
X027641Y024091*
X027649Y024080*
X027655Y024067*
X027665Y024044*
X027672Y024021*
X027676Y024001*
X027677Y023992*
X027678Y023985*
X027679Y023978*
Y023973*
Y023971*
Y023970*
X027678Y023947*
X027673Y023926*
X027667Y023908*
X027662Y023892*
X027655Y023879*
X027650Y023870*
X027646Y023864*
X027644Y023862*
X027631Y023845*
X027614Y023832*
X027597Y023820*
X027581Y023811*
X027567Y023804*
X027554Y023799*
X027550Y023798*
X027546Y023797*
X027545Y023796*
X027544*
X027516Y023879*
X027534Y023885*
X027548Y023892*
X027559Y023898*
X027569Y023904*
X027576Y023910*
X027581Y023915*
X027584Y023918*
X027586Y023919*
X027593Y023928*
X027597Y023939*
X027601Y023948*
X027603Y023957*
X027604Y023965*
X027605Y023972*
Y023977*
Y023978*
X027604Y023993*
X027599Y024007*
X027594Y024018*
X027588Y024029*
X027581Y024037*
X027576Y024043*
X027572Y024047*
X027571Y024048*
X027556Y024058*
X027538Y024065*
X027520Y024070*
X027501Y024074*
X027485Y024076*
X027473Y024077*
X027460*
X027433Y024076*
X027411Y024073*
X027392Y024068*
X027377Y024062*
X027365Y024058*
X027357Y024053*
X027352Y024050*
X027350Y024048*
X027339Y024037*
X027330Y024024*
X027324Y024011*
X027319Y023999*
X027317Y023988*
X027315Y023980*
Y023975*
Y023972*
X027316Y023961*
X027317Y023950*
X027320Y023941*
X027323Y023933*
X027326Y023926*
X027330Y023922*
X027331Y023919*
X027332Y023918*
X027339Y023910*
X027348Y023902*
X027367Y023890*
X027375Y023886*
X027382Y023882*
X027386Y023881*
X027387Y023880*
X027368Y023796*
X027345Y023805*
X027325Y023817*
X027309Y023828*
X027295Y023839*
X027285Y023848*
X027278Y023856*
X027273Y023860*
X027272Y023863*
X027262Y023880*
X027254Y023897*
X027249Y023915*
X027244Y023932*
X027242Y023947*
X027241Y023958*
Y023963*
Y023967*
Y023968*
Y023969*
X027242Y023990*
X027245Y024009*
X027249Y024028*
X027254Y024043*
X027259Y024055*
X027263Y024066*
X027266Y024071*
X027267Y024074*
X027278Y024090*
X027290Y024104*
X027303Y024116*
X027316Y024126*
X027327Y024134*
X027337Y024139*
X027342Y024143*
X027343Y024144*
X027345*
X027364Y024152*
X027385Y024158*
X027405Y024163*
X027423Y024165*
X027439Y024167*
X027452Y024168*
X027463*
X027482Y024167*
G37*
G36*
X025811Y015896D02*
X025813D01*
Y015889*
X025815*
Y015882*
X025816*
Y015875*
X025818*
Y015868*
X025820*
Y015862*
X025822*
Y015857*
X025824*
Y015852*
X025825*
Y015846*
X025827*
Y015841*
X025829*
Y015835*
X025831*
Y015832*
X025833*
Y015827*
X025834*
Y015823*
X025836*
Y015818*
X025838*
Y015814*
X025840*
Y015811*
X025841*
Y015805*
X025843*
Y015802*
X025845*
Y015798*
X025847*
Y015795*
X025849*
Y015791*
X025850*
Y015787*
X025852*
Y015782*
X025854*
Y015779*
X025856*
Y015775*
X025857*
Y015771*
X025859*
Y015768*
X025861*
Y015766*
X025863*
Y015763*
X025865*
Y015759*
X025866*
Y015755*
X025868*
Y015752*
X025870*
Y015748*
X025872*
Y015745*
X025873*
Y015741*
X025875*
Y015739*
X025877*
Y015736*
X025879*
Y015732*
X025881*
Y015729*
X025882*
Y015725*
X025884*
Y015722*
X025886*
Y015720*
X025888*
Y015716*
X025889*
Y015713*
X025891*
Y015709*
X025893*
Y015706*
X025895*
Y015704*
X025897*
Y015700*
X025898*
Y015697*
X025900*
Y015693*
X025902*
Y015690*
X025904*
Y015688*
X025905*
Y015684*
X025907*
Y015681*
X025909*
Y015677*
X025911*
Y015674*
X025913*
Y015670*
X025786*
Y015668*
X025767*
Y015666*
X025752*
Y015665*
X025742*
Y015663*
X025733*
Y015661*
X025724*
Y015659*
X025717*
Y015658*
X025708*
Y015656*
X025701*
Y015654*
X025695*
Y015652*
X025688*
Y015650*
X025683*
Y015649*
X025676*
Y015647*
X025671*
Y015645*
X025667*
Y015643*
X025662*
Y015641*
X025656*
Y015640*
X025653*
Y015638*
X025647*
Y015636*
X025644*
Y015634*
X025639*
Y015633*
X025635*
Y015631*
X025631*
Y015629*
X025628*
Y015627*
X025624*
Y015625*
X025621*
Y015624*
X025617*
Y015622*
X025614*
Y015620*
X025610*
Y015618*
X025608*
Y015617*
X025605*
Y015615*
X025601*
Y015613*
X025599*
Y015611*
X025596*
Y015609*
X025594*
Y015608*
X025590*
Y015606*
X025589*
Y015604*
X025585*
Y015602*
X025583*
Y015601*
X025580*
Y015599*
X025578*
Y015597*
X025576*
Y015595*
X025574*
Y015593*
X025571*
Y015592*
X025569*
Y015590*
X025567*
Y015588*
X025566*
Y015586*
X025564*
Y015585*
X025560*
Y015583*
X025558*
Y015581*
X025557*
Y015579*
X025555*
Y015577*
X025553*
Y015576*
X025551*
Y015574*
X025550*
Y015572*
X025548*
Y015570*
X025546*
Y015569*
X025544*
Y015567*
X025542*
Y015563*
X025541*
Y015561*
X025539*
Y015560*
X025537*
Y015558*
X025535*
Y015556*
X025534*
Y015553*
X025532*
Y015551*
X025530*
Y015549*
X025528*
Y015545*
X025526*
Y015544*
X025525*
Y015542*
X025523*
Y015538*
X025521*
Y015535*
X025519*
Y015533*
X025517*
Y015529*
X025516*
Y015528*
X025514*
Y015524*
X025512*
Y015520*
X025510*
Y015517*
X025509*
Y015513*
X025507*
Y015510*
X025505*
Y015506*
X025503*
Y015503*
X025501*
Y015497*
X025500*
Y015494*
X025498*
Y015488*
X025496*
Y015483*
X025494*
Y015478*
X025493*
Y015472*
X025491*
Y015465*
X025489*
Y015456*
X025487*
Y015442*
X025485*
Y015415*
X025484*
Y015383*
X025485*
Y015357*
X025487*
Y015344*
X025489*
Y015335*
X025491*
Y015328*
X025493*
Y015321*
X025494*
Y015316*
X025496*
Y015310*
X025498*
Y015305*
X025500*
Y015300*
X025501*
Y015294*
X025503*
Y015291*
X025505*
Y015286*
X025507*
Y015282*
X025509*
Y015277*
X025510*
Y015273*
X025512*
Y015270*
X025514*
Y015266*
X025516*
Y015262*
X025517*
Y015257*
X025519*
Y015255*
X025521*
Y015252*
X025523*
Y015248*
X025525*
Y015245*
X025526*
Y015241*
X025528*
Y015238*
X025530*
Y015236*
X025532*
Y015232*
X025534*
Y015229*
X025535*
Y015225*
X025537*
Y015223*
X025539*
Y015220*
X025541*
Y015218*
X025542*
Y015214*
X025544*
Y015213*
X025546*
Y015209*
X025548*
Y015207*
X025550*
Y015204*
X025551*
Y015202*
X025553*
Y015198*
X025555*
Y015197*
X025557*
Y015193*
X025558*
Y015189*
X025560*
Y015188*
X025562*
Y015184*
X025564*
Y015182*
X025566*
Y015179*
X025567*
Y015175*
X025569*
Y015173*
X025571*
Y015170*
X025573*
Y015166*
X025574*
Y015161*
X025576*
Y015150*
X025574*
Y015147*
X025573*
Y015145*
X025571*
Y015143*
X025569*
Y015141*
X025567*
Y015140*
X025566*
Y015138*
X025564*
Y015136*
X025560*
Y015134*
X025557*
Y015133*
X025551*
Y015131*
X025542*
Y015129*
X025532*
Y015127*
X025503*
Y015125*
X025457*
Y015127*
X025437*
Y015129*
X025429*
Y015131*
X025420*
Y015133*
X025414*
Y015134*
X025409*
Y015136*
X025405*
Y015138*
X025402*
Y015140*
X025398*
Y015141*
X025396*
Y015143*
X025393*
Y015145*
X025391*
Y015147*
X025389*
Y015149*
X025388*
Y015150*
X025386*
Y015152*
X025384*
Y015154*
X025382*
Y015156*
X025380*
Y015157*
X025379*
Y015159*
X025377*
Y015163*
X025375*
Y015165*
X025373*
Y015166*
X025372*
Y015170*
X025370*
Y015172*
X025368*
Y015175*
X025366*
Y015177*
X025364*
Y015181*
X025363*
Y015182*
X025361*
Y015186*
X025359*
Y015189*
X025357*
Y015191*
X025356*
Y015195*
X025354*
Y015198*
X025352*
Y015202*
X025350*
Y015205*
X025348*
Y015209*
X025347*
Y015213*
X025345*
Y015218*
X025343*
Y015221*
X025341*
Y015225*
X025340*
Y015230*
X025338*
Y015234*
X025336*
Y015239*
X025334*
Y015243*
X025332*
Y015248*
X025331*
Y015254*
X025329*
Y015259*
X025327*
Y015264*
X025325*
Y015270*
X025324*
Y015275*
X025322*
Y015282*
X025320*
Y015287*
X025318*
Y015294*
X025316*
Y015302*
X025315*
Y015309*
X025313*
Y015316*
X025311*
Y015325*
X025309*
Y015335*
X025308*
Y015346*
X025306*
Y015366*
X025304*
Y015467*
X025306*
Y015487*
X025308*
Y015501*
X025309*
Y015512*
X025311*
Y015520*
X025313*
Y015529*
X025315*
Y015538*
X025316*
Y015545*
X025318*
Y015553*
X025320*
Y015560*
X025322*
Y015565*
X025324*
Y015572*
X025325*
Y015577*
X025327*
Y015583*
X025329*
Y015588*
X025331*
Y015593*
X025332*
Y015597*
X025334*
Y015602*
X025336*
Y015608*
X025338*
Y015611*
X025340*
Y015617*
X025341*
Y015620*
X025343*
Y015624*
X025345*
Y015627*
X025347*
Y015633*
X025348*
Y015636*
X025350*
Y015640*
X025352*
Y015643*
X025354*
Y015647*
X025356*
Y015650*
X025357*
Y015654*
X025359*
Y015658*
X025361*
Y015659*
X025363*
Y015663*
X025364*
Y015666*
X025366*
Y015670*
X025368*
Y015672*
X025370*
Y015675*
X025372*
Y015679*
X025373*
Y015681*
X025375*
Y015684*
X025377*
Y015686*
X025379*
Y015690*
X025380*
Y015691*
X025382*
Y015695*
X025384*
Y015697*
X025386*
Y015700*
X025388*
Y015702*
X025389*
Y015704*
X025391*
Y015707*
X025393*
Y015709*
X025395*
Y015713*
X025396*
Y015714*
X025398*
Y015716*
X025400*
Y015718*
X025402*
Y015722*
X025404*
Y015723*
X025405*
Y015725*
X025407*
Y015727*
X025409*
Y015729*
X025411*
Y015732*
X025412*
Y015734*
X025414*
Y015736*
X025416*
Y015738*
X025418*
Y015739*
X025420*
Y015741*
X025421*
Y015743*
X025423*
Y015745*
X025425*
Y015747*
X025427*
Y015748*
X025429*
Y015750*
X025430*
Y015752*
X025432*
Y015754*
X025434*
Y015755*
X025436*
Y015757*
X025437*
Y015759*
X025439*
Y015761*
X025441*
Y015763*
X025443*
Y015764*
X025445*
Y015766*
X025446*
Y015768*
X025448*
Y015770*
X025450*
Y015771*
X025452*
Y015773*
X025455*
Y015775*
X025457*
Y015777*
X025459*
Y015779*
X025461*
Y015780*
X025462*
Y015782*
X025466*
Y015784*
X025468*
Y015786*
X025469*
Y015787*
X025471*
Y015789*
X025475*
Y015791*
X025477*
Y015793*
X025478*
Y015795*
X025482*
Y015796*
X025484*
Y015798*
X025485*
Y015800*
X025489*
Y015802*
X025491*
Y015803*
X025494*
Y015805*
X025496*
Y015807*
X025500*
Y015809*
X025501*
Y015811*
X025505*
Y015812*
X025507*
Y015814*
X025510*
Y015816*
X025512*
Y015818*
X025516*
Y015819*
X025519*
Y015821*
X025521*
Y015823*
X025525*
Y015825*
X025528*
Y015827*
X025532*
Y015828*
X025534*
Y015830*
X025537*
Y015832*
X025541*
Y015834*
X025544*
Y015835*
X025548*
Y015837*
X025551*
Y015839*
X025555*
Y015841*
X025558*
Y015843*
X025562*
Y015844*
X025566*
Y015846*
X025569*
Y015848*
X025574*
Y015850*
X025578*
Y015852*
X025582*
Y015853*
X025587*
Y015855*
X025590*
Y015857*
X025596*
Y015859*
X025599*
Y015860*
X025605*
Y015862*
X025610*
Y015864*
X025614*
Y015866*
X025619*
Y015868*
X025624*
Y015869*
X025630*
Y015871*
X025637*
Y015873*
X025642*
Y015875*
X025647*
Y015876*
X025655*
Y015878*
X025662*
Y015880*
X025667*
Y015882*
X025674*
Y015884*
X025683*
Y015885*
X025690*
Y015887*
X025699*
Y015889*
X025708*
Y015891*
X025719*
Y015892*
X025729*
Y015894*
X025740*
Y015896*
X025754*
Y015898*
X025768*
Y015900*
X025788*
Y015901*
X025811*
Y015896*
G37*
G36*
X025359Y012901D02*
X025368D01*
Y012899*
X025375*
Y012897*
X025382*
Y012895*
X025388*
Y012894*
X025393*
Y012892*
X025398*
Y012890*
X025404*
Y012888*
X025409*
Y012887*
X025414*
Y012885*
X025420*
Y012883*
X025425*
Y012881*
X025430*
Y012879*
X025436*
Y012878*
X025441*
Y012876*
X025446*
Y012874*
X025452*
Y012872*
X025457*
Y012871*
X025462*
Y012869*
X025468*
Y012867*
X025473*
Y012865*
X025478*
Y012863*
X025484*
Y012862*
X025489*
Y012860*
X025494*
Y012858*
X025500*
Y012856*
X025505*
Y012855*
X025510*
Y012853*
X025516*
Y012851*
X025521*
Y012849*
X025526*
Y012847*
X025532*
Y012846*
X025537*
Y012844*
X025542*
Y012842*
X025548*
Y012840*
X025553*
Y012839*
X025558*
Y012837*
X025564*
Y012835*
X025569*
Y012833*
X025574*
Y012831*
X025580*
Y012830*
X025585*
Y012828*
X025590*
Y012826*
X025596*
Y012824*
X025601*
Y012822*
X025606*
Y012821*
X025612*
Y012819*
X025617*
Y012817*
X025622*
Y012815*
X025628*
Y012814*
X025633*
Y012812*
X025639*
Y012810*
X025644*
Y012808*
X025649*
Y012806*
X025655*
Y012805*
X025660*
Y012803*
X025665*
Y012801*
X025671*
Y012799*
X025676*
Y012798*
X025681*
Y012796*
X025687*
Y012794*
X025692*
Y012792*
X025697*
Y012790*
X025703*
Y012789*
X025708*
Y012787*
X025713*
Y012785*
X025719*
Y012783*
X025724*
Y012782*
X025729*
Y012780*
X025735*
Y012778*
X025740*
Y012776*
X025744*
Y012774*
X025749*
Y012773*
X025754*
Y012771*
X025760*
Y012769*
X025765*
Y012767*
X025770*
Y012766*
X025776*
Y012764*
X025781*
Y012762*
X025786*
Y012760*
X025792*
Y012758*
X025797*
Y012757*
X025802*
Y012755*
X025808*
Y012753*
X025813*
Y012751*
X025818*
Y012750*
X025824*
Y012748*
X025829*
Y012746*
X025834*
Y012744*
X025840*
Y012742*
X025845*
Y012741*
X025850*
Y012739*
X025856*
Y012735*
X025854*
Y012734*
X025852*
Y012730*
X025850*
Y012726*
X025849*
Y012725*
X025847*
Y012721*
X025845*
Y012717*
X025843*
Y012714*
X025841*
Y012710*
X025840*
Y012707*
X025838*
Y012703*
X025836*
Y012700*
X025834*
Y012696*
X025833*
Y012693*
X025831*
Y012687*
X025829*
Y012684*
X025827*
Y012678*
X025825*
Y012675*
X025824*
Y012669*
X025822*
Y012662*
X025820*
Y012657*
X025818*
Y012650*
X025816*
Y012643*
X025815*
Y012634*
X025813*
Y012623*
X025811*
Y012609*
X025809*
Y012593*
X025808*
Y012580*
X025806*
Y012561*
X025804*
Y012534*
X025808*
Y012532*
X025813*
Y012531*
X025818*
Y012529*
X025824*
Y012527*
X025829*
Y012525*
X025836*
Y012523*
X025841*
Y012522*
X025847*
Y012520*
X025852*
Y012518*
X025857*
Y012516*
X025863*
Y012515*
X025868*
Y012513*
X025875*
Y012511*
X025881*
Y012509*
X025886*
Y012507*
X025891*
Y012506*
X025897*
Y012504*
X025902*
Y012502*
X025909*
Y012500*
X025914*
Y012499*
X025920*
Y012497*
X025925*
Y012495*
X025930*
Y012493*
X025936*
Y012491*
X025941*
Y012490*
X025948*
Y012488*
X025954*
Y012486*
X025959*
Y012484*
X025964*
Y012483*
X025970*
Y012481*
X025975*
Y012479*
X025982*
Y012477*
X025987*
Y012475*
X025993*
Y012474*
X025998*
Y012472*
X026003*
Y012470*
X026009*
Y012468*
X026016*
Y012467*
X026021*
Y012465*
X026026*
Y012463*
X026032*
Y012461*
X026037*
Y012459*
X026043*
Y012458*
X026048*
Y012456*
X026055*
Y012454*
X026060*
Y012452*
X026066*
Y012451*
X026071*
Y012449*
X026076*
Y012447*
X026082*
Y012445*
X026087*
Y012443*
X026094*
Y012442*
X026099*
Y012440*
X026105*
Y012438*
X026110*
Y012436*
X026115*
Y012435*
X026121*
Y012433*
X026126*
Y012431*
X026131*
Y012429*
X026137*
Y012427*
X026144*
Y012426*
X026149*
Y012424*
X026155*
Y012422*
X026160*
Y012419*
X026155*
Y012417*
X026149*
Y012415*
X026144*
Y012413*
X026139*
Y012411*
X026133*
Y012410*
X026128*
Y012408*
X026123*
Y012406*
X026117*
Y012404*
X026112*
Y012402*
X026107*
Y012401*
X026101*
Y012399*
X026096*
Y012397*
X026091*
Y012395*
X026085*
Y012394*
X026080*
Y012392*
X026073*
Y012390*
X026067*
Y012388*
X026062*
Y012386*
X026057*
Y012385*
X026051*
Y012383*
X026046*
Y012381*
X026041*
Y012379*
X026034*
Y012378*
X026028*
Y012376*
X026023*
Y012374*
X026018*
Y012372*
X026012*
Y012370*
X026007*
Y012369*
X026002*
Y012367*
X025994*
Y012365*
X025989*
Y012363*
X025984*
Y012362*
X025978*
Y012360*
X025973*
Y012358*
X025968*
Y012356*
X025961*
Y012354*
X025955*
Y012353*
X025950*
Y012351*
X025945*
Y012349*
X025939*
Y012347*
X025934*
Y012346*
X025927*
Y012344*
X025921*
Y012342*
X025916*
Y012340*
X025911*
Y012338*
X025905*
Y012337*
X025900*
Y012335*
X025893*
Y012333*
X025888*
Y012331*
X025882*
Y012330*
X025877*
Y012328*
X025872*
Y012326*
X025868*
Y012328*
X025866*
Y012331*
X025865*
Y012335*
X025863*
Y012338*
X025861*
Y012342*
X025859*
Y012346*
X025857*
Y012349*
X025856*
Y012353*
X025854*
Y012356*
X025852*
Y012360*
X025850*
Y012363*
X025849*
Y012367*
X025847*
Y012370*
X025845*
Y012374*
X025843*
Y012379*
X025841*
Y012383*
X025840*
Y012386*
X025838*
Y012390*
X025836*
Y012395*
X025834*
Y012399*
X025833*
Y012404*
X025831*
Y012410*
X025829*
Y012413*
X025827*
Y012419*
X025825*
Y012424*
X025824*
Y012429*
X025822*
Y012435*
X025820*
Y012442*
X025818*
Y012447*
X025816*
Y012454*
X025815*
Y012461*
X025813*
Y012468*
X025811*
Y012477*
X025809*
Y012488*
X025808*
Y012502*
X025806*
Y012520*
X025804*
Y012534*
X025802*
Y012536*
X025797*
Y012538*
X025790*
Y012540*
X025784*
Y012541*
X025779*
Y012543*
X025774*
Y012545*
X025768*
Y012547*
X025763*
Y012548*
X025756*
Y012550*
X025751*
Y012552*
X025745*
Y012554*
X025740*
Y012556*
X025735*
Y012557*
X025729*
Y012559*
X025724*
Y012561*
X025717*
Y012563*
X025711*
Y012564*
X025706*
Y012566*
X025701*
Y012568*
X025695*
Y012570*
X025690*
Y012572*
X025683*
Y012573*
X025678*
Y012575*
X025672*
Y012577*
X025667*
Y012579*
X025662*
Y012580*
X025656*
Y012582*
X025651*
Y012584*
X025644*
Y012586*
X025639*
Y012588*
X025633*
Y012589*
X025628*
Y012591*
X025622*
Y012593*
X025617*
Y012595*
X025612*
Y012596*
X025605*
Y012598*
X025599*
Y012600*
X025594*
Y012602*
X025589*
Y012604*
X025583*
Y012605*
X025578*
Y012607*
X025573*
Y012609*
X025566*
Y012611*
X025560*
Y012612*
X025555*
Y012614*
X025550*
Y012616*
X025544*
Y012618*
X025539*
Y012620*
X025532*
Y012621*
X025526*
Y012623*
X025521*
Y012625*
X025516*
Y012627*
X025510*
Y012629*
X025505*
Y012630*
X025500*
Y012632*
X025493*
Y012634*
X025487*
Y012636*
X025482*
Y012637*
X025477*
Y012639*
X025471*
Y012641*
X025466*
Y012643*
X025461*
Y012645*
X025453*
Y012646*
X025448*
Y012648*
X025443*
Y012650*
X025437*
Y012652*
X025432*
Y012653*
X025427*
Y012655*
X025421*
Y012657*
X025416*
Y012659*
X025411*
Y012661*
X025404*
Y012662*
X025398*
Y012664*
X025393*
Y012666*
X025388*
Y012668*
X025382*
Y012669*
X025377*
Y012671*
X025372*
Y012673*
X025366*
Y012675*
X025361*
Y012677*
X025356*
Y012678*
X025350*
Y012680*
X025345*
Y012682*
X025340*
Y012684*
X025336*
Y012685*
X025332*
Y012687*
X025331*
Y012689*
X025329*
Y012691*
X025327*
Y012693*
X025325*
Y012696*
X025324*
Y012700*
X025322*
Y012705*
X025320*
Y012710*
X025318*
Y012721*
X025316*
Y012737*
X025315*
Y012849*
X025316*
Y012867*
X025318*
Y012878*
X025320*
Y012883*
X025322*
Y012888*
X025324*
Y012892*
X025325*
Y012894*
X025327*
Y012895*
X025329*
Y012897*
X025331*
Y012899*
X025332*
Y012901*
X025338*
Y012903*
X025359*
Y012901*
G37*
G36*
X025868Y012324D02*
X025870D01*
Y012321*
X025872*
Y012317*
X025873*
Y012315*
X025875*
Y012312*
X025877*
Y012308*
X025879*
Y012305*
X025881*
Y012301*
X025882*
Y012297*
X025884*
Y012296*
X025886*
Y012292*
X025888*
Y012289*
X025889*
Y012285*
X025891*
Y012281*
X025893*
Y012280*
X025895*
Y012276*
X025897*
Y012273*
X025898*
Y012269*
X025900*
Y012265*
X025902*
Y012264*
X025904*
Y012260*
X025905*
Y012257*
X025907*
Y012253*
X025909*
Y012249*
X025911*
Y012246*
X025913*
Y012244*
X025914*
Y012241*
X025916*
Y012235*
X025918*
Y012232*
X025920*
Y012228*
X025921*
Y012225*
X025923*
Y012221*
X025925*
Y012216*
X025927*
Y012212*
X025929*
Y012208*
X025930*
Y012203*
X025932*
Y012200*
X025934*
Y012196*
X025936*
Y012191*
X025938*
Y012185*
X025939*
Y012182*
X025941*
Y012176*
X025943*
Y012173*
X025945*
Y012168*
X025946*
Y012162*
X025948*
Y012157*
X025950*
Y012153*
X025948*
Y012152*
X025943*
Y012150*
X025938*
Y012148*
X025932*
Y012146*
X025927*
Y012144*
X025921*
Y012143*
X025916*
Y012141*
X025911*
Y012139*
X025905*
Y012137*
X025900*
Y012136*
X025895*
Y012134*
X025889*
Y012132*
X025884*
Y012130*
X025879*
Y012128*
X025873*
Y012127*
X025868*
Y012125*
X025863*
Y012123*
X025857*
Y012121*
X025852*
Y012120*
X025847*
Y012118*
X025841*
Y012116*
X025836*
Y012114*
X025831*
Y012112*
X025825*
Y012111*
X025820*
Y012109*
X025815*
Y012107*
X025809*
Y012105*
X025806*
Y012104*
X025800*
Y012102*
X025795*
Y012100*
X025790*
Y012098*
X025784*
Y012096*
X025779*
Y012095*
X025774*
Y012093*
X025768*
Y012091*
X025763*
Y012089*
X025758*
Y012087*
X025752*
Y012086*
X025747*
Y012084*
X025742*
Y012082*
X025736*
Y012080*
X025731*
Y012079*
X025726*
Y012077*
X025720*
Y012075*
X025715*
Y012073*
X025710*
Y012071*
X025704*
Y012070*
X025699*
Y012068*
X025694*
Y012066*
X025688*
Y012064*
X025683*
Y012063*
X025678*
Y012061*
X025672*
Y012059*
X025667*
Y012057*
X025662*
Y012055*
X025656*
Y012054*
X025653*
Y012052*
X025647*
Y012050*
X025642*
Y012048*
X025637*
Y012047*
X025631*
Y012045*
X025626*
Y012043*
X025621*
Y012041*
X025615*
Y012039*
X025610*
Y012038*
X025605*
Y012036*
X025599*
Y012034*
X025594*
Y012032*
X025589*
Y012031*
X025583*
Y012029*
X025578*
Y012027*
X025573*
Y012025*
X025567*
Y012023*
X025562*
Y012022*
X025557*
Y012020*
X025551*
Y012018*
X025546*
Y012016*
X025541*
Y012015*
X025535*
Y012013*
X025530*
Y012011*
X025525*
Y012009*
X025519*
Y012007*
X025514*
Y012006*
X025509*
Y012004*
X025503*
Y012002*
X025498*
Y012000*
X025493*
Y011998*
X025487*
Y011997*
X025482*
Y011995*
X025477*
Y011993*
X025471*
Y011991*
X025466*
Y011990*
X025461*
Y011988*
X025455*
Y011986*
X025450*
Y011984*
X025445*
Y011982*
X025439*
Y011981*
X025434*
Y011979*
X025429*
Y011977*
X025423*
Y011975*
X025418*
Y011974*
X025412*
Y011972*
X025407*
Y011970*
X025402*
Y011968*
X025396*
Y011966*
X025391*
Y011965*
X025386*
Y011963*
X025380*
Y011961*
X025375*
Y011959*
X025368*
Y011958*
X025361*
Y011956*
X025336*
Y011958*
X025332*
Y011959*
X025329*
Y011961*
X025327*
Y011963*
X025325*
Y011965*
X025324*
Y011968*
X025322*
Y011972*
X025320*
Y011977*
X025318*
Y011986*
X025316*
Y012009*
X025315*
Y012102*
X025316*
Y012118*
X025318*
Y012128*
X025320*
Y012136*
X025322*
Y012141*
X025324*
Y012144*
X025325*
Y012148*
X025327*
Y012150*
X025329*
Y012152*
X025331*
Y012153*
X025332*
Y012155*
X025334*
Y012157*
X025336*
Y012159*
X025341*
Y012160*
X025347*
Y012162*
X025352*
Y012164*
X025357*
Y012166*
X025363*
Y012168*
X025368*
Y012169*
X025373*
Y012171*
X025380*
Y012173*
X025386*
Y012175*
X025391*
Y012176*
X025396*
Y012178*
X025402*
Y012180*
X025407*
Y012182*
X025412*
Y012184*
X025420*
Y012185*
X025425*
Y012187*
X025430*
Y012189*
X025436*
Y012191*
X025441*
Y012192*
X025446*
Y012194*
X025452*
Y012196*
X025459*
Y012198*
X025464*
Y012200*
X025469*
Y012201*
X025475*
Y012203*
X025480*
Y012205*
X025485*
Y012207*
X025493*
Y012208*
X025498*
Y012210*
X025503*
Y012212*
X025509*
Y012214*
X025514*
Y012216*
X025519*
Y012217*
X025526*
Y012219*
X025532*
Y012221*
X025537*
Y012223*
X025542*
Y012225*
X025548*
Y012226*
X025553*
Y012228*
X025560*
Y012230*
X025566*
Y012232*
X025571*
Y012233*
X025576*
Y012235*
X025582*
Y012237*
X025587*
Y012239*
X025594*
Y012241*
X025599*
Y012242*
X025605*
Y012244*
X025610*
Y012246*
X025615*
Y012248*
X025622*
Y012249*
X025628*
Y012251*
X025633*
Y012253*
X025639*
Y012255*
X025644*
Y012257*
X025651*
Y012258*
X025656*
Y012260*
X025662*
Y012262*
X025667*
Y012264*
X025672*
Y012265*
X025679*
Y012267*
X025685*
Y012269*
X025690*
Y012271*
X025695*
Y012273*
X025701*
Y012274*
X025706*
Y012276*
X025713*
Y012278*
X025719*
Y012280*
X025724*
Y012281*
X025729*
Y012283*
X025735*
Y012285*
X025742*
Y012287*
X025747*
Y012289*
X025752*
Y012290*
X025758*
Y012292*
X025763*
Y012294*
X025770*
Y012296*
X025776*
Y012297*
X025781*
Y012299*
X025786*
Y012301*
X025792*
Y012303*
X025799*
Y012305*
X025804*
Y012306*
X025809*
Y012308*
X025815*
Y012310*
X025820*
Y012312*
X025825*
Y012313*
X025833*
Y012315*
X025838*
Y012317*
X025843*
Y012319*
X025849*
Y012321*
X025854*
Y012322*
X025861*
Y012324*
X025866*
Y012326*
X025868*
Y012324*
G37*
G54D33*
X034094Y011870D02*
D01*
X034068Y011882*
X034042Y011893*
X034016Y011903*
X033988Y011910*
X033961Y011916*
X033932Y011919*
X033904Y011921*
X033876Y011920*
X033848Y011918*
X033820Y011913*
X033792Y011907*
X033765Y011899*
X033739Y011889*
X033713Y011877*
X033688Y011863*
X033665Y011848*
X033642Y011831*
X033621Y011812*
X033601Y011792*
X033582Y011771*
X033565Y011748*
X033550Y011725*
X033536Y011700*
X033524Y011674*
X033514Y011648*
X033505Y011621*
X033499Y011593*
X033494Y011566*
X033492Y011537*
X033491Y011509*
X033493Y011481*
X033496Y011453*
X033502Y011425*
X033509Y011398*
X033518Y011371*
X033529Y011345*
X033542Y011320*
X033556Y011295*
X033573Y011272*
X033590Y011250*
X033610Y011230*
X033630Y011210*
X033652Y011192*
X033675Y011176*
X033700Y011162*
X033725Y011149*
X033751Y011138*
X033777Y011128*
X033805Y011121*
X033832Y011115*
X033861Y011112*
X033889Y011110*
X033917Y011111*
X033945Y011113*
X033973Y011118*
X034001Y011124*
X034028Y011132*
X034054Y011142*
X034080Y011154*
X034094Y011161*
X030157D02*
D01*
X030182Y011148*
X030208Y011137*
X030234Y011127*
X030262Y011120*
X030289Y011114*
X030318Y011111*
X030346Y011109*
X030374Y011110*
X030402Y011112*
X030430Y011117*
X030458Y011123*
X030485Y011131*
X030511Y011141*
X030537Y011153*
X030562Y011167*
X030585Y011182*
X030608Y011199*
X030629Y011218*
X030649Y011238*
X030668Y011259*
X030685Y011282*
X030700Y011305*
X030714Y011330*
X030726Y011356*
X030736Y011382*
X030745Y011409*
X030751Y011437*
X030756Y011464*
X030758Y011493*
X030759Y011521*
X030757Y011549*
X030754Y011577*
X030748Y011605*
X030741Y011632*
X030732Y011659*
X030721Y011685*
X030708Y011710*
X030694Y011735*
X030677Y011758*
X030660Y011780*
X030640Y011800*
X030620Y011820*
X030598Y011838*
X030575Y011854*
X030551Y011869*
X030525Y011881*
X030499Y011892*
X030473Y011902*
X030445Y011909*
X030418Y011915*
X030389Y011918*
X030361Y011920*
X030333Y011919*
X030305Y011917*
X030277Y011912*
X030249Y011906*
X030222Y011898*
X030196Y011888*
X030170Y011876*
X030157Y011870*
X038563D02*
D01*
X038537Y011882*
X038511Y011893*
X038485Y011903*
X038457Y011910*
X038430Y011916*
X038401Y011919*
X038373Y011921*
X038345Y011920*
X038317Y011918*
X038289Y011913*
X038261Y011907*
X038234Y011899*
X038208Y011889*
X038182Y011877*
X038157Y011863*
X038134Y011848*
X038111Y011831*
X038090Y011812*
X038070Y011792*
X038051Y011771*
X038034Y011748*
X038019Y011725*
X038005Y011700*
X037993Y011674*
X037983Y011648*
X037974Y011621*
X037968Y011593*
X037963Y011566*
X037961Y011537*
X037960Y011509*
X037962Y011481*
X037965Y011453*
X037971Y011425*
X037978Y011398*
X037987Y011371*
X037998Y011345*
X038011Y011320*
X038025Y011295*
X038042Y011272*
X038059Y011250*
X038079Y011230*
X038099Y011210*
X038121Y011192*
X038144Y011176*
X038169Y011162*
X038194Y011149*
X038220Y011138*
X038246Y011128*
X038274Y011121*
X038301Y011115*
X038330Y011112*
X038358Y011110*
X038386Y011111*
X038414Y011113*
X038442Y011118*
X038470Y011124*
X038497Y011132*
X038523Y011142*
X038549Y011154*
X038563Y011161*
X034626D02*
D01*
X034651Y011148*
X034677Y011137*
X034703Y011127*
X034731Y011120*
X034758Y011114*
X034787Y011111*
X034815Y011109*
X034843Y011110*
X034871Y011112*
X034899Y011117*
X034927Y011123*
X034954Y011131*
X034980Y011141*
X035006Y011153*
X035031Y011167*
X035054Y011182*
X035077Y011199*
X035098Y011218*
X035118Y011238*
X035137Y011259*
X035154Y011282*
X035169Y011305*
X035183Y011330*
X035195Y011356*
X035205Y011382*
X035214Y011409*
X035220Y011437*
X035225Y011464*
X035227Y011493*
X035228Y011521*
X035226Y011549*
X035223Y011577*
X035217Y011605*
X035210Y011632*
X035201Y011659*
X035190Y011685*
X035177Y011710*
X035163Y011735*
X035146Y011758*
X035129Y011780*
X035109Y011800*
X035089Y011820*
X035067Y011838*
X035044Y011854*
X035020Y011869*
X034994Y011881*
X034968Y011892*
X034942Y011902*
X034914Y011909*
X034887Y011915*
X034858Y011918*
X034830Y011920*
X034802Y011919*
X034774Y011917*
X034746Y011912*
X034718Y011906*
X034691Y011898*
X034665Y011888*
X034639Y011876*
X034626Y011870*
X034094Y009114D02*
Y011161D01*
Y011870D02*
Y013720D01*
X033701D02*
X034094D01*
X033701Y012776D02*
Y013720D01*
X032972Y012776D02*
X033701D01*
X030551D02*
X032972D01*
X030551D02*
Y013720D01*
X030157D02*
X030551D01*
X030157Y011870D02*
Y013720D01*
Y009114D02*
Y011161D01*
Y009114D02*
X034094D01*
X038563D02*
Y011161D01*
Y011870D02*
Y013720D01*
X038169D02*
X038563D01*
X038169Y012776D02*
Y013720D01*
X037441Y012776D02*
X038169D01*
X035020D02*
X037441D01*
X035020D02*
Y013720D01*
X034626D02*
X035020D01*
X034626Y011870D02*
Y013720D01*
Y009114D02*
Y011161D01*
Y009114D02*
X038563D01*
X037835Y013307D02*
Y013701D01*
X037638*
X037572Y013635*
Y013504*
X037638Y013438*
X037835*
X037244Y013307D02*
Y013701D01*
X037441Y013504*
X037179*
X033504Y013425D02*
Y013819D01*
X033307*
X033242Y013753*
Y013622*
X033307Y013556*
X033504*
X032848Y013819D02*
X033110D01*
Y013622*
X032979Y013688*
X032914*
X032848Y013622*
Y013491*
X032914Y013425*
X033045*
X033110Y013491*
X042362Y025039D02*
X042205D01*
X042283*
Y025512*
X042362Y025433*
X041969Y025354D02*
X041890D01*
Y025276*
X041969*
Y025354*
Y025118D02*
X041890D01*
Y025039*
X041969*
Y025118*
X041103Y025433D02*
X041024Y025512D01*
X040867*
X040788Y025433*
Y025354*
X040867Y025276*
X040945*
X040867*
X040788Y025197*
Y025118*
X040867Y025039*
X041024*
X041103Y025118*
X040630Y025039D02*
Y025118D01*
X040552*
Y025039*
X040630*
X040237Y025433D02*
X040158Y025512D01*
X040001*
X039922Y025433*
Y025354*
X040001Y025276*
X040079*
X040001*
X039922Y025197*
Y025118*
X040001Y025039*
X040158*
X040237Y025118*
X039765Y025512D02*
Y025197D01*
X039607Y025039*
X039450Y025197*
Y025512*
X042441Y024713D02*
X042362Y024791D01*
X042205*
X042126Y024713*
Y024634*
X042205Y024555*
X042284*
X042205*
X042126Y024477*
Y024398*
X042205Y024319*
X042362*
X042441Y024398*
X041969Y024634D02*
X041890D01*
Y024555*
X041969*
Y024634*
Y024398D02*
X041890D01*
Y024319*
X041969*
Y024398*
X041103Y024713D02*
X041024Y024791D01*
X040867*
X040788Y024713*
Y024634*
X040867Y024555*
X040945*
X040867*
X040788Y024477*
Y024398*
X040867Y024319*
X041024*
X041103Y024398*
X040630Y024319D02*
Y024398D01*
X040552*
Y024319*
X040630*
X040237Y024713D02*
X040158Y024791D01*
X040001*
X039922Y024713*
Y024634*
X040001Y024555*
X040079*
X040001*
X039922Y024477*
Y024398*
X040001Y024319*
X040158*
X040237Y024398*
X039765Y024791D02*
Y024477D01*
X039607Y024319*
X039450Y024477*
Y024791*
X042126Y024061D02*
X042441D01*
Y023825*
X042284Y023904*
X042205*
X042126Y023825*
Y023668*
X042205Y023589*
X042362*
X042441Y023668*
X041969Y023904D02*
X041890D01*
Y023825*
X041969*
Y023904*
Y023668D02*
X041890D01*
Y023589*
X041969*
Y023668*
X041103Y023589D02*
Y024061D01*
X040867*
X040788Y023983*
Y023825*
X040867Y023746*
X041103*
X040630Y024061D02*
Y023589D01*
X040473Y023746*
X040316Y023589*
Y024061*
X040158Y023589D02*
Y024061D01*
X040001Y023904*
X039843Y024061*
Y023589*
X039214Y024061D02*
Y023746D01*
X039056Y023589*
X038899Y023746*
Y024061*
X038741Y023589D02*
X038426Y023904D01*
X037954Y024061D02*
X038269D01*
Y023825*
X038112*
X038269*
Y023589*
X042441Y023331D02*
X042126D01*
Y023253*
X042441Y022938*
Y022859*
X041969Y023174D02*
X041890D01*
Y023095*
X041969*
Y023174*
Y022938D02*
X041890D01*
Y022859*
X041969*
Y022938*
X041103Y022859D02*
Y023331D01*
X040867*
X040788Y023253*
Y023095*
X040867Y023016*
X041103*
X040630Y023331D02*
Y022859D01*
X040473Y023016*
X040316Y022859*
Y023331*
X040158Y022859D02*
Y023331D01*
X040001Y023174*
X039843Y023331*
Y022859*
X039214Y023331D02*
Y023016D01*
X039056Y022859*
X038899Y023016*
Y023331*
X038741Y022859D02*
X038426Y023174D01*
X038269Y022859D02*
Y023174D01*
X038112Y023331*
X037954Y023174*
Y022859*
Y023095*
X038269*
X042441Y022208D02*
X042362Y022129D01*
X042205*
X042126Y022208*
Y022523*
X042205Y022601*
X042362*
X042441Y022523*
Y022444*
X042362Y022365*
X042126*
X041969Y022444D02*
X041890D01*
Y022365*
X041969*
Y022444*
Y022208D02*
X041890D01*
Y022129*
X041969*
Y022208*
X041103Y022129D02*
Y022601D01*
X040867*
X040788Y022523*
Y022365*
X040867Y022286*
X041103*
X040630Y022601D02*
Y022129D01*
X040473Y022286*
X040316Y022129*
Y022601*
X040158Y022129D02*
Y022601D01*
X040001Y022444*
X039843Y022601*
Y022129*
X039214Y022601D02*
Y022129D01*
Y022365*
X038899*
Y022601*
Y022129*
X038741D02*
X038426Y022444D01*
X037954Y022601D02*
X038269D01*
Y022365*
X038112*
X038269*
Y022129*
X042756Y021378D02*
X042598D01*
X042677*
Y021850*
X042756Y021772*
X042362Y021378D02*
X042205D01*
X042284*
Y021850*
X042362Y021772*
X041969Y021693D02*
X041890D01*
Y021614*
X041969*
Y021693*
Y021457D02*
X041890D01*
Y021378*
X041969*
Y021457*
X041103Y021378D02*
Y021850D01*
X040867*
X040788Y021772*
Y021614*
X040867Y021535*
X041103*
X040631Y021850D02*
Y021378D01*
X040473Y021535*
X040316Y021378*
Y021850*
X040158Y021378D02*
Y021850D01*
X040001Y021693*
X039843Y021850*
Y021378*
X039214Y021850D02*
Y021378D01*
Y021614*
X038899*
Y021850*
Y021378*
X038741D02*
X038427Y021693D01*
X038269Y021378D02*
Y021693D01*
X038112Y021850*
X037954Y021693*
Y021378*
Y021614*
X038269*
X042756Y020669D02*
X042598D01*
X042677*
Y021141*
X042756Y021062*
X042362D02*
X042284Y021141D01*
X042126*
X042047Y021062*
Y020984*
X042126Y020905*
X042205*
X042126*
X042047Y020826*
Y020748*
X042126Y020669*
X042284*
X042362Y020748*
X041890Y020984D02*
X041811D01*
Y020905*
X041890*
Y020984*
Y020748D02*
X041811D01*
Y020669*
X041890*
Y020748*
X041024Y020669D02*
Y021141D01*
X040788*
X040709Y021062*
Y020905*
X040788Y020826*
X041024*
X040552Y021141D02*
Y020669D01*
X040394Y020826*
X040237Y020669*
Y021141*
X040080Y020669D02*
Y021141D01*
X039922Y020984*
X039765Y021141*
Y020669*
X038820Y021141D02*
X039135D01*
Y020905*
X038978*
X039135*
Y020669*
X038663D02*
X038348Y020984D01*
X038190Y020669D02*
Y021141D01*
X037954*
X037876Y021062*
Y020905*
X037954Y020826*
X038190*
X038033D02*
X037876Y020669D01*
X042756Y019209D02*
X042598D01*
X042677*
Y019681*
X042756Y019602*
X042362Y019681D02*
X042047D01*
Y019602*
X042362Y019287*
Y019209*
X041890Y019524D02*
X041811D01*
Y019445*
X041890*
Y019524*
Y019287D02*
X041811D01*
Y019209*
X041890*
Y019287*
X040788Y019681D02*
X040945D01*
X041024Y019602*
Y019287*
X040945Y019209*
X040788*
X040709Y019287*
Y019602*
X040788Y019681*
X040552D02*
X040237D01*
X040394*
Y019209*
X040080Y019681D02*
Y019209D01*
X039922Y019366*
X039765Y019209*
Y019681*
X039135D02*
Y019366D01*
X038978Y019209*
X038820Y019366*
Y019681*
X042441Y017749D02*
X042756D01*
X042441Y018064*
Y018142*
X042520Y018221*
X042677*
X042756Y018142*
X042284Y017749D02*
X042126D01*
X042205*
Y018221*
X042284Y018142*
X041890Y018064D02*
X041811D01*
Y017985*
X041890*
Y018064*
Y017827D02*
X041811D01*
Y017749*
X041890*
Y017827*
X040788Y018221D02*
X040945D01*
X041024Y018142*
Y017827*
X040945Y017749*
X040788*
X040709Y017827*
Y018142*
X040788Y018221*
X040552D02*
X040237D01*
X040394*
Y017749*
X040080Y018221D02*
Y017749D01*
X039922Y017906*
X039765Y017749*
Y018221*
X038820D02*
X039135D01*
Y017985*
X038978*
X039135*
Y017749*
X042441Y017019D02*
X042756D01*
X042441Y017333*
Y017412*
X042520Y017491*
X042677*
X042756Y017412*
X042284D02*
X042205Y017491D01*
X042047*
X041969Y017412*
Y017333*
X042047Y017255*
X042126*
X042047*
X041969Y017176*
Y017097*
X042047Y017019*
X042205*
X042284Y017097*
X041811Y017333D02*
X041733D01*
Y017255*
X041811*
Y017333*
Y017097D02*
X041733D01*
Y017019*
X041811*
Y017097*
X040945Y017019D02*
Y017491D01*
X040709*
X040631Y017412*
Y017255*
X040709Y017176*
X040945*
X040788D02*
X040631Y017019D01*
X040158Y017491D02*
X040473D01*
Y017019*
X040158*
X040473Y017255D02*
X040316D01*
X039686Y017412D02*
X039765Y017491D01*
X039922*
X040001Y017412*
Y017333*
X039922Y017255*
X039765*
X039686Y017176*
Y017097*
X039765Y017019*
X039922*
X040001Y017097*
X039214Y017491D02*
X039529D01*
Y017019*
X039214*
X039529Y017255D02*
X039371D01*
X039056Y017491D02*
X038741D01*
X038899*
Y017019*
X037797Y017491D02*
X038112D01*
Y017255*
X037954*
X038112*
Y017019*
X042756Y019939D02*
X042598D01*
X042677*
Y020411*
X042756Y020332*
X042047Y020411D02*
X042362D01*
Y020175*
X042205Y020254*
X042126*
X042047Y020175*
Y020018*
X042126Y019939*
X042284*
X042362Y020018*
X041890Y020254D02*
X041811D01*
Y020175*
X041890*
Y020254*
Y020018D02*
X041811D01*
Y019939*
X041890*
Y020018*
X041024Y019939D02*
Y020411D01*
X040788*
X040709Y020332*
Y020175*
X040788Y020096*
X041024*
X040552Y020411D02*
Y019939D01*
X040394Y020096*
X040237Y019939*
Y020411*
X040080Y019939D02*
Y020411D01*
X039922Y020254*
X039765Y020411*
Y019939*
X038820Y020411D02*
X039135D01*
Y020175*
X038978*
X039135*
Y019939*
X038663D02*
X038348Y020254D01*
X038190Y020411D02*
Y019939D01*
X037876*
X042756Y018479D02*
X042598D01*
X042677*
Y018951*
X042756Y018872*
X042362Y018557D02*
X042284Y018479D01*
X042126*
X042047Y018557*
Y018872*
X042126Y018951*
X042284*
X042362Y018872*
Y018794*
X042284Y018715*
X042047*
X041890Y018794D02*
X041811D01*
Y018715*
X041890*
Y018794*
Y018557D02*
X041811D01*
Y018479*
X041890*
Y018557*
X040788Y018951D02*
X040945D01*
X041024Y018872*
Y018557*
X040945Y018479*
X040788*
X040709Y018557*
Y018872*
X040788Y018951*
X040552D02*
X040237D01*
X040394*
Y018479*
X040080Y018951D02*
Y018479D01*
X039922Y018636*
X039765Y018479*
Y018951*
X039135D02*
Y018479D01*
Y018715*
X038820*
Y018951*
Y018479*
X034449Y018597D02*
X034764D01*
X034449Y018912*
Y018990*
X034528Y019069*
X034685*
X034764Y018990*
X034291D02*
X034213Y019069D01*
X034055*
X033977Y018990*
Y018676*
X034055Y018597*
X034213*
X034291Y018676*
Y018990*
X033819Y018912D02*
X033740D01*
Y018833*
X033819*
Y018912*
Y018676D02*
X033740D01*
Y018597*
X033819*
Y018676*
X032638Y019069D02*
X032953D01*
Y018833*
X032796*
X032953*
Y018597*
X032481D02*
Y018912D01*
X032324Y019069*
X032166Y018912*
Y018597*
Y018833*
X032481*
X032009Y019069D02*
Y018676D01*
X031930Y018597*
X031773*
X031694Y018676*
Y019069*
X031536D02*
Y018597D01*
X031222*
X031064Y019069D02*
X030749D01*
X030907*
Y018597*
X029805Y019069D02*
X030120D01*
Y018833*
X029962*
X030120*
Y018597*
X034764Y020057D02*
X034606D01*
X034685*
Y020529*
X034764Y020450*
X034055Y020529D02*
X034213Y020450D01*
X034370Y020293*
Y020136*
X034291Y020057*
X034134*
X034055Y020136*
Y020214*
X034134Y020293*
X034370*
X033898Y020372D02*
X033819D01*
Y020293*
X033898*
Y020372*
Y020136D02*
X033819D01*
Y020057*
X033898*
Y020136*
X032717Y020529D02*
X033032D01*
Y020293*
X032875*
X033032*
Y020057*
X032560D02*
Y020372D01*
X032402Y020529*
X032245Y020372*
Y020057*
Y020293*
X032560*
X032087Y020529D02*
Y020136D01*
X032009Y020057*
X031851*
X031773Y020136*
Y020529*
X031615D02*
Y020057D01*
X031300*
X031143Y020529D02*
X030828D01*
X030985*
Y020057*
X030198Y020529D02*
Y020214D01*
X030041Y020057*
X029883Y020214*
Y020529*
X034449Y017137D02*
X034764D01*
X034449Y017452*
Y017530*
X034528Y017609*
X034685*
X034764Y017530*
X034055Y017137D02*
Y017609D01*
X034291Y017373*
X033977*
X033819Y017452D02*
X033740D01*
Y017373*
X033819*
Y017452*
Y017215D02*
X033740D01*
Y017137*
X033819*
Y017215*
X032953Y017137D02*
Y017609D01*
X032717*
X032638Y017530*
Y017373*
X032717Y017294*
X032953*
X032796D02*
X032638Y017137D01*
X032166Y017609D02*
X032481D01*
Y017137*
X032166*
X032481Y017373D02*
X032324D01*
X031694Y017530D02*
X031773Y017609D01*
X031930*
X032009Y017530*
Y017452*
X031930Y017373*
X031773*
X031694Y017294*
Y017215*
X031773Y017137*
X031930*
X032009Y017215*
X031222Y017609D02*
X031536D01*
Y017137*
X031222*
X031536Y017373D02*
X031379D01*
X031064Y017609D02*
X030749D01*
X030907*
Y017137*
X030120Y017609D02*
Y017137D01*
Y017373*
X029805*
Y017609*
Y017137*
X034449Y017867D02*
X034764D01*
X034449Y018182*
Y018260*
X034528Y018339*
X034685*
X034764Y018260*
X033977Y017867D02*
X034291D01*
X033977Y018182*
Y018260*
X034055Y018339*
X034213*
X034291Y018260*
X033819Y018182D02*
X033740D01*
Y018103*
X033819*
Y018182*
Y017945D02*
X033740D01*
Y017867*
X033819*
Y017945*
X032953Y017867D02*
Y018339D01*
X032717*
X032638Y018260*
Y018103*
X032717Y018024*
X032953*
X032796D02*
X032638Y017867D01*
X032166Y018339D02*
X032481D01*
Y017867*
X032166*
X032481Y018103D02*
X032324D01*
X031694Y018260D02*
X031773Y018339D01*
X031930*
X032009Y018260*
Y018182*
X031930Y018103*
X031773*
X031694Y018024*
Y017945*
X031773Y017867*
X031930*
X032009Y017945*
X031222Y018339D02*
X031536D01*
Y017867*
X031222*
X031536Y018103D02*
X031379D01*
X031064Y018339D02*
X030749D01*
X030907*
Y017867*
X030120Y018339D02*
Y018024D01*
X029962Y017867*
X029805Y018024*
Y018339*
X034764Y019327D02*
X034606D01*
X034685*
Y019799*
X034764Y019720*
X034370D02*
X034291Y019799D01*
X034134*
X034055Y019720*
Y019642*
X034134Y019563*
X034055Y019484*
Y019406*
X034134Y019327*
X034291*
X034370Y019406*
Y019484*
X034291Y019563*
X034370Y019642*
Y019720*
X034291Y019563D02*
X034134D01*
X033898Y019642D02*
X033819D01*
Y019563*
X033898*
Y019642*
Y019406D02*
X033819D01*
Y019327*
X033898*
Y019406*
X032717Y019799D02*
X033032D01*
Y019563*
X032875*
X033032*
Y019327*
X032560D02*
Y019642D01*
X032402Y019799*
X032245Y019642*
Y019327*
Y019563*
X032560*
X032087Y019799D02*
Y019406D01*
X032009Y019327*
X031851*
X031773Y019406*
Y019799*
X031615D02*
Y019327D01*
X031300*
X031143Y019799D02*
X030828D01*
X030985*
Y019327*
X030198Y019799D02*
Y019327D01*
Y019563*
X029883*
Y019799*
Y019327*
X034764Y020787D02*
X034606D01*
X034685*
Y021259*
X034764Y021181*
X034134Y020787D02*
Y021259D01*
X034370Y021023*
X034055*
X033898Y021102D02*
X033819D01*
Y021023*
X033898*
Y021102*
Y020866D02*
X033819D01*
Y020787*
X033898*
Y020866*
X033032Y021259D02*
Y020787D01*
X032796*
X032717Y020866*
Y021181*
X032796Y021259*
X033032*
X032560D02*
X032402D01*
X032481*
Y020787*
X032560*
X032402*
X032166D02*
Y021259D01*
X031930*
X031851Y021181*
Y021023*
X031930Y020944*
X032166*
X032009D02*
X031851Y020787D01*
X030907Y021259D02*
X031222D01*
Y021023*
X031064*
X031222*
Y020787*
X030749D02*
X030434Y021102D01*
X030277Y021259D02*
Y020787D01*
X029962*
X034764Y021496D02*
X034606D01*
X034685*
Y021968*
X034764Y021890*
X034055Y021496D02*
X034370D01*
X034055Y021811*
Y021890*
X034134Y021968*
X034291*
X034370Y021890*
X033898Y021811D02*
X033819D01*
Y021732*
X033898*
Y021811*
Y021575D02*
X033819D01*
Y021496*
X033898*
Y021575*
X033032Y021968D02*
Y021496D01*
X032796*
X032717Y021575*
Y021890*
X032796Y021968*
X033032*
X032560D02*
X032402D01*
X032481*
Y021496*
X032560*
X032402*
X032166D02*
Y021968D01*
X031930*
X031851Y021890*
Y021732*
X031930Y021653*
X032166*
X032009D02*
X031851Y021496D01*
X030907Y021968D02*
X031222D01*
Y021732*
X031064*
X031222*
Y021496*
X030749D02*
X030434Y021811D01*
X030277Y021496D02*
Y021968D01*
X030041*
X029962Y021890*
Y021732*
X030041Y021653*
X030277*
X030120D02*
X029962Y021496D01*
X034843Y022244D02*
X034685D01*
X034764*
Y022716*
X034843Y022638*
X034449D02*
X034370Y022716D01*
X034213*
X034134Y022638*
Y022323*
X034213Y022244*
X034370*
X034449Y022323*
Y022638*
X033977Y022559D02*
X033898D01*
Y022480*
X033977*
Y022559*
Y022323D02*
X033898D01*
Y022244*
X033977*
Y022323*
X033111Y022716D02*
Y022244D01*
X032875*
X032796Y022323*
Y022638*
X032875Y022716*
X033111*
X032639D02*
X032481D01*
X032560*
Y022244*
X032639*
X032481*
X032245D02*
Y022716D01*
X032009*
X031930Y022638*
Y022480*
X032009Y022402*
X032245*
X032088D02*
X031930Y022244D01*
X031300Y022716D02*
Y022244D01*
Y022480*
X030986*
Y022716*
Y022244*
X030828D02*
X030513Y022559D01*
X030356Y022244D02*
Y022559D01*
X030198Y022716*
X030041Y022559*
Y022244*
Y022480*
X030356*
X034449Y023371D02*
X034370Y023449D01*
X034213*
X034134Y023371*
Y023292*
X034213Y023213*
X034134Y023135*
Y023056*
X034213Y022977*
X034370*
X034449Y023056*
Y023135*
X034370Y023213*
X034449Y023292*
Y023371*
X034370Y023213D02*
X034213D01*
X033977Y023292D02*
X033898D01*
Y023213*
X033977*
Y023292*
Y023056D02*
X033898D01*
Y022977*
X033977*
Y023056*
X033111Y023449D02*
Y022977D01*
X032875*
X032796Y023056*
Y023371*
X032875Y023449*
X033111*
X032638D02*
X032481D01*
X032560*
Y022977*
X032638*
X032481*
X032245D02*
Y023449D01*
X032009*
X031930Y023371*
Y023213*
X032009Y023135*
X032245*
X032087D02*
X031930Y022977D01*
X031300Y023449D02*
Y022977D01*
Y023213*
X030985*
Y023449*
Y022977*
X030828D02*
X030513Y023292D01*
X030041Y023449D02*
X030356D01*
Y023213*
X030198*
X030356*
Y022977*
X034134Y024179D02*
X034291Y024101D01*
X034449Y023943*
Y023786*
X034370Y023707*
X034213*
X034134Y023786*
Y023865*
X034213Y023943*
X034449*
X033977Y024022D02*
X033898D01*
Y023943*
X033977*
Y024022*
Y023786D02*
X033898D01*
Y023707*
X033977*
Y023786*
X033111Y024179D02*
Y023707D01*
X032875*
X032796Y023786*
Y024101*
X032875Y024179*
X033111*
X032638D02*
X032481D01*
X032560*
Y023707*
X032638*
X032481*
X032245D02*
Y024179D01*
X032009*
X031930Y024101*
Y023943*
X032009Y023865*
X032245*
X032087D02*
X031930Y023707D01*
X031300Y024179D02*
Y023865D01*
X031143Y023707*
X030985Y023865*
Y024179*
X030828Y023707D02*
X030513Y024022D01*
X030356Y023707D02*
Y024022D01*
X030198Y024179*
X030041Y024022*
Y023707*
Y023943*
X030356*
X034213Y024437D02*
Y024909D01*
X034449Y024673*
X034134*
X033977Y024752D02*
X033898D01*
Y024673*
X033977*
Y024752*
Y024516D02*
X033898D01*
Y024437*
X033977*
Y024516*
X033111Y024909D02*
Y024437D01*
X032875*
X032796Y024516*
Y024831*
X032875Y024909*
X033111*
X032638D02*
X032481D01*
X032560*
Y024437*
X032638*
X032481*
X032245D02*
Y024909D01*
X032009*
X031930Y024831*
Y024673*
X032009Y024595*
X032245*
X032087D02*
X031930Y024437D01*
X031300Y024909D02*
Y024595D01*
X031143Y024437*
X030985Y024595*
Y024909*
X030828Y024437D02*
X030513Y024752D01*
X030041Y024909D02*
X030356D01*
Y024673*
X030198*
X030356*
Y024437*
X034134Y025167D02*
X034449D01*
X034134Y025482*
Y025561*
X034213Y025640*
X034370*
X034449Y025561*
X033977Y025482D02*
X033898D01*
Y025403*
X033977*
Y025482*
Y025246D02*
X033898D01*
Y025167*
X033977*
Y025246*
X032796Y025561D02*
X032875Y025640D01*
X033032*
X033111Y025561*
Y025246*
X033032Y025167*
X032875*
X032796Y025246*
Y025403*
X032953*
X032638Y025167D02*
Y025640D01*
X032324Y025167*
Y025640*
X032166D02*
Y025167D01*
X031930*
X031851Y025246*
Y025561*
X031930Y025640*
X032166*
X042441Y016271D02*
X042756D01*
X042441Y016585*
Y016664*
X042520Y016743*
X042677*
X042756Y016664*
X041969Y016743D02*
X042284D01*
Y016507*
X042126Y016585*
X042047*
X041969Y016507*
Y016349*
X042047Y016271*
X042205*
X042284Y016349*
X041811Y016585D02*
X041733D01*
Y016507*
X041811*
Y016585*
Y016349D02*
X041733D01*
Y016271*
X041811*
Y016349*
X040631Y016664D02*
X040709Y016743D01*
X040867*
X040945Y016664*
Y016349*
X040867Y016271*
X040709*
X040631Y016349*
Y016507*
X040788*
X040473Y016271D02*
Y016743D01*
X040158Y016271*
Y016743*
X040001D02*
Y016271D01*
X039765*
X039686Y016349*
Y016664*
X039765Y016743*
X040001*
X034449Y016389D02*
X034764D01*
X034449Y016704*
Y016782*
X034528Y016861*
X034685*
X034764Y016782*
X033977Y016861D02*
X034134Y016782D01*
X034291Y016625*
Y016467*
X034213Y016389*
X034055*
X033977Y016467*
Y016546*
X034055Y016625*
X034291*
X033819Y016704D02*
X033740D01*
Y016625*
X033819*
Y016704*
Y016467D02*
X033740D01*
Y016389*
X033819*
Y016467*
X032638Y016782D02*
X032717Y016861D01*
X032875*
X032953Y016782*
Y016467*
X032875Y016389*
X032717*
X032638Y016467*
Y016625*
X032796*
X032481Y016389D02*
Y016861D01*
X032166Y016389*
Y016861*
X032009D02*
Y016389D01*
X031773*
X031694Y016467*
Y016782*
X031773Y016861*
X032009*
G54D52*
X041614Y012401D02*
X041811Y012598D01*
X042205*
X042402Y012401*
Y011614*
X042205Y011417*
X041811*
X041614Y011614*
X041221Y011417D02*
Y012204D01*
X040827Y012598*
X040434Y012204*
Y011417*
Y012008*
X041221*
X040040Y011417D02*
Y012598D01*
X039253Y011417*
Y012598*
X024843Y024291D02*
X025236D01*
X025433Y024095*
X025236Y023898*
X024843*
X025433Y023406D02*
Y023603D01*
X025335Y023701*
X025138*
X025040Y023603*
Y023406*
X025138Y023307*
X025236*
Y023701*
X025040Y023111D02*
X025433D01*
X025236*
X025138Y023012*
X025040Y022914*
Y022815*
X025433Y022520D02*
Y022225D01*
X025335Y022127*
X025236Y022225*
Y022422*
X025138Y022520*
X025040Y022422*
Y022127*
X025433Y021930D02*
Y021733D01*
Y021832*
X025040*
Y021930*
X025433Y021340D02*
Y021143D01*
X025335Y021044*
X025138*
X025040Y021143*
Y021340*
X025138Y021438*
X025335*
X025433Y021340*
Y020848D02*
X025040D01*
Y020552*
X025138Y020454*
X025433*
Y019667D02*
Y019470D01*
Y019568*
X024843*
X024941Y019667*
X025433Y019175D02*
X025335D01*
Y019076*
X025433*
Y019175*
X024941Y018683D02*
X024843Y018585D01*
Y018388*
X024941Y018289*
X025335*
X025433Y018388*
Y018585*
X025335Y018683*
X024941*
X025433Y018093D02*
X025335D01*
Y017994*
X025433*
Y018093*
X024941Y017601D02*
X024843Y017502D01*
Y017305*
X024941Y017207*
X025335*
X025433Y017305*
Y017502*
X025335Y017601*
X024941*
X024291Y024291D02*
X023701D01*
X023898Y024095*
X023701Y023898*
X024291*
Y023603D02*
Y023406D01*
X024193Y023307*
X023996*
X023898Y023406*
Y023603*
X023996Y023701*
X024193*
X024291Y023603*
X023799Y023012D02*
X023898D01*
Y023111*
Y022914*
Y023012*
X024193*
X024291Y022914*
Y022520D02*
Y022323D01*
X024193Y022225*
X023996*
X023898Y022323*
Y022520*
X023996Y022619*
X024193*
X024291Y022520*
X023898Y022028D02*
X024291D01*
X024095*
X023996Y021930*
X023898Y021832*
Y021733*
X023799Y020454D02*
X023701Y020552D01*
Y020749*
X023799Y020848*
X023898*
X023996Y020749*
Y020552*
X024095Y020454*
X024193*
X024291Y020552*
Y020749*
X024193Y020848*
X023898Y020257D02*
X024193D01*
X024291Y020159*
Y019864*
X023898*
X024488Y019667D02*
X023898D01*
Y019372*
X023996Y019273*
X024193*
X024291Y019372*
Y019667*
Y018781D02*
Y018978D01*
X024193Y019076*
X023996*
X023898Y018978*
Y018781*
X023996Y018683*
X024095*
Y019076*
X023898Y018486D02*
X024291D01*
X024095*
X023996Y018388*
X023898Y018289*
Y018191*
Y017896D02*
X024291Y017699D01*
X023898Y017502*
X024291Y017305D02*
Y017109D01*
Y017207*
X023898*
Y017305*
X024291Y016813D02*
Y016518D01*
X024193Y016420*
X024095Y016518*
Y016715*
X023996Y016813*
X023898Y016715*
Y016420*
X024291Y016125D02*
Y015928D01*
X024193Y015830*
X023996*
X023898Y015928*
Y016125*
X023996Y016223*
X024193*
X024291Y016125*
X023898Y015633D02*
X024291D01*
X024095*
X023996Y015534*
X023898Y015436*
Y015338*
X023701Y014452D02*
X024291D01*
Y014157*
X024193Y014058*
X024095*
X023996Y014157*
Y014452*
Y014157*
X023898Y014058*
X023799*
X023701Y014157*
Y014452*
X024291Y013763D02*
Y013566D01*
X024193Y013468*
X023996*
X023898Y013566*
Y013763*
X023996Y013862*
X024193*
X024291Y013763*
X023898Y013173D02*
Y012976D01*
X023996Y012878*
X024291*
Y013173*
X024193Y013271*
X024095Y013173*
Y012878*
X023898Y012681D02*
X024291D01*
X024095*
X023996Y012583*
X023898Y012484*
Y012386*
X023701Y011697D02*
X024291D01*
Y011992*
X024193Y012091*
X023996*
X023898Y011992*
Y011697*
X027795Y022835D02*
Y023228D01*
X027402Y022835*
X027303*
X027205Y022933*
Y023130*
X027303Y023228*
Y022638D02*
X027205Y022540D01*
Y022343*
X027303Y022244*
X027697*
X027795Y022343*
Y022540*
X027697Y022638*
X027303*
X027795Y022048D02*
Y021851D01*
Y021949*
X027205*
X027303Y022048*
X027795Y021162D02*
Y021556D01*
X027402Y021162*
X027303*
X027205Y021260*
Y021457*
X027303Y021556*
X025984Y024291D02*
X026575D01*
Y023996*
X026476Y023898*
X026083*
X025984Y023996*
Y024291*
X026575Y023603D02*
Y023406D01*
X026476Y023307*
X026280*
X026181Y023406*
Y023603*
X026280Y023701*
X026476*
X026575Y023603*
X026181Y023111D02*
X026476D01*
X026575Y023012*
Y022717*
X026181*
X026772Y022323D02*
Y022225D01*
X026673Y022127*
X026181*
Y022422*
X026280Y022520*
X026476*
X026575Y022422*
Y022127*
Y021930D02*
Y021733D01*
Y021832*
X025984*
Y021930*
X026181Y021340D02*
Y021143D01*
X026280Y021044*
X026575*
Y021340*
X026476Y021438*
X026378Y021340*
Y021044*
X026575Y020848D02*
Y020552D01*
X026476Y020454*
X026378Y020552*
Y020749*
X026280Y020848*
X026181Y020749*
Y020454*
X025984Y019667D02*
X026083D01*
X026280Y019470*
X026083Y019273*
X025984*
X026280Y019470D02*
X026575D01*
Y018978D02*
Y018781D01*
X026476Y018683*
X026280*
X026181Y018781*
Y018978*
X026280Y019076*
X026476*
X026575Y018978*
X026181Y018486D02*
X026476D01*
X026575Y018388*
Y018093*
X026181*
X026575Y017896D02*
X026181D01*
Y017601*
X026280Y017502*
X026575*
X026772Y017109D02*
Y017010D01*
X026673Y016912*
X026181*
Y017207*
X026280Y017305*
X026476*
X026575Y017207*
Y016912*
G54D57*
X021535Y016903D02*
Y016640D01*
Y016772*
X020879*
X020748Y016640*
Y016509*
X020879Y016378*
X021535Y017165D02*
Y017690D01*
Y017427*
X020748*
Y017952D02*
X021273D01*
X021535Y018215*
X021273Y018477*
X020748*
X021142*
Y017952*
X021404Y019264D02*
X021535Y019133D01*
Y018871*
X021404Y018739*
X020879*
X020748Y018871*
Y019133*
X020879Y019264*
X021142*
Y019002*
M02*