%FSDAX24Y24*%
%MOIN*%
%SFA1B1*%

%IPPOS*%
%AMD69*
4,1,4,-0.027100,-0.011800,-0.011800,-0.027100,0.027100,0.011800,0.011800,0.027100,-0.027100,-0.011800,0.0*
1,1,0.021700,-0.019400,-0.019400*
1,1,0.021700,0.019400,0.019400*
%
%AMD70*
4,1,4,-0.011800,0.027100,-0.027100,0.011800,0.011800,-0.027100,0.027100,-0.011800,-0.011800,0.027100,0.0*
1,1,0.021700,-0.019400,0.019400*
1,1,0.021700,0.019400,-0.019400*
%
%AMD85*
4,1,4,0.042400,-0.003500,-0.003500,0.042400,-0.042400,0.003500,0.003500,-0.042400,0.042400,-0.003500,0.0*
%
%AMD86*
4,1,4,0.045200,-0.003500,-0.003500,0.045200,-0.045200,0.003500,0.003500,-0.045200,0.045200,-0.003500,0.0*
%
%AMD87*
4,1,4,0.003500,0.045200,-0.045200,-0.003500,-0.003500,-0.045200,0.045200,0.003500,0.003500,0.045200,0.0*
%
%ADD68R,0.059100X0.068900*%
G04~CAMADD=69~3~0.0~0.0~217.0~768.0~0.0~0.0~0~0.0~0.0~0.0~0.0~0~0.0~0.0~0.0~0.0~0~0.0~0.0~0.0~135.0~606.0~606.0*
%ADD69D69*%
G04~CAMADD=70~3~0.0~0.0~217.0~768.0~0.0~0.0~0~0.0~0.0~0.0~0.0~0~0.0~0.0~0.0~0.0~0~0.0~0.0~0.0~45.0~606.0~606.0*
%ADD70D70*%
%ADD71R,0.068900X0.059100*%
%ADD72R,0.049200X0.049200*%
%ADD73R,0.049200X0.049200*%
%ADD74R,0.087000X0.105700*%
%ADD75R,0.087000X0.058500*%
%ADD76R,0.094900X0.070300*%
%ADD77R,0.064200X0.027600*%
%ADD78R,0.084600X0.037400*%
%ADD79R,0.065000X0.033500*%
%ADD80R,0.041300X0.041300*%
%ADD81R,0.047200X0.049200*%
%ADD82R,0.051200X0.063000*%
%ADD83R,0.035400X0.063000*%
%ADD84R,0.088600X0.072800*%
G04~CAMADD=85~9~0.0~0.0~650.0~551.0~0.0~0.0~0~0.0~0.0~0.0~0.0~0~0.0~0.0~0.0~0.0~0~0.0~0.0~0.0~315.0~848.0~847.0*
%ADD85D85*%
G04~CAMADD=86~9~0.0~0.0~689.0~591.0~0.0~0.0~0~0.0~0.0~0.0~0.0~0~0.0~0.0~0.0~0.0~0~0.0~0.0~0.0~315.0~904.0~903.0*
%ADD86D86*%
G04~CAMADD=87~9~0.0~0.0~689.0~591.0~0.0~0.0~0~0.0~0.0~0.0~0.0~0~0.0~0.0~0.0~0.0~0~0.0~0.0~0.0~45.0~904.0~903.0*
%ADD87D87*%
%ADD88R,0.088600X0.108300*%
%ADD89O,0.072800X0.021700*%
%ADD90R,0.084600X0.139800*%
%ADD91R,0.242100X0.126000*%
%ADD92R,0.088600X0.041300*%
%ADD93R,0.068900X0.068900*%
%ADD94C,0.068900*%
%ADD95C,0.065000*%
%ADD96C,0.049200*%
%ADD97C,0.206700*%
%LNpcb2-1*%
%LPD*%
G54D68*
X023950Y034200D03*
X023261D03*
G54D69*
X031072Y039186D03*
X031211Y039046D03*
X031350Y038907D03*
X031489Y038768D03*
X031628Y038629D03*
X031767Y038490D03*
X031907Y038350D03*
X032046Y038211D03*
X032185Y038072D03*
X032324Y037933D03*
X032463Y037794D03*
X032603Y037654D03*
X032742Y037515D03*
X032881Y037376D03*
X033020Y037237D03*
X033159Y037098D03*
X033299Y036958D03*
X033438Y036819D03*
X033577Y036680D03*
X033716Y036541D03*
X037363Y040188D03*
X037224Y040327D03*
X037085Y040466D03*
X036946Y040605D03*
X036806Y040745D03*
X036667Y040884D03*
X036528Y041023D03*
X036389Y041162D03*
X036250Y041301D03*
X036110Y041440D03*
X035971Y041580D03*
X035832Y041719D03*
X035693Y041858D03*
X035554Y041997D03*
X035414Y042136D03*
X035275Y042276D03*
X035136Y042415D03*
X034997Y042554D03*
X034858Y042693D03*
X034718Y042832D03*
G54D70*
X034718Y036541D03*
X034858Y036680D03*
X034997Y036819D03*
X035136Y036958D03*
X035275Y037098D03*
X035414Y037237D03*
X035554Y037376D03*
X035693Y037515D03*
X035832Y037654D03*
X035971Y037794D03*
X036110Y037933D03*
X036250Y038072D03*
X036389Y038211D03*
X036528Y038350D03*
X036667Y038490D03*
X036806Y038629D03*
X036946Y038768D03*
X037085Y038907D03*
X037224Y039046D03*
X037363Y039186D03*
X033716Y042832D03*
X033577Y042693D03*
X033438Y042554D03*
X033299Y042415D03*
X033159Y042276D03*
X033020Y042136D03*
X032881Y041997D03*
X032742Y041858D03*
X032603Y041719D03*
X032463Y041580D03*
X032324Y041440D03*
X032185Y041301D03*
X032046Y041162D03*
X031907Y041023D03*
X031767Y040884D03*
X031628Y040745D03*
X031489Y040605D03*
X031350Y040466D03*
X031211Y040327D03*
X031072Y040188D03*
G54D71*
X035800Y045750D03*
Y045061D03*
X036000Y047450D03*
Y048139D03*
G54D72*
X035000Y045515D03*
Y044885D03*
X034200Y045515D03*
Y044885D03*
X033200Y044085D03*
Y044715D03*
X035000Y047485D03*
Y048115D03*
X021800Y034085D03*
Y034715D03*
X020400D03*
Y034085D03*
X024200Y046115D03*
Y045485D03*
X022200Y043362D03*
Y047762D03*
G54D73*
X035085Y046600D03*
X035715D03*
X036915Y044200D03*
X036285D03*
X026485Y036400D03*
X027115D03*
X028085D03*
X028715D03*
X019485Y039600D03*
X020115D03*
X045512Y038200D03*
X051288Y039600D03*
X029962Y043800D03*
G54D74*
X038000Y045381D03*
Y047676D03*
G54D75*
X038000Y046200D03*
Y046861D03*
G54D76*
X037094Y045558D03*
Y047499D03*
G54D77*
X036953Y046019D03*
Y046275D03*
Y046531D03*
Y046787D03*
Y047043D03*
G54D78*
X026954Y039254D03*
Y038754D03*
Y038255D03*
Y037755D03*
Y037256D03*
X028549Y039254D03*
Y038754D03*
Y038255D03*
Y037755D03*
Y037256D03*
G54D79*
X036826Y043374D03*
Y042626D03*
X037574Y043000D03*
G54D80*
X033200Y045600D03*
Y046191D03*
G54D81*
X026400Y040885D03*
Y041515D03*
X028800Y040885D03*
Y041515D03*
X019600Y034715D03*
Y034085D03*
X022357Y036974D03*
Y037604D03*
G54D82*
X027899Y041604D03*
G54D83*
X027222Y041604D03*
Y040796D03*
X027978D03*
G54D84*
X029137Y034400D03*
X031263D03*
G54D85*
X032045Y036445D03*
X032658Y035833D03*
X032212Y035388D03*
X031600Y036000D03*
G54D86*
X033447Y035247D03*
X032960Y034760D03*
X030953Y036753D03*
X031440Y037240D03*
G54D87*
X035553Y035447D03*
X036040Y034960D03*
X036153Y036047D03*
X036640Y035560D03*
G54D88*
X021702Y036293D03*
X020088D03*
G54D89*
X021564Y037600D03*
Y037797D03*
Y037994D03*
Y038191D03*
Y038388D03*
Y038585D03*
Y038781D03*
Y038978D03*
X019950Y037600D03*
Y037797D03*
Y037994D03*
Y038191D03*
Y038388D03*
Y038585D03*
Y038781D03*
Y038978D03*
G54D90*
X020757Y038289D03*
G54D91*
X024157Y035492D03*
Y037087D03*
G54D92*
X024800Y039000D03*
X023698D03*
G54D93*
X040669Y035512D03*
X031614Y044055D03*
G54D94*
X040669Y034512D03*
X031614Y045055D03*
Y046055D03*
G54D95*
X021373Y040409D03*
Y043953D03*
X046102Y039027D03*
X039409D03*
X050698Y038773D03*
X057391D03*
X021373Y044809D03*
Y048353D03*
X027009Y044627D03*
X030553D03*
G54D96*
X022200Y041000D03*
Y041787D03*
Y042575D03*
X042362Y038200D03*
X041575D03*
X040787D03*
X040000D03*
X043150D03*
X043937D03*
X044724D03*
X054438Y039600D03*
X055225D03*
X056013D03*
X056800D03*
X053650D03*
X052863D03*
X052076D03*
X022200Y045400D03*
Y046187D03*
Y046975D03*
X027600Y043800D03*
X028387D03*
X029175D03*
G54D97*
X024765Y042653D03*
X026970Y034483D03*
X038781D03*
X048378Y039946D03*
X032630Y047519D03*
X024755D03*
M02*