%FSDAX24Y24*%
%MOIN*%
%SFA1B1*%

%IPPOS*%
%AMD28*
4,1,4,0.038300,-0.003500,-0.003500,0.038300,-0.038300,0.003500,0.003500,-0.038300,0.038300,-0.003500,0.0*
%
%AMD29*
4,1,4,0.003500,0.038300,-0.038300,-0.003500,-0.003500,-0.038300,0.038300,0.003500,0.003500,0.038300,0.0*
%
%AMD59*
4,1,4,0.000000,0.027700,-0.027700,0.000000,0.000000,-0.027700,0.027700,0.000000,0.000000,0.027700,0.0*
%
%ADD14R,0.039400X0.039400*%
%ADD15R,0.039400X0.039400*%
%ADD21R,0.055100X0.023600*%
%ADD23R,0.037400X0.039400*%
G04~CAMADD=28~9~0.0~0.0~591.0~492.0~0.0~0.0~0~0.0~0.0~0.0~0.0~0~0.0~0.0~0.0~0.0~0~0.0~0.0~0.0~315.0~766.0~765.0*
%ADD28D28*%
G04~CAMADD=29~9~0.0~0.0~591.0~492.0~0.0~0.0~0~0.0~0.0~0.0~0.0~0~0.0~0.0~0.0~0.0~0~0.0~0.0~0.0~45.0~766.0~765.0*
%ADD29D29*%
%ADD35C,0.009800*%
%ADD36C,0.007900*%
%ADD37C,0.019700*%
%ADD38C,0.039400*%
%ADD40R,0.059100X0.059100*%
%ADD41C,0.059100*%
%ADD42C,0.055100*%
%ADD43C,0.039400*%
%ADD44C,0.196900*%
%ADD45C,0.023600*%
%ADD46C,0.031500*%
%ADD58R,0.043300X0.023600*%
G04~CAMADD=59~10~0.0~393.9~0.0~0.0~0.0~0.0~0~0.0~0.0~0.0~0.0~0~0.0~0.0~0.0~0.0~0~0.0~0.0~0.0~405.0~393.9~0.0*
%ADD59D59*%
%ADD60R,0.023600X0.055100*%
%ADD61O,0.086600X0.023600*%
%ADD62C,0.011800*%
%LNpcb2-1*%
%LPD*%
G54D14*
X021800Y038085D03*
Y038715D03*
X022200Y043362D03*
Y047762D03*
G54D15*
X038976Y035945D03*
X039606D03*
X053515Y037000D03*
X052885D03*
X037285Y040800D03*
X037915D03*
X037885Y039400D03*
X038515D03*
X029915Y042800D03*
X029285D03*
X029315Y044600D03*
X028685D03*
X026885Y039400D03*
X027515D03*
X026885Y037000D03*
X027515D03*
X026885Y037800D03*
X027515D03*
X026885Y038600D03*
X027515D03*
X045885Y040000D03*
X046515D03*
X045885Y040800D03*
X046515D03*
X045512Y038200D03*
X051288Y039600D03*
X029962Y043800D03*
G54D21*
X029974Y046574D03*
Y045826D03*
X029226Y046200D03*
X028174Y046174D03*
Y045426D03*
X027426Y045800D03*
X052426Y037826D03*
Y038574D03*
X053174Y038200D03*
X054226Y037826D03*
Y038574D03*
X054974Y038200D03*
X055826Y037826D03*
Y038574D03*
X056574Y038200D03*
G54D23*
X040600Y040715D03*
Y040085D03*
X023600Y035885D03*
Y036515D03*
G54D28*
X036047Y039847D03*
X035560Y039360D03*
X034248Y041247D03*
X033760Y040760D03*
X036847Y038447D03*
X036360Y037960D03*
X031847Y042647D03*
X031360Y042160D03*
X030447Y041447D03*
X029960Y040960D03*
X031647Y037847D03*
X031160Y037360D03*
X032247Y036447D03*
X031760Y035960D03*
X034465Y035734D03*
X033978Y035247D03*
G54D29*
X032647Y038953D03*
X032160Y039440D03*
G54D35*
X031614Y045055D02*
X032191D01*
X031614Y046055D02*
X032807D01*
X033770Y047018*
Y047254*
X034449Y047933*
X039646Y035955D02*
Y036949D01*
X027835Y040020D02*
X027884Y039970D01*
X029114*
X029902Y039183*
Y037608D02*
Y039183D01*
Y037608D02*
X030285Y037224D01*
X044764Y038720D02*
Y040010D01*
X045187Y040433*
X046148*
X046515Y040800*
X045512Y038200D02*
X046310D01*
X046515Y038405D02*
Y040000D01*
X046310Y038200D02*
X046515Y038405D01*
X036980Y039615D02*
X039646Y036949D01*
X032333Y040325D02*
X032657Y040650D01*
X023410Y040325D02*
X032333D01*
X021800Y038715D02*
X023410Y040325D01*
X028888Y045108D02*
X028903D01*
X053768Y037000D02*
X054085Y036683D01*
X053515Y037000D02*
X053768D01*
X036368Y046122D02*
X036378Y046132D01*
X035679Y045433D02*
X036368Y046122D01*
X035679Y040871D02*
Y045433D01*
X034547Y039739D02*
X035679Y040871D01*
X034547Y039291D02*
Y039739D01*
X034248Y041255D02*
X034636Y041644D01*
X035000Y041506D02*
X035069D01*
X034961Y041467D02*
X035000Y041506D01*
X034961Y041240D02*
Y041467D01*
X033691Y039970D02*
X034961Y041240D01*
X028060Y036309D02*
X028377D01*
X026772D02*
X028060D01*
X028377D02*
X031280D01*
X022018Y036043D02*
X022559Y035502D01*
X022018Y036043D02*
Y037018D01*
X022283Y037283*
X025797*
X033878Y039035D02*
Y039813D01*
X032785Y037943D02*
X033878Y039035D01*
X032785Y037592D02*
Y037943D01*
X031345Y036152D02*
X032785Y037592D01*
X028312Y036152D02*
X031345D01*
X028125D02*
X028312D01*
X026706D02*
X028125D01*
X025908Y036950D02*
X026706Y036152D01*
X022755Y036950D02*
X025908D01*
X033691Y039071D02*
Y039970D01*
X032628Y038008D02*
X033691Y039071D01*
X032628Y037657D02*
Y038008D01*
X031280Y036309D02*
X032628Y037657D01*
X025797Y037283D02*
X026772Y036309D01*
X032972Y041998D02*
X034222Y043248D01*
Y044222*
X032972Y040256D02*
Y041998D01*
X036980Y041350D02*
X037402Y041772D01*
X037618D02*
X037894Y042047D01*
X037402Y041772D02*
X037618D01*
X036980Y039615D02*
Y041350D01*
X038769Y040933D02*
X038928Y040774D01*
X037982Y040933D02*
X038769D01*
X037982Y040443D02*
Y040933D01*
X033760Y040760D02*
Y040905D01*
X033707Y040813D02*
X033760Y040760D01*
X031847Y042647D02*
X031958D01*
X032293Y042982*
X034248Y041247D02*
Y041255D01*
X028654Y037000D02*
X029321Y037667D01*
X027515Y037000D02*
X028654D01*
X028863Y037800D02*
X029321Y038258D01*
Y038287*
X027515Y037800D02*
X028863D01*
X029151Y038600D02*
X029262Y038711D01*
X027515Y038600D02*
X029151D01*
X029025Y039400D02*
X029213Y039213D01*
X027515Y039400D02*
X029025D01*
X035481Y043760D02*
Y045715D01*
Y040953D02*
Y043760D01*
X035264Y043976D02*
X035481Y043760D01*
X035197Y043976D02*
X035264D01*
X034193Y039656D02*
X035483Y040946D01*
X035481Y045715D02*
X036336Y046571D01*
X036378*
X029175Y043800D02*
X029285Y043690D01*
Y042800D02*
Y043690D01*
X029915Y043753D02*
X029962Y043800D01*
X029915Y042800D02*
Y043753D01*
X029962Y043800D02*
Y043953D01*
X029315Y044600D02*
X029962Y043953D01*
X028387Y043800D02*
Y044302D01*
X028685Y044600*
X028790Y043415D02*
X029175Y043800D01*
X028258Y043415D02*
X028790D01*
X027992Y043681D02*
X028258Y043415D01*
X027992Y043681D02*
Y044104D01*
X027426Y044670D02*
X027992Y044104D01*
X027426Y044670D02*
Y045800D01*
X029281Y045192D02*
Y046144D01*
X028685Y044600D02*
X028690D01*
X029226Y046200D02*
X029281Y046144D01*
X029875Y046673D02*
X029974Y046574D01*
X028671Y046673D02*
X029875D01*
X028652Y046654D02*
X028671Y046673D01*
X028652Y046063D02*
Y046654D01*
Y046063D02*
X028957Y045758D01*
X029124*
Y045329D02*
Y045758D01*
X028903Y045108D02*
X029124Y045329D01*
X028174Y046107D02*
Y046174D01*
Y046107D02*
X028878Y045404D01*
X038515Y039400D02*
Y039763D01*
X038396Y039882D02*
X038515Y039763D01*
Y039613D02*
X038928Y040026D01*
X038515Y039400D02*
Y039613D01*
X054085Y037685D02*
X054226Y037826D01*
X054085Y036683D02*
Y037685D01*
X055826Y037402D02*
Y037826D01*
Y037402D02*
X055827D01*
X032618Y038386D02*
X032647Y038415D01*
Y038953*
X028878Y045108D02*
X028888D01*
X028690Y044600D02*
X028972Y044882D01*
X028982*
X029114Y045015*
Y045024*
X029281Y045192*
X033878Y039813D02*
X035162Y041097D01*
X032191Y045055D02*
X034616Y047480D01*
X036801*
X037234Y047047*
Y042146D02*
Y047047D01*
X034449Y047933D02*
X037126D01*
X037776Y047283*
Y043647D02*
Y047283D01*
X037657Y043529D02*
X037776Y043647D01*
X037657Y043341D02*
Y043529D01*
Y043341D02*
X037776Y043223D01*
Y042530D02*
Y043223D01*
X034154Y046693D02*
X034400Y046939D01*
X036693*
X036900Y046732*
Y045837D02*
Y046732D01*
X036211Y045148D02*
X036900Y045837D01*
X036211Y040846D02*
Y045148D01*
X034872Y039508D02*
X036211Y040846D01*
X034872Y039301D02*
Y039508D01*
Y039301D02*
X035610Y038563D01*
Y037884D02*
Y038563D01*
Y037884D02*
X037175Y036319D01*
X051604Y037825D02*
X052425D01*
X052426Y037826*
X043081Y039577D02*
X043478Y039974D01*
X043626*
X034547Y039291D02*
X034823Y039016D01*
Y038223D02*
Y039016D01*
X034193Y039053D02*
Y039656D01*
Y039053D02*
X034423Y038823D01*
G54D36*
X034377Y037104D02*
Y037777D01*
X034232Y036959D02*
X034377Y037104D01*
X033720Y038120D02*
X033977Y038377D01*
X033720Y037776D02*
Y038120D01*
Y037776D02*
X034104Y037392D01*
Y037333D02*
Y037392D01*
X043937Y038200D02*
X044243D01*
X044764Y038720*
X045512Y038200D02*
X045533Y038179D01*
X045868Y040817D02*
X045885Y040800D01*
X045325Y040817D02*
X045868D01*
X045502Y040000D02*
X045885D01*
X045394Y040108D02*
X045502Y040000D01*
X041585Y040015D02*
X041626Y039974D01*
X041260Y039724D02*
X041509Y039974D01*
X041626*
G54D37*
X038533Y035945D02*
X038976D01*
X053978Y038574D02*
X054226D01*
X053740Y038337D02*
X053978Y038574D01*
X053740Y037855D02*
Y038337D01*
X052885Y037000D02*
X053740Y037855D01*
X027737Y044989D02*
X028174Y045426D01*
X029454Y041344D02*
X029577D01*
X029449Y041339D02*
X029454Y041344D01*
X036624Y040000D02*
X036663D01*
X036348Y039724D02*
X036624Y040000D01*
X055610Y039144D02*
X055826Y038928D01*
Y038574D02*
Y038928D01*
X053996Y039124D02*
X054226Y038894D01*
Y038574D02*
Y038894D01*
X033978Y034890D02*
X034262Y034606D01*
X033978Y034890D02*
Y035247D01*
X031250Y035512D02*
X031312D01*
X031760Y035960*
X021919Y041506D02*
X022200Y041787D01*
X020691Y041506D02*
X021919D01*
X019734Y040549D02*
X020691Y041506D01*
X019734Y036048D02*
Y040549D01*
Y036048D02*
X019833Y035950D01*
X020845*
X021950Y041250D02*
X022200Y041000D01*
X021211Y041250D02*
X021950D01*
X020118Y040157D02*
X021211Y041250D01*
X020118Y036450D02*
Y040157D01*
Y036450D02*
X020845D01*
X037285Y041153D02*
X037648Y041516D01*
X037285Y041000D02*
Y041153D01*
X031083Y042815D02*
X031360Y042537D01*
Y042160D02*
Y042537D01*
X033356Y041309D02*
X033760Y040905D01*
X036171Y039724D02*
X036348D01*
X036047Y039847D02*
X036171Y039724D01*
X035846Y038474D02*
X036360Y037960D01*
X035846Y038474D02*
Y038750D01*
X036171Y039035D02*
X036759Y038447D01*
X036847*
X035560Y039036D02*
X035846Y038750D01*
X035560Y039036D02*
Y039360D01*
X026230Y038593D02*
Y038745D01*
X026885Y039400*
X026230Y038593D02*
X026238Y038600D01*
X026885*
X026152Y037333D02*
X026484Y037000D01*
X026885*
X026152Y037333D02*
X026619Y037800D01*
X026885*
X034085Y036114D02*
Y036171D01*
Y036114D02*
X034465Y035734D01*
X030493Y045826D02*
X030650Y045669D01*
X029974Y045826D02*
X030493D01*
X038811Y038474D02*
X038848D01*
X037885Y039400D02*
X038811Y038474D01*
X039951Y039409D02*
Y039436D01*
X040600Y040085*
X038928Y040400D02*
X039498D01*
X039872Y040026*
X040541Y040774D02*
X040600Y040715D01*
X039872Y040774D02*
X040541D01*
Y040026D02*
X040600Y040085D01*
X039872Y040026D02*
X040541D01*
X052076Y039600D02*
X052426Y039250D01*
Y038574D02*
Y039250D01*
X030965Y038130D02*
X031107Y037987D01*
Y037413D02*
Y037987D01*
Y037413D02*
X031160Y037360D01*
X029577Y041344D02*
X029960Y040960D01*
X032215Y039440D02*
X032633Y039857D01*
X032160Y039440D02*
X032215D01*
X030447Y041447D02*
X030639D01*
X031033Y041053*
X033300Y037500D02*
X033593D01*
X032247Y036447D02*
X033300Y037500D01*
X032186Y038386D02*
X032618D01*
X031647Y037847D02*
X032186Y038386D01*
X043572Y038622D02*
X044350D01*
X044374Y038646D02*
Y039974D01*
X044350Y038622D02*
X044374Y038646D01*
X043150Y038200D02*
X043572Y038622D01*
X043150Y038200D02*
X043230D01*
X041590D02*
X042374Y038984D01*
Y039974*
X041575Y038200D02*
X041590D01*
X023535Y036450D02*
X023699Y036614D01*
X025837*
X022755Y036450D02*
X023535D01*
X020845Y036950D02*
X021800Y037905D01*
Y038085*
X023535Y035950D02*
X023600Y035885D01*
X022755Y035950D02*
X023535D01*
X023600Y035885D02*
X025639D01*
X025856Y036102*
X053174Y038200D02*
Y039124D01*
X053650Y039600*
X054974Y038200D02*
Y039064D01*
X054438Y039600D02*
X054974Y039064D01*
X056574Y038200D02*
Y039039D01*
X056013Y039600D02*
X056574Y039039D01*
X043388Y039226D02*
X044000D01*
X042362Y038200D02*
X043388Y039226D01*
X041813D02*
X042000D01*
X040787Y038200D02*
X041813Y039226D01*
X040600Y040715D02*
X041002D01*
X041220Y040315D02*
Y040496D01*
X041002Y040715D02*
X041220Y040496D01*
G54D38*
X020581Y043407D02*
X022200Y041787D01*
X020581Y043407D02*
Y045581D01*
X021187Y046187*
X022200*
Y041000D02*
X023061Y041861D01*
X022200Y045400D02*
X023061Y044539D01*
Y041861D02*
Y044539D01*
G54D40*
X040669Y035512D03*
X031614Y044055D03*
G54D41*
X040669Y034512D03*
X031614Y045055D03*
Y046055D03*
G54D42*
X021373Y040409D03*
Y043953D03*
X046102Y039027D03*
X039409D03*
X050698Y038773D03*
X057391D03*
X021373Y044809D03*
Y048353D03*
X027009Y044627D03*
X030553D03*
G54D43*
X022200Y041000D03*
Y041787D03*
Y042575D03*
X042362Y038200D03*
X041575D03*
X040787D03*
X040000D03*
X043150D03*
X043937D03*
X044724D03*
X054438Y039600D03*
X055225D03*
X056013D03*
X056800D03*
X053650D03*
X052863D03*
X052076D03*
X022200Y045400D03*
Y046187D03*
Y046975D03*
X027600Y043800D03*
X028387D03*
X029175D03*
G54D44*
X024765Y042653D03*
X026970Y034483D03*
X038781D03*
X048378Y039946D03*
X032630Y047519D03*
X024755D03*
G54D45*
X038533Y035945D03*
X036336Y046571D03*
X036368Y046122D03*
X034636Y041644D03*
X035069Y041506D03*
X029449Y041339D03*
X036663Y040000D03*
X035128Y046112D03*
X020757Y037989D03*
Y038589D03*
X055610Y039144D03*
X053996Y039124D03*
X036309Y040394D03*
X034262Y034606D03*
X031250Y035512D03*
X035768Y036437D03*
X030285Y037224D03*
X032657Y040650D03*
X036614Y048248D03*
X029331Y040571D03*
X019370Y038219D03*
X034222Y044222D03*
X032972Y040256D03*
X033937Y048012D03*
X034902Y044370D03*
X033730Y044016D03*
X034154Y046693D03*
X037234Y042146D03*
X037776Y042530D03*
X037894Y042047D03*
X031083Y042815D03*
X033356Y041309D03*
X034587Y042037D03*
X032293Y042982D03*
X037884Y043435D03*
X035846Y038750D03*
X036171Y039035D03*
X026447Y042008D03*
X029321Y037667D03*
Y038287D03*
X029262Y038711D03*
X029213Y039213D03*
X026161Y038022D03*
X026230Y038593D03*
X026152Y037333D03*
X028219Y035925D03*
X031969Y034390D03*
X034085Y036171D03*
X037175Y036319D03*
X035197Y043976D03*
X036772Y034852D03*
X027726Y045000D03*
X030650Y045669D03*
X028878Y045404D03*
X037982Y040443D03*
X038396Y039882D03*
X038848Y038474D03*
X037648Y041516D03*
X039951Y039409D03*
X045325Y040817D03*
X045394Y040108D03*
X054085Y036683D03*
X055827Y037402D03*
X030965Y038130D03*
X032638Y039852D03*
X031033Y041053D03*
X033593Y037500D03*
X032618Y038386D03*
X025837Y036614D03*
X025856Y036102D03*
X028888Y045108D03*
X035162Y041097D03*
X051604Y037825D03*
X043081Y039577D03*
X041260Y039724D03*
X041220Y040315D03*
X027835Y040020D03*
X034232Y036959D03*
X034104Y037333D03*
G54D46*
X025157Y038524D03*
X024616Y038533D03*
X020728Y039537D03*
X021467Y039803D03*
X022608Y034222D03*
X023455Y038406D03*
X022874Y039065D03*
X025128Y034577D03*
X024636Y034144D03*
G54D58*
X039872Y040026D03*
Y040774D03*
X038928D03*
Y040400D03*
Y040026D03*
G54D59*
X034423Y038823D03*
X033977Y038377D03*
X034823Y038223D03*
X034377Y037777D03*
G54D60*
X041626Y039974D03*
X042374D03*
X042000Y039226D03*
X043626Y039974D03*
X044374D03*
X044000Y039226D03*
G54D61*
X022755Y036950D03*
Y036450D03*
Y035950D03*
Y035450D03*
X020845Y036950D03*
Y036450D03*
Y035950D03*
Y035450D03*
G54D62*
X039606Y035945D02*
X040236D01*
X040669Y035512*
M02*