%FSDAX25Y25*%
%MOIN*%
%SFA1B1*%

%IPPOS*%
%ADD9500C,0.011810*%
%ADD9501C,0.015750*%
%ADD9502C,0.027560*%
%ADD9503C,0.035430*%
%ADD9504C,0.039370*%
%ADD9505C,0.043310*%
%ADD9506C,0.066930*%
%ADD9507C,0.118110*%
%ADD9508C,0.133860*%
%LNmcb2-1*%
%LPD*%
G54D9500*
X0105118Y0108661D03*
X0103937Y0113386D03*
X0105118Y0118110D03*
X0108661Y0121653D03*
X0113386Y0122835D03*
X0118110Y0121653D03*
X0121653Y0118110D03*
X0122835Y0113386D03*
X0121653Y0108661D03*
X0118110Y0105118D03*
X0113386Y0103937D03*
X0108661Y0105118D03*
X0128346Y0118898D03*
X0145669Y0102756D03*
X0154331Y0105118D03*
Y0111024D03*
X0172835Y0136909D03*
X0191437Y0127953D03*
Y0120669D03*
Y0147146D03*
X0191339Y0154134D03*
X0305413Y0156201D03*
X0305315Y0150886D03*
X0304429Y0146161D03*
X0310236Y0121653D03*
X0306693Y0118110D03*
X0305512Y0113386D03*
X0306693Y0108661D03*
X0310236Y0105118D03*
X0314961Y0103937D03*
X0319685Y0105118D03*
X0323228Y0108661D03*
X0324409Y0113386D03*
X0323228Y0118110D03*
X0319685Y0121653D03*
X0314961Y0122835D03*
X0322520Y0141063D03*
X0327461Y0143012D03*
X0337205Y0146457D03*
X0336516Y0153248D03*
X0338189Y0139370D03*
X0335827Y0112205D03*
X0336319Y0106496D03*
X0437992Y0117618D03*
X0422539Y0137992D03*
X0473228Y0128740D03*
X0475591Y0125591D03*
X0476378Y0118504D03*
X0472440Y0120866D03*
X0480315Y0148032D03*
Y0154331D03*
X0511811Y0121653D03*
X0516535Y0122835D03*
X0521260Y0121653D03*
X0524803Y0118110D03*
X0525984Y0113386D03*
X0524803Y0108661D03*
X0521260Y0105118D03*
X0516535Y0103937D03*
X0511811Y0105118D03*
X0508268Y0108661D03*
X0507087Y0113386D03*
X0508268Y0118110D03*
X0516142Y0182284D03*
X0494193Y0187402D03*
X0503051Y0203248D03*
X0486811Y0211024D03*
X0474016Y0174803D03*
X0442028Y0164961D03*
X0414043Y0181890D03*
X0414075Y0188189D03*
X0404331Y0187795D03*
X0388189D03*
X0379626Y0187500D03*
X0383070Y0170866D03*
X0392913Y0168898D03*
X0396457Y0171654D03*
X0381169Y0214764D03*
X0379528Y0222933D03*
X0372441D03*
Y0236417D03*
X0379546Y0236429D03*
X0365960Y0238401D03*
X0362500Y0240354D03*
X0359252Y0243898D03*
X0356496Y0245866D03*
X0346457Y0248031D03*
X0341732Y0248425D03*
X0342815Y0264764D03*
X0341043Y0267421D03*
X0342815Y0270276D03*
X0340748Y0273130D03*
X0331102Y0275984D03*
X0333366Y0285925D03*
X0327559Y0286220D03*
Y0292520D03*
X0344488Y0291437D03*
X0354724Y0290944D03*
X0357382Y0296260D03*
X0356496Y0301181D03*
X0353543Y0305020D03*
X0365157Y0305610D03*
X0375492Y0308465D03*
X0392028Y0309252D03*
X0395571Y0309350D03*
X0398819D03*
X0402165Y0309252D03*
X0384646Y0298032D03*
X0382087Y0281693D03*
X0387426Y0274778D03*
X0375984Y0274803D03*
X0375197Y0271654D03*
X0372047Y0269685D03*
X0375591Y0264961D03*
Y0261024D03*
X0356102Y0259646D03*
X0327559Y0259055D03*
Y0252756D03*
X0323031Y0246850D03*
X0333563Y0224213D03*
X0331138Y0221689D03*
X0336139Y0226684D03*
X0338386Y0228740D03*
X0351575Y0230315D03*
X0336319Y0210827D03*
X0337795Y0178740D03*
X0338114Y0167248D03*
X0320079Y0278740D03*
X0312500Y0302854D03*
X0312598Y0310827D03*
X0325492Y0311122D03*
X0369094Y0278642D03*
X0401378Y0274114D03*
X0402264Y0268012D03*
X0411417Y0258477D03*
X0424606Y0258268D03*
X0421063Y0240244D03*
X0407480Y0240059D03*
X0432677Y0217126D03*
X0444587Y0220079D03*
X0425197Y0282087D03*
X0422244Y0292618D03*
X0305118Y0293504D03*
Y0296457D03*
X0301280D03*
X0305118Y0290551D03*
X0307283Y0310630D03*
X0295472Y0310039D03*
X0288287Y0309646D03*
X0287992Y0297244D03*
X0285039D03*
X0283268Y0291831D03*
X0277756Y0289764D03*
X0273425Y0290354D03*
X0275098Y0294193D03*
X0267913Y0291043D03*
X0270965Y0284055D03*
X0280512Y0286909D03*
X0282382Y0275197D03*
X0277461Y0276181D03*
X0278149Y0257087D03*
X0281299Y0257972D03*
X0284350Y0259154D03*
X0287697Y0254823D03*
X0292028Y0257677D03*
X0292224Y0248327D03*
X0295192Y0249323D03*
X0298031Y0247933D03*
X0306791Y0235827D03*
X0286319Y0235138D03*
X0282480Y0235433D03*
X0286614Y0226378D03*
X0292913D03*
X0294980Y0214764D03*
X0294291Y0210925D03*
X0292421Y0202362D03*
X0289370Y0192815D03*
X0282185Y0206004D03*
X0278642Y0206102D03*
X0267520Y0204232D03*
X0267618Y0210138D03*
X0279134Y0222441D03*
X0275591Y0228543D03*
X0275197Y0255610D03*
X0263976Y0253248D03*
X0266142Y0251083D03*
X0262894Y0249311D03*
X0257198Y0248240D03*
X0257972Y0251969D03*
X0259350Y0262500D03*
X0257775Y0268898D03*
X0257776Y0276772D03*
X0243701Y0277461D03*
X0237402D03*
Y0270374D03*
X0243701D03*
X0236847Y0291571D03*
X0236909Y0302657D03*
X0233957D03*
X0231004D03*
X0239862D03*
X0246457Y0301673D03*
X0249606Y0299803D03*
X0222638Y0312205D03*
X0222736Y0278839D03*
X0217421Y0277559D03*
X0212795Y0283563D03*
X0210039Y0287205D03*
X0202559Y0278839D03*
Y0272539D03*
X0213189Y0266831D03*
X0180610Y0268701D03*
X0181339Y0263622D03*
X0195374Y0248622D03*
X0195886Y0243622D03*
X0193996Y0223819D03*
Y0216437D03*
X0175098Y0211614D03*
X0169396Y0220085D03*
X0162008Y0220177D03*
X0159449Y0241339D03*
X0179232Y0228346D03*
X0175984Y0194095D03*
X0173130Y0179232D03*
X0174409Y0172835D03*
X0195866Y0183661D03*
Y0189764D03*
X0235531Y0211221D03*
X0235433Y0218799D03*
X0239764Y0237795D03*
X0255807Y0237598D03*
X0252362Y0233071D03*
X0230807Y0246063D03*
X0163681Y0288681D03*
X0159744Y0309055D03*
X0113484Y0219291D03*
X0103543Y0228445D03*
X0111122Y0382874D03*
X0111024Y0398031D03*
Y0402854D03*
X0131988Y0397835D03*
X0132087Y0408071D03*
X0146850Y0407874D03*
Y0400394D03*
Y0392913D03*
Y0385433D03*
Y0377953D03*
X0162697Y0389272D03*
X0159547Y0396752D03*
X0178248Y0397638D03*
X0177067Y0404232D03*
X0178248Y0389567D03*
X0163779Y0356693D03*
X0188484Y0350197D03*
X0181220Y0336634D03*
X0176969Y0337106D03*
X0198425Y0336811D03*
X0194980Y0326476D03*
Y0321654D03*
X0222736Y0316240D03*
X0262992Y0316339D03*
X0269291D03*
X0288583Y0317815D03*
X0294882D03*
X0301020Y0316894D03*
X0303108Y0314806D03*
X0305196Y0312718D03*
X0298622Y0322834D03*
X0285532Y0323622D03*
X0282579Y0326575D03*
X0289764Y0331890D03*
X0291437Y0400787D03*
X0307776Y0408071D03*
Y0422736D03*
X0278445Y0418504D03*
X0266437Y0400591D03*
X0256004Y0404429D03*
X0255807Y0408268D03*
X0255020Y0395768D03*
X0252461Y0397835D03*
X0245276Y0397539D03*
X0235925Y0404035D03*
X0244882Y0413189D03*
X0243898Y0426083D03*
X0242520Y0428937D03*
X0232283Y0435532D03*
X0214370Y0427067D03*
Y0411713D03*
X0180807Y0436614D03*
X0180709Y0443504D03*
Y0450295D03*
X0180512Y0457284D03*
X0158661Y0424311D03*
X0203248Y0360827D03*
X0206004Y0358169D03*
X0328642Y0347441D03*
X0333465Y0347539D03*
X0320866Y0334350D03*
X0328051Y0319193D03*
X0367815Y0320472D03*
X0396063Y0324902D03*
X0404724Y0325984D03*
X0409055Y0412500D03*
X0417717Y0408760D03*
X0426968Y0413779D03*
X0430807D03*
Y0418799D03*
X0431319Y0423602D03*
X0431142Y0428602D03*
X0431201Y0438484D03*
X0427165Y0441142D03*
X0451772Y0444095D03*
Y0450394D03*
X0413287Y0459350D03*
X0354724Y0434547D03*
X0351378Y0433366D03*
X0346162Y0434547D03*
X0343799Y0431988D03*
X0344685Y0411417D03*
X0347047Y0403839D03*
X0349606Y0406398D03*
X0352165Y0408957D03*
X0354724Y0411614D03*
X0367421Y0418406D03*
X0380118Y0401280D03*
X0341634Y0394488D03*
X0333858Y0397736D03*
X0324902Y0404134D03*
X0333284Y0412815D03*
X0409055Y0486221D03*
X0413091Y0485925D03*
X0412992Y0495768D03*
X0430177Y0508701D03*
X0430236Y0513701D03*
X0443701Y0518701D03*
Y0523701D03*
X0446319Y0547638D03*
X0451043Y0546457D03*
X0455767Y0547638D03*
X0459311Y0551181D03*
X0460492Y0555905D03*
X0459311Y0560630D03*
X0455767Y0564173D03*
X0451043Y0565354D03*
X0446319Y0564173D03*
X0442775Y0560630D03*
X0441594Y0555905D03*
X0442775Y0551181D03*
X0412992Y0534941D03*
X0243071Y0508110D03*
X0225846D03*
X0211713Y0517815D03*
Y0524114D03*
X0174114Y0533169D03*
X0163879Y0547638D03*
X0159154Y0546457D03*
X0167422Y0551181D03*
X0168603Y0555905D03*
X0167422Y0560630D03*
X0163879Y0564173D03*
X0159154Y0565354D03*
X0169685Y0486024D03*
X0187500Y0487795D03*
X0187598Y0493012D03*
X0154430Y0547638D03*
X0150886Y0551181D03*
X0149705Y0555905D03*
X0150886Y0560630D03*
X0154430Y0564173D03*
G54D9501*
X0171555Y0118842D03*
X0186220Y0114173D03*
X0189665Y0134500D03*
Y0140500D03*
X0213681Y0140846D03*
X0220866D03*
Y0132283D03*
X0213681D03*
X0261220Y0136811D03*
X0261417Y0118898D03*
Y0112205D03*
G54D9502*
X0131496Y0139764D03*
Y0147638D03*
Y0155512D03*
X0498032Y0150787D03*
Y0142913D03*
Y0135039D03*
Y0158661D03*
Y0166535D03*
X0131496Y0163386D03*
Y0183071D03*
Y0190945D03*
Y0198819D03*
Y0206693D03*
Y0239370D03*
Y0247244D03*
Y0255118D03*
Y0274508D03*
Y0282382D03*
Y0290256D03*
Y0309547D03*
Y0317421D03*
Y0325295D03*
Y0344587D03*
Y0352461D03*
Y0360335D03*
X0313583Y0488583D03*
X0321457D03*
X0340945D03*
X0348819D03*
X0356693D03*
X0364567D03*
X0372441D03*
X0305709D03*
X0297835D03*
X0289961D03*
X0270472D03*
X0262598D03*
X0254724D03*
X0246850D03*
X0238976D03*
G54D9503*
X0313780Y0228740D03*
X0323780D03*
G54D9504*
X0434449Y0229016D03*
Y0239016D03*
X0444094Y0237500D03*
Y0245492D03*
Y0253484D03*
Y0261476D03*
Y0269468D03*
Y0277461D03*
X0434449Y0275945D03*
Y0285945D03*
G54D9505*
X0123228Y0133858D03*
X0506299Y0129134D03*
Y0172441D03*
X0123228Y0169291D03*
Y0177165D03*
Y0212598D03*
Y0233465D03*
Y0261024D03*
Y0268602D03*
Y0296161D03*
Y0303642D03*
Y0331201D03*
Y0338681D03*
Y0366240D03*
X0327362Y0496850D03*
X0335039D03*
X0378346D03*
X0284055D03*
X0276378D03*
X0233071D03*
G54D9506*
X0500591Y0225728D03*
Y0289232D03*
G54D9507*
X0113386Y0113386D03*
X0314961D03*
X0516535D03*
X0451043Y0555905D03*
X0159154D03*
G54D9508*
X0488110Y0232480D03*
Y0282480D03*
M02*