%FSDAX25Y25*%
%MOIN*%
%SFA1B1*%

%IPPOS*%
%ADD12R,0.039370X0.039370*%
%ADD13R,0.039370X0.039370*%
%ADD54C,0.009840*%
%ADD55C,0.019690*%
%ADD57C,0.011810*%
%ADD59C,0.005910*%
%ADD68C,0.236220*%
%ADD69C,0.062990*%
%ADD70C,0.157480*%
%ADD71C,0.094490*%
%ADD72C,0.055120*%
%ADD73C,0.039370*%
%ADD74R,0.059060X0.059060*%
%ADD75C,0.059060*%
%ADD76C,0.023620*%
%ADD77C,0.031500*%
%LNmcb2-1*%
%LPD*%
G54D12*
X0372441Y0488583D03*
X0321457D03*
X0270472D03*
G54D13*
X0131496Y0360335D03*
Y0325295D03*
Y0290256D03*
Y0255118D03*
X0498032Y0135039D03*
X0131496Y0206693D03*
Y0163386D03*
G54D54*
X0289764Y0331692D02*
Y0331890D01*
Y0331692D02*
X0298622Y0322834D01*
X0266142Y0303642D02*
Y0400295D01*
X0262402Y0299902D02*
X0266142Y0303642D01*
X0187697Y0228346D02*
X0210532Y0251181D01*
X0175098Y0211614D02*
X0212205Y0248721D01*
X0159646Y0383169D02*
X0231004Y0311811D01*
Y0302657D02*
Y0311811D01*
X0217421Y0277559D02*
Y0279626D01*
X0230709Y0292913*
X0235504*
X0236847Y0291571*
X0375984Y0274803D02*
X0379134D01*
X0382087Y0281693D02*
X0396063Y0295669D01*
Y0309449*
X0375984Y0271654D02*
X0379528D01*
X0331138Y0221689D02*
X0331314Y0221513D01*
X0472440Y0120866D02*
X0472441Y0120867D01*
X0294094Y0294193D02*
X0314862Y0273425D01*
X0314469Y0270276D02*
X0342815D01*
X0292913Y0291831D02*
X0314469Y0270276D01*
X0291929Y0289469D02*
X0314092Y0267306D01*
X0283268Y0291831D02*
X0292913D01*
X0275098Y0294193D02*
X0294094D01*
X0280512Y0286909D02*
X0291240D01*
X0313976Y0264173*
X0314862Y0273425D02*
X0340454D01*
X0340748Y0273131*
Y0273130D02*
Y0273131D01*
X0314092Y0267306D02*
X0341036D01*
X0341043Y0267314D02*
Y0267421D01*
X0341036Y0267306D02*
X0341043Y0267314D01*
X0313976Y0264173D02*
X0342224D01*
X0342815Y0264764*
X0450000Y0137318D02*
X0466452Y0120866D01*
X0471654*
X0305118Y0296457D02*
X0309027Y0300366D01*
X0331186*
X0381130Y0250422*
X0381158*
X0458465Y0173115*
Y0139764D02*
Y0173115D01*
Y0139764D02*
X0469488Y0128740D01*
X0455709Y0139173D02*
X0469291Y0125591D01*
X0475591*
X0305118Y0290551D02*
X0306693D01*
X0452854Y0138287D02*
X0467520Y0123622D01*
X0473622*
X0476378Y0120866*
Y0118504D02*
Y0120866D01*
X0357283Y0278642D02*
X0369094D01*
X0344488Y0291437D02*
X0357283Y0278642D01*
X0301020Y0316894D02*
X0310630Y0326504D01*
X0303108Y0314806D02*
Y0315641D01*
X0305196Y0312718D02*
X0315354Y0322877D01*
X0307283Y0310630D02*
Y0311465D01*
X0317717Y0321898*
X0317964Y0355850D02*
X0345621Y0383507D01*
X0315601Y0356828D02*
X0343951Y0385178D01*
X0310877Y0358785D02*
X0340610Y0388519D01*
X0315354Y0322877D02*
Y0356687D01*
X0310630Y0326504D02*
Y0358644D01*
X0317717Y0321898D02*
Y0355709D01*
X0304027Y0315641D02*
X0312992Y0324606D01*
Y0357666*
X0273425Y0290354D02*
X0279232Y0284547D01*
X0290157*
X0313386Y0261319*
X0341043*
X0356496Y0245866*
X0358366Y0243012D02*
X0359252Y0243898D01*
X0355610Y0243012D02*
X0358366D01*
X0342224Y0256398D02*
X0355610Y0243012D01*
X0314567Y0256398D02*
X0342224D01*
X0289075Y0281890D02*
X0314567Y0256398D01*
X0277067Y0281890D02*
X0289075D01*
X0267913Y0291043D02*
X0277067Y0281890D01*
X0354528Y0240354D02*
X0362500D01*
X0349705Y0245177D02*
X0354528Y0240354D01*
X0331004Y0245177D02*
X0349705D01*
X0322343Y0253839D02*
X0331004Y0245177D01*
X0313386Y0253839D02*
X0322343D01*
X0275689Y0279331D02*
X0287894D01*
X0270965Y0284055D02*
X0275689Y0279331D01*
X0287894D02*
X0313386Y0253839D01*
X0301280Y0296457D02*
X0307776Y0302953D01*
X0312402*
X0312500Y0302854*
X0312598Y0310827D02*
Y0312402D01*
X0320866Y0320669*
Y0334350*
X0260039Y0283169D02*
X0284055Y0259154D01*
X0257677Y0281693D02*
X0281102Y0258268D01*
X0265354Y0265551D02*
X0275197Y0255709D01*
X0256890Y0265551D02*
X0265354D01*
X0252461Y0269980D02*
X0256890Y0265551D01*
X0255020Y0275394D02*
X0257677Y0272736D01*
X0262500*
X0278149Y0257087*
X0280610Y0273425D02*
X0282382Y0275197D01*
X0273917Y0273425D02*
X0280610D01*
X0262402Y0284941D02*
X0273917Y0273425D01*
X0262402Y0284941D02*
Y0299902D01*
X0274606Y0276181D02*
X0277461D01*
X0264593Y0286194D02*
X0274606Y0276181D01*
X0264593Y0286194D02*
Y0298648D01*
X0279331Y0313386*
Y0330807*
X0282480Y0315453D02*
X0288287Y0309646D01*
X0285532Y0317028D02*
X0292603Y0309956D01*
X0282480Y0326673D02*
X0282579Y0326575D01*
X0285532Y0317028D02*
Y0323622D01*
X0143504Y0396654D02*
X0150886D01*
X0132087Y0408071D02*
X0143504Y0396654D01*
X0153150Y0389665D02*
X0159646Y0383169D01*
X0140157Y0389665D02*
X0153150D01*
X0131988Y0397835D02*
X0140157Y0389665D01*
X0212500Y0326476D02*
X0222736Y0316240D01*
X0194980Y0326476D02*
X0212500D01*
X0213189Y0321654D02*
X0222638Y0312205D01*
X0194980Y0321654D02*
X0213189D01*
X0239075Y0262500D02*
X0259350D01*
X0222736Y0278839D02*
X0239075Y0262500D01*
X0243307Y0298524D02*
X0246457Y0301673D01*
X0221161Y0298524D02*
X0243307D01*
X0210039Y0287402D02*
X0221161Y0298524D01*
X0210039Y0287205D02*
Y0287402D01*
X0245965Y0296161D02*
X0249606Y0299803D01*
X0225394Y0296161D02*
X0245965D01*
X0212795Y0283563D02*
X0225394Y0296161D01*
X0260039Y0283169D02*
Y0404232D01*
X0255020Y0275394D02*
Y0395768D01*
X0252461Y0269980D02*
Y0397835D01*
X0257677Y0281693D02*
Y0402756D01*
X0256004Y0404429D02*
X0257677Y0402756D01*
X0206004Y0358169D02*
X0241339Y0393504D01*
Y0423524*
X0243898Y0426083*
X0203248Y0360827D02*
X0238386Y0395965D01*
Y0425000*
X0242323Y0428937*
X0242520*
X0295389Y0309956D02*
X0295472Y0310039D01*
X0292603Y0309956D02*
X0295389D01*
X0305709Y0307677D02*
X0363090D01*
X0365157Y0305610*
X0285039Y0297244D02*
Y0297493D01*
D01*
X0306398Y0305217D02*
X0353346D01*
X0353543Y0305020*
X0298327Y0300295D02*
X0305709Y0307677D01*
X0298425Y0297244D02*
X0306398Y0305217D01*
X0287992Y0297244D02*
X0298425D01*
X0285039Y0297493D02*
X0287842Y0300295D01*
X0298327*
X0126181Y0244685D02*
X0131496Y0239370D01*
X0126181Y0244685D02*
Y0257087D01*
X0137795Y0268701*
X0180610*
X0150630Y0263622D02*
X0181339D01*
X0131496Y0247244D02*
X0134252D01*
X0150630Y0263622*
X0225846Y0508110D02*
X0243071D01*
X0230610Y0488583D02*
X0238976D01*
X0226181Y0493012D02*
X0230610Y0488583D01*
X0187598Y0493012D02*
X0226181D01*
X0242323Y0484055D02*
X0246850Y0488583D01*
X0229626Y0484055D02*
X0242323D01*
X0225886Y0487795D02*
X0229626Y0484055D01*
X0187500Y0487795D02*
X0225886D01*
X0340363Y0388377D02*
X0344685Y0392699D01*
Y0411417*
X0312992Y0357666D02*
X0347047Y0391721D01*
Y0403839*
X0343704Y0385036D02*
X0349606Y0390939D01*
Y0406398*
X0345621Y0383507D02*
X0352412Y0390299D01*
X0352165Y0390158D02*
Y0408957D01*
X0279331Y0330807D02*
X0341634Y0393110D01*
Y0394488*
X0325492Y0311122D02*
Y0360039D01*
X0325739Y0360181D02*
X0355070Y0389511D01*
X0305709Y0488583D02*
X0355807Y0438484D01*
X0431201*
X0361023Y0441142D02*
X0427165D01*
X0313583Y0488583D02*
X0361023Y0441142D01*
X0282480Y0326673D02*
D01*
Y0315453D02*
Y0326673D01*
X0469488Y0128740D02*
X0473622D01*
X0303108Y0315641D02*
X0304027D01*
X0277657Y0289469D02*
X0291929D01*
X0277756Y0289075D02*
Y0289764D01*
X0285039Y0297493D02*
D01*
X0343799Y0431988D02*
X0352953Y0422835D01*
X0421752*
X0430807Y0413779*
X0346162Y0434547D02*
X0355413Y0425295D01*
X0424311*
X0430807Y0418799*
X0351378Y0433366D02*
X0356201Y0428543D01*
X0426378*
X0431319Y0423602*
X0354724Y0434547D02*
X0425197D01*
X0431142Y0428602*
X0354823Y0389370D02*
Y0412501D01*
X0354724Y0412402D02*
X0354823Y0412501D01*
X0354724Y0411614D02*
Y0412402D01*
X0372146Y0408760D02*
X0417717D01*
X0362205Y0418701D02*
X0372146Y0408760D01*
X0351969Y0418701D02*
X0362205D01*
X0297835Y0472835D02*
X0351969Y0418701D01*
X0297835Y0472835D02*
Y0488583D01*
X0426279Y0413779D02*
X0426968D01*
X0295179Y0249311D02*
X0295192Y0249323D01*
X0320079Y0278740D02*
X0341535D01*
X0450000Y0170276*
Y0137318D02*
Y0170276D01*
X0255906Y0408366D02*
X0260039Y0404232D01*
X0175787Y0195669D02*
X0177756Y0197638D01*
X0173130Y0196353D02*
X0176778Y0200000D01*
X0272736*
X0175787Y0194291D02*
Y0195669D01*
Y0194291D02*
X0175984Y0194095D01*
X0173130Y0179232D02*
Y0196353D01*
X0282185Y0205273D02*
Y0206004D01*
X0278642Y0205906D02*
Y0206102D01*
X0272736Y0200000D02*
X0278642Y0205906D01*
X0177756Y0197638D02*
X0273819D01*
X0282185Y0206004*
X0179232Y0228346D02*
X0187697D01*
X0212205Y0248721D02*
X0256718D01*
X0289370Y0192815D02*
Y0202953D01*
X0266142Y0230118D02*
X0292421Y0203839D01*
Y0202362D02*
Y0203839D01*
X0306693Y0290551D02*
X0311811Y0295669D01*
X0328346*
X0376561Y0247455*
X0452854Y0171161*
Y0138287D02*
Y0171161D01*
X0305118Y0293504D02*
X0306102D01*
X0310728Y0298130*
X0329921*
X0379021Y0249030*
X0455709Y0172343*
Y0139173D02*
Y0172343D01*
X0381961Y0170866D02*
X0383070D01*
X0331314Y0221513D02*
X0381961Y0170866D01*
X0338386Y0228740D02*
X0379626Y0187500D01*
X0391169Y0171654D02*
X0396457D01*
X0336139Y0226684D02*
X0391169Y0171654D01*
X0388878Y0168898D02*
X0392913D01*
X0333563Y0224213D02*
X0388878Y0168898D01*
X0310531Y0146457D02*
X0337205D01*
X0306594Y0142520D02*
X0310531Y0146457D01*
X0303051Y0142520D02*
X0306594D01*
X0302756Y0158858D02*
X0305413Y0156201D01*
X0302756Y0158858D02*
Y0243209D01*
X0298031Y0247933D02*
X0302756Y0243209D01*
X0300295Y0155905D02*
X0305315Y0150886D01*
X0300295Y0155905D02*
Y0241156D01*
X0295192Y0246260D02*
X0300295Y0241156D01*
X0295192Y0246260D02*
Y0249323D01*
X0297835Y0152756D02*
X0304429Y0146161D01*
X0297835Y0152756D02*
Y0239567D01*
X0292224Y0245177D02*
X0297835Y0239567D01*
X0292224Y0245177D02*
Y0248327D01*
X0295374Y0150197D02*
X0303051Y0142520D01*
X0295374Y0150197D02*
Y0205916D01*
X0279134Y0222156D02*
X0295374Y0205916D01*
X0279134Y0222156D02*
Y0222441D01*
X0262894Y0229429D02*
X0289370Y0202953D01*
X0262894Y0229429D02*
Y0249311D01*
X0195374Y0248622D02*
X0206102Y0259350D01*
X0265256*
X0271654Y0252953*
X0285335*
X0287205Y0254823*
X0287697*
X0195886Y0243622D02*
X0208858Y0256594D01*
X0263976*
X0270276Y0250295*
X0287205*
X0292028Y0255118*
Y0257677*
X0263090Y0253248D02*
X0263976D01*
X0256718Y0248721D02*
X0257198Y0248240D01*
X0210532Y0251181D02*
X0257185D01*
X0257972Y0251969*
X0262894Y0253248D02*
X0263976D01*
X0260039Y0250394D02*
X0262894Y0253248D01*
X0260039Y0246555D02*
Y0250394D01*
X0235433Y0221949D02*
X0260039Y0246555D01*
X0235433Y0218799D02*
Y0221949D01*
X0286319Y0235138D02*
X0289862Y0231594D01*
Y0219882D02*
Y0231594D01*
Y0219882D02*
X0294980Y0214764D01*
X0381169D02*
X0414043Y0181890D01*
X0282480Y0222736D02*
Y0235433D01*
Y0222736D02*
X0294291Y0210925D01*
X0336319Y0210827D02*
X0342618Y0204528D01*
Y0110039D02*
Y0204528D01*
X0339075Y0106496D02*
X0342618Y0110039D01*
X0336319Y0106496D02*
X0339075D01*
X0379134Y0274803D02*
X0394605Y0290274D01*
X0398917Y0294587*
Y0309444*
X0399035Y0309562*
X0379528Y0271654D02*
X0401870Y0293996D01*
Y0309051D02*
X0402086Y0309267D01*
X0401870Y0293996D02*
Y0309051D01*
X0434449Y0239016D02*
Y0254724D01*
X0419469Y0285945D02*
X0434449D01*
X0406102Y0283071D02*
X0434449Y0254724D01*
X0406102Y0283071D02*
Y0310531D01*
X0403543Y0313090D02*
X0406102Y0310531D01*
X0394193Y0313090D02*
X0403543D01*
X0392028Y0309252D02*
Y0310925D01*
X0394193Y0313090*
X0408957Y0296457D02*
X0419469Y0285945D01*
X0408957Y0296457D02*
Y0311516D01*
X0405118Y0315354D02*
X0408957Y0311516D01*
X0382382Y0315354D02*
X0405118D01*
X0375492Y0308465D02*
X0382382Y0315354D01*
X0363189Y0235630D02*
X0365960Y0238401D01*
X0306594Y0235630D02*
X0306791Y0235827D01*
X0306594Y0235630D02*
X0363189D01*
X0266142Y0230118D02*
Y0251083D01*
X0289961Y0475492D02*
Y0488583D01*
Y0475492D02*
X0349409Y0416043D01*
X0360335*
X0370571Y0405807*
X0419587*
X0427264Y0413484*
X0163004Y0389063D02*
X0236909Y0315158D01*
Y0302657D02*
Y0315158D01*
X0150886Y0396654D02*
X0233858Y0313681D01*
X0162726Y0389063D02*
X0163004D01*
X0162697Y0389092D02*
Y0389272D01*
Y0389092D02*
X0162726Y0389063D01*
X0233858Y0302657D02*
Y0313681D01*
X0159547Y0396752D02*
X0239272Y0317028D01*
X0239862Y0302657D02*
Y0316437D01*
X0239272Y0317028D02*
X0239862Y0316437D01*
G54D55*
X0126378Y0190945D02*
X0131496D01*
X0115748Y0180315D02*
X0126378Y0190945D01*
X0115748Y0163386D02*
Y0180315D01*
Y0163386D02*
X0131496Y0147638D01*
G54D57*
X0157283Y0317421D02*
X0176969Y0337106D01*
X0131496Y0317421D02*
X0157283D01*
X0154134Y0309547D02*
X0181220Y0336634D01*
X0131496Y0309547D02*
X0154134D01*
X0131496Y0352461D02*
X0132382Y0351575D01*
X0372047Y0268504D02*
X0375591Y0264961D01*
X0201969Y0118898D02*
X0261417D01*
X0197244Y0114173D02*
X0201969Y0118898D01*
X0186220Y0114173D02*
X0197244D01*
X0412992Y0495768D02*
X0417618Y0491142D01*
Y0482677D02*
Y0491142D01*
X0414665Y0479724D02*
X0417618Y0482677D01*
X0349803Y0479724D02*
X0414665D01*
X0340945Y0488583D02*
X0349803Y0479724D01*
X0409744Y0482579D02*
X0413091Y0485925D01*
X0354823Y0482579D02*
X0409744D01*
X0348819Y0488583D02*
X0354823Y0482579D01*
X0371673Y0513701D02*
X0430236D01*
X0356693Y0498721D02*
X0371673Y0513701D01*
X0356693Y0488583D02*
Y0498721D01*
X0375827Y0508701D02*
X0430177D01*
X0364567Y0497441D02*
X0375827Y0508701D01*
X0364567Y0488583D02*
Y0497441D01*
X0172835Y0127559D02*
X0186220Y0114173D01*
X0172835Y0127559D02*
Y0136909D01*
G54D59*
X0267520Y0204232D02*
Y0210039D01*
G54D68*
X0516535Y0113386D03*
X0451043Y0555905D03*
X0113386Y0113386D03*
X0314961D03*
X0159154Y0555905D03*
G54D69*
X0434449Y0229016D03*
Y0239016D03*
Y0275945D03*
Y0285945D03*
X0444094Y0237500D03*
Y0245492D03*
Y0253484D03*
Y0261476D03*
Y0269468D03*
Y0277461D03*
G54D70*
X0488110Y0282480D03*
Y0232480D03*
G54D71*
X0500591Y0289232D03*
Y0225728D03*
G54D72*
X0123228Y0366240D03*
Y0338681D03*
Y0303642D03*
Y0331201D03*
Y0296161D03*
Y0268602D03*
Y0233465D03*
Y0261024D03*
X0335039Y0496850D03*
X0378346D03*
X0327362D03*
X0284055D03*
X0233071D03*
X0276378D03*
X0506299Y0129134D03*
Y0172441D03*
X0123228Y0177165D03*
Y0212598D03*
Y0169291D03*
Y0133858D03*
G54D73*
X0131496Y0352461D03*
Y0344587D03*
Y0309547D03*
Y0317421D03*
Y0282382D03*
Y0274508D03*
Y0239370D03*
Y0247244D03*
X0340945Y0488583D03*
X0348819D03*
X0356693D03*
X0364567D03*
X0313583D03*
X0305709D03*
X0297835D03*
X0289961D03*
X0238976D03*
X0246850D03*
X0254724D03*
X0262598D03*
X0498032Y0142913D03*
Y0150787D03*
Y0158661D03*
Y0166535D03*
X0131496Y0183071D03*
Y0190945D03*
Y0198819D03*
Y0155512D03*
Y0147638D03*
Y0139764D03*
G54D74*
X0313780Y0228740D03*
G54D75*
X0323780Y0228740D03*
G54D76*
X0289764Y0331890D03*
X0298622Y0322834D03*
X0231004Y0302657D03*
X0233957D03*
X0236909D03*
X0239862D03*
X0217421Y0277559D03*
X0159744Y0309055D03*
X0176969Y0337106D03*
X0181220Y0336634D03*
X0236847Y0291571D03*
X0353543Y0305020D03*
X0174409Y0172835D03*
X0195866Y0189764D03*
Y0183661D03*
X0286614Y0226378D03*
X0292913D03*
X0480315Y0148032D03*
Y0154331D03*
X0516142Y0182284D03*
X0191339Y0154134D03*
X0191437Y0120669D03*
Y0147146D03*
Y0127953D03*
X0128346Y0118898D03*
X0145669Y0102756D03*
X0154331Y0105118D03*
Y0111024D03*
X0443701Y0523701D03*
Y0518701D03*
X0409055Y0486221D03*
X0356102Y0259646D03*
X0327559Y0259055D03*
Y0252756D03*
Y0286220D03*
Y0292520D03*
X0331102Y0275984D03*
X0382087Y0281693D03*
X0395571Y0309350D03*
X0387426Y0274778D03*
X0375591Y0264961D03*
X0375984Y0274803D03*
X0375197Y0271654D03*
X0384646Y0298032D03*
X0375591Y0261024D03*
X0354724Y0290944D03*
X0341732Y0248425D03*
X0305118Y0290551D03*
Y0293504D03*
Y0296457D03*
X0320079Y0278740D03*
X0473228Y0128740D03*
X0475591Y0125591D03*
X0476378Y0118504D03*
X0472440Y0120866D03*
X0388189Y0187795D03*
X0404331D03*
X0396457Y0171654D03*
X0392913Y0168898D03*
X0383070Y0170866D03*
X0267618Y0210138D03*
X0267520Y0204232D03*
X0230807Y0246063D03*
X0262992Y0316339D03*
X0269291D03*
X0288583Y0317815D03*
X0294882D03*
X0146850Y0407874D03*
Y0400394D03*
Y0392913D03*
Y0385433D03*
Y0377953D03*
X0257776Y0276772D03*
X0257775Y0268898D03*
X0237402Y0277461D03*
X0243701D03*
X0237402Y0270374D03*
X0243701D03*
X0285039Y0297244D03*
X0287992D03*
X0365157Y0305610D03*
X0277756Y0289764D03*
X0283268Y0291831D03*
X0275098Y0294193D03*
X0280512Y0286909D03*
X0342815Y0270276D03*
X0340748Y0273130D03*
X0341043Y0267421D03*
X0342815Y0264764D03*
X0333366Y0285925D03*
X0369094Y0278642D03*
X0344488Y0291437D03*
X0307283Y0310630D03*
X0305196Y0312718D03*
X0303108Y0314806D03*
X0301020Y0316894D03*
X0273425Y0290354D03*
X0356496Y0245866D03*
X0359252Y0243898D03*
X0267913Y0291043D03*
X0362500Y0240354D03*
X0270965Y0284055D03*
X0301280Y0296457D03*
X0312500Y0302854D03*
X0312598Y0310827D03*
X0320866Y0334350D03*
X0412992Y0495768D03*
X0413091Y0485925D03*
X0430236Y0513701D03*
X0430177Y0508701D03*
X0474016Y0174803D03*
X0277461Y0276181D03*
X0282382Y0275197D03*
X0288287Y0309646D03*
X0282579Y0326575D03*
X0285532Y0323622D03*
X0214370Y0411713D03*
Y0427067D03*
X0244882Y0413189D03*
X0245276Y0397539D03*
X0291437Y0400787D03*
X0232283Y0435532D03*
X0132087Y0408071D03*
X0131988Y0397835D03*
X0159547Y0396752D03*
X0178248Y0389567D03*
Y0397638D03*
X0177067Y0404232D03*
X0222736Y0316240D03*
X0194980Y0326476D03*
X0222638Y0312205D03*
X0194980Y0321654D03*
X0259350Y0262500D03*
X0222736Y0278839D03*
X0246457Y0301673D03*
X0210039Y0287205D03*
X0249606Y0299803D03*
X0212795Y0283563D03*
X0163681Y0288681D03*
X0159449Y0241339D03*
X0163779Y0356693D03*
X0198425Y0336811D03*
X0188484Y0350197D03*
X0255807Y0408268D03*
X0255020Y0395768D03*
X0252461Y0397835D03*
X0256004Y0404429D03*
X0206004Y0358169D03*
X0243898Y0426083D03*
X0203248Y0360827D03*
X0242520Y0428937D03*
X0307776Y0422736D03*
Y0408071D03*
X0278445Y0418504D03*
X0295472Y0310039D03*
X0266437Y0400591D03*
X0202559Y0278839D03*
Y0272539D03*
X0181339Y0263622D03*
X0180610Y0268701D03*
X0174114Y0533169D03*
X0211713Y0524114D03*
Y0517815D03*
X0169685Y0486024D03*
X0225846Y0508110D03*
X0243071D03*
X0187598Y0493012D03*
X0187500Y0487795D03*
X0380118Y0401280D03*
X0333284Y0412815D03*
X0333858Y0397736D03*
X0367421Y0418406D03*
X0344685Y0411417D03*
X0347047Y0403839D03*
X0349606Y0406398D03*
X0352165Y0408957D03*
X0341634Y0394488D03*
X0325492Y0311122D03*
X0413287Y0459350D03*
X0409055Y0412500D03*
X0431201Y0438484D03*
X0427165Y0441142D03*
X0343799Y0431988D03*
X0430807Y0413779D03*
X0346162Y0434547D03*
X0430807Y0418799D03*
X0351378Y0433366D03*
X0431319Y0423602D03*
X0354724Y0434547D03*
X0431142Y0428602D03*
X0354724Y0411614D03*
X0417717Y0408760D03*
X0426968Y0413779D03*
X0255807Y0237598D03*
X0239764Y0237795D03*
X0252362Y0233071D03*
X0275591Y0228543D03*
X0235531Y0211221D03*
X0338114Y0167248D03*
X0337795Y0178740D03*
X0336516Y0153248D03*
X0327461Y0143012D03*
X0338189Y0139370D03*
X0304429Y0146161D03*
X0305315Y0150886D03*
X0292224Y0248327D03*
X0295192Y0249323D03*
X0322520Y0141063D03*
X0298031Y0247933D03*
X0305413Y0156201D03*
X0275197Y0255610D03*
X0278149Y0257087D03*
X0281299Y0257972D03*
X0284350Y0259154D03*
X0175984Y0194095D03*
X0173130Y0179232D03*
X0282185Y0206004D03*
X0278642Y0206102D03*
X0335827Y0112205D03*
X0162008Y0220177D03*
X0193996Y0216437D03*
Y0223819D03*
X0169396Y0220085D03*
X0195886Y0243622D03*
X0486811Y0211024D03*
X0179232Y0228346D03*
X0175098Y0211614D03*
X0195374Y0248622D03*
X0287697Y0254823D03*
X0292028Y0257677D03*
X0289370Y0192815D03*
X0292421Y0202362D03*
X0338386Y0228740D03*
X0379626Y0187500D03*
X0336139Y0226684D03*
X0331138Y0221689D03*
X0333563Y0224213D03*
X0337205Y0146457D03*
X0279134Y0222441D03*
X0414075Y0188189D03*
X0235433Y0218799D03*
X0262894Y0249311D03*
X0263976Y0253248D03*
X0257198Y0248240D03*
X0257972Y0251969D03*
X0286319Y0235138D03*
X0294980Y0214764D03*
X0381169D03*
X0414043Y0181890D03*
X0282480Y0235433D03*
X0294291Y0210925D03*
X0336319Y0210827D03*
Y0106496D03*
X0411417Y0258477D03*
X0407480Y0240059D03*
X0424606Y0258268D03*
X0421063Y0240244D03*
X0432677Y0217126D03*
X0422244Y0292618D03*
X0425197Y0282087D03*
X0367815Y0320472D03*
X0396063Y0324902D03*
X0404724Y0325984D03*
X0398819Y0309350D03*
X0402165Y0309252D03*
X0372047Y0269685D03*
X0392028Y0309252D03*
X0375492Y0308465D03*
X0444587Y0220079D03*
X0365960Y0238401D03*
X0306791Y0235827D03*
X0351575Y0230315D03*
X0494193Y0187402D03*
X0379546Y0236429D03*
X0372441Y0236417D03*
X0379528Y0222933D03*
X0372441D03*
X0103543Y0228445D03*
X0113484Y0219291D03*
X0172835Y0136909D03*
X0266142Y0251083D03*
X0213189Y0266831D03*
X0323031Y0246850D03*
X0346457Y0248031D03*
X0328051Y0319193D03*
X0328642Y0347441D03*
X0333465Y0347539D03*
X0357382Y0296260D03*
X0356496Y0301181D03*
X0401378Y0274114D03*
X0402264Y0268012D03*
X0442028Y0164961D03*
X0437992Y0117618D03*
X0422539Y0137992D03*
X0111122Y0382874D03*
X0111024Y0398031D03*
Y0402854D03*
X0158661Y0424311D03*
X0180807Y0436614D03*
X0180709Y0443504D03*
Y0450295D03*
X0180512Y0457284D03*
X0235925Y0404035D03*
X0324902Y0404134D03*
X0412992Y0534941D03*
X0451772Y0450394D03*
Y0444095D03*
X0503051Y0203248D03*
X0162697Y0389272D03*
X0154430Y0564173D03*
X0150886Y0560630D03*
X0149705Y0555905D03*
X0150886Y0551181D03*
X0154430Y0547638D03*
X0159154Y0546457D03*
X0163879Y0547638D03*
X0167422Y0551181D03*
X0168603Y0555905D03*
X0167422Y0560630D03*
X0163879Y0564173D03*
X0159154Y0565354D03*
X0446319Y0564173D03*
X0442775Y0560630D03*
X0441594Y0555905D03*
X0442775Y0551181D03*
X0446319Y0547638D03*
X0451043Y0546457D03*
X0455767Y0547638D03*
X0459311Y0551181D03*
X0460492Y0555905D03*
X0459311Y0560630D03*
X0455767Y0564173D03*
X0451043Y0565354D03*
X0511811Y0121653D03*
X0508268Y0118110D03*
X0507087Y0113386D03*
X0508268Y0108661D03*
X0511811Y0105118D03*
X0516535Y0103937D03*
X0521260Y0105118D03*
X0524803Y0108661D03*
X0525984Y0113386D03*
X0524803Y0118110D03*
X0521260Y0121653D03*
X0516535Y0122835D03*
X0310236Y0121653D03*
X0306693Y0118110D03*
X0305512Y0113386D03*
X0306693Y0108661D03*
X0310236Y0105118D03*
X0314961Y0103937D03*
X0319685Y0105118D03*
X0323228Y0108661D03*
X0324409Y0113386D03*
X0323228Y0118110D03*
X0319685Y0121653D03*
X0314961Y0122835D03*
X0108661Y0121653D03*
X0105118Y0118110D03*
X0103937Y0113386D03*
X0105118Y0108661D03*
X0108661Y0105118D03*
X0113386Y0103937D03*
X0118110Y0105118D03*
X0121653Y0108661D03*
X0122835Y0113386D03*
X0121653Y0118110D03*
X0118110Y0121653D03*
X0113386Y0122835D03*
G54D77*
X0189665Y0140500D03*
Y0134500D03*
X0171555Y0118842D03*
X0220866Y0132283D03*
X0213681D03*
Y0140846D03*
X0261417Y0112205D03*
Y0118898D03*
X0220866Y0140846D03*
X0186220Y0114173D03*
X0261220Y0136811D03*
M02*