%FSDAX25Y25*%
%MOIN*%
%SFA1B1*%

%IPPOS*%
%ADD10O,0.066930X0.013780*%
%ADD11O,0.086610X0.023620*%
%ADD12R,0.039370X0.039370*%
%ADD13R,0.039370X0.039370*%
%ADD14R,0.031500X0.031500*%
%ADD15R,0.039370X0.037400*%
%ADD16R,0.031500X0.031500*%
%ADD17R,0.043310X0.027560*%
%ADD18R,0.078740X0.062990*%
%ADD19R,0.037400X0.039370*%
%ADD20R,0.043310X0.023620*%
%ADD21R,0.137800X0.090550*%
%ADD22R,0.047240X0.055120*%
%ADD23R,0.055120X0.023620*%
%ADD24R,0.045280X0.055120*%
%ADD25R,0.094490X0.066930*%
%ADD26R,0.047240X0.047240*%
%ADD27R,0.066930X0.086610*%
%ADD28R,0.061020X0.082680*%
%ADD29R,0.061020X0.110240*%
%ADD30R,0.031500X0.070870*%
%ADD31R,0.062990X0.061020*%
%ADD32R,0.066930X0.133860*%
%ADD33R,0.066930X0.141730*%
%ADD34R,0.047240X0.027560*%
%ADD35O,0.011810X0.070870*%
%ADD36O,0.070870X0.011810*%
%ADD37R,0.074800X0.093500*%
%ADD38R,0.074800X0.046260*%
%ADD39R,0.082680X0.058070*%
%ADD40R,0.054330X0.017720*%
%ADD41R,0.041340X0.053150*%
%ADD42R,0.025590X0.053150*%
%ADD43R,0.078740X0.031500*%
%ADD44R,0.059060X0.049210*%
%ADD45R,0.098430X0.078740*%
%ADD46R,0.116140X0.232280*%
%ADD47R,0.074800X0.129920*%
%ADD48O,0.062990X0.011810*%
%ADD49R,0.110240X0.039370*%
%ADD50R,0.039370X0.051180*%
%ADD51R,0.051180X0.039370*%
%ADD52R,0.059060X0.039370*%
%ADD53R,0.035430X0.039370*%
%ADD54C,0.009840*%
%ADD55C,0.019690*%
%ADD56C,0.039370*%
%ADD57C,0.011810*%
%ADD58C,0.062990*%
%ADD59C,0.005910*%
%ADD60C,0.023620*%
%ADD61C,0.015750*%
%ADD62R,0.194880X0.188970*%
%ADD63R,0.078740X0.161420*%
%ADD64R,0.040350X0.031500*%
%ADD65R,0.108270X0.051180*%
%ADD66R,0.062990X0.051180*%
%ADD67R,0.185040X0.078740*%
%ADD68C,0.236220*%
%ADD69C,0.062990*%
%ADD70C,0.157480*%
%ADD71C,0.094490*%
%ADD72C,0.055120*%
%ADD73C,0.039370*%
%ADD74R,0.059060X0.059060*%
%ADD75C,0.059060*%
%ADD76C,0.023620*%
%ADD77C,0.031500*%
%LNmcb2-1*%
%LPD*%
G36*
X0284055Y0139075D02*
X0285236D01*
Y0133957*
X0281299*
Y0143012*
X0284055*
Y0139075*
G37*
G36*
X0198425Y0145594D02*
X0195177D01*
X0194716Y0145502*
X0194326Y0145241*
X0194065Y0144851*
X0194012Y0144585*
X0193996Y0144587*
X0190157*
Y0137499*
Y0130413*
X0193947*
Y0125787*
X0193964Y0125748*
Y0114370*
X0188389*
X0188260Y0115018*
X0187826Y0115668*
Y0116634*
X0188779*
Y0121752*
X0183661*
Y0116634*
X0184615*
Y0115668*
X0184181Y0115018*
X0184052Y0114370*
X0163779*
Y0160827*
X0198425*
Y0145594*
G37*
G36*
X0215453Y0128051D02*
X0212303D01*
X0204823Y0135433*
Y0139173*
X0210630Y0144980*
X0215453*
Y0128051*
G37*
G36*
X0261221Y0126324D02*
X0261713D01*
Y0123272*
X0264142*
X0264172Y0113838*
X0263819Y0113484*
X0263167*
X0262979Y0113766*
X0262262Y0114244*
X0261910Y0114315*
Y0112204*
X0260925*
Y0114315*
X0260573Y0114244*
X0259856Y0113766*
X0259668Y0113484*
X0256890*
Y0114469*
X0250491*
Y0115453*
X0256890*
Y0126225*
X0257158Y0126772*
X0257677*
Y0126815*
X0261221*
Y0126324*
G37*
G36*
X0212598Y0126575D02*
Y0121457D01*
X0204823*
Y0131201*
X0202067Y0133957*
X0195374*
Y0135138*
X0204035*
X0212598Y0126575*
G37*
%LNmcb2-2*%
%LPC*%
G36*
X0261910Y0121008D02*
Y0119390D01*
X0263527*
X0263457Y0119743*
X0262979Y0120459*
X0262262Y0120937*
X0261910Y0121008*
G37*
G36*
X0179823Y0121752D02*
X0177756D01*
Y0119685*
X0179823*
Y0121752*
G37*
G36*
X0172047Y0120952D02*
Y0119334D01*
X0173665*
X0173595Y0119687*
X0173116Y0120403*
X0172400Y0120882*
X0172047Y0120952*
G37*
G36*
X0260925Y0121008D02*
X0260573Y0120937D01*
X0259856Y0120459*
X0259378Y0119743*
X0259308Y0119390*
X0260925*
Y0121008*
G37*
G36*
X0182874Y0121752D02*
X0180807D01*
Y0119685*
X0182874*
Y0121752*
G37*
G36*
X0190847Y0155842D02*
X0190647Y0155803D01*
X0190061Y0155411*
X0189670Y0154825*
X0189630Y0154626*
X0190847*
Y0155842*
G37*
G36*
X0260728Y0125831D02*
X0257677D01*
Y0123272*
X0260728*
Y0125831*
G37*
G36*
X0190945Y0122378D02*
X0190746Y0122338D01*
X0190160Y0121947*
X0189768Y0121361*
X0189728Y0121161*
X0190945*
Y0122378*
G37*
G36*
X0191929D02*
Y0121161D01*
X0193146*
X0193106Y0121361*
X0192714Y0121947*
X0192128Y0122338*
X0191929Y0122378*
G37*
G36*
X0171063Y0120952D02*
X0170710Y0120882D01*
X0169994Y0120403*
X0169516Y0119687*
X0169445Y0119334*
X0171063*
Y0120952*
G37*
G36*
X0182874Y0118701D02*
X0180807D01*
Y0116634*
X0182874*
Y0118701*
G37*
G36*
X0171063Y0118350D02*
X0169445D01*
X0169516Y0117997*
X0169994Y0117281*
X0170710Y0116803*
X0171063Y0116732*
Y0118350*
G37*
G36*
X0191831Y0155842D02*
Y0154626D01*
X0193047*
X0193008Y0154825*
X0192616Y0155411*
X0192030Y0155803*
X0191831Y0155842*
G37*
G36*
X0179823Y0118701D02*
X0177756D01*
Y0116634*
X0179823*
Y0118701*
G37*
G36*
X0173665Y0118350D02*
X0172047D01*
Y0116732*
X0172400Y0116803*
X0173116Y0117281*
X0173595Y0117997*
X0173665Y0118350*
G37*
G36*
X0190945Y0120177D02*
X0189728D01*
X0189768Y0119978*
X0190160Y0119392*
X0190746Y0119000*
X0190945Y0118961*
Y0120177*
G37*
G36*
X0193146D02*
X0191929D01*
Y0118961*
X0192128Y0119000*
X0192714Y0119392*
X0193106Y0119978*
X0193146Y0120177*
G37*
G36*
X0260925Y0118405D02*
X0259308D01*
X0259378Y0118053*
X0259856Y0117336*
X0260573Y0116858*
X0260925Y0116788*
Y0118405*
G37*
G36*
X0263527D02*
X0261910D01*
Y0116788*
X0262262Y0116858*
X0262979Y0117336*
X0263457Y0118053*
X0263527Y0118405*
G37*
G36*
X0167618Y0145079D02*
X0165551D01*
Y0143012*
X0167618*
Y0145079*
G37*
G36*
X0170669D02*
X0168602D01*
Y0143012*
X0170669*
Y0145079*
G37*
G36*
X0167618Y0142028D02*
X0165551D01*
Y0139961*
X0167618*
Y0142028*
G37*
G36*
X0170669D02*
X0168602D01*
Y0139961*
X0170669*
Y0142028*
G37*
G36*
X0184154Y0145594D02*
X0179035D01*
X0178575Y0145502*
X0178184Y0145241*
X0177923Y0144851*
X0177831Y0144390*
X0177923Y0143929*
X0177409Y0143586*
X0176969Y0143822*
Y0145079*
X0171850*
Y0139961*
X0176969*
Y0141021*
X0177409Y0141257*
X0177923Y0140914*
X0177831Y0140453*
X0177923Y0139992*
X0178184Y0139601*
Y0139336*
X0177944Y0138976*
X0181596*
Y0137992*
X0177944*
X0177923Y0138023*
X0177906Y0138106*
X0177589Y0137720*
X0174424*
X0174112Y0138187*
X0173526Y0138578*
X0172835Y0138716*
X0172143Y0138578*
X0171557Y0138187*
X0171166Y0137601*
X0171028Y0136909*
X0171166Y0136218*
X0171557Y0135632*
X0172143Y0135241*
X0172835Y0135103*
X0173526Y0135241*
X0173632Y0135312*
X0177589*
X0177906Y0134925*
X0177923Y0135008*
X0177944Y0135039*
X0181596*
Y0134055*
X0177944*
X0177923Y0134086*
X0177319Y0133683*
X0176969*
Y0133760*
X0171850*
Y0128839*
X0176969*
Y0131178*
X0177409Y0131414*
X0177923Y0131071*
X0177831Y0130610*
X0177923Y0130149*
X0178184Y0129759*
X0178575Y0129498*
X0179035Y0129406*
X0180491*
Y0128051*
X0177756*
Y0122933*
X0182874*
Y0124388*
X0183661*
Y0122933*
X0188779*
Y0128051*
X0183661*
Y0126596*
X0182874*
Y0128051*
X0182699*
Y0129406*
X0184154*
X0184615Y0129498*
X0185005Y0129759*
X0185266Y0130149*
X0185319Y0130415*
X0185335Y0130413*
X0189173*
Y0137499*
Y0144587*
X0185335*
X0185319Y0144585*
X0185266Y0144851*
X0185005Y0145241*
X0184615Y0145502*
X0184154Y0145594*
G37*
G36*
X0193146Y0146653D02*
X0191929D01*
Y0145437*
X0192128Y0145477*
X0192714Y0145868*
X0193106Y0146454*
X0193146Y0146653*
G37*
G36*
X0190945Y0148854D02*
X0190746Y0148814D01*
X0190160Y0148423*
X0189768Y0147837*
X0189728Y0147638*
X0190945*
Y0148854*
G37*
G36*
X0191929D02*
Y0147638D01*
X0193146*
X0193106Y0147837*
X0192714Y0148423*
X0192128Y0148814*
X0191929Y0148854*
G37*
G36*
X0190945Y0146653D02*
X0189728D01*
X0189768Y0146454*
X0190160Y0145868*
X0190746Y0145477*
X0190945Y0145437*
Y0146653*
G37*
G36*
X0190847Y0153642D02*
X0189630D01*
X0189670Y0153443*
X0190061Y0152857*
X0190647Y0152465*
X0190847Y0152425*
Y0153642*
G37*
G36*
X0193047D02*
X0191831D01*
Y0152425*
X0192030Y0152465*
X0192616Y0152857*
X0193008Y0153443*
X0193047Y0153642*
G37*
G36*
X0190945Y0129661D02*
X0190746Y0129622D01*
X0190160Y0129230*
X0189768Y0128644*
X0189728Y0128445*
X0190945*
Y0129661*
G37*
G36*
Y0127461D02*
X0189728D01*
X0189768Y0127261*
X0190160Y0126675*
X0190746Y0126284*
X0190945Y0126244*
Y0127461*
G37*
G36*
X0193146D02*
X0191929D01*
Y0126244*
X0192128Y0126284*
X0192714Y0126675*
X0193106Y0127261*
X0193146Y0127461*
G37*
G36*
X0191929Y0129661D02*
Y0128445D01*
X0193146*
X0193106Y0128644*
X0192714Y0129230*
X0192128Y0129622*
X0191929Y0129661*
G37*
G36*
X0167618Y0133760D02*
X0165551D01*
Y0131791*
X0167618*
Y0133760*
G37*
G36*
X0170669D02*
X0168602D01*
Y0131791*
X0170669*
Y0133760*
G37*
G36*
X0167618Y0130807D02*
X0165551D01*
Y0128839*
X0167618*
Y0130807*
G37*
G36*
X0170669D02*
X0168602D01*
Y0128839*
X0170669*
Y0130807*
G37*
%LNmcb2-3*%
%LPD*%
G54D10*
X0338779Y0434547D03*
Y0431988D03*
Y0429429D03*
Y0426870D03*
Y0424311D03*
Y0421752D03*
Y0419193D03*
Y0416634D03*
Y0414075D03*
Y0411516D03*
Y0408957D03*
Y0406398D03*
Y0403839D03*
Y0401280D03*
X0361220Y0434547D03*
Y0431988D03*
Y0429429D03*
Y0426870D03*
Y0424311D03*
Y0421752D03*
Y0419193D03*
Y0416634D03*
Y0414075D03*
Y0411516D03*
Y0408957D03*
Y0406398D03*
Y0403839D03*
Y0401280D03*
X0250000Y0433858D03*
Y0431299D03*
Y0428740D03*
Y0426181D03*
Y0423622D03*
Y0421063D03*
Y0418504D03*
Y0415945D03*
Y0413386D03*
Y0410827D03*
Y0408268D03*
Y0405709D03*
Y0403150D03*
Y0400591D03*
X0272441Y0433858D03*
Y0431299D03*
Y0428740D03*
Y0426181D03*
Y0423622D03*
Y0421063D03*
Y0418504D03*
Y0415945D03*
Y0413386D03*
Y0410827D03*
Y0408268D03*
Y0405709D03*
Y0403150D03*
Y0400591D03*
G54D11*
X0183957Y0179114D03*
Y0184114D03*
Y0189114D03*
Y0194114D03*
X0164862Y0179114D03*
Y0184114D03*
Y0189114D03*
Y0194114D03*
X0169685Y0278622D03*
Y0273622D03*
Y0268622D03*
Y0263622D03*
Y0258622D03*
Y0253622D03*
Y0248622D03*
Y0243622D03*
X0188583Y0278622D03*
Y0273622D03*
Y0268622D03*
Y0263622D03*
Y0258622D03*
Y0253622D03*
Y0248622D03*
Y0243622D03*
X0418898Y0523701D03*
Y0518701D03*
Y0513701D03*
Y0508701D03*
Y0503701D03*
Y0498701D03*
Y0493701D03*
Y0488701D03*
X0437795Y0523701D03*
Y0518701D03*
Y0513701D03*
Y0508701D03*
Y0503701D03*
Y0498701D03*
Y0493701D03*
Y0488701D03*
X0169587Y0346634D03*
Y0341634D03*
Y0336634D03*
Y0331634D03*
Y0326634D03*
Y0321634D03*
Y0316634D03*
Y0311634D03*
X0188484Y0346634D03*
Y0341634D03*
Y0336634D03*
Y0331634D03*
Y0326634D03*
Y0321634D03*
Y0316634D03*
Y0311634D03*
X0179528Y0523110D03*
Y0518110D03*
Y0513110D03*
Y0508110D03*
Y0503110D03*
Y0498110D03*
Y0493110D03*
Y0488110D03*
X0198425Y0523110D03*
Y0518110D03*
Y0513110D03*
Y0508110D03*
Y0503110D03*
Y0498110D03*
Y0493110D03*
Y0488110D03*
X0419193Y0448602D03*
Y0443602D03*
Y0438602D03*
Y0433602D03*
Y0428602D03*
Y0423602D03*
Y0418602D03*
Y0413602D03*
X0438091Y0448602D03*
Y0443602D03*
Y0438602D03*
Y0433602D03*
Y0428602D03*
Y0423602D03*
Y0418602D03*
Y0413602D03*
X0447441Y0153622D03*
Y0148622D03*
Y0143622D03*
Y0138622D03*
Y0133622D03*
Y0128622D03*
Y0123622D03*
Y0118622D03*
X0466339Y0153622D03*
Y0148622D03*
Y0143622D03*
Y0138622D03*
Y0133622D03*
Y0128622D03*
Y0123622D03*
Y0118622D03*
G54D12*
X0355512Y0234252D03*
X0361811D03*
X0321260Y0242520D03*
X0314961D03*
X0340157Y0112205D03*
X0346457D03*
X0133465Y0106693D03*
X0139764D03*
X0162008Y0224114D03*
X0168307D03*
X0162008Y0216240D03*
X0168307D03*
X0405413Y0243000D03*
X0399114D03*
X0405413Y0237094D03*
X0399114D03*
X0409055Y0255512D03*
X0402756D03*
X0409055Y0261417D03*
X0402756D03*
X0232283Y0439764D03*
X0238583D03*
X0480315Y0190551D03*
X0474016D03*
X0257087Y0214961D03*
X0263386D03*
X0480315Y0184646D03*
X0474016D03*
X0506299Y0187402D03*
X0500000D03*
X0432677Y0214173D03*
X0438976D03*
X0335827Y0277559D03*
X0342126D03*
X0175984Y0443504D03*
X0169685D03*
X0175984Y0436614D03*
X0169685D03*
X0175984Y0457284D03*
X0169685D03*
X0175984Y0450394D03*
X0169685D03*
X0142913Y0377953D03*
X0136614D03*
X0142913Y0385433D03*
X0136614D03*
X0142913Y0392913D03*
X0136614D03*
X0142913Y0400394D03*
X0136614D03*
X0142913Y0407874D03*
X0136614D03*
X0376181Y0401280D03*
X0369882D03*
X0287402Y0400787D03*
X0281102D03*
X0163484Y0172835D03*
X0169783D03*
X0174409Y0142520D03*
X0168110D03*
X0327559Y0178740D03*
X0333858D03*
X0372441Y0488583D03*
X0321457D03*
X0270472D03*
G54D13*
X0217323Y0266929D03*
Y0273228D03*
X0491339Y0211024D03*
Y0204724D03*
X0418504Y0188189D03*
Y0181890D03*
X0149606Y0113779D03*
Y0120079D03*
X0269291Y0220866D03*
Y0227165D03*
X0263386Y0220866D03*
Y0227165D03*
X0419291Y0292520D03*
Y0286220D03*
X0390158Y0320472D03*
Y0314173D03*
X0384252Y0320472D03*
Y0314173D03*
X0378347Y0320472D03*
Y0314173D03*
X0372441Y0320472D03*
Y0314173D03*
X0396063D03*
Y0320472D03*
X0401969D03*
Y0314173D03*
X0407874Y0320472D03*
Y0314173D03*
X0109055Y0219291D03*
Y0225591D03*
X0150000Y0147638D03*
Y0141339D03*
X0180315Y0125492D03*
Y0119193D03*
X0186220D03*
Y0125492D03*
X0131496Y0360335D03*
Y0325295D03*
Y0290256D03*
Y0255118D03*
X0498032Y0135039D03*
X0131496Y0206693D03*
Y0163386D03*
G54D14*
X0496850Y0204331D03*
Y0210236D03*
X0103543Y0219291D03*
Y0225197D03*
G54D15*
X0393307Y0187795D03*
X0399606D03*
X0188091Y0404232D03*
X0181791D03*
X0390551Y0274016D03*
X0396850D03*
X0411319Y0240244D03*
X0417618D03*
X0414961Y0258268D03*
X0421260D03*
X0348031Y0252362D03*
X0341732D03*
X0342126Y0283465D03*
X0335827D03*
X0390551Y0268110D03*
X0396850D03*
X0327165Y0343307D03*
X0333465D03*
X0263386Y0233071D03*
X0257087D03*
X0269291D03*
X0275591D03*
X0480315Y0178740D03*
X0474016D03*
X0506299Y0181496D03*
X0500000D03*
X0438976Y0220079D03*
X0432677D03*
X0243307Y0243701D03*
X0237008D03*
X0243701Y0273917D03*
X0237402D03*
X0269291Y0312598D03*
X0262992D03*
X0251181Y0237795D03*
X0244882D03*
X0287795Y0314173D03*
X0294094D03*
X0292913Y0231102D03*
X0286614D03*
X0243701Y0266831D03*
X0237402D03*
X0314173Y0412598D03*
X0307874D03*
X0314173Y0427165D03*
X0307874D03*
X0224606Y0427067D03*
X0218307D03*
X0224606Y0411713D03*
X0218307D03*
X0174409Y0131299D03*
X0168110D03*
X0327559Y0161344D03*
X0333858D03*
X0327559Y0167248D03*
X0333858D03*
X0327559Y0172761D03*
X0333858D03*
X0327559Y0139370D03*
X0333858D03*
G54D16*
X0346063Y0106693D03*
X0340158D03*
X0164173Y0436614D03*
X0158268D03*
X0164173Y0443504D03*
X0158268D03*
X0164173Y0450394D03*
X0158268D03*
Y0457283D03*
X0164173D03*
G54D17*
X0133394Y0120592D03*
Y0116852D03*
Y0113111D03*
X0143630D03*
Y0116852D03*
Y0120592D03*
G54D18*
X0173228Y0424410D03*
X0151969D03*
G54D19*
X0174311Y0396752D03*
Y0390453D03*
X0189961Y0217027D03*
Y0223327D03*
X0361024Y0294882D03*
Y0301181D03*
X0383465Y0285827D03*
Y0292126D03*
X0425197Y0286221D03*
Y0292520D03*
X0230315Y0259055D03*
Y0252756D03*
X0322835Y0286220D03*
Y0292520D03*
Y0252756D03*
Y0259055D03*
X0329724Y0404035D03*
Y0397736D03*
X0240945Y0404134D03*
Y0397835D03*
X0437992Y0158661D03*
Y0164961D03*
Y0128346D03*
Y0122047D03*
Y0140551D03*
Y0134252D03*
X0475394Y0154331D03*
Y0148032D03*
X0437992Y0152756D03*
Y0146457D03*
X0191831Y0189764D03*
Y0183465D03*
X0197638Y0278839D03*
Y0272539D03*
X0159449Y0282382D03*
Y0288681D03*
Y0276476D03*
Y0270177D03*
Y0264272D03*
Y0257972D03*
Y0252067D03*
Y0245768D03*
X0159744Y0350394D03*
Y0356693D03*
X0197146Y0347638D03*
Y0341339D03*
X0159744Y0344488D03*
Y0338189D03*
Y0332283D03*
Y0325984D03*
Y0320079D03*
Y0313779D03*
X0409055Y0453051D03*
Y0459350D03*
Y0447146D03*
Y0440846D03*
Y0434941D03*
Y0428642D03*
Y0423130D03*
Y0416831D03*
X0207874Y0524114D03*
Y0517815D03*
X0169685Y0526870D03*
Y0533169D03*
Y0520965D03*
Y0514665D03*
Y0508760D03*
Y0502461D03*
Y0496457D03*
Y0490157D03*
X0447244Y0524114D03*
Y0517815D03*
X0409055Y0528642D03*
Y0534941D03*
Y0522343D03*
Y0516043D03*
Y0509744D03*
Y0503445D03*
Y0497539D03*
Y0491240D03*
X0447146Y0450394D03*
Y0444094D03*
X0207776Y0123622D03*
Y0117323D03*
G54D20*
X0183885Y0223825D03*
Y0216345D03*
X0174436D03*
Y0220085D03*
Y0223825D03*
G54D21*
X0394882Y0282480D03*
Y0301772D03*
G54D22*
X0325984Y0334646D03*
Y0324646D03*
X0334646D03*
Y0334646D03*
G54D23*
X0247835Y0214961D03*
X0240354Y0211220D03*
Y0218701D03*
G54D24*
X0243307Y0259449D03*
Y0250787D03*
X0237008D03*
Y0259449D03*
G54D25*
X0324409Y0427165D03*
Y0412598D03*
X0235630Y0426673D03*
Y0412106D03*
G54D26*
X0379527Y0232677D03*
Y0227165D03*
X0372441Y0232677D03*
Y0227165D03*
G54D27*
X0417126Y0119291D03*
X0359646Y0115354D03*
G54D28*
X0417421Y0137992D03*
G54D29*
X0417421Y0167126D03*
G54D30*
X0378976Y0177953D03*
X0383307D03*
X0387638D03*
X0391968D03*
X0396299D03*
X0400630D03*
X0404961D03*
X0409291D03*
G54D31*
X0370709Y0175689D03*
G54D32*
X0356890Y0171260D03*
G54D33*
X0356890Y0133661D03*
G54D34*
X0115748Y0402854D03*
Y0397859D03*
Y0392864D03*
Y0387869D03*
Y0382874D03*
X0127165Y0402854D03*
Y0397859D03*
Y0392864D03*
Y0387869D03*
Y0382874D03*
G54D35*
X0355315Y0252559D03*
X0357283D03*
X0359252D03*
X0361220D03*
X0363189D03*
X0365157D03*
X0367126D03*
X0369094D03*
X0371063D03*
X0373031D03*
X0375000D03*
X0376968D03*
Y0284449D03*
X0375000D03*
X0373031D03*
X0371063D03*
X0369094D03*
X0367126D03*
X0365157D03*
X0363189D03*
X0361220D03*
X0359252D03*
X0357283D03*
X0355315D03*
X0259449Y0242126D03*
X0261417D03*
X0263386D03*
X0265354D03*
X0267323D03*
X0269291D03*
X0271260D03*
X0273228D03*
X0275197D03*
X0277165D03*
X0279134D03*
X0281102D03*
X0283071D03*
X0285039D03*
X0287008D03*
X0288976D03*
X0290945D03*
X0292913D03*
X0294882D03*
X0296850D03*
X0298819D03*
X0300787D03*
X0302756D03*
X0304724D03*
X0306693D03*
Y0303543D03*
X0304724D03*
X0302756D03*
X0300787D03*
X0298819D03*
X0296850D03*
X0294882D03*
X0292913D03*
X0290945D03*
X0288976D03*
X0287008D03*
X0285039D03*
X0283071D03*
X0281102D03*
X0279134D03*
X0277165D03*
X0275197D03*
X0273228D03*
X0271260D03*
X0269291D03*
X0267323D03*
X0265354D03*
X0263386D03*
X0261417D03*
X0259449D03*
G54D36*
X0382087Y0257677D03*
Y0259646D03*
Y0261614D03*
Y0263583D03*
Y0265551D03*
Y0267520D03*
Y0269488D03*
Y0271457D03*
Y0273425D03*
Y0275394D03*
Y0277362D03*
Y0279331D03*
X0350197D03*
Y0277362D03*
Y0275394D03*
Y0273425D03*
Y0271457D03*
Y0269488D03*
Y0267520D03*
Y0265551D03*
Y0263583D03*
Y0261614D03*
Y0259646D03*
Y0257677D03*
X0252362Y0296457D03*
Y0294488D03*
Y0292520D03*
Y0290551D03*
Y0288583D03*
Y0286614D03*
Y0284646D03*
Y0282677D03*
Y0280709D03*
Y0278740D03*
Y0276772D03*
Y0274803D03*
Y0272835D03*
Y0270866D03*
Y0268898D03*
Y0266929D03*
Y0264961D03*
Y0262992D03*
Y0261024D03*
Y0259055D03*
Y0257087D03*
Y0255118D03*
Y0253150D03*
Y0251181D03*
Y0249213D03*
X0313779D03*
Y0251181D03*
Y0253150D03*
Y0255118D03*
Y0257087D03*
Y0259055D03*
Y0261024D03*
Y0262992D03*
Y0264961D03*
Y0266929D03*
Y0268898D03*
Y0270866D03*
Y0272835D03*
Y0274803D03*
Y0276772D03*
Y0278740D03*
Y0280709D03*
Y0282677D03*
Y0284646D03*
Y0286614D03*
Y0288583D03*
Y0290551D03*
Y0292520D03*
Y0294488D03*
Y0296457D03*
G54D37*
X0525197Y0186693D03*
Y0209646D03*
G54D38*
X0525197Y0194882D03*
Y0201496D03*
G54D39*
X0516142Y0188464D03*
Y0207874D03*
G54D40*
X0514724Y0193071D03*
Y0195630D03*
Y0198189D03*
Y0200748D03*
Y0203307D03*
G54D41*
X0182342Y0389567D03*
G54D42*
X0189114Y0389567D03*
Y0397638D03*
X0181555D03*
G54D43*
X0222736Y0136516D03*
X0211713D03*
G54D44*
X0261220Y0126323D03*
Y0133213D03*
G54D45*
X0219685Y0122638D03*
Y0106496D03*
G54D46*
X0250492Y0114961D03*
X0234547D03*
G54D47*
X0189665Y0137500D03*
G54D48*
X0181595Y0144390D03*
Y0142421D03*
Y0140453D03*
Y0138484D03*
Y0136516D03*
Y0134547D03*
Y0132579D03*
Y0130610D03*
X0197736Y0144390D03*
Y0142421D03*
Y0140453D03*
Y0138484D03*
Y0136516D03*
Y0134547D03*
Y0132579D03*
Y0130610D03*
G54D49*
X0314764Y0141063D03*
Y0146063D03*
Y0151063D03*
Y0156063D03*
Y0161063D03*
Y0166063D03*
G54D50*
X0288780Y0170709D03*
G54D51*
X0277559Y0141063D03*
G54D52*
X0277953Y0146063D03*
Y0151063D03*
Y0156063D03*
Y0161063D03*
Y0166063D03*
G54D53*
X0332283Y0146850D03*
Y0153248D03*
X0327461D03*
Y0146850D03*
G54D54*
X0261122Y0360531D02*
Y0364173D01*
Y0360531D02*
X0289764Y0331890D01*
X0298622Y0309547D02*
Y0322834D01*
X0239862Y0301083D02*
X0244488Y0296457D01*
X0233957Y0298637D02*
Y0302657D01*
Y0298637D02*
X0238934Y0293659D01*
X0236909Y0299860D02*
Y0302657D01*
Y0299860D02*
X0241022Y0295747D01*
X0239862Y0301083D02*
Y0302657D01*
X0217421Y0273327D02*
Y0277559D01*
X0237866Y0290551D02*
X0252362D01*
X0240073Y0292520D02*
X0252362D01*
X0242281Y0294488D02*
X0252362D01*
X0244488Y0296457D02*
X0252362D01*
X0236847Y0291571D02*
X0237866Y0290551D01*
X0238934Y0293659D02*
X0240073Y0292520D01*
X0241022Y0295747D02*
X0242281Y0294488D01*
X0357677Y0309252D02*
X0372441D01*
X0353543Y0304921D02*
Y0305020D01*
X0163484Y0172835D02*
Y0178917D01*
X0163681Y0179114*
X0174409Y0142520D02*
X0174508Y0142421D01*
X0181595*
X0367126Y0284449D02*
X0367224Y0284547D01*
X0359252Y0284449D02*
Y0290354D01*
X0334646Y0314961D02*
X0359252Y0290354D01*
X0334646Y0314961D02*
Y0324646D01*
X0434133Y0479921D02*
X0443307D01*
X0421535Y0467323D02*
X0434133Y0479921D01*
X0443307D02*
X0446457Y0483071D01*
Y0485827*
X0443583Y0488701D02*
X0446457Y0485827D01*
X0437795Y0488701D02*
X0443583D01*
X0181595Y0126772D02*
Y0130610D01*
X0180315Y0125492D02*
X0186220D01*
X0175689Y0132579D02*
X0181595D01*
X0202756Y0120669D02*
X0206342Y0117083D01*
X0202756Y0120669D02*
Y0131398D01*
X0201575Y0132579D02*
X0202756Y0131398D01*
X0197736Y0132579D02*
X0201575D01*
X0207776Y0117083D02*
Y0117323D01*
X0361220Y0403839D02*
X0366043D01*
X0383858Y0421654*
X0361220Y0406398D02*
X0365059D01*
X0381102Y0422441*
X0361220Y0421752D02*
X0372539D01*
X0378346Y0427559*
X0361220Y0424311D02*
X0371161D01*
X0375591Y0428740*
Y0454999*
X0396182Y0475591*
X0418110*
X0378346Y0427559D02*
Y0453858D01*
X0397323Y0472835*
X0419252*
X0381102Y0422441D02*
Y0452716D01*
X0398465Y0470079*
X0420393*
X0383858Y0421654D02*
Y0451575D01*
X0399606Y0467323*
X0421535*
X0418110Y0475591D02*
X0425197Y0482677D01*
Y0498425*
X0430472Y0503701*
X0437795*
X0430591Y0498701D02*
X0437795D01*
X0427953Y0496063D02*
X0430591Y0498701D01*
X0427953Y0481536D02*
Y0496063D01*
X0419252Y0472835D02*
X0427953Y0481536D01*
X0432677Y0493701D02*
X0437795D01*
X0430709Y0491732D02*
X0432677Y0493701D01*
X0430709Y0480394D02*
Y0491732D01*
X0420393Y0470079D02*
X0430709Y0480394D01*
X0334646Y0324646D02*
Y0325591D01*
X0330709Y0329528D02*
X0334646Y0325591D01*
X0295669Y0329528D02*
X0330709D01*
X0283071Y0316929D02*
X0295669Y0329528D01*
X0283071Y0303543D02*
Y0316929D01*
X0382087Y0279331D02*
Y0281693D01*
X0396063Y0309449D02*
Y0314173D01*
X0377414Y0273425D02*
X0382087D01*
X0376036Y0274803D02*
X0377414Y0273425D01*
X0376181Y0271457D02*
X0382087D01*
X0381988Y0269390D02*
X0382087Y0269488D01*
X0375000Y0284449D02*
Y0295866D01*
X0390158Y0311024*
Y0314173*
X0373031Y0284449D02*
Y0297047D01*
X0384252Y0308268*
Y0314173*
X0371063Y0284449D02*
Y0298622D01*
X0378347Y0305906*
X0309448Y0292520D02*
X0313779D01*
X0307480Y0290551D02*
X0309448Y0292520D01*
X0305118Y0290551D02*
X0307480D01*
X0305118Y0296457D02*
D01*
X0313779*
Y0278740D02*
X0320079D01*
X0473504Y0128622D02*
X0473622Y0128740D01*
X0475591Y0125591D02*
X0475886Y0125886D01*
Y0130020*
X0472284Y0133622D02*
X0475886Y0130020D01*
X0466339Y0133622D02*
X0472284D01*
X0466457Y0118504D02*
X0476378D01*
X0466339Y0118622D02*
X0466457Y0118504D01*
X0472440Y0120866D02*
D01*
Y0122835*
X0471654Y0123622D02*
X0472440Y0122835D01*
X0466339Y0123622D02*
X0471654D01*
X0437992Y0158661D02*
X0450787D01*
X0453543Y0155906*
Y0150787D02*
Y0155906D01*
X0451378Y0148622D02*
X0453543Y0150787D01*
X0447441Y0148622D02*
X0451378D01*
X0396299Y0171811D02*
X0396457Y0171654D01*
X0396299Y0171811D02*
Y0177953D01*
X0404961Y0175039D02*
Y0177953D01*
X0398819Y0168898D02*
X0404961Y0175039D01*
X0392913Y0168898D02*
X0398819D01*
X0387638Y0175433D02*
Y0177953D01*
X0383071Y0170866D02*
X0387638Y0175433D01*
X0243996Y0426181D02*
X0250000D01*
X0240551Y0255118D02*
X0252362D01*
X0237008Y0258661D02*
X0240551Y0255118D01*
X0245669Y0253150D02*
X0252362D01*
X0230709Y0259449D02*
X0237008D01*
X0243307Y0243701D02*
Y0250787D01*
X0247835Y0214961D02*
X0257087D01*
X0243307Y0250787D02*
X0245669Y0253150D01*
X0132111Y0397859D02*
X0134646Y0400394D01*
X0136614*
X0127165Y0392864D02*
X0136565D01*
X0127165Y0387869D02*
X0131422D01*
X0133858Y0385433*
X0136614*
X0127165Y0382874D02*
X0132087Y0377953D01*
X0136614*
X0275098Y0294193D02*
Y0303445D01*
X0275197Y0303543*
X0287992Y0297244D02*
Y0297493D01*
X0287008Y0298477D02*
X0287992Y0297493D01*
X0287008Y0298477D02*
Y0303543D01*
X0285039Y0297244D02*
Y0303543D01*
X0365157Y0284449D02*
Y0305610D01*
X0367126Y0284449D02*
Y0300984D01*
X0372441Y0306299*
Y0309252*
Y0314173*
X0344980Y0271457D02*
X0350197D01*
X0343799Y0270276D02*
X0344980Y0271457D01*
X0342815Y0270276D02*
X0343799D01*
X0305118Y0293504D02*
X0307382D01*
X0308366Y0294488*
X0313779*
X0277165Y0295768D02*
Y0303543D01*
Y0295768D02*
X0277854Y0295079D01*
Y0289862D02*
Y0295079D01*
X0277756Y0289764D02*
X0277854Y0289862D01*
X0281102Y0297835D02*
Y0303543D01*
Y0297835D02*
X0283268Y0295669D01*
Y0291831D02*
Y0295669D01*
X0279134Y0296752D02*
Y0303543D01*
Y0296752D02*
X0280512Y0295374D01*
Y0286909D02*
Y0295374D01*
X0340748Y0273130D02*
X0341043Y0273425D01*
X0350197*
X0350098Y0267421D02*
X0350197Y0267520D01*
X0341043Y0267421D02*
X0350098D01*
X0342845Y0264242D02*
Y0264396D01*
Y0264242D02*
X0342913Y0264173D01*
Y0264370*
X0344094Y0265551D02*
X0350197D01*
X0369094Y0278642D02*
Y0284449D01*
X0333957Y0291437D02*
X0344488D01*
X0330315Y0287795D02*
X0333957Y0291437D01*
X0330315Y0284941D02*
Y0287795D01*
X0327854Y0282480D02*
X0330315Y0284941D01*
X0320177Y0282480D02*
X0327854D01*
X0318012Y0284646D02*
X0320177Y0282480D01*
X0313779Y0284646D02*
X0318012D01*
X0306693Y0310039D02*
X0307283Y0310630D01*
X0304724Y0312247D02*
X0305196Y0312718D01*
X0302756Y0314454D02*
X0303108Y0314806D01*
X0300787Y0316661D02*
X0301020Y0316894D01*
X0304724Y0303543D02*
Y0312247D01*
X0302756Y0303543D02*
Y0314454D01*
X0300787Y0303543D02*
Y0316661D01*
X0306693Y0303543D02*
Y0310039D01*
X0357283Y0246654D02*
Y0252559D01*
X0356496Y0245866D02*
X0357283Y0246654D01*
X0359252Y0243898D02*
Y0252559D01*
X0267913Y0291043D02*
X0269291Y0292421D01*
Y0303543*
X0361220Y0245374D02*
Y0252559D01*
Y0245374D02*
X0362500Y0244094D01*
Y0240354D02*
Y0244094D01*
X0271260Y0296654D02*
Y0303543D01*
X0270965Y0296358D02*
X0271260Y0296654D01*
X0270965Y0284055D02*
Y0296358D01*
X0304330Y0286614D02*
X0313779D01*
X0301280Y0289665D02*
X0304330Y0286614D01*
X0301280Y0289665D02*
Y0296457D01*
X0312500Y0302854D02*
Y0310728D01*
X0312598Y0310827*
X0320866Y0334350D02*
X0321161Y0334646D01*
X0325984*
X0272835Y0290945D02*
X0273425Y0290354D01*
X0272835Y0290945D02*
Y0295571D01*
X0273228Y0295964*
Y0303543*
X0482835Y0193071D02*
X0514724D01*
X0480315Y0190551D02*
X0482835Y0193071D01*
X0480315Y0178740D02*
D01*
Y0184646*
Y0190551*
X0329921Y0222906D02*
Y0261220D01*
X0324212Y0266929D02*
X0329921Y0261220D01*
X0313779Y0266929D02*
X0324212D01*
X0326279Y0270866D02*
X0334350Y0262795D01*
X0313779Y0270866D02*
X0326279D01*
X0325295Y0268898D02*
X0332185Y0262008D01*
X0318110Y0268898D02*
X0325295D01*
X0327165Y0272835D02*
X0336319Y0263681D01*
X0313779Y0272835D02*
X0327165D01*
X0277165Y0242126D02*
Y0246272D01*
X0278149Y0247256*
Y0257087*
X0283071Y0248628D02*
X0284055Y0249612D01*
X0275197Y0242126D02*
Y0250000D01*
X0283071Y0242126D02*
Y0248628D01*
X0288976Y0303543D02*
Y0308957D01*
X0288287Y0309646D02*
X0288976Y0308957D01*
X0245079Y0413386D02*
X0250000D01*
X0244882Y0413189D02*
X0245079Y0413386D01*
X0235659Y0288583D02*
X0252362D01*
X0231004Y0293238D02*
X0235659Y0288583D01*
X0231004Y0293238D02*
Y0302657D01*
X0136614Y0387894D02*
X0138091Y0389370D01*
X0136614Y0385433D02*
Y0387894D01*
X0137795Y0396752D02*
X0159547D01*
X0136614Y0395571D02*
X0137795Y0396752D01*
X0136614Y0392913D02*
Y0395571D01*
X0188091Y0404232D02*
X0189114Y0403209D01*
X0188091Y0404232D02*
Y0409547D01*
X0173228Y0424410D02*
X0188091Y0409547D01*
X0137697Y0379134D02*
X0140354Y0381791D01*
X0181988*
X0186220Y0386024*
Y0393504*
X0189114Y0396398*
X0233451Y0286614D02*
X0252362D01*
X0219882Y0300184D02*
X0233451Y0286614D01*
X0219882Y0300184D02*
Y0394888D01*
X0205118Y0409652D02*
X0219882Y0394888D01*
X0233071Y0326575D02*
X0282579D01*
X0222736Y0316240D02*
X0233071Y0326575D01*
X0188642Y0326476D02*
X0194980D01*
X0234055Y0323622D02*
X0285532D01*
X0222638Y0312205D02*
X0234055Y0323622D01*
X0194961Y0321634D02*
X0194980Y0321654D01*
X0188484Y0321634D02*
X0194961D01*
X0252362Y0264961D02*
X0256890D01*
X0259350Y0262500*
X0209252Y0292323D02*
X0222736Y0278839D01*
X0209252Y0292323D02*
Y0363484D01*
X0189114Y0383622D02*
X0209252Y0363484D01*
X0189114Y0383622D02*
Y0389567D01*
X0263386Y0299409D02*
Y0303543D01*
X0261909Y0297933D02*
X0263386Y0299409D01*
X0257579Y0297933D02*
X0261909D01*
X0255709Y0299803D02*
X0257579Y0297933D01*
X0249606Y0299803D02*
X0255709D01*
X0261417Y0303543D02*
Y0307776D01*
X0259646Y0309547D02*
X0261417Y0307776D01*
X0254331Y0309547D02*
X0259646D01*
X0246457Y0301673D02*
X0254331Y0309547D01*
X0188583Y0258622D02*
X0193661D01*
X0210039Y0275000*
Y0287205*
X0188583Y0253622D02*
X0192500D01*
X0212795Y0273917*
Y0283563*
X0250000Y0408268D02*
X0255807D01*
X0252461Y0397835D02*
X0253346D01*
X0255217Y0399705*
Y0401673*
X0253740Y0403150D02*
X0255217Y0401673D01*
X0250000Y0403150D02*
X0253740D01*
X0254724Y0405709D02*
X0256004Y0404429D01*
X0250000Y0405709D02*
X0254724D01*
X0250000Y0410827D02*
X0257283D01*
X0258760Y0409350*
Y0399508D02*
Y0409350D01*
X0255020Y0395768D02*
X0258760Y0399508D01*
X0206004Y0322736D02*
Y0358169D01*
X0243898Y0426083D02*
X0243996Y0426181D01*
X0188484Y0311634D02*
X0194902D01*
X0206004Y0322736*
X0188484Y0316634D02*
X0196358D01*
X0203248Y0323524*
Y0360827*
X0242520Y0428937D02*
X0242717Y0428740D01*
X0250000*
X0294882Y0303543D02*
Y0309842D01*
X0295079Y0310039*
X0295472*
X0298819Y0299410D02*
Y0303543D01*
Y0299410D02*
X0299409Y0298819D01*
X0312992*
X0296850Y0303543D02*
Y0307775D01*
X0298622Y0309547*
X0261122Y0364173D02*
Y0417126D01*
X0254626Y0423622D02*
X0261122Y0417126D01*
X0250000Y0423622D02*
X0254626D01*
X0266437Y0400591D02*
X0272441D01*
X0181339Y0263622D02*
X0188583D01*
X0180610Y0268701D02*
X0188504D01*
X0169685Y0248622D02*
X0176575D01*
X0178863Y0246334*
X0266339Y0403150D02*
X0272441D01*
X0263583Y0405906D02*
X0266339Y0403150D01*
X0263583Y0405906D02*
Y0419685D01*
X0256201Y0427067D02*
X0263583Y0419685D01*
X0256201Y0427067D02*
Y0437008D01*
X0205098Y0488110D02*
X0256201Y0437008D01*
X0198425Y0488110D02*
X0205098D01*
X0267815Y0405709D02*
X0272441D01*
X0265551Y0407972D02*
X0267815Y0405709D01*
X0265551Y0407972D02*
Y0420866D01*
X0258366Y0428051D02*
X0265551Y0420866D01*
X0258366Y0428051D02*
Y0439075D01*
X0204331Y0493110D02*
X0258366Y0439075D01*
X0198425Y0493110D02*
X0204331D01*
X0268898Y0421063D02*
X0272441D01*
X0260728Y0429232D02*
X0268898Y0421063D01*
X0260728Y0429232D02*
Y0442126D01*
X0204744Y0498110D02*
X0260728Y0442126D01*
X0198425Y0498110D02*
X0204744D01*
X0269586Y0423622D02*
X0272441D01*
X0263091Y0430118D02*
X0269586Y0423622D01*
X0263091Y0430118D02*
Y0444882D01*
X0204862Y0503110D02*
X0263091Y0444882D01*
X0198425Y0503110D02*
X0204862D01*
X0230197Y0513110D02*
X0254724Y0488583D01*
X0198425Y0513110D02*
X0230197D01*
X0198425Y0508110D02*
X0225846D01*
X0243071D02*
X0262598Y0488583D01*
X0179626Y0493012D02*
X0187598D01*
X0179528Y0493110D02*
X0179626Y0493012D01*
X0179843Y0487795D02*
X0187500D01*
X0361220Y0401280D02*
X0369882D01*
X0338779Y0403839D02*
X0347047D01*
X0349606Y0406398D02*
D01*
X0338779Y0408957D02*
X0352165D01*
X0341634Y0394488D02*
X0348425Y0401280D01*
X0361220*
X0312992Y0298819D02*
X0325295Y0311122D01*
X0325492*
X0431281Y0438602D02*
X0438091D01*
X0431201Y0438522D02*
X0431281Y0438602D01*
X0431201Y0438484D02*
Y0438522D01*
X0431260Y0433602D02*
X0438091D01*
X0427165Y0437697D02*
X0431260Y0433602D01*
X0427165Y0437697D02*
Y0441142D01*
X0313779Y0268898D02*
X0318110D01*
X0466339Y0128622D02*
X0473504D01*
X0127165Y0397859D02*
X0132111D01*
X0338779Y0406398D02*
X0349606D01*
X0338878Y0411417D02*
X0344685D01*
X0342913Y0264370D02*
X0344094Y0265551D01*
X0353494Y0305069D02*
X0357677Y0309252D01*
X0353445Y0305020D02*
X0353543Y0304921D01*
X0353445Y0305020D02*
X0353494Y0305069D01*
X0206342Y0117083D02*
X0207776D01*
X0189114Y0396398D02*
Y0403209D01*
X0136614Y0379134D02*
X0137697D01*
X0338779Y0431988D02*
X0343799D01*
X0430807Y0413779D02*
X0437914D01*
X0438091Y0413602*
X0338779Y0434547D02*
X0346162D01*
X0430807Y0418799D02*
X0437894D01*
X0338779Y0429429D02*
X0347441D01*
X0431319Y0423602D02*
X0438091D01*
X0347441Y0429429D02*
X0351378Y0433366D01*
X0338779Y0426870D02*
X0343012D01*
X0343406Y0427264*
X0349311*
X0354724Y0432677*
Y0434547*
X0431142Y0428602D02*
X0438091D01*
X0338779Y0424311D02*
X0343209D01*
X0354724Y0412795*
Y0411614D02*
Y0412795D01*
X0419193Y0410236D02*
Y0413602D01*
X0417717Y0408760D02*
X0419193Y0410236D01*
Y0418602D02*
X0424016D01*
X0426968Y0413779D02*
Y0415650D01*
X0424016Y0418602D02*
X0426968Y0415650D01*
X0304429Y0146161D02*
X0314665D01*
X0305315Y0150886D02*
X0314587D01*
X0292913Y0242126D02*
Y0247638D01*
X0294882Y0242126D02*
Y0249013D01*
X0295192Y0249323*
X0296850Y0242126D02*
Y0246752D01*
X0298031Y0247933*
X0305413Y0156201D02*
X0314626D01*
X0282382Y0275197D02*
X0284843D01*
X0308858Y0251181*
X0313779*
X0307185Y0249213D02*
X0313779D01*
X0281496Y0272146D02*
X0284252D01*
X0277461Y0276181D02*
X0281496Y0272146D01*
X0284252D02*
X0307185Y0249213D01*
X0275197Y0250000D02*
Y0255610D01*
X0281102Y0242126D02*
Y0257775D01*
X0284055Y0249612D02*
Y0258858D01*
X0298819Y0226083D02*
Y0242126D01*
X0175984Y0194095D02*
X0183937D01*
X0173130Y0179232D02*
X0183838D01*
X0183957Y0179114*
X0300787Y0224710D02*
Y0242126D01*
X0282018Y0205927D02*
Y0205941D01*
X0282108Y0205927D02*
X0282185Y0206004D01*
X0282018Y0205927D02*
X0282108D01*
X0278642Y0206102D02*
X0278839D01*
X0298819Y0226083*
X0282018Y0205941D02*
X0300787Y0224710D01*
X0346063Y0106693D02*
Y0111811D01*
X0168307Y0216240D02*
X0174331D01*
X0188583Y0243622D02*
X0195886D01*
X0491339Y0204724D02*
X0496457D01*
X0496850Y0210236D02*
Y0212992D01*
X0494882Y0214961D02*
X0496850Y0212992D01*
X0481201Y0214961D02*
X0494882D01*
X0468602Y0202362D02*
X0481201Y0214961D01*
X0292421Y0202362D02*
X0468602D01*
X0471752Y0192815D02*
X0474016Y0190551D01*
X0289370Y0192815D02*
X0471752D01*
X0252362Y0249213D02*
X0256594D01*
X0257198Y0248609*
X0169980Y0211614D02*
X0175098D01*
X0168307Y0213287D02*
X0169980Y0211614D01*
X0168307Y0213287D02*
Y0216240D01*
X0168596Y0223825D02*
X0174436D01*
X0168596D02*
Y0226470D01*
X0170472Y0228346*
X0179232*
X0188583Y0248622D02*
X0195374D01*
X0302756Y0242126D02*
Y0247047D01*
X0287697Y0254823D02*
X0294980D01*
X0302756Y0247047*
X0292028Y0257677D02*
X0295276D01*
X0304724Y0248229*
Y0242126D02*
Y0248229D01*
X0313779Y0253150D02*
X0318012D01*
X0319390Y0251772*
Y0247835D02*
Y0251772D01*
X0314961Y0243406D02*
X0319390Y0247835D01*
X0313780Y0228740D02*
X0314961Y0229921D01*
Y0243406*
X0271260Y0242126D02*
Y0246949D01*
X0336319Y0230917D02*
Y0263681D01*
X0338386Y0228740D02*
Y0228850D01*
X0379626Y0187500D02*
X0383307Y0183819D01*
X0336319Y0230917D02*
X0338386Y0228850D01*
X0383307Y0177953D02*
Y0183819D01*
X0334350Y0228642D02*
Y0262795D01*
Y0228642D02*
X0336221Y0226772D01*
X0332185Y0225689D02*
Y0262008D01*
Y0225689D02*
X0333226Y0224648D01*
X0329921Y0222906D02*
X0331138Y0221689D01*
X0332283Y0146850D02*
X0332677Y0146457D01*
X0337205*
X0279134Y0222441D02*
D01*
Y0242126D01*
X0418504Y0168209D02*
Y0181890D01*
X0417421Y0167126D02*
X0418504Y0168209D01*
X0235433Y0218799D02*
X0240256D01*
X0240354Y0218701*
X0293208Y0274803D02*
X0313779D01*
X0287992Y0280020D02*
X0293208Y0274803D01*
X0274016Y0280020D02*
X0287992D01*
X0263976Y0269980D02*
X0274016Y0280020D01*
X0263976Y0253248D02*
Y0269980D01*
X0257198Y0248240D02*
Y0248609D01*
X0262894Y0249311D02*
Y0250689D01*
X0252362Y0257087D02*
X0256496D01*
X0262894Y0250689*
X0252362Y0251181D02*
X0257185D01*
X0257972Y0251969*
X0131496Y0274508D02*
X0149803Y0256201D01*
Y0243110D02*
Y0256201D01*
Y0243110D02*
X0156890Y0236024D01*
X0175591*
X0178863Y0239296*
Y0246334*
X0174409Y0238386D02*
X0176280Y0240256D01*
Y0242126*
X0174784Y0243622D02*
X0176280Y0242126D01*
X0169685Y0243622D02*
X0174784D01*
X0131496Y0282382D02*
X0152165Y0261712D01*
X0158366Y0238386D02*
X0174409D01*
X0152165Y0244587D02*
Y0261712D01*
Y0244587D02*
X0158366Y0238386D01*
X0287008Y0235827D02*
Y0242126D01*
X0286319Y0235138D02*
X0287008Y0235827D01*
X0294980Y0214764D02*
X0381169D01*
X0414043Y0181890D02*
X0418504D01*
X0285039Y0237795D02*
Y0242126D01*
X0282677Y0235433D02*
X0285039Y0237795D01*
X0282480Y0235433D02*
X0282677D01*
X0336319Y0210827D02*
Y0210925D01*
Y0106496D02*
X0336516Y0106693D01*
X0340158*
X0294291Y0210925D02*
X0336319D01*
X0433740Y0229016D02*
X0434449D01*
X0427362Y0222638D02*
X0433740Y0229016D01*
X0427362Y0211811D02*
Y0222638D01*
Y0211811D02*
X0429429Y0209744D01*
X0435138*
X0438976Y0213583*
Y0214173*
X0426516Y0275945D02*
X0434449D01*
X0419291Y0283169D02*
X0426516Y0275945D01*
X0419291Y0283169D02*
Y0286220D01*
X0401969Y0312496D02*
Y0314173D01*
X0399035Y0309562D02*
X0401969Y0312496D01*
X0402086Y0309267D02*
X0403362D01*
X0407874Y0313779*
Y0314173*
X0391929Y0309252D02*
X0392028D01*
X0390158Y0311024D02*
X0391929Y0309252D01*
X0375492Y0308465D02*
X0378248D01*
X0378347Y0305906D02*
Y0314173D01*
X0367126Y0239567D02*
Y0252559D01*
X0361811Y0234252D02*
X0365960Y0238401D01*
X0367126Y0239567*
X0306693Y0242126D02*
X0306791Y0242028D01*
X0306693Y0235925D02*
Y0242126D01*
X0266142Y0251083D02*
X0267126D01*
X0271260Y0246949*
X0158268Y0457283D02*
X0161713Y0460728D01*
X0187598*
X0205118Y0443209*
Y0434744D02*
Y0443209D01*
Y0409652D02*
Y0434744D01*
X0158268Y0450394D02*
X0161713Y0453839D01*
X0187795*
X0202067Y0439567*
Y0409223D02*
Y0439567D01*
Y0409223D02*
X0217407Y0393883D01*
X0217421Y0393869*
Y0298469D02*
Y0393869D01*
Y0298469D02*
X0231244Y0284646D01*
X0252362*
X0158268Y0443504D02*
X0161713Y0446949D01*
X0187402*
X0199016Y0435335*
Y0408795D02*
Y0435335D01*
Y0408795D02*
X0214961Y0392850D01*
Y0296754D02*
Y0392850D01*
Y0296754D02*
X0229037Y0282677D01*
X0252362*
X0158268Y0436614D02*
X0161713Y0440059D01*
X0186909*
X0196161Y0430807*
Y0408169D02*
Y0430807D01*
Y0408169D02*
X0212598Y0391732D01*
Y0294940D02*
Y0391732D01*
Y0294940D02*
X0226830Y0280709D01*
X0252362*
X0162599Y0389370D02*
X0162697Y0389272D01*
X0138091Y0389370D02*
X0159929D01*
X0162599*
G54D55*
X0149606Y0140945D02*
X0150000Y0141339D01*
X0132677Y0140945D02*
X0149606D01*
X0150000Y0147638D02*
D01*
X0131496D02*
X0150000D01*
X0159744Y0309055D02*
Y0313779D01*
X0243701Y0273917D02*
Y0277461D01*
X0191831Y0189764D02*
X0195866D01*
X0191181Y0184114D02*
X0191634Y0183661D01*
X0183957Y0184114D02*
X0191181D01*
X0191831Y0189764D02*
X0192126Y0190059D01*
X0183957Y0189114D02*
X0191181D01*
X0191831Y0189764*
X0133327Y0189114D02*
X0164862D01*
X0286614Y0226378D02*
Y0231102D01*
X0292913Y0226378D02*
Y0231102D01*
X0475394Y0148032D02*
X0480315D01*
X0475394Y0154331D02*
X0480315D01*
X0466339Y0148622D02*
X0474803D01*
X0466339Y0153622D02*
X0474685D01*
X0186220Y0114173D02*
Y0119193D01*
X0129647Y0120592D02*
X0133394D01*
X0128740Y0119685D02*
X0129647Y0120592D01*
X0128740Y0118110D02*
X0129999Y0116852D01*
X0133394*
Y0120592D02*
X0143630D01*
X0133394Y0116852D02*
X0143630D01*
X0149093Y0120592D02*
X0149606Y0120079D01*
X0143630Y0120592D02*
X0149093D01*
X0133394Y0106763D02*
Y0113111D01*
X0139764Y0106693D02*
X0143701Y0102756D01*
X0145669*
X0154331Y0109055D02*
Y0110630D01*
X0115748Y0155512D02*
X0131496Y0139764D01*
X0115748Y0155512D02*
Y0179528D01*
X0120335Y0184114*
X0131496Y0139764D02*
X0132677Y0140945D01*
X0131496Y0190945D02*
X0133327Y0189114D01*
X0409055Y0486221D02*
Y0491240D01*
X0383465Y0285827D02*
X0386811Y0282480D01*
X0322835Y0259055D02*
X0327559D01*
X0322835Y0252756D02*
X0327559D01*
X0322835Y0286220D02*
X0327559D01*
X0322835Y0292520D02*
X0327559D01*
X0334252Y0275984D02*
X0335827Y0277559D01*
X0331102Y0275984D02*
X0334252D01*
X0388386Y0301772D02*
X0394882D01*
X0384646Y0298032D02*
X0388386Y0301772D01*
X0383465Y0292126D02*
Y0296850D01*
X0384646Y0298032*
X0391968Y0177953D02*
Y0186457D01*
X0393307Y0187795*
X0400630Y0177953D02*
Y0186772D01*
X0399606Y0187795D02*
X0400630Y0186772D01*
X0388189Y0187795D02*
X0393307D01*
X0399606D02*
X0404331D01*
X0230315Y0246555D02*
Y0252756D01*
X0233169Y0243701D02*
X0237008D01*
X0333366Y0285925D02*
X0335827Y0283465D01*
X0243701Y0266831D02*
Y0270374D01*
Y0273917*
X0214370Y0411713D02*
X0218307D01*
X0214370Y0427067D02*
X0218307D01*
X0240945Y0397835D02*
X0241240Y0397539D01*
X0159449Y0288681D02*
X0163681D01*
X0159449Y0241339D02*
Y0245768D01*
X0159744Y0356693D02*
X0163779D01*
X0188484Y0341634D02*
X0196851D01*
X0188484Y0346634D02*
X0196142D01*
X0197146Y0347638*
Y0338090D02*
Y0341339D01*
Y0338090D02*
X0198425Y0336811D01*
X0188484Y0346634D02*
Y0350197D01*
D01*
X0307776Y0422736D02*
X0307874Y0422638D01*
X0307776Y0412500D02*
X0307874Y0412598D01*
X0307776Y0408071D02*
Y0412500D01*
X0188583Y0278622D02*
X0197421D01*
X0197638Y0278839*
X0188583Y0273622D02*
X0196555D01*
X0197638Y0278839D02*
X0202559D01*
X0197638Y0272539D02*
X0202559D01*
X0174114Y0533169D02*
D01*
X0198425Y0523110D02*
X0206870D01*
X0207874Y0524114*
X0198425Y0518110D02*
X0207579D01*
X0207874Y0524114D02*
X0211713D01*
X0207874Y0517815D02*
X0211713D01*
X0169685Y0486024D02*
Y0490157D01*
X0376181Y0401280D02*
X0380118D01*
X0330413Y0397736D02*
X0333858D01*
X0438091Y0448602D02*
X0443681D01*
X0445473Y0450394*
X0447146*
X0438091Y0443602D02*
X0446654D01*
X0409055Y0459350D02*
X0413287D01*
X0409055Y0412500D02*
Y0416831D01*
X0132539Y0184114D02*
X0164862D01*
X0120335D02*
X0132539D01*
X0128740Y0118110D02*
Y0119685D01*
X0143630Y0113111D02*
X0151849D01*
X0154331Y0110630*
Y0105118D02*
Y0109055D01*
X0386811Y0282480D02*
X0394882D01*
X0437795Y0518701D02*
X0446358D01*
X0307874Y0422638D02*
Y0427165D01*
X0474016Y0174803D02*
Y0184646D01*
X0341732Y0248032D02*
Y0252362D01*
X0243996Y0397539D02*
X0245276D01*
X0237402Y0266831D02*
Y0277461D01*
X0230315Y0246555D02*
X0233169Y0243701D01*
X0191634Y0183661D02*
X0195866D01*
X0341732Y0248032D02*
Y0248425D01*
X0241240Y0397539D02*
X0243996D01*
X0169685Y0533169D02*
X0174114D01*
X0437795Y0523701D02*
X0446831D01*
X0191181Y0189114D02*
X0191831Y0189764D01*
X0239764Y0237795D02*
X0244882D01*
X0252362Y0233071D02*
X0257087D01*
X0275591Y0228543D02*
Y0233071D01*
X0235532Y0211220D02*
X0240354D01*
X0235531Y0211221D02*
X0235532Y0211220D01*
X0314764Y0166063D02*
X0326374D01*
X0327559Y0167248*
Y0178740D02*
D01*
Y0161344D02*
Y0172761D01*
Y0178740*
X0333858Y0161344D02*
Y0172761D01*
Y0167248D02*
X0338114D01*
X0333858Y0178740D02*
X0337795D01*
X0332283Y0153248D02*
X0336516D01*
X0327461Y0139468D02*
Y0146850D01*
Y0139468D02*
X0327559Y0139370D01*
X0333858D02*
X0338189D01*
X0314764Y0141063D02*
X0322520D01*
X0335827Y0112205D02*
X0340157D01*
X0335827D02*
D01*
X0162008Y0216240D02*
Y0224114D01*
X0193904Y0216345D02*
X0193996Y0216437D01*
X0183885Y0216345D02*
X0193904D01*
X0183885Y0223825D02*
X0189462D01*
X0189469Y0223819*
X0193996*
X0169396Y0220085D02*
X0174436D01*
X0486811Y0211024D02*
X0491339D01*
X0414075Y0188189D02*
X0418504D01*
X0405413Y0237094D02*
Y0240059D01*
Y0243000*
X0409055Y0255512D02*
Y0258477D01*
Y0261417*
X0421260Y0258268D02*
X0424606D01*
X0417618Y0240244D02*
X0421063D01*
X0432677Y0214173D02*
Y0220079D01*
Y0221063*
X0435630Y0224016*
X0439370*
X0444094Y0228740*
Y0237500*
X0419291Y0292520D02*
X0436319D01*
X0444094Y0284744*
Y0277461D02*
Y0284744D01*
X0425197Y0282087D02*
Y0286221D01*
X0367815Y0320472D02*
X0390158D01*
X0367815D02*
D01*
X0396063D02*
Y0324902D01*
D01*
X0401969Y0320472D02*
X0407874D01*
X0401969Y0323228D02*
X0404724Y0325984D01*
X0401969Y0320472D02*
Y0323228D01*
X0351575Y0230315D02*
X0355512Y0234252D01*
X0351575Y0230315D02*
D01*
X0379527Y0236410D02*
X0379546Y0236429D01*
X0379527Y0232677D02*
Y0236410D01*
X0372441Y0232283D02*
Y0236417D01*
Y0222933D02*
Y0227165D01*
X0109055Y0219291D02*
X0113484D01*
X0217225Y0266831D02*
X0217323Y0266929D01*
X0213189Y0266831D02*
X0217225D01*
X0321260Y0242520D02*
Y0245079D01*
X0323031Y0246850*
X0348031Y0249606D02*
Y0252362D01*
X0346457Y0248031D02*
X0348031Y0249606D01*
X0325984Y0321260D02*
Y0324646D01*
Y0321260D02*
X0328051Y0319193D01*
X0327165Y0343307D02*
Y0345965D01*
X0328642Y0347441*
X0334646Y0334646D02*
Y0342126D01*
X0333465Y0343307D02*
Y0347539D01*
Y0343307D02*
X0334646Y0342126D01*
X0358760Y0294882D02*
X0361024D01*
X0357382Y0296260D02*
X0358760Y0294882D01*
X0356496Y0301181D02*
X0361024D01*
X0356496D02*
D01*
X0396850Y0274016D02*
X0401280D01*
X0401378Y0274114*
X0396850Y0268110D02*
X0402165D01*
X0402264Y0268012*
X0437992Y0164961D02*
X0442028D01*
X0437992Y0117618D02*
Y0122047D01*
X0417421Y0137992D02*
X0422539D01*
X0111122Y0382874D02*
X0115748D01*
X0111122D02*
D01*
X0115748Y0392864D02*
Y0397859D01*
X0115576Y0398031D02*
X0115748Y0397859D01*
X0111024Y0398031D02*
X0115576D01*
X0111024Y0402854D02*
X0115748D01*
X0111024D02*
D01*
X0151969Y0424410D02*
X0158563D01*
X0158661Y0424311*
X0175984Y0436614D02*
X0180807D01*
X0175984Y0443504D02*
X0180709D01*
X0175984Y0450394D02*
X0180610D01*
X0180709Y0450295*
X0175984Y0457284D02*
X0180512D01*
X0240846Y0404035D02*
X0240945Y0404134D01*
X0235925Y0404035D02*
X0240846D01*
X0325000D02*
X0329724D01*
X0324902Y0404134D02*
X0325000Y0404035D01*
X0409055Y0534941D02*
X0412992D01*
X0447146Y0450394D02*
X0451772D01*
X0447146Y0444094D02*
X0451772D01*
Y0444095*
G54D56*
X0379527Y0227165D02*
Y0232677D01*
X0516142Y0182284D02*
Y0188464D01*
X0261220Y0133213D02*
Y0136811D01*
X0372441Y0227165D02*
Y0232677D01*
G54D57*
X0150492Y0312106D02*
X0156693Y0305906D01*
X0150492Y0312106D02*
Y0333464D01*
X0131496Y0352461D02*
X0150492Y0333464D01*
X0160236Y0350886D02*
X0174508D01*
X0177165Y0348228*
Y0344291D02*
Y0348228D01*
X0174508Y0341634D02*
X0177165Y0344291D01*
X0169587Y0341634D02*
X0174508D01*
X0161122Y0344488D02*
X0163268Y0346634D01*
X0169587*
X0161299Y0336634D02*
X0169587D01*
X0160394Y0331634D02*
X0169587D01*
X0160394Y0326634D02*
X0169587D01*
X0159744Y0320079D02*
X0161299Y0321634D01*
X0169587*
X0180374Y0331634D02*
X0188484D01*
X0176969Y0335039D02*
X0180374Y0331634D01*
X0176969Y0335039D02*
Y0337106D01*
X0181220Y0336634D02*
X0188484D01*
X0243701Y0277461D02*
X0244980Y0278740D01*
X0252362*
X0244587Y0274803D02*
X0252362D01*
X0244587D02*
X0244882Y0275099D01*
X0243701Y0273917D02*
X0244587Y0274803D01*
X0243701Y0266536D02*
Y0266831D01*
Y0266536D02*
X0247047Y0263189D01*
Y0262106D02*
Y0263189D01*
Y0262106D02*
X0248130Y0261024D01*
X0252362*
X0169783Y0172835D02*
X0174409D01*
X0377159Y0269488D02*
X0382087D01*
X0363189Y0284449D02*
Y0289567D01*
X0361024Y0291732D02*
X0363189Y0289567D01*
X0361024Y0291732D02*
Y0294882D01*
X0286614Y0231102D02*
X0288976Y0233464D01*
Y0242126*
X0290945Y0233071D02*
X0292913Y0231102D01*
X0290945Y0233071D02*
Y0242126D01*
X0447441Y0118622D02*
X0450787D01*
X0443268Y0138622D02*
X0447441D01*
X0506299Y0181496D02*
X0515354D01*
X0506299Y0187402D02*
X0515079D01*
X0197736Y0136516D02*
X0204035D01*
X0197736Y0138484D02*
X0203642D01*
X0409055Y0497539D02*
X0410217Y0498701D01*
X0418898*
X0409311Y0503701D02*
X0418898D01*
X0410099Y0508701D02*
X0418898D01*
X0409055Y0522343D02*
X0410413Y0523701D01*
X0418898*
X0409055Y0528642D02*
X0423720D01*
X0426772Y0525591*
Y0522047D02*
Y0525591D01*
X0423425Y0518701D02*
X0426772Y0522047D01*
X0418898Y0518701D02*
X0423425D01*
X0340945Y0488189D02*
Y0488583D01*
X0164173Y0457284D02*
X0169685D01*
X0164173Y0450394D02*
X0169685D01*
X0164173Y0443504D02*
X0169685D01*
X0164173Y0436614D02*
X0169685D01*
X0346457Y0283071D02*
X0350197Y0279331D01*
X0382087Y0267520D02*
X0389961D01*
X0382087Y0277362D02*
X0387599D01*
X0382087Y0275394D02*
X0386811D01*
X0388189Y0274016D02*
X0390551D01*
X0344291Y0275394D02*
X0350197D01*
X0343898Y0275787D02*
X0344291Y0275394D01*
X0342126Y0277559D02*
X0343898Y0275787D01*
X0350197Y0259646D02*
X0356102D01*
X0313779Y0255118D02*
X0319291D01*
X0321654Y0252756*
X0322835*
X0313779Y0257087D02*
X0319291D01*
X0321260Y0259055*
X0322835*
X0313779Y0288583D02*
X0320472D01*
X0322835Y0286220*
X0313779Y0290551D02*
X0320866D01*
X0322835Y0292520*
X0358465Y0279331D02*
X0368110Y0269685D01*
X0350197Y0279331D02*
X0358465D01*
X0378150Y0267520D02*
X0382087D01*
X0375591Y0264961D02*
X0378150Y0267520D01*
X0374705Y0277362D02*
X0382087D01*
X0375000Y0261614D02*
X0375591Y0261024D01*
X0396850Y0274016D02*
X0398425D01*
X0357283Y0284449D02*
Y0289173D01*
X0355512Y0290944D02*
X0357283Y0289173D01*
X0354724Y0290944D02*
X0355512D01*
X0355315Y0284449D02*
Y0290353D01*
X0354724Y0290944D02*
X0355315Y0290353D01*
X0348031Y0255512D02*
X0350197Y0257677D01*
X0348031Y0252362D02*
Y0255512D01*
X0466339Y0143622D02*
X0490866D01*
X0498032Y0150787*
X0466339Y0138622D02*
X0493740D01*
X0498032Y0142913*
X0447441Y0123622D02*
X0451968D01*
X0456299Y0127953*
Y0156299*
X0466535Y0166535*
X0498032*
X0447441Y0118622D02*
X0452087D01*
X0459055Y0125591*
Y0155118*
X0462598Y0158661*
X0498032*
X0438858Y0153622D02*
X0447441D01*
X0437992Y0152756D02*
X0438858Y0153622D01*
X0442205Y0143622D02*
X0447441D01*
X0439370Y0146457D02*
X0442205Y0143622D01*
X0437992Y0146457D02*
X0439370D01*
X0439921Y0138622D02*
X0447441D01*
X0437992Y0140551D02*
X0439921Y0138622D01*
X0438622Y0133622D02*
X0447441D01*
X0438268Y0128622D02*
X0447441D01*
X0263386Y0238189D02*
Y0242126D01*
X0262205Y0237008D02*
X0263386Y0238189D01*
X0251968Y0237008D02*
X0262205D01*
X0290945Y0303543D02*
Y0311614D01*
X0288583Y0313977D02*
X0290945Y0311614D01*
X0267323Y0303543D02*
Y0310630D01*
X0269291Y0312598*
X0265354Y0303543D02*
Y0310236D01*
X0262992Y0312598D02*
X0265354Y0310236D01*
X0262992Y0312598D02*
Y0316339D01*
X0269291Y0312598D02*
Y0316339D01*
X0127165Y0402854D02*
X0132185Y0407874D01*
X0136614*
X0142913D02*
X0146850D01*
X0142913Y0400394D02*
X0146850D01*
X0142913Y0392913D02*
X0146850D01*
X0142913Y0385433D02*
X0146850D01*
X0142913Y0377953D02*
X0146850D01*
X0252362Y0276772D02*
X0257776D01*
X0252362Y0268898D02*
X0257775D01*
X0248819Y0261024D02*
X0252362D01*
X0372835Y0263780D02*
X0375000Y0261614D01*
X0372835Y0263780D02*
Y0266437D01*
X0375295Y0268898*
X0376569*
X0377159Y0269488*
X0415059Y0493701D02*
X0418898D01*
X0412992Y0495768D02*
X0415059Y0493701D01*
X0415866Y0488701D02*
X0418898D01*
X0413091Y0485925D02*
X0415866Y0488701D01*
X0430236Y0513701D02*
X0437795D01*
X0430177Y0508701D02*
X0437795D01*
X0224606Y0427067D02*
X0235236D01*
X0241240Y0421063D02*
X0250000D01*
X0235630Y0426673D02*
X0241240Y0421063D01*
X0235236Y0427067D02*
X0235630Y0426673D01*
X0242028Y0418504D02*
X0250000D01*
X0235630Y0412106D02*
X0242028Y0418504D01*
X0224606Y0411713D02*
X0235236D01*
X0242323Y0414075D02*
X0244193Y0415945D01*
X0250000*
X0244980Y0400591D02*
X0250000D01*
X0272441D02*
X0280906D01*
X0287402Y0400787D02*
X0291437D01*
X0243898Y0431299D02*
X0250000D01*
X0238583Y0436614D02*
X0243898Y0431299D01*
X0238583Y0436614D02*
Y0439764D01*
X0232283Y0435532D02*
Y0439764D01*
X0411398Y0513701D02*
X0418898D01*
X0409055Y0516043D02*
X0411398Y0513701D01*
X0177067Y0404232D02*
X0181791D01*
X0162776Y0253622D02*
X0169685D01*
X0161220Y0252067D02*
X0162776Y0253622D01*
X0159449Y0252067D02*
X0161220D01*
X0160099Y0258622D02*
X0169685D01*
X0160099Y0263622D02*
X0169685D01*
X0161004Y0268622D02*
X0169685D01*
X0159449Y0270177D02*
X0161004Y0268622D01*
X0162382Y0278622D02*
X0169685D01*
X0160236Y0276476D02*
X0162382Y0278622D01*
X0159449Y0276476D02*
X0160236D01*
X0169685Y0273622D02*
X0174311D01*
X0176772Y0276083*
Y0279528*
X0173917Y0282382D02*
X0176772Y0279528D01*
X0159449Y0282382D02*
X0173917D01*
X0242323Y0407086D02*
Y0414075D01*
X0240945Y0405709D02*
X0242323Y0407086D01*
X0240945Y0404134D02*
Y0405709D01*
X0329823Y0421752D02*
X0338779D01*
X0324409Y0427165D02*
X0329823Y0421752D01*
X0314173Y0427165D02*
X0324409D01*
X0331004Y0419193D02*
X0338779D01*
X0324409Y0412598D02*
X0331004Y0419193D01*
X0314173Y0412598D02*
X0324409D01*
X0272441Y0418504D02*
X0278445D01*
X0292913Y0303543D02*
Y0312008D01*
X0173799Y0523110D02*
X0179528D01*
X0171654Y0520965D02*
X0173799Y0523110D01*
X0169685Y0520965D02*
X0171654D01*
X0172323Y0513110D02*
X0179528D01*
X0170768Y0514665D02*
X0172323Y0513110D01*
X0169685Y0514665D02*
X0170768D01*
X0170335Y0508110D02*
X0179528D01*
X0170335Y0503110D02*
X0179528D01*
X0173799Y0498110D02*
X0179528D01*
X0172146Y0496457D02*
X0173799Y0498110D01*
X0169685Y0496457D02*
X0172146D01*
X0179528Y0518110D02*
X0184744D01*
X0186909Y0520276*
Y0524311*
X0184350Y0526870D02*
X0186909Y0524311D01*
X0169685Y0526870D02*
X0184350D01*
X0329724Y0404035D02*
X0330906Y0405217D01*
Y0414075*
X0333465Y0416634*
X0338779*
X0334350Y0414075D02*
X0338779D01*
X0333284Y0413008D02*
X0334350Y0414075D01*
X0333284Y0412815D02*
Y0413008D01*
X0333957Y0401280D02*
X0338779D01*
X0329724Y0397736D02*
X0330413D01*
X0333957Y0401280*
X0361220Y0419193D02*
X0366634D01*
X0367421Y0418406*
X0410512Y0448602D02*
X0419193D01*
X0409055Y0447146D02*
X0410512Y0448602D01*
X0412480Y0438602D02*
X0419193D01*
X0410236Y0440846D02*
X0412480Y0438602D01*
X0409055Y0440846D02*
X0410236D01*
X0419193Y0443602D02*
X0423327D01*
X0426181Y0446457*
Y0449803*
X0422933Y0453051D02*
X0426181Y0449803D01*
X0409055Y0453051D02*
X0422933D01*
X0410394Y0433602D02*
X0419193D01*
X0409055Y0434941D02*
X0410394Y0433602D01*
X0409095Y0428602D02*
X0419193D01*
X0409528Y0423602D02*
X0419193D01*
X0338779Y0411516D02*
X0338878Y0411417D01*
X0387599Y0277362D02*
X0392717Y0282480D01*
X0342126Y0283071D02*
X0346457D01*
X0294882Y0313977D02*
Y0317815D01*
X0292913Y0312008D02*
X0294882Y0313977D01*
X0241929Y0397539D02*
X0244980Y0400591D01*
X0175197Y0389567D02*
X0182342D01*
X0375000Y0261614D02*
X0382087D01*
X0361811Y0294882D02*
Y0295276D01*
X0288583Y0313977D02*
Y0317815D01*
X0175197Y0397638D02*
X0181555D01*
X0327461Y0153248D02*
Y0153937D01*
X0320335Y0161063D02*
X0327461Y0153937D01*
X0314764Y0161063D02*
X0320335D01*
X0131496Y0344587D02*
X0146949Y0329134D01*
Y0310827D02*
Y0329134D01*
Y0310827D02*
X0155217Y0302559D01*
X0175689*
X0179921Y0306791*
Y0312992*
X0176280Y0316634D02*
X0179921Y0312992D01*
X0169587Y0316634D02*
X0176280D01*
X0156693Y0305906D02*
X0174409D01*
X0176476Y0307972*
Y0310531*
X0175374Y0311634D02*
X0176476Y0310531D01*
X0169803Y0311634D02*
X0175374D01*
X0169587Y0311417D02*
X0169803Y0311634D01*
X0169587Y0311417D02*
Y0311634D01*
X0382087Y0265551D02*
X0387402D01*
X0388583Y0264370*
X0382087Y0263583D02*
X0385630D01*
X0387598Y0261614*
X0382087Y0257677D02*
X0385236Y0254528D01*
X0382087Y0259646D02*
X0386023D01*
X0387795Y0257874*
X0386811Y0275394D02*
X0388189Y0274016D01*
X0368110Y0269685D02*
X0372047D01*
Y0274705D02*
X0374705Y0277362D01*
X0372047Y0269685D02*
Y0274705D01*
X0103543Y0220079D02*
X0109055Y0225591D01*
X0103543Y0219291D02*
Y0220079D01*
X0172835Y0136909D02*
X0173228Y0136516D01*
X0181595*
X0269291Y0237795D02*
X0270571Y0236516D01*
X0273721*
X0275591Y0234646*
Y0233071D02*
Y0234646D01*
X0269291Y0237795D02*
Y0242126D01*
X0516142Y0207874D02*
X0523425D01*
X0525197Y0186693D02*
Y0194882D01*
Y0201496*
Y0209646*
X0523425Y0188464D02*
X0525197Y0186693D01*
X0516142Y0188464D02*
X0523425D01*
G54D58*
X0204724Y0106496D02*
X0219685D01*
X0197736Y0113484D02*
X0204724Y0106496D01*
X0197736Y0113484D02*
Y0126673D01*
G54D59*
X0511416Y0195630D02*
X0514724D01*
X0510932Y0196114D02*
X0511416Y0195630D01*
Y0198189D02*
X0514724D01*
X0510932Y0197705D02*
X0511416Y0198189D01*
X0265059Y0209744D02*
X0277099Y0197705D01*
X0510932*
X0276440Y0196114D02*
X0510932D01*
X0267618Y0226772D02*
Y0239370D01*
X0265059Y0226575D02*
Y0239173D01*
Y0209744D02*
Y0222047D01*
X0267921Y0204633D02*
X0276440Y0196114D01*
X0267618Y0210138D02*
Y0221949D01*
G54D60*
X0405413Y0240059D02*
X0411134D01*
X0409055Y0258477D02*
X0414751D01*
G54D61*
X0388583Y0264370D02*
X0391535Y0261417D01*
X0402756*
X0398681Y0255512D02*
X0402756D01*
X0395374Y0258819D02*
X0398681Y0255512D01*
X0387598Y0261614D02*
X0390394Y0258819D01*
X0395374*
X0402756Y0262500D02*
X0405512Y0265256D01*
X0402756Y0261417D02*
Y0262500D01*
X0405512Y0265256D02*
X0421457D01*
X0427264Y0259449*
X0402756Y0254429D02*
Y0255512D01*
Y0254429D02*
X0405512Y0251673D01*
X0421890*
X0427067Y0256850*
X0427264Y0259449D02*
X0434075D01*
X0444094Y0269468*
X0427067Y0256850D02*
X0435151D01*
X0439777Y0261476*
X0444094*
X0385236Y0254528D02*
X0387461Y0252303D01*
Y0247349D02*
Y0252303D01*
Y0247349D02*
X0397715Y0237094D01*
X0399114*
Y0236220D02*
Y0237094D01*
Y0236220D02*
X0402067Y0233268D01*
X0417717*
X0429941Y0245492*
X0432303*
X0444094*
X0387795Y0257874D02*
X0390059Y0255610D01*
Y0248425D02*
Y0255610D01*
Y0248425D02*
X0395484Y0243000D01*
X0398020*
X0401851Y0246831*
X0401890*
X0401870Y0246850D02*
X0401890Y0246831D01*
X0401870Y0246850D02*
X0412008D01*
X0427625*
X0428865Y0248091*
X0437500*
X0442894Y0253484*
X0444094*
X0438976Y0220079D02*
X0444587D01*
X0500000Y0181496D02*
Y0187402D01*
X0494193D02*
X0500000D01*
X0379527Y0222933D02*
Y0227165D01*
Y0222933D02*
X0379528D01*
X0103543Y0225197D02*
Y0228445D01*
X0505551Y0200748D02*
X0514724D01*
X0503051Y0203307D02*
X0514724D01*
X0503051Y0203248D02*
X0505551Y0200748D01*
G54D62*
X0254429Y0112992D03*
G54D63*
X0222736Y0136516D03*
G54D64*
X0205167Y0137500D03*
G54D65*
X0210236Y0124016D03*
G54D66*
X0197736Y0128347D03*
G54D67*
X0223917Y0122638D03*
G54D68*
X0516535Y0113386D03*
X0451043Y0555905D03*
X0113386Y0113386D03*
X0314961D03*
X0159154Y0555905D03*
G54D69*
X0434449Y0229016D03*
Y0239016D03*
Y0275945D03*
Y0285945D03*
X0444094Y0237500D03*
Y0245492D03*
Y0253484D03*
Y0261476D03*
Y0269468D03*
Y0277461D03*
G54D70*
X0488110Y0282480D03*
Y0232480D03*
G54D71*
X0500591Y0289232D03*
Y0225728D03*
G54D72*
X0123228Y0366240D03*
Y0338681D03*
Y0303642D03*
Y0331201D03*
Y0296161D03*
Y0268602D03*
Y0233465D03*
Y0261024D03*
X0335039Y0496850D03*
X0378346D03*
X0327362D03*
X0284055D03*
X0233071D03*
X0276378D03*
X0506299Y0129134D03*
Y0172441D03*
X0123228Y0177165D03*
Y0212598D03*
Y0169291D03*
Y0133858D03*
G54D73*
X0131496Y0352461D03*
Y0344587D03*
Y0309547D03*
Y0317421D03*
Y0282382D03*
Y0274508D03*
Y0239370D03*
Y0247244D03*
X0340945Y0488583D03*
X0348819D03*
X0356693D03*
X0364567D03*
X0313583D03*
X0305709D03*
X0297835D03*
X0289961D03*
X0238976D03*
X0246850D03*
X0254724D03*
X0262598D03*
X0498032Y0142913D03*
Y0150787D03*
Y0158661D03*
Y0166535D03*
X0131496Y0183071D03*
Y0190945D03*
Y0198819D03*
Y0155512D03*
Y0147638D03*
Y0139764D03*
G54D74*
X0313780Y0228740D03*
G54D75*
X0323780Y0228740D03*
G54D76*
X0289764Y0331890D03*
X0298622Y0322834D03*
X0231004Y0302657D03*
X0233957D03*
X0236909D03*
X0239862D03*
X0217421Y0277559D03*
X0159744Y0309055D03*
X0176969Y0337106D03*
X0181220Y0336634D03*
X0236847Y0291571D03*
X0353543Y0305020D03*
X0174409Y0172835D03*
X0195866Y0189764D03*
Y0183661D03*
X0286614Y0226378D03*
X0292913D03*
X0480315Y0148032D03*
Y0154331D03*
X0516142Y0182284D03*
X0191339Y0154134D03*
X0191437Y0120669D03*
Y0147146D03*
Y0127953D03*
X0128346Y0118898D03*
X0145669Y0102756D03*
X0154331Y0105118D03*
Y0111024D03*
X0443701Y0523701D03*
Y0518701D03*
X0409055Y0486221D03*
X0356102Y0259646D03*
X0327559Y0259055D03*
Y0252756D03*
Y0286220D03*
Y0292520D03*
X0331102Y0275984D03*
X0382087Y0281693D03*
X0395571Y0309350D03*
X0387426Y0274778D03*
X0375591Y0264961D03*
X0375984Y0274803D03*
X0375197Y0271654D03*
X0384646Y0298032D03*
X0375591Y0261024D03*
X0354724Y0290944D03*
X0341732Y0248425D03*
X0305118Y0290551D03*
Y0293504D03*
Y0296457D03*
X0320079Y0278740D03*
X0473228Y0128740D03*
X0475591Y0125591D03*
X0476378Y0118504D03*
X0472440Y0120866D03*
X0388189Y0187795D03*
X0404331D03*
X0396457Y0171654D03*
X0392913Y0168898D03*
X0383070Y0170866D03*
X0267618Y0210138D03*
X0267520Y0204232D03*
X0230807Y0246063D03*
X0262992Y0316339D03*
X0269291D03*
X0288583Y0317815D03*
X0294882D03*
X0146850Y0407874D03*
Y0400394D03*
Y0392913D03*
Y0385433D03*
Y0377953D03*
X0257776Y0276772D03*
X0257775Y0268898D03*
X0237402Y0277461D03*
X0243701D03*
X0237402Y0270374D03*
X0243701D03*
X0285039Y0297244D03*
X0287992D03*
X0365157Y0305610D03*
X0277756Y0289764D03*
X0283268Y0291831D03*
X0275098Y0294193D03*
X0280512Y0286909D03*
X0342815Y0270276D03*
X0340748Y0273130D03*
X0341043Y0267421D03*
X0342815Y0264764D03*
X0333366Y0285925D03*
X0369094Y0278642D03*
X0344488Y0291437D03*
X0307283Y0310630D03*
X0305196Y0312718D03*
X0303108Y0314806D03*
X0301020Y0316894D03*
X0273425Y0290354D03*
X0356496Y0245866D03*
X0359252Y0243898D03*
X0267913Y0291043D03*
X0362500Y0240354D03*
X0270965Y0284055D03*
X0301280Y0296457D03*
X0312500Y0302854D03*
X0312598Y0310827D03*
X0320866Y0334350D03*
X0412992Y0495768D03*
X0413091Y0485925D03*
X0430236Y0513701D03*
X0430177Y0508701D03*
X0474016Y0174803D03*
X0277461Y0276181D03*
X0282382Y0275197D03*
X0288287Y0309646D03*
X0282579Y0326575D03*
X0285532Y0323622D03*
X0214370Y0411713D03*
Y0427067D03*
X0244882Y0413189D03*
X0245276Y0397539D03*
X0291437Y0400787D03*
X0232283Y0435532D03*
X0132087Y0408071D03*
X0131988Y0397835D03*
X0159547Y0396752D03*
X0178248Y0389567D03*
Y0397638D03*
X0177067Y0404232D03*
X0222736Y0316240D03*
X0194980Y0326476D03*
X0222638Y0312205D03*
X0194980Y0321654D03*
X0259350Y0262500D03*
X0222736Y0278839D03*
X0246457Y0301673D03*
X0210039Y0287205D03*
X0249606Y0299803D03*
X0212795Y0283563D03*
X0163681Y0288681D03*
X0159449Y0241339D03*
X0163779Y0356693D03*
X0198425Y0336811D03*
X0188484Y0350197D03*
X0255807Y0408268D03*
X0255020Y0395768D03*
X0252461Y0397835D03*
X0256004Y0404429D03*
X0206004Y0358169D03*
X0243898Y0426083D03*
X0203248Y0360827D03*
X0242520Y0428937D03*
X0307776Y0422736D03*
Y0408071D03*
X0278445Y0418504D03*
X0295472Y0310039D03*
X0266437Y0400591D03*
X0202559Y0278839D03*
Y0272539D03*
X0181339Y0263622D03*
X0180610Y0268701D03*
X0174114Y0533169D03*
X0211713Y0524114D03*
Y0517815D03*
X0169685Y0486024D03*
X0225846Y0508110D03*
X0243071D03*
X0187598Y0493012D03*
X0187500Y0487795D03*
X0380118Y0401280D03*
X0333284Y0412815D03*
X0333858Y0397736D03*
X0367421Y0418406D03*
X0344685Y0411417D03*
X0347047Y0403839D03*
X0349606Y0406398D03*
X0352165Y0408957D03*
X0341634Y0394488D03*
X0325492Y0311122D03*
X0413287Y0459350D03*
X0409055Y0412500D03*
X0431201Y0438484D03*
X0427165Y0441142D03*
X0343799Y0431988D03*
X0430807Y0413779D03*
X0346162Y0434547D03*
X0430807Y0418799D03*
X0351378Y0433366D03*
X0431319Y0423602D03*
X0354724Y0434547D03*
X0431142Y0428602D03*
X0354724Y0411614D03*
X0417717Y0408760D03*
X0426968Y0413779D03*
X0255807Y0237598D03*
X0239764Y0237795D03*
X0252362Y0233071D03*
X0275591Y0228543D03*
X0235531Y0211221D03*
X0338114Y0167248D03*
X0337795Y0178740D03*
X0336516Y0153248D03*
X0327461Y0143012D03*
X0338189Y0139370D03*
X0304429Y0146161D03*
X0305315Y0150886D03*
X0292224Y0248327D03*
X0295192Y0249323D03*
X0322520Y0141063D03*
X0298031Y0247933D03*
X0305413Y0156201D03*
X0275197Y0255610D03*
X0278149Y0257087D03*
X0281299Y0257972D03*
X0284350Y0259154D03*
X0175984Y0194095D03*
X0173130Y0179232D03*
X0282185Y0206004D03*
X0278642Y0206102D03*
X0335827Y0112205D03*
X0162008Y0220177D03*
X0193996Y0216437D03*
Y0223819D03*
X0169396Y0220085D03*
X0195886Y0243622D03*
X0486811Y0211024D03*
X0179232Y0228346D03*
X0175098Y0211614D03*
X0195374Y0248622D03*
X0287697Y0254823D03*
X0292028Y0257677D03*
X0289370Y0192815D03*
X0292421Y0202362D03*
X0338386Y0228740D03*
X0379626Y0187500D03*
X0336139Y0226684D03*
X0331138Y0221689D03*
X0333563Y0224213D03*
X0337205Y0146457D03*
X0279134Y0222441D03*
X0414075Y0188189D03*
X0235433Y0218799D03*
X0262894Y0249311D03*
X0263976Y0253248D03*
X0257198Y0248240D03*
X0257972Y0251969D03*
X0286319Y0235138D03*
X0294980Y0214764D03*
X0381169D03*
X0414043Y0181890D03*
X0282480Y0235433D03*
X0294291Y0210925D03*
X0336319Y0210827D03*
Y0106496D03*
X0411417Y0258477D03*
X0407480Y0240059D03*
X0424606Y0258268D03*
X0421063Y0240244D03*
X0432677Y0217126D03*
X0422244Y0292618D03*
X0425197Y0282087D03*
X0367815Y0320472D03*
X0396063Y0324902D03*
X0404724Y0325984D03*
X0398819Y0309350D03*
X0402165Y0309252D03*
X0372047Y0269685D03*
X0392028Y0309252D03*
X0375492Y0308465D03*
X0444587Y0220079D03*
X0365960Y0238401D03*
X0306791Y0235827D03*
X0351575Y0230315D03*
X0494193Y0187402D03*
X0379546Y0236429D03*
X0372441Y0236417D03*
X0379528Y0222933D03*
X0372441D03*
X0103543Y0228445D03*
X0113484Y0219291D03*
X0172835Y0136909D03*
X0266142Y0251083D03*
X0213189Y0266831D03*
X0323031Y0246850D03*
X0346457Y0248031D03*
X0328051Y0319193D03*
X0328642Y0347441D03*
X0333465Y0347539D03*
X0357382Y0296260D03*
X0356496Y0301181D03*
X0401378Y0274114D03*
X0402264Y0268012D03*
X0442028Y0164961D03*
X0437992Y0117618D03*
X0422539Y0137992D03*
X0111122Y0382874D03*
X0111024Y0398031D03*
Y0402854D03*
X0158661Y0424311D03*
X0180807Y0436614D03*
X0180709Y0443504D03*
Y0450295D03*
X0180512Y0457284D03*
X0235925Y0404035D03*
X0324902Y0404134D03*
X0412992Y0534941D03*
X0451772Y0450394D03*
Y0444095D03*
X0503051Y0203248D03*
X0162697Y0389272D03*
X0154430Y0564173D03*
X0150886Y0560630D03*
X0149705Y0555905D03*
X0150886Y0551181D03*
X0154430Y0547638D03*
X0159154Y0546457D03*
X0163879Y0547638D03*
X0167422Y0551181D03*
X0168603Y0555905D03*
X0167422Y0560630D03*
X0163879Y0564173D03*
X0159154Y0565354D03*
X0446319Y0564173D03*
X0442775Y0560630D03*
X0441594Y0555905D03*
X0442775Y0551181D03*
X0446319Y0547638D03*
X0451043Y0546457D03*
X0455767Y0547638D03*
X0459311Y0551181D03*
X0460492Y0555905D03*
X0459311Y0560630D03*
X0455767Y0564173D03*
X0451043Y0565354D03*
X0511811Y0121653D03*
X0508268Y0118110D03*
X0507087Y0113386D03*
X0508268Y0108661D03*
X0511811Y0105118D03*
X0516535Y0103937D03*
X0521260Y0105118D03*
X0524803Y0108661D03*
X0525984Y0113386D03*
X0524803Y0118110D03*
X0521260Y0121653D03*
X0516535Y0122835D03*
X0310236Y0121653D03*
X0306693Y0118110D03*
X0305512Y0113386D03*
X0306693Y0108661D03*
X0310236Y0105118D03*
X0314961Y0103937D03*
X0319685Y0105118D03*
X0323228Y0108661D03*
X0324409Y0113386D03*
X0323228Y0118110D03*
X0319685Y0121653D03*
X0314961Y0122835D03*
X0108661Y0121653D03*
X0105118Y0118110D03*
X0103937Y0113386D03*
X0105118Y0108661D03*
X0108661Y0105118D03*
X0113386Y0103937D03*
X0118110Y0105118D03*
X0121653Y0108661D03*
X0122835Y0113386D03*
X0121653Y0118110D03*
X0118110Y0121653D03*
X0113386Y0122835D03*
G54D77*
X0189665Y0140500D03*
Y0134500D03*
X0171555Y0118842D03*
X0220866Y0132283D03*
X0213681D03*
Y0140846D03*
X0261417Y0112205D03*
Y0118898D03*
X0220866Y0140846D03*
X0186220Y0114173D03*
X0261220Y0136811D03*
M02*