%FSDAX23Y23*%
%MOIN*%
%SFA1B1*%

%IPPOS*%
%AMD72*
1,1,0.086614,0.000000,0.000000*
1,0,0.066934,0.000000,0.000000*
4,0,4,0.027200,0.034100,-0.034100,-0.027100,-0.027200,-0.034100,0.034100,0.027100,0.027200,0.034100,0.0*
4,0,4,-0.027100,0.034100,0.034100,-0.027200,0.027100,-0.034100,-0.034100,0.027200,-0.027100,0.034100,0.0*
%
%AMD74*
1,1,0.084646,0.000000,0.000000*
1,0,0.064966,0.000000,0.000000*
4,0,4,0.026500,0.033400,-0.033400,-0.026400,-0.026500,-0.033400,0.033400,0.026400,0.026500,0.033400,0.0*
4,0,4,-0.026400,0.033400,0.033400,-0.026500,0.026400,-0.033400,-0.033400,0.026500,-0.026400,0.033400,0.0*
%
%AMD77*
1,1,0.074803,0.000000,0.000000*
1,0,0.055123,0.000000,0.000000*
4,0,4,0.023000,0.029900,-0.029900,-0.023000,-0.023000,-0.029900,0.029900,0.023000,0.023000,0.029900,0.0*
4,0,4,-0.023000,0.029900,0.029900,-0.023000,0.023000,-0.029900,-0.029900,0.023000,-0.023000,0.029900,0.0*
%
%AMD79*
1,1,0.070866,0.000000,0.000000*
1,0,0.051186,0.000000,0.000000*
4,0,4,0.021600,0.028500,-0.028500,-0.021600,-0.021600,-0.028500,0.028500,0.021600,0.021600,0.028500,0.0*
4,0,4,-0.021600,0.028500,0.028500,-0.021600,0.021600,-0.028500,-0.028500,0.021600,-0.021600,0.028500,0.0*
%
%ADD60C,0.055120*%
%ADD68C,0.040000*%
%ADD69C,0.007870*%
%ADD70C,0.062990*%
%ADD71C,0.047240*%
G04~CAMADD=72~12~0.0~0.0~0.0~0.0~0.0~0.0~0~866.1~669.3~0.0~45.0~4~98.4~0.0~0.0~0.0~0~0.0~0.0~0.0~0.0~866.1~866.1*
%ADD72D72*%
%ADD73C,0.045280*%
G04~CAMADD=74~12~0.0~0.0~0.0~0.0~0.0~0.0~0~846.5~649.7~0.0~45.0~4~98.4~0.0~0.0~0.0~0~0.0~0.0~0.0~0.0~846.5~846.5*
%ADD74D74*%
%ADD75C,0.137800*%
G04~CAMADD=77~12~0.0~0.0~0.0~0.0~0.0~0.0~0~748.0~551.2~0.0~45.0~4~98.4~0.0~0.0~0.0~0~0.0~0.0~0.0~0.0~748.0~748.0*
%ADD77D77*%
%ADD78C,0.031500*%
G04~CAMADD=79~12~0.0~0.0~0.0~0.0~0.0~0.0~0~708.7~511.9~0.0~45.0~4~98.4~0.0~0.0~0.0~0~0.0~0.0~0.0~0.0~708.7~708.7*
%ADD79D79*%
%ADD80C,0.035430*%
%LNapb-1*%
%LPD*%
G54D60*
X01327Y01394D03*
X01227D03*
X01127D03*
X00933Y01501D03*
X00890Y01355D03*
X00790D03*
X00690D03*
X01819Y01351D03*
X01719D03*
X01619D03*
X02701Y02813D03*
Y02913D03*
Y03013D03*
X02819Y02817D03*
Y02917D03*
Y03017D03*
G54D68*
X00228Y00209D02*
Y04934D01*
Y00209D02*
X02984D01*
Y04934*
X00228D02*
X02984D01*
G54D69*
X00950Y01896D02*
X01066D01*
X00809Y02036D02*
X00950Y01896D01*
X00809Y02036D02*
Y02152D01*
X02198Y01695D02*
Y01767D01*
X00824Y03141D02*
X02198Y01767D01*
X01066Y01896D02*
X01520D01*
Y01938D02*
X01660Y02078D01*
X01520Y01896D02*
Y01938D01*
X00684Y03149D02*
Y03299D01*
X00742Y03034D02*
Y03123D01*
X00717Y03149D02*
X00742Y03123D01*
X00684Y03149D02*
X00717D01*
X01900Y01318D02*
Y01338D01*
Y01318D02*
X01922Y01295D01*
X02005Y03741D02*
Y03864D01*
X02159Y04018*
X02595*
X02801D02*
Y04201D01*
X01998Y03738D02*
X02008Y03748D01*
X02595Y04018D02*
X02801D01*
X01731Y03484D02*
X01744Y03498D01*
X01731Y03086D02*
Y03484D01*
Y03086D02*
X01810Y03007D01*
X02398*
X02476Y03085*
Y03278*
X02005Y03452D02*
Y03741D01*
X01744Y03498D02*
X01998Y03244D01*
X02024Y03218*
X02416*
X02476Y03278*
Y03353*
X02438Y03391D02*
X02476Y03353D01*
X02066Y03391D02*
X02438D01*
X02005Y03452D02*
X02066Y03391D01*
X01998Y03452D02*
X02005D01*
X00656Y04677D02*
X00737D01*
X00601Y04622D02*
X00656Y04677D01*
X00601Y04530D02*
Y04622D01*
Y04530D02*
X00700Y04431D01*
X01319*
X01744Y04006*
Y03498D02*
Y04006D01*
X00737Y04677D02*
X01450D01*
X00317Y03493D02*
Y03498D01*
X00352Y03532*
X00824*
X02202Y00596D02*
Y01706D01*
X02113Y00508D02*
X02202Y00596D01*
X02004Y00508D02*
X02113D01*
X01996Y00516D02*
X02004Y00508D01*
X01996Y00516D02*
Y00885D01*
Y01125*
X02003Y01132*
Y01183D02*
Y01542D01*
X01294Y02360D02*
X01378D01*
X00600Y03384D02*
X00684Y03299D01*
X00336Y03384D02*
X00600D01*
X00317Y03402D02*
X00336Y03384D01*
X00317Y03402D02*
Y03477D01*
Y03493*
X02003Y01132D02*
Y01183D01*
Y01457D02*
Y01542D01*
Y01735*
X01378Y02360D02*
X02003Y01735D01*
X01030Y02360D02*
X01294D01*
X00938Y02452D02*
X01030Y02360D01*
X00910Y02580D02*
Y02866D01*
X00742Y03034D02*
X00910Y02866D01*
X02004Y00231D02*
X02011Y00224D01*
X00809Y02152D02*
Y02784D01*
X00585Y03009D02*
X00809Y02784D01*
X00585Y03009D02*
Y03383D01*
X00584Y03384D02*
X00585Y03383D01*
X00630Y01037D02*
X01365D01*
X00488Y01179D02*
X00630Y01037D01*
X00488Y01179D02*
Y01854D01*
X00479Y01864D02*
X00488Y01854D01*
X00479Y01864D02*
Y03136D01*
Y03384*
X01654Y01250D02*
X01703Y01200D01*
X00587Y01344D02*
Y01849D01*
X00529Y01907D02*
X00587Y01849D01*
X00529Y01907D02*
Y02867D01*
X00628Y02966*
X00717Y02865D02*
Y02877D01*
X00630Y02778D02*
X00717Y02865D01*
X00630Y01934D02*
Y02778D01*
Y01934D02*
X00719Y01845D01*
Y01356D02*
Y01845D01*
Y01356D02*
X00824Y01251D01*
X01648Y01157D02*
X01697Y01207D01*
X00706Y02000D02*
X00817Y01889D01*
X00706Y02000D02*
Y02854D01*
X00707Y02855*
X01766Y04361D02*
X02641D01*
X02801Y04201*
X01450Y04677D02*
X01766Y04361D01*
X01998Y03738D02*
Y03748D01*
X01833Y01405D02*
X01900Y01338D01*
X01436Y01405D02*
X01481D01*
X01833*
X01385Y01457D02*
X01436Y01405D01*
X00874Y01457D02*
X01385D01*
X00817Y01514D02*
X00874Y01457D01*
X00817Y01514D02*
Y01889D01*
X01922Y01274D02*
Y01295D01*
X01875Y01226D02*
X01922Y01274D01*
X01804Y01226D02*
X01875D01*
X01796Y01234D02*
X01804Y01226D01*
X01737Y01234D02*
X01796D01*
X01703Y01200D02*
X01737Y01234D01*
X01561Y01250D02*
X01654D01*
X00824Y01251D02*
X01401D01*
X00587Y01274D02*
X00704Y01157D01*
X00587Y01274D02*
Y01344D01*
X01402Y01250D02*
X01561D01*
X01549Y00578D02*
Y01157D01*
X01529Y00557D02*
X01549Y00578D01*
X01529Y00493D02*
Y00557D01*
X01486Y00451D02*
X01529Y00493D01*
X01461Y00451D02*
X01486D01*
X01445Y00466D02*
X01461Y00451D01*
X01445Y00466D02*
Y00795D01*
X01365Y00875D02*
X01445Y00795D01*
X01365Y00875D02*
Y01037D01*
X01549Y01157D02*
X01648D01*
X00708Y01153D02*
X01346D01*
X01365Y01134*
Y01037D02*
Y01134D01*
X00824Y03141D02*
Y03532D01*
X00920Y02470D02*
X00938Y02452D01*
X00910Y02480D02*
X00920Y02470D01*
X00910Y02480D02*
Y02580D01*
X00704Y01157D02*
X00708Y01153D01*
G54D70*
X01981Y04686D03*
X02256D03*
X01099D03*
X01453D03*
X01004Y04690D03*
X00650D03*
X01827Y00473D03*
X01551D03*
X00926Y00472D03*
X00651D03*
X01381Y00474D03*
X01106D03*
G54D71*
X02040Y04603D03*
X02118D03*
X02197D03*
X01158D03*
X01236D03*
X01394D03*
X00945Y04607D03*
X00788D03*
X00709D03*
X01768Y00556D03*
X01689D03*
X01610D03*
X00867Y00555D03*
X00789D03*
X00710D03*
X01322Y00557D03*
X01243D03*
X01165D03*
G54D72*
X01315Y04603D03*
X00866Y04607D03*
G54D73*
X01012Y03141D03*
X01212D03*
X01012Y03741D03*
X01212D03*
X01812D03*
X01912D03*
G54D74*
X01912Y03141D03*
X01812D03*
G54D75*
X02755Y04594D03*
X00393D03*
Y00857D03*
X02755D03*
G54D77*
X01493Y02384D03*
X00776Y03158D03*
X00806Y01199D03*
G54D78*
X02427Y02213D03*
X02401Y01983D03*
X02453Y02173D03*
X02443Y02262D03*
X00861Y01181D03*
X00770Y01193D03*
X01227Y01291D03*
X01681Y02341D03*
X01238Y02275D03*
X01487Y01865D03*
X01889Y02162D03*
X02229Y01689D03*
X00775Y02686D03*
X00304Y02903D03*
X00389Y02535D03*
X00375Y02997D03*
X00716Y03100D03*
X01489Y01301D03*
X00824Y01133D03*
X02126Y01616D03*
X02100Y01855D03*
X02232Y01970D03*
X02850Y01653D03*
X02566Y02659D03*
X01325Y01144D03*
X01324Y01001D03*
X01445Y00848D03*
X00988Y00745D03*
X00859Y00970D03*
X00711Y00801D03*
X02130Y01062D03*
X02778Y01737D03*
X01215Y02128D03*
X01214Y02086D03*
X01102Y02213D03*
X02281Y02032D03*
X02225Y02291D03*
X02191Y02271D03*
X02163Y02163D03*
X01260Y02431D03*
X02303Y04202D03*
Y04142D03*
X01585Y02410D03*
X02703Y03449D03*
X02098Y03541D03*
X00760Y01277D03*
X01054Y01349D03*
X01993Y01807D03*
X01334Y01768D03*
X01157Y01969D03*
X01276Y01772D03*
X01575Y01931D03*
X02136Y00615D03*
X01499Y01144D03*
X01459Y01082D03*
X01514Y01079D03*
X01010Y01317D03*
X01267Y01186D03*
X00598Y01087D03*
X01621Y03143D03*
X01081Y03005D03*
X02358Y02981D03*
X02607Y02751D03*
X02657Y02747D03*
X02311Y02762D03*
X02105Y02598D03*
X02052Y02585D03*
X02774Y02494D03*
X02601Y02385D03*
X02574Y02215D03*
X02518Y02149D03*
X02628Y02332D03*
X02720Y02442D03*
X02489Y01691D03*
X02567Y01755D03*
X02535Y01622D03*
X02570Y01568D03*
X02537Y03720D03*
X02433Y03818D03*
X02654Y03586D03*
X01915Y02588D03*
X02840Y02306D03*
X00833Y02062D03*
X00869Y02024D03*
X00871Y01878D03*
X01624Y01676D03*
X02536Y01218D03*
X02650Y01165D03*
X02615Y00620D03*
X02411Y01944D03*
X02593Y02070D03*
X02160Y02309D03*
X01468Y00973D03*
X02203Y01932D03*
X02418Y01499D03*
X02257Y01886D03*
X02438Y03507D03*
X02263Y03635D03*
X00291Y02775D03*
X02206Y00702D03*
X02235Y01257D03*
X02441Y03676D03*
X02534Y02930D03*
X02542Y02887D03*
X02834Y02372D03*
X02803Y01434D03*
X01872Y03623D03*
X02433Y03726D03*
X02431Y03584D03*
X01790Y01646D03*
X02255Y00494D03*
X01859Y02425D03*
X01753Y02379D03*
X01920Y02415D03*
X01857Y02494D03*
X02034Y02493D03*
X01915Y02463D03*
X02196Y02001D03*
X01819Y01711D03*
X02802Y01138D03*
X02701Y01083D03*
X01891Y01746D03*
X02078Y01609D03*
X02030Y01500D03*
X00410Y01132D03*
X00589Y04155D03*
X01031Y04239D03*
X02612Y00827D03*
X01686Y04224D03*
X01746Y04187D03*
X01875Y04200D03*
X01818Y04201D03*
X01158Y04369D03*
X02266Y02337D03*
X02227Y02361D03*
X02292Y02368D03*
X01771Y01758D03*
X02488Y02115D03*
X02601Y02178D03*
X02411Y01637D03*
X02355Y01732D03*
X02282Y01681D03*
X02703Y02717D03*
X01629Y03382D03*
X01626Y03322D03*
Y03284D03*
Y03247D03*
X02162Y00782D03*
X01014Y00818D03*
X01013Y00908D03*
X01468Y00780D03*
X01470Y00902D03*
X01011Y01170D03*
X01350Y02669D03*
X01171Y02138D03*
X01196Y02199D03*
X01141Y02163D03*
X01074Y02173D03*
X01059Y02256D03*
X01060Y02213D03*
X01450Y01774D03*
X01397Y01765D03*
X01218Y01768D03*
X01162Y01771D03*
X01100Y01769D03*
X01040Y01768D03*
X01299Y01232D03*
X02331Y02054D03*
X01705Y01935D03*
X01678Y01034D03*
X01024Y01007D03*
X01042Y01066D03*
X00559Y00946D03*
X01215Y01059D03*
X01039Y01133D03*
X01223Y01139D03*
X00762Y01022D03*
X00580Y01006D03*
X00764Y01096D03*
X01989Y02390D03*
X02026Y02383D03*
X01947Y02389D03*
X02085Y01814D03*
X01731Y02006D03*
X01657Y02950D03*
X01624Y02910D03*
X01589Y02878D03*
X01557Y02846D03*
X01434Y02939D03*
X01801Y02175D03*
X01401Y02695D03*
X01817Y02219D03*
X01463Y02754D03*
X01827Y02310D03*
X01474Y02792D03*
X01505Y02819D03*
X01865Y02270D03*
X00832Y02158D03*
X00711Y03940D03*
X01160D03*
X01436Y03942D03*
X01700Y00874D03*
X01755Y01002D03*
X01757Y01214D03*
X01711Y01242D03*
X01108Y00742D03*
X01891Y03948D03*
X01686Y01084D03*
X01674Y01139D03*
X01745Y01135D03*
X01747Y01083D03*
X01765Y01259D03*
X01270Y00949D03*
X01481Y01015D03*
X01867Y01527D03*
X02325Y00906D03*
X01463Y01345D03*
X01493Y01256D03*
X01511Y01516D03*
X01550Y01473D03*
X01946Y01244D03*
X00695Y01682D03*
X01213Y00979D03*
X02157Y02274D03*
G54D79*
X02466Y01939D03*
X01216Y01213D03*
X00954Y01954D03*
X01247Y02173D03*
X01719Y02414D03*
X00619Y03310D03*
X00677Y02709D03*
X00589Y01131D03*
X01246Y01102D03*
X01423Y01336D03*
X00976Y01300D03*
X01974Y01196D03*
X01502Y01211D03*
X00969Y02509D03*
X02178Y02118D03*
X02297Y02088D03*
X01274Y02787D03*
X02429Y01452D03*
X02716Y03401D03*
X02503Y03435D03*
X02114Y03698D03*
X01611Y01962D03*
X02159Y02028D03*
X02132Y01307D03*
X02127Y01024D03*
X02059Y00548D03*
X00573Y02590D03*
X00592Y02748D03*
X00643Y02888D03*
X02203Y02835D03*
X02436Y02933D03*
X02433Y02612D03*
X02619Y02035D03*
X02540Y01723D03*
X01814Y02809D03*
X02154Y03932D03*
X02667Y03723D03*
X02690Y03808D03*
X02122Y03265D03*
X02142Y03171D03*
X02137Y03349D03*
X02432Y03294D03*
X02439Y03137D03*
X02285Y03037D03*
X02795Y02203D03*
X01589Y01451D03*
X02325Y01099D03*
X02498Y01251D03*
X02643Y01002D03*
X02611Y00544D03*
X01223Y03938D03*
X00776Y03939D03*
X01348Y04272D03*
X00548Y03203D03*
X02692Y04189D03*
X02266Y03817D03*
X01728Y01668D03*
X01306Y01075D03*
X01476Y00510D03*
X00675Y01434D03*
X00916Y02213D03*
X01868Y01296D03*
X01379Y01976D03*
G54D80*
X02489Y02648D03*
X00866Y01104D03*
X00960Y01391D03*
X00859Y01675D03*
X00959Y01722D03*
X01652Y02163D03*
X00550Y03649D03*
X02767Y02040D03*
X01685Y00987D03*
X01745Y01472D03*
X00991Y02333D03*
X00886Y01726D03*
M02*